<?xml version="1.0" encoding="UTF-8"?>
<svg version="1.1" viewBox="0 0 48 48" xmlns="http://www.w3.org/2000/svg" xmlns:xlink="http://www.w3.org/1999/xlink">
    <!--Generated by IJSVG (https://github.com/curthard89/IJSVG)-->
    <g fill="none">
        <path d="M0,0h48v48h-48Z"></path>
        <path fill="#000000" d="M28,14h-2v-4c0,-5.52 -4.48,-10 -10,-10c-5.52,0 -10,4.48 -10,10v4h-2c-2.21,0 -4,1.79 -4,4v20c0,2.21 1.79,4 4,4h24c2.21,0 4,-1.79 4,-4v-20c0,-2.21 -1.79,-4 -4,-4Zm-12,18c-2.21,0 -4,-1.79 -4,-4c0,-2.21 1.79,-4 4,-4c2.21,0 4,1.79 4,4c0,2.21 -1.79,4 -4,4Zm6.2,-18h-12.4v-4c0,-3.42 2.78,-6.2 6.2,-6.2c3.42,0 6.2,2.78 6.2,6.2v4Z" transform="translate(8, 2)"></path>
    </g>
</svg>