<?xml version="1.0" encoding="UTF-8"?>
<svg width="147px" height="162px" viewBox="0 0 147 162" version="1.1" xmlns="http://www.w3.org/2000/svg" xmlns:xlink="http://www.w3.org/1999/xlink">
    <!-- Generator: Sketch 41.2 (35397) - http://www.bohemiancoding.com/sketch -->
    <title>Group 2</title>
    <desc>Created with Sketch.</desc>
    <defs></defs>
    <g id="Page-1" stroke="none" stroke-width="1" fill="none" fill-rule="evenodd">
        <g id="Badge" transform="translate(-170.000000, -157.000000)">
            <g id="Group" transform="translate(170.000000, 157.000000)">
                <g id="Group-2">
                    <path d="M127.189298,84.4217701 C127.189298,105.143928 109.656467,121.942557 88.0348878,121.942557 L44.7594141,121.942557 C30.5328825,121.942557 19,110.890082 19,97.254204 L19,35.0523139 C19,15.6934555 35.3802493,0 55.5749167,0 L60.7335274,0 C80.9332961,0 97.3084441,15.689199 97.3084441,35.0523139 L97.3084441,47.9593527 C114.456724,51.9494953 127.189298,66.7574358 127.189298,84.4217701 Z M41.8874499,47.394678 C36.3603103,47.394678 31.8796783,42.9152041 31.8796783,37.3973631 L31.8796783,35.5460085 C31.8796783,23.0053495 42.4917252,12.8360586 55.5749167,12.8360586 L60.7335274,12.8360586 C73.8215565,12.8360586 84.4287658,23.0008403 84.4287658,35.5460085 L84.4287658,41.4103056 C84.4287658,41.7587283 84.4287658,41.4103056 84.4287658,41.4103056 C84.4287658,44.7153832 79.9484601,47.394678 74.4209942,47.394678 L41.8874499,47.394678 Z M66.3972162,76.2221474 C66.3972162,72.0255547 62.8220306,68.6235441 58.4118156,68.6235441 C54.0016007,68.6235441 50.4264151,72.0255547 50.4264151,76.2221474 C50.4264151,80.0220916 52.9210201,81.4867312 52.9210201,81.4867312 C53.748394,82.2143445 54.4191133,83.6953797 54.4191135,84.8050432 L54.4191153,93.9240561 C54.4191153,96.0348227 56.2067081,97.7515233 58.4118156,97.7515233 C60.6124361,97.7515233 62.4045159,96.0379079 62.4045159,93.9240561 L62.4045159,84.8050442 C62.4045159,83.7000045 63.0999912,82.2483707 63.9026097,81.4867319 C63.9026097,81.4867319 66.3972162,80.0220916 66.3972162,76.2221474 Z" id="Combined-Shape" fill="#24B5AB"></path>
                    <path d="M0,131 L9.3384669,131 C10.2407387,131 11.1317188,131.102673 12.0114339,131.308023 C12.8911489,131.513373 13.6749858,131.848412 14.3629681,132.313152 C15.0509504,132.777891 15.6092227,133.377719 16.0378018,134.112656 C16.466381,134.847592 16.6806673,135.733825 16.6806673,136.771382 C16.6806673,138.068329 16.2972075,139.138293 15.5302765,139.981308 C14.7633454,140.824323 13.759583,141.429556 12.5189592,141.797024 L12.5189592,141.861871 C13.2633335,141.948334 13.9569446,142.148277 14.5998133,142.461706 C15.242682,142.775134 15.7896761,143.17502 16.240812,143.661375 C16.6919479,144.14773 17.0472121,144.709732 17.3066153,145.347397 C17.5660184,145.985062 17.6957181,146.671353 17.6957181,147.406289 C17.6957181,148.660004 17.4363188,149.702949 16.9175125,150.535156 C16.3987062,151.367363 15.7163733,152.037442 14.8704935,152.545413 C14.0246136,153.053384 13.0546859,153.415442 11.9606813,153.6316 C10.8666767,153.847758 9.75577118,153.955835 8.62793137,153.955835 L0,153.955835 L0,131 Z M4.26321315,140.337967 L8.15424102,140.337967 C9.57531918,140.337967 10.6411118,140.073178 11.3516509,139.543591 C12.06219,139.014005 12.4174542,138.316907 12.4174542,137.452276 C12.4174542,136.45795 12.0509117,135.717621 11.3178159,135.231266 C10.58472,134.744911 9.40614507,134.501738 7.78205575,134.501738 L4.26321315,134.501738 L4.26321315,140.337967 Z M4.26321315,150.454098 L8.18807605,150.454098 C8.72943915,150.454098 9.31026794,150.421674 9.93057983,150.356827 C10.5508917,150.29198 11.1204423,150.140672 11.6392486,149.902898 C12.1580549,149.665125 12.5866276,149.324681 12.9249795,148.881558 C13.2633315,148.438435 13.4325049,147.838606 13.4325049,147.082054 C13.4325049,145.871571 13.0208496,145.028568 12.1975265,144.553021 C11.3742034,144.077474 10.0941245,143.839704 8.35725117,143.839704 L4.26321315,143.839704 L4.26321315,150.454098 Z M35.6760484,153.955835 L31.8188556,153.955835 L31.8188556,151.459226 L31.7511855,151.459226 C31.36772,152.237394 30.7812521,152.912876 29.9917642,153.485694 C29.2022764,154.058512 28.1308446,154.344917 26.7774369,154.344917 C25.6947107,154.344917 24.775535,154.177397 24.0198823,153.842353 C23.2642297,153.507308 22.6495662,153.053384 22.1758735,152.480566 C21.7021807,151.907748 21.3638339,151.253881 21.1608227,150.518945 C20.9578116,149.784008 20.8563075,149.01666 20.8563075,148.216876 L20.8563075,138.392557 L24.9165105,138.392557 L24.9165105,146.271467 C24.9165105,146.703782 24.9390669,147.184726 24.9841805,147.714312 C25.0292941,148.243899 25.1477155,148.741054 25.3394483,149.205793 C25.5311811,149.670532 25.824415,150.05961 26.219159,150.373039 C26.6139029,150.686467 27.1721752,150.843179 27.8939927,150.843179 C28.5706966,150.843179 29.1402471,150.735102 29.6026615,150.518945 C30.0650758,150.302787 30.4485356,150.010978 30.7530523,149.64351 C31.057569,149.276042 31.2774945,148.854541 31.4128353,148.378994 C31.5481761,147.903447 31.6158454,147.406291 31.6158454,146.887513 L31.6158454,138.392557 L35.6760484,138.392557 L35.6760484,153.955835 Z M37.686247,141.699754 L37.686247,138.392557 L41.0359145,138.392557 L41.0359145,133.885691 L45.0961175,133.885691 L45.0961175,138.392557 L49.5623408,138.392557 L49.5623408,141.699754 L45.0961175,141.699754 L45.0961175,148.508688 C45.0961175,149.286856 45.2483736,149.902896 45.5528903,150.356827 C45.8574071,150.810758 46.4607923,151.03772 47.3630642,151.03772 C47.7239729,151.03772 48.1187109,150.999893 48.54729,150.924238 C48.9758692,150.848583 49.314216,150.724294 49.5623408,150.551368 L49.5623408,153.826141 C49.1337617,154.020683 48.609324,154.15578 47.9890121,154.231435 C47.3687002,154.30709 46.8217061,154.344917 46.3480134,154.344917 C45.2652872,154.344917 44.3799462,154.231436 43.6919639,154.00447 C43.0039817,153.777505 42.4626267,153.431658 42.0678827,152.966918 C41.6731388,152.502179 41.4024613,151.923966 41.2558421,151.232261 C41.109223,150.540557 41.0359145,149.740785 41.0359145,148.832923 L41.0359145,141.699754 L37.686247,141.699754 Z M50.1853033,141.699754 L50.1853033,138.392557 L53.5349708,138.392557 L53.5349708,133.885691 L57.5951738,133.885691 L57.5951738,138.392557 L62.0613971,138.392557 L62.0613971,141.699754 L57.5951738,141.699754 L57.5951738,148.508688 C57.5951738,149.286856 57.7474299,149.902896 58.0519466,150.356827 C58.3564634,150.810758 58.9598486,151.03772 59.8621205,151.03772 C60.2230292,151.03772 60.6177672,150.999893 61.0463464,150.924238 C61.4749255,150.848583 61.8132723,150.724294 62.0613971,150.551368 L62.0613971,153.826141 C61.632818,154.020683 61.1083803,154.15578 60.4880684,154.231435 C59.8677565,154.30709 59.3207624,154.344917 58.8470697,154.344917 C57.7643435,154.344917 56.8790025,154.231436 56.1910203,154.00447 C55.503038,153.777505 54.961683,153.431658 54.5669391,152.966918 C54.1721951,152.502179 53.9015176,151.923966 53.7548985,151.232261 C53.6082793,150.540557 53.5349708,149.740785 53.5349708,148.832923 L53.5349708,141.699754 L50.1853033,141.699754 Z M67.7934484,147.535983 C67.9287892,148.703235 68.4024748,149.611083 69.2145195,150.259557 C70.0265641,150.90803 71.00777,151.232261 72.1581666,151.232261 C73.1732225,151.232261 74.0247288,151.032319 74.712711,150.632427 C75.4006933,150.232535 76.0040786,149.729976 76.5228849,149.124734 L79.432697,151.232261 C78.4853116,152.356282 77.4251581,153.156053 76.2522047,153.6316 C75.0792513,154.107147 73.8499243,154.344917 72.5641869,154.344917 C71.34612,154.344917 70.1957406,154.150378 69.1130144,153.761294 C68.0302882,153.37221 67.0941952,152.821016 66.3047073,152.107696 C65.5152195,151.394375 64.8892778,150.535161 64.4268634,149.530028 C63.9644491,148.524894 63.7332454,147.406295 63.7332454,146.174196 C63.7332454,144.942097 63.9644491,143.823498 64.4268634,142.818364 C64.8892778,141.813231 65.5152195,140.954017 66.3047073,140.240696 C67.0941952,139.527376 68.0302882,138.976182 69.1130144,138.587098 C70.1957406,138.198014 71.34612,138.003475 72.5641869,138.003475 C73.6920268,138.003475 74.7239847,138.19261 75.6600917,138.570886 C76.5961988,138.949162 77.396953,139.494952 78.0623785,140.208273 C78.727804,140.921593 79.2466025,141.802423 79.6187897,142.850788 C79.9909768,143.899153 80.1770676,145.104214 80.1770676,146.466008 L80.1770676,147.535983 L67.7934484,147.535983 Z M76.1168646,144.617868 C76.0943078,143.472232 75.7221262,142.569787 75.0003087,141.910506 C74.2784913,141.251225 73.2747289,140.92159 71.9889915,140.92159 C70.7709245,140.92159 69.806636,141.256629 69.0960969,141.926718 C68.3855578,142.596807 67.951346,143.493848 67.7934484,144.617868 L76.1168646,144.617868 Z M83.2699869,138.392557 L87.3301899,138.392557 L87.3301899,140.856743 L87.39786,140.856743 C87.8489959,139.94888 88.491855,139.246378 89.3264564,138.749216 C90.1610579,138.252053 91.1197073,138.003475 92.2024335,138.003475 C92.4505583,138.003475 92.6930402,138.025091 92.9298866,138.068322 C93.1667329,138.111554 93.4092149,138.165592 93.6573396,138.23044 L93.6573396,141.991565 C93.3189877,141.905102 92.9862799,141.834852 92.6592064,141.780812 C92.3321328,141.726773 92.0107033,141.699754 91.6949082,141.699754 C90.7475227,141.699754 89.9862423,141.867273 89.411044,142.202318 C88.8358457,142.537362 88.3959948,142.921036 88.091478,143.353352 C87.7869613,143.785667 87.5839531,144.217976 87.4824476,144.650292 C87.380942,145.082607 87.3301899,145.406839 87.3301899,145.622997 L87.3301899,153.955835 L83.2699869,153.955835 L83.2699869,138.392557 Z M106.224066,143.06154 C105.750373,142.585993 105.254131,142.207723 104.735325,141.926718 C104.216519,141.645713 103.686442,141.505213 103.145079,141.505213 C102.400704,141.505213 101.735289,141.634905 101.148812,141.894295 C100.562336,142.153684 100.060454,142.499531 99.6431536,142.931846 C99.2258529,143.364162 98.9100625,143.861317 98.6957729,144.423327 C98.4814834,144.985337 98.3743402,145.568954 98.3743402,146.174196 C98.3743402,146.779438 98.4814834,147.363055 98.6957729,147.925065 C98.9100625,148.487075 99.2258529,148.98423 99.6431536,149.416546 C100.060454,149.848861 100.562336,150.194708 101.148812,150.454098 C101.735289,150.713487 102.400704,150.843179 103.145079,150.843179 C103.776669,150.843179 104.363137,150.718891 104.9045,150.470309 C105.445863,150.221728 105.908271,149.859669 106.291736,149.384122 L108.998538,152.172543 C108.592516,152.561627 108.124469,152.896666 107.594384,153.177671 C107.0643,153.458676 106.528584,153.685638 105.987221,153.858565 C105.445858,154.031491 104.927059,154.15578 104.43081,154.231435 C103.93456,154.30709 103.505987,154.344917 103.145079,154.344917 C101.927012,154.344917 100.776632,154.150378 99.6939062,153.761294 C98.61118,153.37221 97.675087,152.821016 96.8855991,152.107696 C96.0961112,151.394375 95.4701695,150.535161 95.0077552,149.530028 C94.5453409,148.524894 94.3141372,147.406295 94.3141372,146.174196 C94.3141372,144.942097 94.5453409,143.823498 95.0077552,142.818364 C95.4701695,141.813231 96.0961112,140.954017 96.8855991,140.240696 C97.675087,139.527376 98.61118,138.976182 99.6939062,138.587098 C100.776632,138.198014 101.927012,138.003475 103.145079,138.003475 C104.182691,138.003475 105.225928,138.19261 106.274819,138.570886 C107.32371,138.949162 108.242885,139.548991 109.032373,140.37039 L106.224066,143.06154 Z M125.557797,153.955835 L121.700605,153.955835 L121.700605,151.459226 L121.632934,151.459226 C121.249469,152.237394 120.663001,152.912876 119.873513,153.485694 C119.084025,154.058512 118.012594,154.344917 116.659186,154.344917 C115.57646,154.344917 114.657284,154.177397 113.901631,153.842353 C113.145979,153.507308 112.531315,153.053384 112.057622,152.480566 C111.58393,151.907748 111.245583,151.253881 111.042572,150.518945 C110.83956,149.784008 110.738056,149.01666 110.738056,148.216876 L110.738056,138.392557 L114.798259,138.392557 L114.798259,146.271467 C114.798259,146.703782 114.820816,147.184726 114.865929,147.714312 C114.911043,148.243899 115.029464,148.741054 115.221197,149.205793 C115.41293,149.670532 115.706164,150.05961 116.100908,150.373039 C116.495652,150.686467 117.053924,150.843179 117.775742,150.843179 C118.452445,150.843179 119.021996,150.735102 119.48441,150.518945 C119.946825,150.302787 120.330284,150.010978 120.634801,149.64351 C120.939318,149.276042 121.159243,148.854541 121.294584,148.378994 C121.429925,147.903447 121.497594,147.406291 121.497594,146.887513 L121.497594,138.392557 L125.557797,138.392557 L125.557797,153.955835 Z M129.462757,138.392557 L133.31995,138.392557 L133.31995,140.727049 L133.38762,140.727049 C133.974097,139.775955 134.763573,139.08426 135.756072,138.651945 C136.748571,138.21963 137.820003,138.003475 138.970399,138.003475 C140.211023,138.003475 141.327568,138.214226 142.320067,138.635733 C143.312566,139.057241 144.158433,139.635454 144.857694,140.37039 C145.556954,141.105327 146.087031,141.969944 146.44794,142.96427 C146.808849,143.958595 146.9893,145.02856 146.9893,146.174196 C146.9893,147.319832 146.79757,148.389797 146.414105,149.384122 C146.030639,150.378448 145.494923,151.243066 144.806941,151.978002 C144.118959,152.712938 143.290009,153.291151 142.320067,153.712659 C141.350125,154.134166 140.289971,154.344917 139.139574,154.344917 C138.372643,154.344917 137.69595,154.269263 137.109473,154.117953 C136.522996,153.966642 136.004198,153.772103 135.553062,153.53433 C135.101926,153.296556 134.718466,153.042575 134.402671,152.772377 C134.086876,152.50218 133.827477,152.237391 133.624465,151.978002 L133.52296,151.978002 L133.52296,161.348392 L129.462757,161.348392 L129.462757,138.392557 Z M142.929097,146.174196 C142.929097,145.568954 142.821954,144.985337 142.607665,144.423327 C142.393375,143.861317 142.077585,143.364162 141.660284,142.931846 C141.242983,142.499531 140.741102,142.153684 140.154625,141.894295 C139.568149,141.634905 138.902733,141.505213 138.158359,141.505213 C137.413984,141.505213 136.748569,141.634905 136.162092,141.894295 C135.575616,142.153684 135.073734,142.499531 134.656434,142.931846 C134.239133,143.364162 133.923343,143.861317 133.709053,144.423327 C133.494763,144.985337 133.38762,145.568954 133.38762,146.174196 C133.38762,146.779438 133.494763,147.363055 133.709053,147.925065 C133.923343,148.487075 134.239133,148.98423 134.656434,149.416546 C135.073734,149.848861 135.575616,150.194708 136.162092,150.454098 C136.748569,150.713487 137.413984,150.843179 138.158359,150.843179 C138.902733,150.843179 139.568149,150.713487 140.154625,150.454098 C140.741102,150.194708 141.242983,149.848861 141.660284,149.416546 C142.077585,148.98423 142.393375,148.487075 142.607665,147.925065 C142.821954,147.363055 142.929097,146.779438 142.929097,146.174196 Z" id="Buttercup" fill="#515151"></path>
                </g>
            </g>
        </g>
    </g>
</svg>