<?xml version="1.0" encoding="UTF-8"?>
<svg width="284px" height="284px" viewBox="0 0 284 284" version="1.1" xmlns="http://www.w3.org/2000/svg" xmlns:xlink="http://www.w3.org/1999/xlink">
    <!-- Generator: Sketch 47.1 (45422) - http://www.bohemiancoding.com/sketch -->
    <title>Group</title>
    <desc>Created with Sketch.</desc>
    <defs></defs>
    <g id="Page-1" stroke="none" stroke-width="1" fill="none" fill-rule="evenodd">
        <g id="Group">
            <rect id="Rectangle" fill="#2B2E4A" x="0" y="0" width="284" height="284"></rect>
            <g id="0160-files-empty" transform="translate(77.000000, 67.000000)" fill-rule="nonzero" fill="#30E3CA">
                <path d="M124.849333,52.4892143 C121.610667,48.0632857 117.093333,42.8794286 112.137333,37.9107857 C107.181333,32.9421429 102.010667,28.4132857 97.596,25.1663571 C90.0733333,19.6362857 86.424,19 84.3333333,19 L30.6666667,19 C24.236,19 19,24.2493571 19,30.6964286 L19,138.303571 C19,144.750643 24.236,150 30.6666667,150 L119.333333,150 C125.764,150 131,144.750643 131,138.303571 L131,65.7857143 C131,63.6897143 130.365333,60.0310714 124.849333,52.4892143 Z M105.529333,44.5356429 C110.009333,49.0270714 113.518667,53.0693571 116.113333,56.4285714 L93.6573333,56.4285714 L93.6573333,33.9246429 C97.008,36.5259286 101.049333,40.0442143 105.52,44.5356429 L105.52,44.5356429 L105.529333,44.5356429 Z M121.666667,138.303571 C121.666667,139.576143 120.602667,140.642857 119.333333,140.642857 L30.6666667,140.642857 C29.3973333,140.642857 28.3333333,139.576143 28.3333333,138.303571 L28.3333333,30.6964286 C28.3333333,29.4332143 29.3973333,28.3571429 30.6666667,28.3571429 C30.6666667,28.3571429 84.324,28.3571429 84.3333333,28.3571429 L84.3333333,61.1071429 C84.3333333,63.6897143 86.424,65.7857143 89,65.7857143 L121.666667,65.7857143 L121.666667,138.303571 Z" id="Shape"></path>
                <path d="M78.9141922,6.17738819 C71.3610703,0.637423971 67.6969629,0 65.5978322,0 L11.7138986,0 C5.2571977,0 0,5.25874776 0,11.7173524 L0,119.516995 C0,125.178819 4.02958112,129.91263 9.37111889,131 L9.37111889,11.7173524 C9.37111889,10.4518784 10.4487976,9.37388193 11.7138986,9.37388193 L83,9.37388193 C81.584961,8.21152057 80.2167777,7.14289803 78.904821,6.17738819 L78.9141922,6.17738819 Z" id="Shape"></path>
            </g>
        </g>
    </g>
</svg>