<?xml version="1.0" encoding="UTF-8"?>
<svg width="109px" height="122px" viewBox="0 0 109 122" version="1.1" xmlns="http://www.w3.org/2000/svg" xmlns:xlink="http://www.w3.org/1999/xlink">
    <!-- Generator: Sketch 43.2 (39069) - http://www.bohemiancoding.com/sketch -->
    <title>Combined Shape</title>
    <desc>Created with Sketch.</desc>
    <defs></defs>
    <g id="Page-1" stroke="none" stroke-width="1" fill="none" fill-rule="evenodd">
        <g id="Badge-&amp;-Simple-Logo" transform="translate(-289.000000, -57.000000)" fill="#24B5AB">
            <g id="Logo" transform="translate(270.000000, 57.000000)">
                <path d="M127.189298,84.4217701 C127.189298,105.143928 109.656467,121.942557 88.0348878,121.942557 L44.7594141,121.942557 C30.5328825,121.942557 19,110.890082 19,97.254204 L19,35.0523139 C19,15.6934555 35.3802493,0 55.5749167,0 L60.7335274,0 C80.9332961,0 97.3084441,15.689199 97.3084441,35.0523139 L97.3084441,47.9593527 C114.456724,51.9494953 127.189298,66.7574358 127.189298,84.4217701 Z M41.8874499,47.394678 C36.3603103,47.394678 31.8796783,42.9152041 31.8796783,37.3973631 L31.8796783,35.5460085 C31.8796783,23.0053495 42.4917252,12.8360586 55.5749167,12.8360586 L60.7335274,12.8360586 C73.8215565,12.8360586 84.4287658,23.0008403 84.4287658,35.5460085 L84.4287658,41.4103056 C84.4287658,41.7587283 84.4287658,41.4103056 84.4287658,41.4103056 C84.4287658,44.7153832 79.9484601,47.394678 74.4209942,47.394678 L41.8874499,47.394678 Z M66.3972162,76.2221474 C66.3972162,80.0220916 63.9026097,81.4867319 63.9026097,81.4867319 C63.0999912,82.2483707 62.4045159,83.7000045 62.4045159,84.8050442 L62.4045159,93.9240561 C62.4045159,96.0379079 60.6124361,97.7515233 58.4118156,97.7515233 C56.2067081,97.7515233 54.4191153,96.0348227 54.4191153,93.9240561 L54.4191135,84.8050432 C54.4191133,83.6953797 53.748394,82.2143445 52.9210201,81.4867312 C52.9210201,81.4867312 50.4264151,80.0220916 50.4264151,76.2221474 C50.4264151,72.0255547 54.0016007,68.6235441 58.4118156,68.6235441 C62.8220306,68.6235441 66.3972162,72.0255547 66.3972162,76.2221474 Z" id="Combined-Shape"></path>
            </g>
        </g>
    </g>
</svg>