<?xml version="1.0" standalone="no"?><!DOCTYPE svg PUBLIC "-//W3C//DTD SVG 1.1//EN" "http://www.w3.org/Graphics/SVG/1.1/DTD/svg11.dtd"><svg width="100%" height="100%" viewBox="0 0 48 48" version="1.1" xmlns="http://www.w3.org/2000/svg" xmlns:xlink="http://www.w3.org/1999/xlink" xml:space="preserve" style="fill-rule:evenodd;clip-rule:evenodd;stroke-linecap:round;stroke-linejoin:round;stroke-miterlimit:1.41421;"><g><path d="M30,41l-4,4l-4,0l-4,-4l0,-20l12,0l0,8l-2,2l2,2l0,2l-2,2l2,2l0,2Z" style="fill:#ffa000;fill-rule:nonzero;"/><path d="M38,7.8c-0.5,-1.8 -2,-3.1 -3.7,-3.6c-2.4,-0.5 -6.1,-1.2 -10.3,-1.2c-4.2,0 -7.9,0.7 -10.3,1.2c-1.7,0.5 -3.2,1.8 -3.7,3.6c-0.5,1.7 -1,4.1 -1,6.7c0,2.6 0.5,5 1,6.7c0.5,1.8 1.9,3.1 3.7,3.5c2.4,0.6 6.1,1.3 10.3,1.3c4.2,0 7.9,-0.7 10.3,-1.2c1.8,-0.4 3.2,-1.8 3.7,-3.5c0.5,-1.7 1,-4.1 1,-6.7c0,-2.7 -0.5,-5.1 -1,-6.8ZM29,13l-10,0c-1.1,0 -2,-0.9 -2,-2l0,-2c0,-0.6 3.1,-1 7,-1c3.9,0 7,0.4 7,1l0,2c0,1.1 -0.9,2 -2,2Z" style="fill:#ffa000;fill-rule:nonzero;"/></g><rect x="23" y="26" width="2" height="19" style="fill:#d68600;"/><g><path d="M44.686,22.102c0,-0.715 -0.581,-1.296 -1.296,-1.296l-23.146,0c-0.715,0 -1.295,0.581 -1.295,1.296l0,2.591c0,0.715 0.58,1.295 1.295,1.295l23.146,0c0.715,0 1.296,-0.58 1.296,-1.295l0,-2.591Z" style="fill:#000;stroke-width:3px;stroke:#000;"/><path d="M30.522,10.529c-0.716,0 -1.296,0.58 -1.296,1.295l0,23.146c0,0.715 0.58,1.296 1.296,1.296l2.591,0c0.715,0 1.295,-0.581 1.295,-1.296l0,-23.146c0,-0.715 -0.58,-1.295 -1.295,-1.295l-2.591,0Z" style="fill:#000;stroke-width:3px;stroke:#000;"/></g></svg>