<?xml version="1.0" encoding="utf-8"?>
<!-- Generator: Adobe Illustrator 17.0.0, SVG Export Plug-In . SVG Version: 6.00 Build 0)  -->
<!DOCTYPE svg PUBLIC "-//W3C//DTD SVG 1.1//EN" "http://www.w3.org/Graphics/SVG/1.1/DTD/svg11.dtd">
<svg version="1.1" id="Layer_1" xmlns="http://www.w3.org/2000/svg" xmlns:xlink="http://www.w3.org/1999/xlink" x="0px" y="0px"
	 width="48px" height="48px" viewBox="0 0 48 48" enable-background="new 0 0 48 48" xml:space="preserve">
<g>
	<path fill="#010101" d="M22.999,0C10.342,0,0.024,10.298,0,22.956C-0.012,29.1,2.369,34.88,6.705,39.232
		C11.04,43.585,16.812,45.988,22.956,46c0,0,0.044,0,0.045,0C35.658,46,45.976,35.702,46,23.044
		C46.024,10.362,35.727,0.024,22.999,0z M23.001,44v1l-0.042-1C11.38,43.978,1.977,34.539,2,22.96C2.022,11.402,11.442,2,23.04,2
		C34.62,2.023,44.022,11.461,44,23.041C43.977,34.598,34.558,44,23.001,44z"/>
	<path fill="#010101" d="M35.001,22.023L24,22.013V11c0-0.552-0.448-1-1-1s-1,0.448-1,1v11.011L10.814,22c-0.001,0-0.001,0-0.001,0
		c-0.552,0-1,0.447-1,0.999C9.812,23.551,10.26,24,10.812,24L22,24.011V35c0,0.552,0.448,1,1,1s1-0.448,1-1V24.013l11,0.01
		c0.552,0,0.999-0.447,1-0.999C36,22.472,35.553,22.023,35.001,22.023z"/>
</g>
<g id="nyt_x5F_exporter_x5F_info" display="none">
</g>
</svg>
