<?xml version="1.0" encoding="utf-8"?>
<!-- Generator: Adobe Illustrator 17.0.0, SVG Export Plug-In . SVG Version: 6.00 Build 0)  -->
<!DOCTYPE svg PUBLIC "-//W3C//DTD SVG 1.1//EN" "http://www.w3.org/Graphics/SVG/1.1/DTD/svg11.dtd">
<svg version="1.1" id="Layer_1" xmlns="http://www.w3.org/2000/svg" xmlns:xlink="http://www.w3.org/1999/xlink" x="0px" y="0px"
	 width="48px" height="48px" viewBox="0 0 48 48" enable-background="new 0 0 48 48" xml:space="preserve">
<g>
	<path fill="#231F20" d="M22.999,0C10.342,0,0.024,10.298,0,22.956C-0.012,29.1,2.369,34.88,6.705,39.232
		C11.04,43.585,16.811,45.988,22.956,46c0.001,0,0.045,0,0.045,0C35.658,46,45.976,35.702,46,23.044
		C46.024,10.362,35.727,0.024,22.999,0z M23.001,44v1l-0.041-1c-5.61-0.011-10.88-2.205-14.839-6.179
		C4.163,33.848,1.989,28.57,2,22.96C2.022,11.402,11.442,2,23.04,2C34.62,2.023,44.022,11.461,44,23.041
		C43.977,34.598,34.558,44,23.001,44z"/>
	<path fill="#231F20" d="M32.209,13.827c-0.39-0.392-1.022-0.394-1.414-0.003l-7.794,7.763l-7.763-7.793
		c-0.39-0.391-1.022-0.394-1.414-0.003c-0.391,0.39-0.393,1.023-0.002,1.414l7.763,7.793l-7.794,7.764
		c-0.391,0.39-0.393,1.023-0.002,1.414c0.195,0.196,0.451,0.294,0.708,0.294c0.255,0,0.511-0.097,0.706-0.292l7.794-7.763
		l7.763,7.793c0.195,0.196,0.451,0.294,0.708,0.294c0.255,0,0.51-0.097,0.706-0.291c0.391-0.39,0.393-1.023,0.002-1.414
		l-7.763-7.793l7.794-7.763C32.598,14.851,32.6,14.218,32.209,13.827z"/>
</g>
<g id="nyt_x5F_exporter_x5F_info" display="none">
</g>
</svg>
