<?xml version="1.0" encoding="utf-8"?>
<!-- Generator: Adobe Illustrator 19.0.0, SVG Export Plug-In . SVG Version: 6.00 Build 0)  -->
<svg version="1.1" id="Layer_1" xmlns="http://www.w3.org/2000/svg" xmlns:xlink="http://www.w3.org/1999/xlink" x="0px" y="0px"
	 viewBox="0 0 750 174" style="enable-background:new 0 0 750 174;" xml:space="preserve">
<style type="text/css">
	.st0{fill:#007EE5;}
</style>
<g id="XMLID_12_">
	<path id="XMLID_29_" class="st0" d="M210.5,37h36.2c31,0,50.6,20,50.6,51.2s-19.5,51.2-50.6,51.2h-36.2V37z M245.9,120.7
		c19.5,0,30.2-12.5,30.2-32.4c0-20-10.7-32.5-30.2-32.5h-14.2v64.9H245.9z"/>
	<path id="XMLID_27_" class="st0" d="M352.2,85.3c-2.8-1.7-6.5-2.5-10.4-2.5c-7,0-12.7,3.7-14.2,10.5v46.2H307V64.9h20.7v7.3
		c3.2-5.3,9.3-9,16.7-9c3.5,0,6.7,0.7,7.8,1.3V85.3z"/>
	<path id="XMLID_24_" class="st0" d="M393.5,141.2c-21.7,0-36.6-16-36.6-38.9c0-23,14.9-39.1,36.6-39.1c21.7,0,36.5,16,36.5,39.1
		C430,125.2,415.2,141.2,393.5,141.2z M393.5,80.8c-10.4,0-16,9-16,21.5c0,12.3,5.7,21.4,16,21.4c10.3,0,16-9,16-21.4
		C409.5,89.8,403.8,80.8,393.5,80.8z"/>
	<path id="XMLID_21_" class="st0" d="M459.6,167.1h-20.7V64.9h20.7v6.2c3.3-4,10.7-7.8,18.7-7.8c21.7,0,34,18,34,39.1
		c0,21-12.3,38.9-34,38.9c-8,0-15.4-3.8-18.7-7.8V167.1z M459.6,114.5c2.5,5.2,8,8.7,14,8.7c11.2,0,17.9-9,17.9-20.9
		c0-12-6.7-21-17.9-21c-6.2,0-11.5,3.7-14,8.7V114.5z"/>
	<path id="XMLID_18_" class="st0" d="M542.1,139.5h-20.9V31h20.9v40.1c3.3-4,10.7-7.8,18.7-7.8c21.7,0,33.9,17.7,33.9,39.1
		c0,21.4-12.2,38.9-33.9,38.9c-8,0-15.4-3.8-18.7-7.8V139.5z M542.1,114.5c2.3,5.2,7.8,8.7,14,8.7c11.2,0,17.9-9,17.9-20.9
		c0-12-6.7-21-17.9-21c-6,0-11.7,3.7-14,8.7V114.5z"/>
	<path id="XMLID_15_" class="st0" d="M638.7,141.4c-21.7,0-36.6-16-36.6-38.9c0-23,14.9-39.1,36.6-39.1c21.7,0,36.5,16,36.5,39.1
		C675.2,125.4,660.3,141.4,638.7,141.4z M638.7,81c-10.4,0-16,9-16,21.5c0,12.3,5.7,21.4,16,21.4c10.3,0,16-9,16-21.4
		C654.7,90,649,81,638.7,81z"/>
	<path id="XMLID_13_" class="st0" d="M721.7,101l27.2,38.6h-22.9l-16-23.4l-16.2,23.4h-21.7l26.9-38.1L673.7,65h22.9l14.4,21.2
		L725.6,65h21.7L721.7,101z"/>
</g>
<g id="XMLID_6_">
	<polygon id="XMLID_11_" class="st0" points="54.9,1.9 1,36.6 38.3,66.7 92.5,33.2 	"/>
	<polygon id="XMLID_10_" class="st0" points="1,96.1 54.9,131.5 92.5,100.2 38.3,66.7 	"/>
	<polygon id="XMLID_9_" class="st0" points="92.5,100.2 130.1,131.5 183.8,96.5 146.6,66.7 	"/>
	<polygon id="XMLID_8_" class="st0" points="183.8,36.9 130.1,1.9 92.5,33.2 146.6,66.7 	"/>
	<polygon id="XMLID_7_" class="st0" points="92.6,106.9 54.9,138.2 38.7,127.7 38.7,139.5 92.6,171.8 146.4,139.5 146.4,127.7 
		130.3,138.2 	"/>
</g>
</svg>
