<?xml version="1.0" encoding="UTF-8"?>
<svg version="1.1" viewBox="0 0 16 16" xmlns="http://www.w3.org/2000/svg" xmlns:xlink="http://www.w3.org/1999/xlink">
    <!--Generated by IJSVG (https://github.com/curthard89/IJSVG)-->
    <defs>
        <path id="path-1" d="M0,0h1v2h-1v-2Z"></path>
    </defs>
    <g fill="#000000">
        <use transform="translate(11, 6)" xlink:href="#path-1"></use>
        <path d="M13.5,5h-2.5v-2.5l-2.5,-2.5h-8c-0.275,0 -0.5,0.225 -0.5,0.5v10c0,0.275 0.225,0.5 0.5,0.5h4.5v4.5c0,0.275 0.225,0.5 0.5,0.5h10c0.275,0 0.5,-0.225 0.5,-0.5v-8l-2.5,-2.5Zm-0.5,0.5v3c0,0.275 -0.225,0.5 -0.5,0.5h-4c-0.275,0 -0.5,-0.225 -0.5,-0.5v-3h5Zm-8,4.5h-3v-2.5c0,-0.276 0.224,-0.5 0.5,-0.5h2.5v3Zm-1.5,-6c-0.275,0 -0.5,-0.225 -0.5,-0.5v-3h5v3c0,0.275 -0.225,0.5 -0.5,0.5h-4Zm10.5,11h-7v-2.5c0,-0.276 0.224,-0.5 0.5,-0.5h6c0.276,0 0.5,0.224 0.5,0.5v2.5Z"></path>
        <use transform="translate(6, 1)" xlink:href="#path-1"></use>
    </g>
</svg>