<svg width="109" height="122" viewBox="0 0 109 122" fill="none" xmlns="http://www.w3.org/2000/svg">
<path fill-rule="evenodd" clip-rule="evenodd" d="M108.189 84.4218C108.189 105.144 90.6565 121.943 69.0349 121.943H25.7594C11.5329 121.943 0 110.89 0 97.2542V35.0523C0 15.6935 16.3802 0 36.5749 0H41.7335C61.9333 0 78.3084 15.6892 78.3084 35.0523V47.9594C95.4567 51.9495 108.189 66.7574 108.189 84.4218ZM22.8875 47.3947C17.3603 47.3947 12.8797 42.9152 12.8797 37.3974V35.546C12.8797 23.0054 23.4917 12.8361 36.5749 12.8361H41.7335C54.8216 12.8361 65.4288 23.0008 65.4288 35.546V41.4103C65.4288 41.7587 65.4288 41.4103 65.4288 41.4103C65.4288 44.7154 60.9485 47.3947 55.421 47.3947H22.8875ZM47.3972 76.2221C47.3972 72.0256 43.822 68.6235 39.4118 68.6235C35.0016 68.6235 31.4264 72.0256 31.4264 76.2221C31.4264 80.0221 33.921 81.4867 33.921 81.4867C34.7484 82.2143 35.4191 83.6954 35.4191 84.805L35.4191 93.9241C35.4191 96.0348 37.2067 97.7515 39.4118 97.7515C41.6124 97.7515 43.4045 96.0379 43.4045 93.9241V84.805C43.4045 83.7 44.1 82.2484 44.9026 81.4867C44.9026 81.4867 47.3972 80.0221 47.3972 76.2221Z" fill="#24B5AB"/>
</svg>
