<?xml version="1.0" encoding="UTF-8"?>
<svg width="115px" height="75px" viewBox="0 0 115 75" version="1.1" xmlns="http://www.w3.org/2000/svg" xmlns:xlink="http://www.w3.org/1999/xlink">
    <!-- Generator: Sketch 43.1 (39012) - http://www.bohemiancoding.com/sketch -->
    <title>nextcloud</title>
    <desc>Created with Sketch.</desc>
    <defs></defs>
    <g id="Page-1" stroke="none" stroke-width="1" fill="none" fill-rule="evenodd">
        <g id="nextcloud" fill-rule="nonzero" fill="#0082C9">
            <path d="M57.756083,0.287711 C45.950834,0.287711 35.944896,8.290892 32.843731,19.1343 C30.148488,13.382792 24.307809,9.353378 17.580356,9.353378 C8.328532,9.353378 0.723279,16.958629 0.723279,26.210452 C0.723279,35.462277 8.328532,43.070998 17.580356,43.070998 C24.307809,43.070998 30.148488,39.039115 32.843731,33.286604 C35.944896,44.130828 45.950834,52.136668 57.756083,52.136668 C69.474028,52.136668 79.428938,44.251568 82.60942,33.529652 C85.35447,39.151579 91.12286,43.070998 97.75475,43.070998 C107.00658,43.070998 114.6153,35.462277 114.6153,26.210452 C114.6153,16.958629 107.00658,9.353378 97.75475,9.353378 C91.12286,9.353378 85.35447,13.270337 82.60942,18.891254 C79.428938,8.170172 69.474028,0.287711 57.756083,0.287711 Z M57.756083,10.183211 C66.667708,10.183211 73.786808,17.298854 73.786808,26.210452 C73.786808,35.122052 66.667708,42.241168 57.756083,42.241168 C48.844499,42.241168 41.728857,35.122052 41.728857,26.210452 C41.728857,17.298854 48.844499,10.183213 57.756083,10.183211 Z M17.580356,19.248881 C21.484734,19.248881 24.545399,22.306068 24.545399,26.210452 C24.545399,30.114837 21.484734,33.175497 17.580356,33.175497 C13.675967,33.175497 10.618775,30.114837 10.618775,26.210452 C10.618775,22.306068 13.675967,19.248881 17.580356,19.248881 L17.580356,19.248881 Z M97.75475,19.248881 C101.65915,19.248881 104.71979,22.306068 104.71979,26.210452 C104.71979,30.114837 101.65913,33.175497 97.75475,33.175497 C93.85038,33.175497 90.79319,30.114837 90.79319,26.210452 C90.79319,22.306068 93.8504,19.248881 97.75475,19.248881 L97.75475,19.248881 Z" id="XMLID_107_"></path>
            <g id="g4571" transform="translate(12.112480, 59.862745)">
                <path d="M17.7192544,4.18642819 C20.494527,4.18642819 22.0467982,6.16204599 22.0467982,9.12547269 C22.0467982,9.4077038 21.8116056,9.64289639 21.5293744,9.64289639 L14.0502499,9.64289639 C14.0972884,12.2770535 15.9317907,13.7822861 18.048524,13.7822861 C19.3656026,13.7822861 20.306373,13.2178238 20.7767581,12.8415157 C21.0589893,12.6533616 21.2941819,12.7004001 21.4352974,12.9826312 L21.576413,13.2178238 C21.7175285,13.4530164 21.67049,13.688209 21.4352974,13.8763631 C20.8708352,14.2997098 19.6478337,15.0052876 18.0014855,15.0052876 C14.9439818,15.0052876 12.5920558,12.7944772 12.5920558,9.59585788 C12.6390944,6.20908451 14.8969433,4.18642819 17.7192544,4.18642819 L17.7192544,4.18642819 Z M20.5886041,8.60804898 C20.494527,6.4442771 19.1774485,5.36239117 17.6722159,5.36239117 C15.9317907,5.36239117 14.4265581,6.49131562 14.0972884,8.60804898 L20.5886041,8.60804898 L20.5886041,8.60804898 Z" id="XMLID_121_"></path>
                <path d="M36.1726211,5.6916608 L36.1726211,4.51569782 L36.1726211,2.06969484 C36.1726211,1.7404252 36.3607752,1.55227113 36.6900448,1.55227113 L37.066353,1.55227113 C37.3956226,1.55227113 37.5367382,1.7404252 37.5367382,2.06969484 L37.5367382,4.51569782 L39.6534715,4.51569782 C39.9827412,4.51569782 40.1708952,4.7038519 40.1708952,5.03312153 L40.1708952,5.17423709 C40.1708952,5.50350672 39.9827411,5.64462228 39.6534715,5.64462228 L37.5367382,5.64462228 L37.5367382,10.8188594 C37.5367382,13.2178238 38.9949323,13.500055 39.7945871,13.5470935 C40.2179337,13.594132 40.3590493,13.688209 40.3590493,14.0645172 L40.3590493,14.3467483 C40.3590493,14.6760179 40.2179337,14.8171335 39.7945871,14.8171335 C37.5367382,14.8171335 36.1726211,13.4530164 36.1726211,11.0070134 L36.1726211,5.6916608 L36.1726211,5.6916608 Z" id="XMLID_119_"></path>
                <path d="M46.944442,4.18642819 C48.7319057,4.18642819 49.8608301,4.9390445 50.3782538,5.36239117 C50.6134464,5.55054524 50.660485,5.78573784 50.4252924,6.06796895 L50.2841768,6.30316155 C50.0960227,6.58539266 49.8608301,6.58539266 49.578599,6.39723858 C49.1082138,6.06796895 48.214482,5.4564682 46.9914805,5.4564682 C44.7336316,5.4564682 42.9461678,7.14985489 42.9461678,9.64289639 C42.9461678,12.0888994 44.7336316,13.7822861 46.9914805,13.7822861 C48.4496746,13.7822861 49.4374835,13.1237468 49.9078687,12.7004001 C50.1900998,12.5122461 50.3782538,12.5592846 50.5664079,12.8415157 L50.7075235,13.0296698 C50.848639,13.3119009 50.8016005,13.500055 50.5664079,13.7352475 C50.0489842,14.1585942 48.7789442,15.0523261 46.8974034,15.0523261 C43.8398997,15.0523261 41.4879738,12.8415157 41.4879738,9.64289639 C41.5350123,6.4442771 43.8869382,4.18642819 46.944442,4.18642819 Z" id="XMLID_117_"></path>
                <path d="M53.200565,0.846693342 C53.200565,0.517423709 53.0124109,0.329269633 53.3416805,0.329269633 L53.7179887,0.329269633 C54.0472583,0.329269633 54.564682,0.517423709 54.564682,0.846693342 L54.564682,12.0888994 C54.564682,13.4059779 55.1761828,13.5470935 55.646568,13.594132 C55.8817606,13.594132 56.0699146,13.7352475 56.0699146,14.0645172 L56.0699146,14.3937868 C56.0699146,14.7230564 55.9287991,14.9112105 55.5524909,14.9112105 C54.7057976,14.9112105 53.200565,14.6289794 53.200565,12.3711305 L53.200565,0.846693342 L53.200565,0.846693342 Z" id="XMLID_115_"></path>
                <path d="M62.8434614,4.18642819 C65.8539266,4.18642819 68.2999296,6.49131562 68.2999296,9.54881936 C68.2999296,12.6533616 65.8539266,15.0052876 62.8434614,15.0052876 C59.8329962,15.0052876 57.3869932,12.6533616 57.3869932,9.54881936 C57.3869932,6.49131562 59.8329962,4.18642819 62.8434614,4.18642819 L62.8434614,4.18642819 Z M62.8434614,13.7822861 C65.0542718,13.7822861 66.8417355,11.9948223 66.8417355,9.54881936 C66.8417355,7.19689341 65.0542718,5.4564682 62.8434614,5.4564682 C60.632651,5.4564682 58.7981488,7.24393193 58.7981488,9.54881936 C58.8451873,11.9477838 60.632651,13.7822861 62.8434614,13.7822861 Z" id="XMLID_112_"></path>
                <path d="M86.3156824,4.18642819 C88.8087239,4.18642819 89.7024557,6.25612303 89.7024557,6.25612303 L89.7494943,6.25612303 C89.7494943,6.25612303 89.7024557,5.92685339 89.7024557,5.4564682 L89.7024557,0.799654823 C89.7024557,0.47038519 89.5613402,0.282231114 89.8906098,0.282231114 L90.266918,0.282231114 C90.5961876,0.282231114 91.1136113,0.47038519 91.1136113,0.799654823 L91.1136113,14.2056327 C91.1136113,14.5349024 90.9724957,14.7230564 90.6432261,14.7230564 L90.3139565,14.7230564 C89.9846868,14.7230564 89.7965328,14.5819409 89.7965328,14.2526713 L89.7965328,13.4530164 C89.7965328,13.0767083 89.8906098,12.7944772 89.8906098,12.7944772 L89.8435713,12.7944772 C89.8435713,12.7944772 88.9498394,14.958249 86.2686438,14.958249 C83.4933712,14.958249 81.752946,12.7474386 81.752946,9.54881936 C81.658869,6.35020006 83.5874483,4.18642819 86.3156824,4.18642819 L86.3156824,4.18642819 Z M86.3627209,13.7822861 C88.1031461,13.7822861 89.7024557,12.5592846 89.7024557,9.59585788 C89.7024557,7.47912452 88.6205698,5.4564682 86.4097594,5.4564682 C84.5752572,5.4564682 83.0700246,6.96170081 83.0700246,9.59585788 C83.1170631,12.1359379 84.4341416,13.7822861 86.3627209,13.7822861 Z" id="XMLID_109_"></path>
                <path d="M0.47038519,14.770095 L0.846693342,14.770095 C1.17596298,14.770095 1.36411705,14.5819409 1.36411705,14.2526713 L1.36411705,4.15240288 C1.36411705,2.55309323 3.10454225,1.41115557 5.08016005,1.41115557 C7.05577785,1.41115557 8.79620305,2.55309323 8.79620305,4.15240288 L8.79620305,14.2526713 C8.79620305,14.5819409 8.98435713,14.770095 9.31362676,14.770095 L9.68993491,14.770095 C10.0192045,14.770095 10.1603201,14.5819409 10.1603201,14.2526713 L10.1603201,4.09235115 C10.1603201,1.41115557 7.47912452,0.094077038 5.03312153,0.094077038 L5.03312153,0.094077038 L5.03312153,0.094077038 L5.03312153,0.094077038 L5.03312153,0.094077038 C2.68119558,0.094077038 0,1.41115557 0,4.09235115 L0,14.2526713 C0,14.5819409 0.141115557,14.770095 0.47038519,14.770095 Z" id="XMLID_103_"></path>
                <path d="M78.9776734,4.42162079 L78.6013652,4.42162079 C78.2720956,4.42162079 78.0839415,4.60977486 78.0839415,4.93904449 L78.0839415,10.6307053 C78.0839415,12.2300149 77.0490941,13.688209 75.0264378,13.688209 C73.05082,13.688209 71.9689341,12.2300149 71.9689341,10.6307053 L71.9689341,4.93904449 C71.9689341,4.60977486 71.78078,4.42162079 71.4515104,4.42162079 L71.0752022,4.42162079 C70.7459326,4.42162079 70.604817,4.60977486 70.604817,4.93904449 L70.604817,11.0070134 C70.604817,13.688209 72.5804348,15.0052876 75.0264378,15.0052876 L75.0264378,15.0052876 L75.0264378,15.0052876 L75.0264378,15.0052876 L75.0264378,15.0052876 C77.4724408,15.0052876 79.4480586,13.688209 79.4480586,11.0070134 L79.4480586,4.93904449 C79.4950971,4.60977486 79.306943,4.42162079 78.9776734,4.42162079 L78.9776734,4.42162079 Z" id="XMLID_102_"></path>
                <path d="M32.4133982,4.34444845 C32.2981811,4.36284051 32.1875653,4.43974332 32.0817399,4.56586017 L30.1781498,6.83510087 L28.7532134,8.53289742 L26.5960566,5.96139754 L25.4256056,4.56586017 C25.3197806,4.43974238 25.1999392,4.37078297 25.0755731,4.36006665 C24.9512066,4.34935128 24.8222594,4.3966391 24.6961411,4.50246824 L24.4076628,4.74409194 C24.1554272,4.9557427 24.1684508,5.19008484 24.380103,5.44231996 L26.2846117,7.71156113 L27.8638933,9.59310189 L25.5514722,12.348346 C25.5497317,12.3504157 25.5486028,12.3527206 25.5468624,12.3547761 L24.3800865,13.7448011 C24.1684357,13.9970367 24.192153,14.2626161 24.4443971,14.474266 L24.7328754,14.7149705 C24.9851105,14.9266208 25.2139402,14.873495 25.425591,14.6212613 L27.329181,12.3520202 L28.7541175,10.6542236 L30.9112748,13.225724 C30.912686,13.2274173 30.9144264,13.2286403 30.9158846,13.2303337 L32.0826605,14.6212778 C32.2943103,14.8735129 32.5589701,14.8963285 32.8112062,14.6846693 L33.099685,14.443046 C33.3519201,14.2313953 33.3388965,13.9970531 33.1272448,13.7448175 L31.2227361,11.4755768 L29.6434545,9.59403607 L31.9558757,6.83879151 C31.9576161,6.83672182 31.958745,6.83441693 31.9604854,6.83236135 L33.1272613,5.44233642 C33.3389121,5.19010177 33.3151952,4.92452229 33.0629507,4.71287201 L32.7744724,4.47124831 C32.6483551,4.36542293 32.5286322,4.3260705 32.4134151,4.34446491 L32.4133982,4.34444845 Z" id="path4165-9"></path>
            </g>
        </g>
    </g>
</svg>