<?xml version="1.0" encoding="UTF-8"?>
<svg width="150px" height="150px" viewBox="0 0 150 150" version="1.1" xmlns="http://www.w3.org/2000/svg" xmlns:xlink="http://www.w3.org/1999/xlink">
    <!-- Generator: Sketch 43.2 (39069) - http://www.bohemiancoding.com/sketch -->
    <title>Slice</title>
    <desc>Created with Sketch.</desc>
    <defs></defs>
    <g id="Page-1" stroke="none" stroke-width="1" fill="none" fill-rule="evenodd">
        <g id="nextcloud-logo-white" transform="translate(0.000000, 41.000000)" fill-rule="nonzero" fill="#0082C9">
            <path d="M75.1143102,0 C59.5663611,0 46.388171,10.5404851 42.3038221,24.8216541 C38.7540875,17.2467055 31.0616975,11.9398184 22.2013933,11.9398184 C10.0163992,11.9398184 0,21.956215 0,34.1412077 C0,46.3262031 10.0163992,56.3471698 22.2013933,56.3471698 C31.0616975,56.3471698 38.7540875,51.0370309 42.3038221,43.4607614 C46.388171,57.7430051 59.5663611,68.2869922 75.1143102,68.2869922 C90.5472768,68.2869922 103.658261,57.9020241 107.847073,43.7808646 C111.462406,51.1851502 119.059588,56.3471698 127.794033,56.3471698 C139.979035,56.3471698 150,46.3262031 150,34.1412077 C150,21.956215 139.979035,11.9398184 127.794033,11.9398184 C119.059588,11.9398184 111.462406,17.0985982 107.847073,24.5015535 C103.658261,10.3814924 90.5472768,0 75.1143102,0 Z M75.1143102,13.0327391 C86.8512497,13.0327391 96.2273674,22.4043039 96.2273674,34.1412077 C96.2273674,45.8781142 86.8512497,55.2542531 75.1143102,55.2542531 C63.3774248,55.2542531 54.0058614,45.8781142 54.0058614,34.1412077 C54.0058614,22.4043039 63.3774248,13.0327418 75.1143102,13.0327391 Z M22.2013933,24.9725615 C27.3436034,24.9725615 31.3746123,28.9989898 31.3746123,34.1412077 C31.3746123,39.2834271 27.3436034,43.3144294 22.2013933,43.3144294 C17.0591687,43.3144294 13.0327339,39.2834271 13.0327339,34.1412077 C13.0327339,28.9989898 17.0591687,24.9725615 22.2013933,24.9725615 L22.2013933,24.9725615 Z M127.794033,24.9725615 C132.936272,24.9725615 136.967248,28.9989898 136.967248,34.1412077 C136.967248,39.2834271 132.936245,43.3144294 127.794033,43.3144294 C122.651833,43.3144294 118.625401,39.2834271 118.625401,34.1412077 C118.625401,28.9989898 122.651859,24.9725615 127.794033,24.9725615 L127.794033,24.9725615 Z" id="XMLID_107_"></path>
        </g>
    </g>
</svg>