<?xml version="1.0" encoding="UTF-8" standalone="no"?>
<svg
   xmlns:dc="http://purl.org/dc/elements/1.1/"
   xmlns:cc="http://creativecommons.org/ns#"
   xmlns:rdf="http://www.w3.org/1999/02/22-rdf-syntax-ns#"
   xmlns:svg="http://www.w3.org/2000/svg"
   xmlns="http://www.w3.org/2000/svg"
   xmlns:sodipodi="http://sodipodi.sourceforge.net/DTD/sodipodi-0.dtd"
   xmlns:inkscape="http://www.inkscape.org/namespaces/inkscape"
   version="1.1"
   width="443.34341"
   height="218.90901"
   id="svg8944"
   inkscape:version="0.91 r"
   sodipodi:docname="OwnCloud2-Logo.svg">
  <metadata
     id="metadata26">
    <rdf:RDF>
      <cc:Work
         rdf:about="">
        <dc:format>image/svg+xml</dc:format>
        <dc:type
           rdf:resource="http://purl.org/dc/dcmitype/StillImage" />
        <dc:title />
      </cc:Work>
    </rdf:RDF>
  </metadata>
  <sodipodi:namedview
     pagecolor="#ffffff"
     bordercolor="#666666"
     borderopacity="1"
     objecttolerance="10"
     gridtolerance="10"
     guidetolerance="10"
     inkscape:pageopacity="0"
     inkscape:pageshadow="2"
     inkscape:window-width="1366"
     inkscape:window-height="718"
     id="namedview24"
     showgrid="false"
     fit-margin-top="5"
     fit-margin-right="5"
     fit-margin-bottom="5"
     fit-margin-left="5"
     inkscape:zoom="1.4634505"
     inkscape:cx="196.87868"
     inkscape:cy="42.416955"
     inkscape:window-x="0"
     inkscape:window-y="0"
     inkscape:window-maximized="1"
     inkscape:current-layer="svg8944" />
  <defs
     id="defs8946" />
  <circle
     cx="28.999001"
     cy="189.908"
     r="21.999001"
     id="circle238"
     style="fill:none;fill-opacity:1;stroke:#1d2d44;stroke-width:4;stroke-opacity:1" />
  <circle
     cx="296.51202"
     cy="189.908"
     r="22.000999"
     id="circle240"
     style="fill:none;fill-opacity:1;stroke:#1d2d44;stroke-width:4;stroke-opacity:1" />
  <path
     d="m 67.000004,167.703 0,30.074 c 0,7.801 6.324,14.123 14.123,14.123 7.803,0 14.125,-6.322 14.125,-14.123 0,-0.004 0,-30.074 0,-30.074"
     id="path242"
     style="fill:none;fill-opacity:1;stroke:#1d2d44;stroke-width:4;stroke-opacity:1"
     inkscape:connector-curvature="0" />
  <path
     d="m 95.248004,167.703 0,30.074 c 0,7.801 6.323996,14.123 14.124996,14.123 7.801,0 14.125,-6.322 14.125,-14.123 0,-0.004 0,-30.074 0,-30.074"
     id="path244"
     style="fill:none;fill-opacity:1;stroke:#1d2d44;stroke-width:4;stroke-opacity:1"
     inkscape:connector-curvature="0" />
  <path
     d="m 251.265,127.699 0,70.078 c 0,7.801 6.322,14.123 14.123,14.123"
     id="path246"
     style="fill:none;fill-opacity:1;stroke:#1d2d44;stroke-width:4;stroke-opacity:1"
     inkscape:connector-curvature="0" />
  <path
     d="m 140.004,211.906 0,-22.201 c 0,-12.15 9.85,-22 22,-22 12.152,0 22.002,9.85 22.002,22 0,0.006 0,22.201 0,22.201"
     id="path248"
     style="fill:none;fill-opacity:1;stroke:#1d2d44;stroke-width:4;stroke-opacity:1"
     inkscape:connector-curvature="0" />
  <path
     d="m 333.009,167.703 0,22.205 c 0,12.148 9.85,21.998 22,21.998 12.15,0 22.002,-9.85 22.002,-21.998 0,-0.008 0,-22.205 0,-22.205"
     id="path250"
     style="fill:none;fill-opacity:1;stroke:#1d2d44;stroke-width:4;stroke-opacity:1"
     inkscape:connector-curvature="0" />
  <path
     d="m 234.833,141.576 c -19.421,0 -35.167,15.744 -35.167,35.166 0,19.422 15.746,35.164 35.167,35.164"
     id="path252"
     style="fill:none;fill-opacity:1;stroke:#1d2d44;stroke-width:4;stroke-opacity:1"
     inkscape:connector-curvature="0" />
  <polyline
     points="504.596,162.962 504.596,203.134 504.596,202.155 "
     id="polyline254"
     style="fill:none;fill-opacity:1;stroke:#1d2d44;stroke-width:4;stroke-opacity:1"
     transform="translate(-68.312996,-35.262997)" />
  <path
     d="m 421.923,211.894 c -4.275,0 -7.844,0 -7.848,0 -12.15,0 -22,-9.85 -22,-21.998 0,-12.15 9.85,-22 22,-22 l 22.207,-0.025 c 0,0 0.137,22.342 0,29.895 -0.138,7.552 -7.968,14.128 -14.359,14.128 z"
     id="path256"
     style="fill:none;fill-opacity:1;stroke:#1d2d44;stroke-width:4;stroke-opacity:1"
     inkscape:connector-curvature="0" />
  <circle
     cx="220.181"
     cy="43.648006"
     r="20.332001"
     id="circle265"
     style="fill:#1d2d44;fill-opacity:1;stroke:#ffffff;stroke-width:4;stroke-opacity:1" />
  <circle
     cx="182.89801"
     cy="114.314"
     r="37.242001"
     id="circle272"
     style="fill:#1d2d44;fill-opacity:1;stroke:#ffffff;stroke-width:4;stroke-opacity:1" />
  <circle
     cx="224.91202"
     cy="89.533005"
     r="40.261002"
     id="circle279"
     style="fill:#1d2d44;fill-opacity:1;stroke:#ffffff;stroke-width:4;stroke-opacity:1" />
  <circle
     cx="307.02103"
     cy="73.209"
     r="37.242001"
     id="circle286"
     style="fill:#1d2d44;fill-opacity:1;stroke:#ffffff;stroke-width:4;stroke-opacity:1" />
  <circle
     cx="266.18002"
     cy="44.241001"
     r="37.241001"
     id="circle293"
     style="fill:#1d2d44;fill-opacity:1;stroke:#ffffff;stroke-width:4;stroke-opacity:1" />
  <circle
     cx="390.11401"
     cy="128.69499"
     r="21.299999"
     id="circle300"
     style="fill:#1d2d44;fill-opacity:1;stroke:#ffffff;stroke-width:4;stroke-opacity:1" />
  <circle
     cx="344.85001"
     cy="112.3"
     r="40.261002"
     id="circle307"
     style="fill:#1d2d44;fill-opacity:1;stroke:#ffffff;stroke-width:4;stroke-opacity:1" />
  <circle
     cx="222.44901"
     cy="130.748"
     r="21.299"
     id="circle314"
     style="fill:#1d2d44;fill-opacity:1;stroke:#ffffff;stroke-width:4;stroke-opacity:1" />
  <path
     d="m 329.794,100.406 c 0,28.348 -22.984,51.328 -51.334,51.328 -28.35,0 -51.333,-22.98 -51.333,-51.328 0,-28.350995 22.984,-51.332997 51.333,-51.332997 28.349,0 51.334,22.982002 51.334,51.332997 z"
     id="path321"
     style="fill:#1d2d44;fill-opacity:1;stroke:#ffffff;stroke-width:4;stroke-opacity:1"
     inkscape:connector-curvature="0" />
</svg>
