<?xml version="1.0" encoding="UTF-8"?>
<svg version="1.1" viewBox="0 0 24 24" xmlns="http://www.w3.org/2000/svg" xmlns:xlink="http://www.w3.org/1999/xlink">
    <!--Generated by IJSVG (https://github.com/curthard89/IJSVG)-->
    <g fill="none" stroke="#000000" stroke-linecap="round" stroke-linejoin="round" stroke-width="1">
        <path d="M17.996,13.336c0.977,-0.221 4.004,-1.186 4.004,-4.728c0,-2.675 -2.208,-4.874 -4.954,-4.772c-1.073,-2.266 -3.373,-3.836 -6.046,-3.836c-3.563,0 -6.467,2.783 -6.674,6.294c-2.232,-0.466 -4.326,1.233 -4.326,3.511c0,3.644 3.826,3.587 3.826,3.587" transform="translate(1.5, 4)"></path>
        <path d="M9.02369,1.95262c1.95262,1.95262 1.95262,5.11845 0,7.07107c-1.95262,1.95262 -5.11845,1.95262 -7.07107,0c-1.95262,-1.95262 -1.95262,-5.11845 0,-7.07107c1.95262,-1.95262 5.11845,-1.95262 7.07107,0" transform="translate(7.01184, 12.2618)"></path>
        <path d="M2,0v4m2,-2.25h-4" transform="translate(10.5, 15.75)"></path>
    </g>
</svg>