<?xml version="1.0" encoding="UTF-8"?>
<svg version="1.1" viewBox="0 0 24 24" xmlns="http://www.w3.org/2000/svg" xmlns:xlink="http://www.w3.org/1999/xlink">
    <!--Generated by IJSVG (https://github.com/curthard89/IJSVG)-->
    <defs>
        <path id="path-1" d="M0.902369,0.195262c0.195262,0.195262 0.195262,0.511845 0,0.707107c-0.195262,0.195262 -0.511845,0.195262 -0.707107,0c-0.195262,-0.195262 -0.195262,-0.511845 0,-0.707107c0.195262,-0.195262 0.511845,-0.195262 0.707107,0"></path>
    </defs>
    <g fill="none" stroke="#000000" stroke-linecap="round" stroke-linejoin="round" stroke-width="1">
        <path d="M17,0v1m-17,-1v1" transform="translate(3.513, 22.5)"></path>
        <path d="M0,0h11v2h-11Z" transform="translate(3.513, 18.5)"></path>
        <use transform="translate(16.9642, 17.9512)" xlink:href="#path-1"></use>
        <use transform="translate(19.9642, 17.9512)" xlink:href="#path-1"></use>
        <path d="M1.80474,0.390524c0.390524,0.390524 0.390524,1.02369 0,1.41421c-0.390524,0.390524 -1.02369,0.390524 -1.41421,0c-0.390524,-0.390524 -0.390524,-1.02369 0,-1.41421c0.390524,-0.390524 1.02369,-0.390524 1.41421,0" transform="translate(10.9154, 8.40237)"></path>
        <path d="M23,2c0,-1.1 -0.9,-2 -2,-2h-19c-1.1,0 -2,0.9 -2,2v3c0,1.1 0.9,2 2,2h19c1.1,0 2,-0.9 2,-2v-3Z" transform="translate(0.513, 15.5)"></path>
        <path d="M5.41421,1.17157c1.17157,1.17157 1.17157,3.07107 0,4.24264c-1.17157,1.17157 -3.07107,1.17157 -4.24264,0c-1.17157,-1.17157 -1.17157,-3.07107 0,-4.24264c1.17157,-1.17157 3.07107,-1.17157 4.24264,-8.88178e-16" transform="translate(8.72011, 6.20711)"></path>
        <path d="M9.001,3c3.314,0 6,2.687 6,6m2.056,4c0.603,-1.204 0.943,-2.56 0.943,-4c0,-4.971 -4.03,-9 -9,-9c-4.971,0 -9,4.029 -9,9c0,1.44 0.341,2.796 0.943,4" transform="translate(3.012, 0.5)"></path>
    </g>
</svg>