<?xml version="1.0" encoding="utf-8"?>
<!-- Generator: Adobe Illustrator 16.0.0, SVG Export Plug-In . SVG Version: 6.00 Build 0)  -->
<!DOCTYPE svg PUBLIC "-//W3C//DTD SVG 1.1//EN" "http://www.w3.org/Graphics/SVG/1.1/DTD/svg11.dtd">
<svg version="1.1" id="Layer_1" xmlns="http://www.w3.org/2000/svg" xmlns:xlink="http://www.w3.org/1999/xlink" x="0px" y="0px"
	 width="64px" height="64px" viewBox="0 0 64 64" enable-background="new 0 0 64 64" xml:space="preserve">
<g id="Rounded_Rectangle_24">
	<g>
		<path fill="#FFE2A7" d="M51,28h-5v-7H13.117c0.006,0-0.029,0-0.117,0h-3v39c0,1.657,1.343,3,3,3h30c1.657,0,3-1.343,3-3v-9h5
			c3.866,0,7-3.134,7-7v-9C58,31.134,54.866,28,51,28z M54,44c0,1.657-1.343,3-3,3h-5v-2.455c0-0.066,0-0.087,0-0.084V32h5
			c1.657,0,3,1.343,3,3V44z"/>
	</g>
</g>
<g id="Rounded_Rectangle_25">
	<g>
		<path fill="#DCB154" d="M18,29c-1.104,0-2,0.896-2,2v20c0,1.104,0.896,2,2,2s2-0.896,2-2V31C20,29.896,19.104,29,18,29z M28,29
			c-1.104,0-2,0.896-2,2v20c0,1.104,0.896,2,2,2s2-0.896,2-2V31C30,29.896,29.104,29,28,29z M38,29c-1.104,0-2,0.896-2,2v20
			c0,1.104,0.896,2,2,2s2-0.896,2-2V31C40,29.896,39.104,29,38,29z"/>
	</g>
</g>
<g id="Ellipse_41">
	<g>
		<path fill="#FFFFFF" d="M41,7c-0.875,0-1.715,0.146-2.503,0.405C37.466,4.825,34.948,3,32,3c-1.262,0-2.442,0.338-3.464,0.922
			C27.746,2.201,26.018,1,24,1c-2.417,0-4.434,1.716-4.898,3.995C17.87,4.363,16.479,4,15,4c-4.971,0-9,4.029-9,9s4.029,9,9,9
			c1.743,0,3.365-0.504,4.743-1.361C21.544,23.271,24.569,25,28,25c3.207,0,6.054-1.516,7.884-3.862C37.27,22.298,39.05,23,41,23
			c4.418,0,8-3.582,8-8S45.418,7,41,7z"/>
	</g>
</g>
<g id="Ellipse_42">
	<g>
		<path fill="#3A3F46" d="M38,54c1.657,0,3-1.343,3-3V31c0-1.657-1.343-3-3-3s-3,1.343-3,3v20C35,52.657,36.343,54,38,54z M37,31
			c0-0.553,0.447-1,1-1s1,0.447,1,1v20c0,0.553-0.447,1-1,1s-1-0.447-1-1V31z M51,27h-4v-5.306c1.837-1.647,3-4.032,3-6.694
			c0-4.971-4.029-9-9-9c-0.67,0-1.314,0.095-1.942,0.234C37.71,3.715,35.057,2,32,2c-1.082,0-2.112,0.218-3.054,0.606
			C27.864,1.033,26.054,0,24,0c-2.473,0-4.595,1.496-5.513,3.633C17.401,3.228,16.229,3,15,3C9.478,3,5,7.478,5,13
			c0,3.27,1.576,6.163,4.002,7.988C9.002,20.992,9,20.996,9,21v39c0,2.209,1.791,4,4,4h30c2.209,0,4-1.791,4-4v-8h4
			c4.418,0,8-3.582,8-8v-9C59,30.582,55.418,27,51,27z M7,13c0-4.418,3.582-8,8-8c0.706,0,1.376,0.121,2.021,0.306
			c-1.392,1.543-1.358,3.915,0.128,5.401c0.384,0.384,1.006,0.384,1.39,0c0.383-0.384,0.383-1.006,0-1.39
			c-0.768-0.768-0.768-2.012,0-2.778c0.767-0.768,2.011-0.768,2.778,0c0.384,0.383,1.006,0.383,1.39,0
			c0.384-0.384,0.384-1.006,0-1.39c-0.616-0.616-1.388-0.974-2.188-1.095C21.203,2.833,22.5,2,24,2c2.063,0,3.742,1.568,3.957,3.576
			C29.024,4.601,30.44,4,32,4c2.175,0,4.076,1.16,5.128,2.893c-1.709,0.814-3.125,2.142-4.029,3.798l0.008,0.004
			C33.043,10.826,33,10.969,33,11.125c0,0.553,0.447,1,1,1c0.36,0,0.661-0.201,0.838-0.486l0.045,0.024
			c0.901-1.648,2.432-2.885,4.283-3.39L39.16,8.255C39.747,8.095,40.361,8,41,8c3.866,0,7,3.134,7,7s-3.134,7-6.999,7
			C41,22,41,22,40.999,22c-2.113,0-4.004-0.941-5.288-2.423c-0.331,0.914-0.952,1.737-1.771,2.423c-1.462,1.224-3.575,2-5.939,2
			c-2.363,0-4.476-0.777-5.938-2c-0.955-0.798-1.64-1.781-1.917-2.878C18.754,20.293,16.96,21,15,21C10.582,21,7,17.418,7,13z
			 M57,44c0,3.313-2.687,6-6,6h-6v10c0,1.104-0.896,2-2,2H13c-1.104,0-2-0.896-2-2V22.162C12.226,22.698,13.577,23,15,23
			c1.556,0,3.022-0.366,4.336-1c0.003-0.002,0.007-0.003,0.01-0.004c0.001,0.001,0.002,0.002,0.003,0.004
			c1.73,2.389,4.952,4,8.651,4c3.385,0,6.371-1.349,8.181-3.408C37.575,23.479,39.225,24,41,24c1.438,0,2.794-0.347,4-0.946V29h6
			c3.313,0,6,2.687,6,6V44z M18,54c1.657,0,3-1.343,3-3V31c0-1.657-1.343-3-3-3s-3,1.343-3,3v20C15,52.657,16.343,54,18,54z M17,31
			c0-0.553,0.447-1,1-1s1,0.447,1,1v20c0,0.553-0.447,1-1,1s-1-0.447-1-1V31z M28,54c1.657,0,3-1.343,3-3V31c0-1.657-1.343-3-3-3
			s-3,1.343-3,3v20C25,52.657,26.343,54,28,54z M27,31c0-0.553,0.447-1,1-1s1,0.447,1,1v20c0,0.553-0.447,1-1,1s-1-0.447-1-1V31z
			 M51,31h-6v17h6c2.209,0,4-1.791,4-4v-9C55,32.791,53.209,31,51,31z M53,44c0,1.104-0.896,2-2,2h-4V33h4c1.104,0,2,0.896,2,2V44z
			 M42,58H14c-0.553,0-1,0.447-1,1s0.447,1,1,1h28c0.553,0,1-0.447,1-1S42.553,58,42,58z"/>
	</g>
</g>
</svg>
