<?xml version="1.0" encoding="utf-8"?>
<!-- Generator: Adobe Illustrator 16.0.0, SVG Export Plug-In . SVG Version: 6.00 Build 0)  -->
<!DOCTYPE svg PUBLIC "-//W3C//DTD SVG 1.1//EN" "http://www.w3.org/Graphics/SVG/1.1/DTD/svg11.dtd">
<svg version="1.1" id="Layer_1" xmlns="http://www.w3.org/2000/svg" xmlns:xlink="http://www.w3.org/1999/xlink" x="0px" y="0px"
	 width="64px" height="64px" viewBox="0 0 64 64" enable-background="new 0 0 64 64" xml:space="preserve">
<g id="Rectangle_109">
	<g>
		<polygon fill-rule="evenodd" clip-rule="evenodd" fill="#EDF2F8" points="42,20 42,13 17,13 17,39 35,39 35,46 60,46 60,20 		"/>
	</g>
</g>
<g id="Rectangle_110">
	<g>
		<path fill-rule="evenodd" clip-rule="evenodd" fill="#C2CDDC" d="M35,39v7l7-7H35z M5,63h12v-4H5V63z M11,9c2.209,0,4-1.791,4-4
			s-1.791-4-4-4S7,2.791,7,5S8.791,9,11,9z"/>
	</g>
</g>
<g id="Rectangle_111">
	<g>
		<rect x="9" y="9" fill="#FFFFFF" width="4" height="50"/>
	</g>
</g>
<g id="Ellipse_25">
	<g>
		<path fill-rule="evenodd" clip-rule="evenodd" fill="#8592A5" d="M36.357,21.285l-3.072,3.072c-0.375,0.375-0.375,0.983,0,1.357
			c0.374,0.375,0.982,0.375,1.357,0l3.072-3.072c0.375-0.375,0.375-0.983,0-1.357C37.341,20.91,36.732,20.91,36.357,21.285z M60,19
			H43v-6c0-0.553-0.447-1-1-1H14V9c0-0.007-0.004-0.013-0.004-0.019C15.206,8.068,16,6.633,16,5c0-2.762-2.238-5-5-5S6,2.238,6,5
			c0,1.633,0.794,3.068,2.004,3.981C8.004,8.987,8,8.993,8,9v49H6c-1.104,0-2,0.896-2,2v2c0,1.104,0.896,2,2,2h10
			c1.104,0,2-0.896,2-2v-2c0-1.104-0.896-2-2-2h-2V39h20v5.987c0,0.002,0.001,0.005,0.001,0.007S34,44.998,34,45
			c0,0.023,0.012,0.044,0.014,0.067c0.013,0.234,0.093,0.466,0.272,0.646c0.094,0.094,0.204,0.156,0.318,0.205
			c0.007,0.002,0.013,0.004,0.02,0.006c0.108,0.043,0.222,0.065,0.337,0.068C34.975,45.992,34.986,46,35,46h25c0.553,0,1-0.447,1-1
			V20C61,19.447,60.553,19,60,19z M8,5c0-1.657,1.343-3,3-3s3,1.343,3,3s-1.343,3-3,3S8,6.657,8,5z M10,37V14h2v23H10z M12,39v19h-2
			V39H12z M10,12V9.899C10.323,9.965,10.657,10,11,10s0.677-0.035,1-0.101V12H10z M16,60v2H6v-2H16z M16,37h-2V14h2V37z M18,37V14
			h23v23H18z M36,39h3.595L36,42.595V39z M59,44H37.404l5.271-5.271c0.107-0.1,0.193-0.218,0.249-0.356
			c0.055-0.13,0.078-0.268,0.075-0.406V21h16V44z M54.357,37.285l-3.072,3.072c-0.375,0.375-0.375,0.983,0,1.357
			c0.374,0.375,0.982,0.375,1.357,0l3.072-3.072c0.375-0.375,0.375-0.983,0-1.357C55.341,36.91,54.732,36.91,54.357,37.285z
			 M30.357,27.285l-3.072,3.072c-0.375,0.375-0.375,0.983,0,1.357c0.374,0.375,0.982,0.375,1.357,0l3.072-3.072
			c0.375-0.375,0.375-0.983,0-1.357C31.34,26.91,30.732,26.91,30.357,27.285z M31.357,20.285L21.285,30.357
			c-0.375,0.375-0.375,0.983,0,1.357c0.374,0.375,0.982,0.375,1.357,0l10.072-10.072c0.375-0.375,0.375-0.983,0-1.357
			C32.341,19.91,31.732,19.91,31.357,20.285z M46.643,41.715l10.072-9.072c0.375-0.375,0.375-0.983,0-1.357
			c-0.375-0.375-0.982-0.375-1.357,0l-10.072,9.072c-0.375,0.375-0.375,0.983,0,1.357C45.659,42.09,46.268,42.09,46.643,41.715z"/>
	</g>
</g>
</svg>
