<?xml version="1.0" encoding="UTF-8" standalone="no"?>
<svg width="80px" height="69px" viewBox="0 0 80 69" version="1.1" xmlns="http://www.w3.org/2000/svg" xmlns:xlink="http://www.w3.org/1999/xlink" xmlns:sketch="http://www.bohemiancoding.com/sketch/ns">
    <!-- Generator: Sketch 3.4.2 (15855) - http://www.bohemiancoding.com/sketch -->
    <title>Buttercup Logo</title>
    <desc>Created with Sketch.</desc>
    <defs></defs>
    <g id="Page-1" stroke="none" stroke-width="1" fill="none" fill-rule="evenodd" sketch:type="MSPage">
        <g id="Buttercup-Logo" sketch:type="MSLayerGroup">
            <g id="Text" transform="translate(0.000000, 59.000000)" fill="#58595B" sketch:type="MSShapeGroup">
                <g id="Buttercup">
                    <path d="M0,1.93 L0,0.938 L3.468,0.938 C4.168,0.938 4.736,1.126 5.172,1.497 C5.608,1.864 5.825,2.368 5.825,3.005 C5.825,3.427 5.73,3.786 5.538,4.083 C5.348,4.388 5.107,4.606 4.814,4.751 L4.814,4.774 C5.231,4.895 5.556,5.137 5.79,5.501 C6.023,5.86 6.14,6.274 6.14,6.743 C6.14,7.473 5.894,8.044 5.403,8.45 C4.911,8.852 4.29,9.055 3.54,9.055 L1.48,9.055 C1.223,9.055 1.037,8.996 0.92,8.879 C0.803,8.762 0.745,8.578 0.745,8.316 L0.745,1.93 L0,1.93 L0,1.93 Z M1.896,4.34 L3.479,4.34 C3.831,4.34 4.114,4.227 4.33,3.996 C4.545,3.766 4.652,3.473 4.652,3.117 C4.652,2.758 4.547,2.465 4.335,2.25 C4.124,2.035 3.831,1.93 3.457,1.93 L1.896,1.93 L1.896,4.34 L1.896,4.34 Z M1.896,7.816 C1.896,7.98 1.981,8.066 2.149,8.066 L3.597,8.066 C4.023,8.066 4.358,7.941 4.601,7.691 C4.844,7.437 4.966,7.105 4.966,6.683 C4.966,6.269 4.84,5.933 4.589,5.679 C4.339,5.421 4.008,5.296 3.597,5.296 L1.896,5.296 L1.896,7.816 L1.896,7.816 Z" id="Shape"></path>
                    <path d="M8.733,1.93 L8.733,0.938 L9.894,0.938 C10.152,0.938 10.338,0.997 10.455,1.114 C10.572,1.231 10.63,1.419 10.63,1.677 L10.63,6.169 C10.63,6.774 10.805,7.247 11.156,7.595 C11.507,7.939 11.978,8.115 12.568,8.115 C13.158,8.115 13.63,7.939 13.982,7.595 C14.336,7.247 14.512,6.771 14.512,6.157 L14.512,1.677 C14.512,1.419 14.572,1.232 14.692,1.114 C14.812,0.996 15.001,0.938 15.258,0.938 L16.408,0.938 L16.408,1.93 L15.913,1.93 C15.746,1.93 15.662,2.012 15.662,2.18 L15.662,6.215 C15.662,7.102 15.38,7.817 14.816,8.367 C14.252,8.917 13.508,9.195 12.584,9.195 C11.655,9.195 10.905,8.918 10.334,8.367 C9.764,7.816 9.479,7.101 9.479,6.215 L9.479,2.18 C9.479,2.012 9.395,1.93 9.228,1.93 L8.733,1.93 L8.733,1.93 Z" id="Shape"></path>
                    <path d="M18.645,2.695 L18.645,1.629 C18.645,1.371 18.695,1.191 18.795,1.094 C18.897,0.989 19.076,0.938 19.334,0.938 L24.918,0.938 C25.176,0.938 25.356,0.989 25.456,1.094 C25.557,1.192 25.608,1.371 25.608,1.629 L25.608,2.695 L24.587,2.695 L24.587,2.18 C24.587,2.012 24.501,1.93 24.328,1.93 L22.701,1.93 L22.701,9.055 L21.551,9.055 L21.551,1.93 L19.918,1.93 C19.749,1.93 19.665,2.012 19.665,2.18 L19.665,2.696 L18.645,2.696 L18.645,2.695 Z" id="Shape"></path>
                    <path d="M27.674,2.695 L27.674,1.629 C27.674,1.371 27.725,1.191 27.825,1.094 C27.927,0.989 28.105,0.938 28.364,0.938 L33.947,0.938 C34.207,0.938 34.385,0.989 34.484,1.094 C34.586,1.192 34.638,1.371 34.638,1.629 L34.638,2.695 L33.617,2.695 L33.617,2.18 C33.617,2.012 33.529,1.93 33.359,1.93 L31.73,1.93 L31.73,9.055 L30.58,9.055 L30.58,1.93 L28.947,1.93 C28.779,1.93 28.694,2.012 28.694,2.18 L28.694,2.696 L27.674,2.696 L27.674,2.695 Z" id="Shape"></path>
                    <path d="M36.969,1.93 L36.969,0.938 L41.742,0.938 C42,0.938 42.189,0.997 42.305,1.114 C42.421,1.231 42.479,1.419 42.479,1.677 L42.479,2.697 L41.424,2.697 L41.424,2.18 C41.424,2.012 41.34,1.93 41.172,1.93 L38.865,1.93 L38.865,4.469 L41.705,4.469 L41.705,5.457 L38.865,5.457 L38.865,7.816 C38.865,7.98 38.949,8.066 39.117,8.066 L41.486,8.066 C41.652,8.066 41.738,7.98 41.738,7.816 L41.738,7.296 L42.795,7.296 L42.795,8.316 C42.795,8.578 42.736,8.761 42.619,8.879 C42.504,8.996 42.316,9.055 42.058,9.055 L38.449,9.055 C38.193,9.055 38.004,8.996 37.888,8.879 C37.772,8.762 37.714,8.578 37.714,8.316 L37.714,1.93 L36.969,1.93 L36.969,1.93 Z" id="Shape"></path>
                    <path d="M45.217,1.93 L45.217,0.938 L48.754,0.938 C49.475,0.938 50.059,1.153 50.504,1.583 C50.949,2.009 51.172,2.591 51.172,3.317 C51.172,3.579 51.139,3.821 51.076,4.047 C51.01,4.274 50.926,4.469 50.828,4.625 C50.728,4.781 50.611,4.918 50.48,5.043 C50.347,5.164 50.216,5.258 50.093,5.324 C49.964,5.39 49.841,5.437 49.724,5.465 L49.724,5.488 C49.857,5.558 49.972,5.679 50.066,5.855 L51.033,7.804 C51.084,7.913 51.154,7.988 51.238,8.019 C51.328,8.05 51.447,8.066 51.609,8.066 L51.757,8.066 L51.757,9.054 L51.194,9.054 C50.866,9.054 50.63,9.015 50.483,8.937 C50.338,8.863 50.2,8.695 50.077,8.441 L48.977,6.253 C48.875,6.069 48.772,5.952 48.67,5.901 C48.566,5.846 48.4,5.819 48.168,5.819 L47.111,5.819 L47.111,9.053 L45.961,9.053 L45.961,1.93 L45.217,1.93 L45.217,1.93 Z M47.113,4.836 L48.607,4.836 C49.045,4.836 49.384,4.703 49.632,4.441 C49.877,4.18 50,3.82 50,3.363 C50,2.91 49.877,2.558 49.633,2.308 C49.393,2.05 49.057,1.929 48.631,1.929 L47.113,1.929 L47.113,4.836 L47.113,4.836 Z" id="Shape"></path>
                    <path d="M53.994,4.922 C53.994,4.348 54.098,3.805 54.307,3.297 C54.512,2.785 54.799,2.352 55.155,1.984 C55.516,1.621 55.95,1.332 56.452,1.121 C56.956,0.91 57.493,0.805 58.065,0.805 C58.294,0.805 58.542,0.825 58.801,0.86 C59.061,0.899 59.33,0.962 59.606,1.051 C59.885,1.141 60.133,1.25 60.348,1.379 C60.569,1.512 60.752,1.676 60.891,1.883 C61.034,2.086 61.104,2.317 61.104,2.563 L61.104,3.352 L60.051,3.352 L60.051,2.887 C60.051,2.676 59.942,2.485 59.721,2.324 C59.502,2.16 59.246,2.043 58.955,1.972 C58.666,1.898 58.375,1.859 58.084,1.859 C57.26,1.859 56.572,2.144 56.018,2.714 C55.465,3.28 55.19,4.023 55.19,4.921 C55.19,5.503 55.319,6.038 55.573,6.53 C55.833,7.014 56.184,7.401 56.634,7.686 C57.083,7.967 57.579,8.112 58.12,8.112 C58.341,8.112 58.558,8.089 58.766,8.049 C58.979,8.006 59.168,7.955 59.33,7.889 C59.498,7.826 59.652,7.756 59.803,7.678 C59.954,7.6 60.082,7.518 60.186,7.436 C60.291,7.358 60.379,7.284 60.457,7.221 C60.535,7.158 60.588,7.104 60.627,7.065 L60.686,7.002 L61.301,7.834 C61.27,7.869 61.227,7.92 61.166,7.979 C61.107,8.042 60.975,8.151 60.766,8.303 C60.561,8.463 60.344,8.604 60.118,8.721 C59.889,8.842 59.595,8.951 59.227,9.049 C58.864,9.143 58.491,9.194 58.108,9.194 C57.512,9.194 56.96,9.081 56.444,8.862 C55.93,8.643 55.497,8.339 55.139,7.956 C54.784,7.573 54.504,7.12 54.299,6.597 C54.098,6.074 53.994,5.516 53.994,4.922 L53.994,4.922 Z" id="Shape"></path>
                    <path d="M63.727,1.93 L63.727,0.938 L64.889,0.938 C65.147,0.938 65.334,0.997 65.45,1.114 C65.566,1.231 65.624,1.419 65.624,1.677 L65.624,6.169 C65.624,6.774 65.802,7.247 66.151,7.595 C66.503,7.939 66.975,8.115 67.563,8.115 C68.155,8.115 68.627,7.939 68.979,7.595 C69.331,7.247 69.51,6.771 69.51,6.157 L69.51,1.677 C69.51,1.419 69.567,1.232 69.688,1.114 C69.807,0.997 69.997,0.938 70.252,0.938 L71.404,0.938 L71.404,1.93 L70.91,1.93 C70.74,1.93 70.658,2.012 70.658,2.18 L70.658,6.215 C70.658,7.102 70.375,7.817 69.81,8.367 C69.249,8.918 68.505,9.195 67.581,9.195 C66.651,9.195 65.901,8.918 65.329,8.367 C64.759,7.816 64.474,7.101 64.474,6.215 L64.474,2.18 C64.474,2.012 64.388,1.93 64.222,1.93 L63.727,1.93 L63.727,1.93 Z" id="Shape"></path>
                    <path d="M73.902,1.93 L73.902,0.938 L77.468,0.938 C78.216,0.938 78.827,1.172 79.296,1.637 C79.768,2.105 80,2.719 80,3.48 C80,4.246 79.768,4.863 79.297,5.335 C78.824,5.812 78.217,6.05 77.473,6.05 L75.797,6.05 L75.797,9.054 L74.649,9.054 L74.649,1.93 L73.902,1.93 L73.902,1.93 Z M75.797,5.063 L77.291,5.063 C77.768,5.063 78.143,4.922 78.418,4.641 C78.693,4.36 78.828,3.973 78.828,3.481 C78.828,2.997 78.693,2.614 78.422,2.34 C78.151,2.063 77.779,1.93 77.303,1.93 L75.797,1.93 L75.797,5.063 L75.797,5.063 Z" id="Shape"></path>
                </g>
            </g>
            <g id="Buttercup_1_" transform="translate(20.000000, 0.000000)" fill="#00B7AC" sketch:type="MSShapeGroup">
                <path d="M30,18.879 L30,15 C30,6.715 23.285,0 15,0 C6.716,0 0,6.715 0,15 L0,18 L0,20 L0,48.363 L25,48.363 C33.285,48.363 40,41.467 40,33.181 C40,26.652 35.824,20.936 30,18.879 L30,18.879 Z M16,32.693 L16,36 C16,36.553 15.553,37 15,37 C14.447,37 14,36.553 14,36 L14,32.693 C13.412,32.345 13,31.732 13,31 C13,29.895 13.895,29 15,29 C16.105,29 17,29.895 17,31 C17,31.732 16.588,32.346 16,32.693 L16,32.693 Z M26,18.363 L18,18.363 L4,18.363 L4,15 C4,8.934 8.935,4 15,4 C21.065,4 26,8.934 26,15 L26,18.363 L26,18.363 Z" id="Shape"></path>
            </g>
        </g>
    </g>
</svg>