<?xml version="1.0" encoding="UTF-8" standalone="no"?>
<svg width="40px" height="49px" viewBox="0 0 40 49" version="1.1" xmlns="http://www.w3.org/2000/svg" xmlns:xlink="http://www.w3.org/1999/xlink" xmlns:sketch="http://www.bohemiancoding.com/sketch/ns">
    <!-- Generator: Sketch 3.4.2 (15855) - http://www.bohemiancoding.com/sketch -->
    <title>Buttercup_1_</title>
    <desc>Created with Sketch.</desc>
    <defs></defs>
    <g id="Page-1" stroke="none" stroke-width="1" fill="none" fill-rule="evenodd" sketch:type="MSPage">
        <g id="Buttercup-Logo" sketch:type="MSLayerGroup" transform="translate(-20.000000, 0.000000)" fill="#00B7AC">
            <g id="Buttercup_1_" transform="translate(20.000000, 0.000000)" sketch:type="MSShapeGroup">
                <path d="M30,18.879 L30,15 C30,6.715 23.285,0 15,0 C6.716,0 0,6.715 0,15 L0,18 L0,20 L0,48.363 L25,48.363 C33.285,48.363 40,41.467 40,33.181 C40,26.652 35.824,20.936 30,18.879 L30,18.879 Z M16,32.693 L16,36 C16,36.553 15.553,37 15,37 C14.447,37 14,36.553 14,36 L14,32.693 C13.412,32.345 13,31.732 13,31 C13,29.895 13.895,29 15,29 C16.105,29 17,29.895 17,31 C17,31.732 16.588,32.346 16,32.693 L16,32.693 Z M26,18.363 L18,18.363 L4,18.363 L4,15 C4,8.934 8.935,4 15,4 C21.065,4 26,8.934 26,15 L26,18.363 L26,18.363 Z" id="Shape"></path>
            </g>
        </g>
    </g>
</svg>