<?xml version="1.0" encoding="UTF-8" standalone="no"?>
<svg width="160px" height="18px" viewBox="0 0 160 18" version="1.1" xmlns="http://www.w3.org/2000/svg" xmlns:xlink="http://www.w3.org/1999/xlink" xmlns:sketch="http://www.bohemiancoding.com/sketch/ns">
    <!-- Generator: Sketch 3.4.4 (17249) - http://www.bohemiancoding.com/sketch -->
    <title>Text</title>
    <desc>Created with Sketch.</desc>
    <defs></defs>
    <g id="Page-1" stroke="none" stroke-width="1" fill="none" fill-rule="evenodd" sketch:type="MSPage">
        <g id="Mac-App" sketch:type="MSArtboardGroup" transform="translate(-34.000000, -34.000000)" fill="#00B7AC">
            <g id="Text" sketch:type="MSLayerGroup" transform="translate(34.000000, 33.000000)">
                <g id="Buttercup" sketch:type="MSShapeGroup">
                    <path d="M0,3.86 L0,1.876 L6.936,1.876 C8.336,1.876 9.472,2.252 10.344,2.994 C11.216,3.728 11.65,4.736 11.65,6.01 C11.65,6.854 11.46,7.572 11.076,8.166 C10.696,8.776 10.214,9.212 9.628,9.502 L9.628,9.548 C10.462,9.79 11.112,10.274 11.58,11.002 C12.046,11.72 12.28,12.548 12.28,13.486 C12.28,14.946 11.788,16.088 10.806,16.9 C9.822,17.704 8.58,18.11 7.08,18.11 L2.96,18.11 C2.446,18.11 2.074,17.992 1.84,17.758 C1.606,17.524 1.49,17.156 1.49,16.632 L1.49,3.86 L0,3.86 L0,3.86 Z M3.792,8.68 L6.958,8.68 C7.662,8.68 8.228,8.454 8.66,7.992 C9.09,7.532 9.304,6.946 9.304,6.234 C9.304,5.516 9.094,4.93 8.67,4.5 C8.248,4.07 7.662,3.86 6.914,3.86 L3.792,3.86 L3.792,8.68 L3.792,8.68 Z M3.792,15.632 C3.792,15.96 3.962,16.132 4.298,16.132 L7.194,16.132 C8.046,16.132 8.716,15.882 9.202,15.382 C9.688,14.874 9.932,14.21 9.932,13.366 C9.932,12.538 9.68,11.866 9.178,11.358 C8.678,10.842 8.016,10.592 7.194,10.592 L3.792,10.592 L3.792,15.632 L3.792,15.632 Z" id="Shape"></path>
                    <path d="M17.466,3.86 L17.466,1.876 L19.788,1.876 C20.304,1.876 20.676,1.994 20.91,2.228 C21.144,2.462 21.26,2.838 21.26,3.354 L21.26,12.338 C21.26,13.548 21.61,14.494 22.312,15.19 C23.014,15.878 23.956,16.23 25.136,16.23 C26.316,16.23 27.26,15.878 27.964,15.19 C28.672,14.494 29.024,13.542 29.024,12.314 L29.024,3.354 C29.024,2.838 29.144,2.464 29.384,2.228 C29.624,1.992 30.002,1.876 30.516,1.876 L32.816,1.876 L32.816,3.86 L31.826,3.86 C31.492,3.86 31.324,4.024 31.324,4.36 L31.324,12.43 C31.324,14.204 30.76,15.634 29.632,16.734 C28.504,17.834 27.016,18.39 25.168,18.39 C23.31,18.39 21.81,17.836 20.668,16.734 C19.528,15.632 18.958,14.202 18.958,12.43 L18.958,4.36 C18.958,4.024 18.79,3.86 18.456,3.86 L17.466,3.86 L17.466,3.86 Z" id="Shape"></path>
                    <path d="M37.29,5.39 L37.29,3.258 C37.29,2.742 37.39,2.382 37.59,2.188 C37.794,1.978 38.152,1.876 38.668,1.876 L49.836,1.876 C50.352,1.876 50.712,1.978 50.912,2.188 C51.114,2.384 51.216,2.742 51.216,3.258 L51.216,5.39 L49.174,5.39 L49.174,4.36 C49.174,4.024 49.002,3.86 48.656,3.86 L45.402,3.86 L45.402,18.11 L43.102,18.11 L43.102,3.86 L39.836,3.86 C39.498,3.86 39.33,4.024 39.33,4.36 L39.33,5.392 L37.29,5.392 L37.29,5.39 Z" id="Shape"></path>
                    <path d="M55.348,5.39 L55.348,3.258 C55.348,2.742 55.45,2.382 55.65,2.188 C55.854,1.978 56.21,1.876 56.728,1.876 L67.894,1.876 C68.414,1.876 68.77,1.978 68.968,2.188 C69.172,2.384 69.276,2.742 69.276,3.258 L69.276,5.39 L67.234,5.39 L67.234,4.36 C67.234,4.024 67.058,3.86 66.718,3.86 L63.46,3.86 L63.46,18.11 L61.16,18.11 L61.16,3.86 L57.894,3.86 C57.558,3.86 57.388,4.024 57.388,4.36 L57.388,5.392 L55.348,5.392 L55.348,5.39 Z" id="Shape"></path>
                    <path d="M73.938,3.86 L73.938,1.876 L83.484,1.876 C84,1.876 84.378,1.994 84.61,2.228 C84.842,2.462 84.958,2.838 84.958,3.354 L84.958,5.394 L82.848,5.394 L82.848,4.36 C82.848,4.024 82.68,3.86 82.344,3.86 L77.73,3.86 L77.73,8.938 L83.41,8.938 L83.41,10.914 L77.73,10.914 L77.73,15.632 C77.73,15.96 77.898,16.132 78.234,16.132 L82.972,16.132 C83.304,16.132 83.476,15.96 83.476,15.632 L83.476,14.592 L85.59,14.592 L85.59,16.632 C85.59,17.156 85.472,17.522 85.238,17.758 C85.008,17.992 84.632,18.11 84.116,18.11 L76.898,18.11 C76.386,18.11 76.008,17.992 75.776,17.758 C75.544,17.524 75.428,17.156 75.428,16.632 L75.428,3.86 L73.938,3.86 L73.938,3.86 Z" id="Shape"></path>
                    <path d="M90.434,3.86 L90.434,1.876 L97.508,1.876 C98.95,1.876 100.118,2.306 101.008,3.166 C101.898,4.018 102.344,5.182 102.344,6.634 C102.344,7.158 102.278,7.642 102.152,8.094 C102.02,8.548 101.852,8.938 101.656,9.25 C101.456,9.562 101.222,9.836 100.96,10.086 C100.694,10.328 100.432,10.516 100.186,10.648 C99.928,10.78 99.682,10.874 99.448,10.93 L99.448,10.976 C99.714,11.116 99.944,11.358 100.132,11.71 L102.066,15.608 C102.168,15.826 102.308,15.976 102.476,16.038 C102.656,16.1 102.894,16.132 103.218,16.132 L103.514,16.132 L103.514,18.108 L102.388,18.108 C101.732,18.108 101.26,18.03 100.966,17.874 C100.676,17.726 100.4,17.39 100.154,16.882 L97.954,12.506 C97.75,12.138 97.544,11.904 97.34,11.802 C97.132,11.692 96.8,11.638 96.336,11.638 L94.222,11.638 L94.222,18.106 L91.922,18.106 L91.922,3.86 L90.434,3.86 L90.434,3.86 Z M94.226,9.672 L97.214,9.672 C98.09,9.672 98.768,9.406 99.264,8.882 C99.754,8.36 100,7.64 100,6.726 C100,5.82 99.754,5.116 99.266,4.616 C98.786,4.1 98.114,3.858 97.262,3.858 L94.226,3.858 L94.226,9.672 L94.226,9.672 Z" id="Shape"></path>
                    <path d="M107.988,9.844 C107.988,8.696 108.196,7.61 108.614,6.594 C109.024,5.57 109.598,4.704 110.31,3.968 C111.032,3.242 111.9,2.664 112.904,2.242 C113.912,1.82 114.986,1.61 116.13,1.61 C116.588,1.61 117.084,1.65 117.602,1.72 C118.122,1.798 118.66,1.924 119.212,2.102 C119.77,2.282 120.266,2.5 120.696,2.758 C121.138,3.024 121.504,3.352 121.782,3.766 C122.068,4.172 122.208,4.634 122.208,5.126 L122.208,6.704 L120.102,6.704 L120.102,5.774 C120.102,5.352 119.884,4.97 119.442,4.648 C119.004,4.32 118.492,4.086 117.91,3.944 C117.332,3.796 116.75,3.718 116.168,3.718 C114.52,3.718 113.144,4.288 112.036,5.428 C110.93,6.56 110.38,8.046 110.38,9.842 C110.38,11.006 110.638,12.076 111.146,13.06 C111.666,14.028 112.368,14.802 113.268,15.372 C114.166,15.934 115.158,16.224 116.24,16.224 C116.682,16.224 117.116,16.178 117.532,16.098 C117.958,16.012 118.336,15.91 118.66,15.778 C118.996,15.652 119.304,15.512 119.606,15.356 C119.908,15.2 120.164,15.036 120.372,14.872 C120.582,14.716 120.758,14.568 120.914,14.442 C121.07,14.316 121.176,14.208 121.254,14.13 L121.372,14.004 L122.602,15.668 C122.54,15.738 122.454,15.84 122.332,15.958 C122.214,16.084 121.95,16.302 121.532,16.606 C121.122,16.926 120.688,17.208 120.236,17.442 C119.778,17.684 119.19,17.902 118.454,18.098 C117.728,18.286 116.982,18.388 116.216,18.388 C115.024,18.388 113.92,18.162 112.888,17.724 C111.86,17.286 110.994,16.678 110.278,15.912 C109.568,15.146 109.008,14.24 108.598,13.194 C108.196,12.148 107.988,11.032 107.988,9.844 L107.988,9.844 Z" id="Shape"></path>
                    <path d="M127.454,3.86 L127.454,1.876 L129.778,1.876 C130.294,1.876 130.668,1.994 130.9,2.228 C131.132,2.462 131.248,2.838 131.248,3.354 L131.248,12.338 C131.248,13.548 131.604,14.494 132.302,15.19 C133.006,15.878 133.95,16.23 135.126,16.23 C136.31,16.23 137.254,15.878 137.958,15.19 C138.662,14.494 139.02,13.542 139.02,12.314 L139.02,3.354 C139.02,2.838 139.134,2.464 139.376,2.228 C139.614,1.994 139.994,1.876 140.504,1.876 L142.808,1.876 L142.808,3.86 L141.82,3.86 C141.48,3.86 141.316,4.024 141.316,4.36 L141.316,12.43 C141.316,14.204 140.75,15.634 139.62,16.734 C138.498,17.836 137.01,18.39 135.162,18.39 C133.302,18.39 131.802,17.836 130.658,16.734 C129.518,15.632 128.948,14.202 128.948,12.43 L128.948,4.36 C128.948,4.024 128.776,3.86 128.444,3.86 L127.454,3.86 L127.454,3.86 Z" id="Shape"></path>
                    <path d="M147.804,3.86 L147.804,1.876 L154.936,1.876 C156.432,1.876 157.654,2.344 158.592,3.274 C159.536,4.21 160,5.438 160,6.96 C160,8.492 159.536,9.726 158.594,10.67 C157.648,11.624 156.434,12.1 154.946,12.1 L151.594,12.1 L151.594,18.108 L149.298,18.108 L149.298,3.86 L147.804,3.86 L147.804,3.86 Z M151.594,10.126 L154.582,10.126 C155.536,10.126 156.286,9.844 156.836,9.282 C157.386,8.72 157.656,7.946 157.656,6.962 C157.656,5.994 157.386,5.228 156.844,4.68 C156.302,4.126 155.558,3.86 154.606,3.86 L151.594,3.86 L151.594,10.126 L151.594,10.126 Z" id="Shape"></path>
                </g>
            </g>
        </g>
    </g>
</svg>