<?xml version="1.0" encoding="UTF-8"?><svg version="1.1" viewBox="0 0 100 112" xmlns="http://www.w3.org/2000/svg" xmlns:xlink="http://www.w3.org/1999/xlink"><!--Generated by IJSVG (https://github.com/curthard89/IJSVG)--><defs><mask id="mask-1" maskContentUnits="userSpaceOnUse" maskUnits="objectBoundingBox"><g fill="#FFFFFF"><use transform="translate(6.59476, 12.0948)" xlink:href="#path-1"></use></g></mask><path id="path-15" d="M11.48,1.49605e-09l-4.05,9.62l-4,-9.61l8.21865e-07,-3.05655e-07c-1.24969,0.464766 -2.40999,1.14132 -3.43,2v17.74l3.15,1.79l-7.26653e-08,-4.21594e-08c0.503032,0.291852 1.14511,0.158265 1.49,-0.31l2.83,-4.7l2.84,4.7l-4.15708e-08,-5.64421e-08c0.344887,0.468265 0.986968,0.601852 1.49,0.31l3.15,-1.79v-17.72l-3.26814e-09,-2.76049e-09c-1.03134,-0.871148 -2.20522,-1.55788 -3.47,-2.03Z"></path><path id="path-10" d="M29.148,23.59l1.81015e-07,-1.47465e-07c3.63956,-2.965 4.18639,-8.31905 1.2214,-11.9586c-1.61451,-1.98182 -4.03518,-3.13182 -6.5914,-3.1314l3.87977e-07,-7.99794e-10c-0.506524,0.00104416 -1.01192,0.0479015 -1.51,0.139999c0,0 0,-0.09 0,-0.14v0c0,-4.69442 -3.80558,-8.5 -8.5,-8.5c-4.69442,0 -8.5,3.80558 -8.5,8.5c0,0.18 0,0.35 0,0.52l-3.33206e-07,2.76361e-08c-3.02167,0.250618 -5.26805,2.90333 -5.01743,5.925c0.127153,1.53306 0.891679,2.94245 2.10743,3.885l1.01012e-07,-2.48697e-07c-1.32951,3.27331 -0.479545,7.02831 2.13,9.41l-4.10856e-08,7.11668e-08c-1.51595,2.62587 -0.616188,5.98347 2.00968,7.49943c2.62587,1.51595 5.98347,0.616188 7.49943,-2.00968c0.0917655,-0.158952 0.175502,-0.322407 0.250895,-0.489747l5.24943e-07,4.28507e-07c2.35313,1.92084 5.81786,1.5704 7.73869,-0.78273c0.0916443,-0.112269 0.178815,-0.228117 0.261309,-0.347271l-1.87428e-08,-1.22986e-08c0.890588,0.584383 1.93485,0.890701 3,0.88l-1.85238e-07,-6.5306e-11c3.03757,0.00107088 5.50087,-2.46049 5.50194,-5.49806c0.000518116,-1.46964 -0.587157,-2.87836 -1.63194,-3.91194Z"></path><path id="path-9" d="M0,0v4"></path><path id="path-12" d="M7.5,9.2c-3.45,0 -7.5,-9.2 0,-9.2c7.5,0 3.49,9.2 0,9.2Z"></path><path id="path-5" d="M4,0h-3h-4.37114e-08c-0.552285,2.41411e-08 -1,0.447715 -1,1c0,0 0,0 0,0v5l5,-5v-4.37114e-08c0,-0.552285 -0.447715,-1 -1,-1c-1.35461e-08,0 -3.01653e-08,0 -4.37114e-08,0Z"></path><path id="path-16" d="M1.55207,0.335851c0.335851,0.335851 0.335851,0.880373 0,1.21622c-0.335851,0.335851 -0.880373,0.335851 -1.21622,0c-0.335851,-0.335851 -0.335851,-0.880373 0,-1.21622c0.335851,-0.335851 0.880373,-0.335851 1.21622,0"></path><path id="path-3" d="M24,0h-23h-4.37114e-08c-0.552285,2.41411e-08 -1,0.447715 -1,1c0,0 0,0 0,0v40h24Z"></path><path id="path-2" d="M0,0h2.5"></path><path id="path-18" d="M7.42,0.00425551v0l3.75021e-07,4.26247e-10c-3.74401,-0.00425551 -6.91446,2.76028 -7.42,6.47l1.90555e-08,-9.56106e-09c0.158251,-0.0794023 0.332947,-0.120507 0.51,-0.12h13.81l5.28127e-08,-4.98822e-10c0.173989,-0.00164334 0.345708,0.0395692 0.5,0.12l2.8696e-07,2.1243e-06c-0.500406,-3.7044 -3.66195,-6.46862 -7.4,-6.47Z"></path><path id="path-11" d="M8,5v0c0,-1.10457 -0.895431,-2 -2,-2v0c0,-1.65685 -1.34315,-3 -3,-3c-1.65685,0 -3,1.34315 -3,3"></path><path id="path-1" d="M72.1895,15.621c15.621,15.621 15.621,40.9476 0,56.5685c-15.621,15.621 -40.9476,15.621 -56.5685,0c-15.621,-15.621 -15.621,-40.9476 -1.42109e-14,-56.5685c15.621,-15.621 40.9476,-15.621 56.5685,-1.42109e-14"></path><path id="path-8" d="M0.84141,1.86l11.16,-1.86v4h-11h-4.37114e-08c-0.552285,-2.41411e-08 -1,-0.447715 -1,-1c0,0 0,0 0,0v-0.15l-4.07832e-08,-1.41845e-05c-0.00141,-0.491616 0.354728,-0.911338 0.840014,-0.989988Z"></path><path id="path-14" d="M19,13.8v6.9h-15v1.73h-4v-10.93l1.27898e-13,1.73645e-06c-9.59016e-07,-6.35127 5.14872,-11.5 11.5,-11.5c6.35127,-9.59016e-07 11.5,5.14872 11.5,11.5c0,0 0,1.42109e-14 0,1.42109e-14v2.3Z"></path><path id="path-17" d="M0,0v2.3"></path><path id="path-6" d="M6,2h-5h-4.37114e-08c-0.552285,-2.41411e-08 -1,-0.447715 -1,-1c0,0 0,0 0,0v0l1.42109e-14,1.50996e-07c-8.33927e-08,-0.552285 0.447715,-1 1,-1h5h-4.37114e-08c0.552285,-2.41411e-08 1,0.447715 1,1v0l1.42109e-14,8.74228e-08c0,0.552285 -0.447715,1 -1,1Z"></path><path id="path-4" d="M5,7h-5v-6l1.42109e-14,1.50996e-07c-8.33927e-08,-0.552285 0.447715,-1 1,-1h3h-4.37114e-08c0.552285,-2.41411e-08 1,0.447715 1,1Z"></path><path id="path-7" d="M0,0v5"></path><path id="path-13" d="M1.09119e-07,0v18.86l-1.09119e-07,6.24793e-08c0.523746,-0.299886 1.11648,-0.458407 1.72,-0.46h0.58l1.61699e-08,-2.19842e-11c1.19327,-0.00162254 2.30215,0.61526 2.93,1.63l0.4,-12.49l2.51155e-08,-3.40914e-07c0.0750683,-1.01897 0.961958,-1.78415 1.98092,-1.70908c0.914538,0.067375 1.6417,0.79454 1.70908,1.70908l0.39,12.49l-1.63934e-07,2.63052e-07c0.632476,-1.01488 1.74417,-1.63123 2.94,-1.63h0.57l1.73314e-07,9.04237e-11c0.606852,0.000316616 1.20313,0.158866 1.73,0.46v-18.86Z"></path></defs><g fill="#E8F4FA"><path d="M80,39.9963l1.75431e-07,0.00374627c-1.42109e-14,-22.0914 -17.9086,-40 -40,-40c-22.0914,7.10543e-15 -40,17.9086 -40,40c0,5.68809 1.21314,11.3108 3.55846,16.4928h72.8815l6.1272e-07,-1.35057e-06c2.35079,-5.18164 3.56467,-10.8066 3.56,-16.4966Z" transform="translate(10.5, 16.0037)"></path><path fill="#FFFFFF" d="M2.10036e-06,4.63966e-06l-2.10036e-06,-4.63966e-06c9.11063,20.1253 32.811,29.0544 52.9363,19.9438c8.84893,-4.00588 15.9379,-11.0948 19.9437,-19.9437Z" transform="translate(14.06, 72.5)"></path><path fill="none" stroke="#191816" stroke-linecap="round" stroke-linejoin="round" stroke-width="1" d="M0,0h78" transform="translate(11.5, 72.5)"></path><use fill="none" stroke="#191816" stroke-linecap="round" stroke-linejoin="round" stroke-width="1" transform="translate(7, 72.5)" xlink:href="#path-2"></use><use fill="none" stroke="#191816" stroke-linecap="round" stroke-linejoin="round" stroke-width="1" transform="translate(91.5, 72.5)" xlink:href="#path-2"></use></g><g fill="none"><use transform="translate(6.59476, 12.0948)" xlink:href="#path-1"></use><g mask="url(#mask-1)"><path fill="#DAEDF7" stroke="#191816" stroke-linecap="round" stroke-linejoin="round" stroke-width="1" d="M0,16.68l28.18,-16.68h-28.18v16.68Z" transform="translate(1.2, 72.5)"></path><path fill="#DAEDF7" stroke="#191816" stroke-linecap="round" stroke-linejoin="round" stroke-width="1" d="M28.19,16.68l-28.19,-16.68h28.19v16.68Z" transform="translate(71.62, 72.5)"></path><path fill="#F0D5A8" stroke="#191816" stroke-linecap="round" stroke-linejoin="round" stroke-width="1" d="M24,11.5l-24,9.5v-20l24,-1v11.5Z" transform="translate(-1, 61)"></path><use fill="#F0D5A8" transform="translate(72, 31.5)" xlink:href="#path-3"></use><path fill="#F7E5C6" d="M1,0h-4.37114e-08c-0.552285,2.41411e-08 -1,0.447715 -1,1c0,0 0,0 0,0v3l1.42109e-14,1.50996e-07c-8.33927e-08,-0.552285 0.447715,-1 1,-1h23v-3Z" transform="translate(72, 31.5)"></path><use fill="none" stroke="#191816" stroke-linecap="round" stroke-linejoin="round" stroke-width="1" transform="translate(72, 31.5)" xlink:href="#path-3"></use><use fill="#00B8F0" transform="translate(77, 36.5)" xlink:href="#path-4"></use><use fill="#4ACFFF" transform="translate(77, 36.5)" xlink:href="#path-5"></use><use fill="none" stroke="#191816" stroke-linecap="round" stroke-linejoin="round" stroke-width="1" transform="translate(77, 36.5)" xlink:href="#path-4"></use><use fill="#DEBB7E" stroke="#191816" stroke-linecap="round" stroke-linejoin="round" stroke-width="1" transform="translate(76, 43.5)" xlink:href="#path-6"></use><use fill="#00B8F0" transform="translate(86.5, 36.5)" xlink:href="#path-4"></use><use fill="#4ACFFF" transform="translate(86.5, 36.5)" xlink:href="#path-5"></use><use fill="none" stroke="#191816" stroke-linecap="round" stroke-linejoin="round" stroke-width="1" transform="translate(86.5, 36.5)" xlink:href="#path-4"></use><use fill="#DEBB7E" stroke="#191816" stroke-linecap="round" stroke-linejoin="round" stroke-width="1" transform="translate(85.5, 43.5)" xlink:href="#path-6"></use><use fill="#00B8F0" transform="translate(86.5, 49)" xlink:href="#path-4"></use><use fill="#4ACFFF" transform="translate(86.5, 49)" xlink:href="#path-5"></use><use fill="none" stroke="#191816" stroke-linecap="round" stroke-linejoin="round" stroke-width="1" transform="translate(86.5, 49)" xlink:href="#path-4"></use><use fill="#DEBB7E" stroke="#191816" stroke-linecap="round" stroke-linejoin="round" stroke-width="1" transform="translate(85.5, 56)" xlink:href="#path-6"></use><use fill="#00B8F0" transform="translate(77, 49)" xlink:href="#path-4"></use><use fill="#4ACFFF" transform="translate(77, 49)" xlink:href="#path-5"></use><use fill="none" stroke="#191816" stroke-linecap="round" stroke-linejoin="round" stroke-width="1" transform="translate(77, 49)" xlink:href="#path-4"></use><use fill="#DEBB7E" stroke="#191816" stroke-linecap="round" stroke-linejoin="round" stroke-width="1" transform="translate(76, 56)" xlink:href="#path-6"></use><use fill="#00B8F0" transform="translate(77, 61)" xlink:href="#path-4"></use><use fill="#4ACFFF" transform="translate(77, 61)" xlink:href="#path-5"></use><use fill="none" stroke="#191816" stroke-linecap="round" stroke-linejoin="round" stroke-width="1" transform="translate(77, 61)" xlink:href="#path-4"></use><use fill="#DEBB7E" stroke="#191816" stroke-linecap="round" stroke-linejoin="round" stroke-width="1" transform="translate(76, 68)" xlink:href="#path-6"></use><use fill="#00B8F0" transform="translate(86.5, 61)" xlink:href="#path-4"></use><use fill="#4ACFFF" transform="translate(86.5, 61)" xlink:href="#path-5"></use><use fill="none" stroke="#191816" stroke-linecap="round" stroke-linejoin="round" stroke-width="1" transform="translate(86.5, 61)" xlink:href="#path-4"></use><use fill="#DEBB7E" stroke="#191816" stroke-linecap="round" stroke-linejoin="round" stroke-width="1" transform="translate(85.5, 68)" xlink:href="#path-6"></use><path fill="#DEBB7E" stroke="#191816" stroke-linecap="round" stroke-linejoin="round" stroke-width="1" d="M0.3,2.50178e-08h12.2v3h-11.5h-4.37114e-08c-0.552285,-2.41411e-08 -1,-0.447715 -1,-1c0,0 0,0 0,0v-1.7v-4.52987e-08c2.50178e-08,-0.165685 0.134315,-0.3 0.3,-0.3Z" transform="translate(59.5, 48.5)"></path><path fill="#DEBB7E" stroke="#191816" stroke-linecap="round" stroke-linejoin="round" stroke-width="1" d="M1,0h7v3h-8v-2l1.42109e-14,1.50996e-07c-8.33927e-08,-0.552285 0.447715,-1 1,-1Z" transform="translate(64, 69.5)"></path><path fill="none" stroke="#191816" stroke-linecap="round" stroke-linejoin="round" stroke-width="1" d="M12,0h-11h-4.37114e-08c-0.552285,2.41411e-08 -1,0.447715 -1,1c0,0 0,0 0,0v4h12Z" transform="translate(60, 43.5)"></path><path fill="none" stroke="#191816" stroke-linecap="round" stroke-linejoin="round" stroke-width="1" d="M21,0h-20h-4.37114e-08c-0.552285,2.41411e-08 -1,0.447715 -1,1c0,0 0,3.55271e-15 0,3.55271e-15v3h22v-3v-4.37114e-08c0,-0.552285 -0.447715,-1 -1,-1c-1.35461e-08,0 -3.01653e-08,0 -4.37114e-08,0Z" transform="translate(73, 27.5)"></path><use fill="none" stroke="#191816" stroke-linecap="round" stroke-linejoin="round" stroke-width="1" transform="translate(62, 43.5)" xlink:href="#path-7"></use><use fill="none" stroke="#191816" stroke-linecap="round" stroke-linejoin="round" stroke-width="1" transform="translate(64, 43.5)" xlink:href="#path-7"></use><use fill="none" stroke="#191816" stroke-linecap="round" stroke-linejoin="round" stroke-width="1" transform="translate(66, 43.5)" xlink:href="#path-7"></use><use fill="none" stroke="#191816" stroke-linecap="round" stroke-linejoin="round" stroke-width="1" transform="translate(68, 43.5)" xlink:href="#path-7"></use><use fill="none" stroke="#191816" stroke-linecap="round" stroke-linejoin="round" stroke-width="1" transform="translate(70, 43.5)" xlink:href="#path-7"></use><use fill="#FF6242" stroke="#191816" stroke-linecap="round" stroke-linejoin="round" stroke-width="1" transform="translate(59.9986, 32.5)" xlink:href="#path-8"></use><use fill="#FF6242" stroke="#191816" stroke-linecap="round" stroke-linejoin="round" stroke-width="1" transform="translate(59.9986, 54.5)" xlink:href="#path-8"></use><use fill="none" stroke="#191816" stroke-linecap="round" stroke-linejoin="round" stroke-width="1" transform="translate(75, 27.5)" xlink:href="#path-9"></use><use fill="none" stroke="#191816" stroke-linecap="round" stroke-linejoin="round" stroke-width="1" transform="translate(77, 27.5)" xlink:href="#path-9"></use><use fill="none" stroke="#191816" stroke-linecap="round" stroke-linejoin="round" stroke-width="1" transform="translate(79, 27.5)" xlink:href="#path-9"></use><use fill="none" stroke="#191816" stroke-linecap="round" stroke-linejoin="round" stroke-width="1" transform="translate(81, 27.5)" xlink:href="#path-9"></use><use fill="none" stroke="#191816" stroke-linecap="round" stroke-linejoin="round" stroke-width="1" transform="translate(83, 27.5)" xlink:href="#path-9"></use><use fill="none" stroke="#191816" stroke-linecap="round" stroke-linejoin="round" stroke-width="1" transform="translate(85, 27.5)" xlink:href="#path-9"></use><use fill="none" stroke="#191816" stroke-linecap="round" stroke-linejoin="round" stroke-width="1" transform="translate(87, 27.5)" xlink:href="#path-9"></use><use fill="none" stroke="#191816" stroke-linecap="round" stroke-linejoin="round" stroke-width="1" transform="translate(89, 27.5)" xlink:href="#path-9"></use><use fill="none" stroke="#191816" stroke-linecap="round" stroke-linejoin="round" stroke-width="1" transform="translate(91, 27.5)" xlink:href="#path-9"></use><path fill="#DEBB7E" stroke="#191816" stroke-linecap="round" stroke-linejoin="round" stroke-width="1" d="M1,0h6v4h-7v-3l1.42109e-14,1.50996e-07c-8.33927e-08,-0.552285 0.447715,-1 1,-1Z" transform="translate(65, 65.5)"></path><use fill="none" stroke="#191816" stroke-linecap="round" stroke-linejoin="round" stroke-width="1" transform="translate(93, 27.5)" xlink:href="#path-9"></use><use fill="#6DD627" transform="translate(4.22195, 27.5)" xlink:href="#path-10"></use><path fill="#9CEB60" d="M5.372,12.24c0,-0.17 0,-0.33 0,-0.51l-1.54624e-07,4.43655e-06c0.158509,-4.54807 3.97394,-8.1065 8.52201,-7.94799c4.32557,0.150755 7.79723,3.62242 7.94799,7.94799v0.14l-5.68429e-07,1.03375e-07c0.481864,-0.0876319 0.970261,-0.134465 1.46,-0.14l2.10557e-07,1.0095e-09c4.50032,0.0215767 8.1509,3.6499 8.2,8.15l1.4605e-07,-4.09134e-07c0.329981,-0.924384 0.499095,-1.89848 0.5,-2.88l7.10543e-15,2.31587e-07c0,-4.69442 -3.80558,-8.5 -8.5,-8.5l3.87977e-07,-7.99787e-10c-0.506524,0.00104416 -1.01192,0.0479015 -1.51,0.139999c0,0 0,-0.09 0,-0.14v0c-7.10543e-15,-4.69442 -3.80558,-8.5 -8.5,-8.5c-4.69442,0 -8.5,3.80558 -8.5,8.5c0,0.18 0,0.35 0,0.52l-3.58949e-07,3.34281e-08c-2.82915,0.263473 -4.99191,2.63861 -4.99,5.48l-7.15861e-08,2.98931e-05c-0.00199922,0.835806 0.189684,1.66071 0.560013,2.41l1.75761e-08,-1.49578e-07c0.293759,-2.49998 2.30242,-4.4502 4.80999,-4.67003Z" transform="translate(4.498, 27.5)"></path><use fill="none" stroke="#191816" stroke-linecap="round" stroke-linejoin="round" stroke-width="1" transform="translate(4.22195, 27.5)" xlink:href="#path-10"></use><path fill="#9CEB60" d="M8,5v0c0,-1.10457 -0.895431,-2 -2,-2v0c0,-1.65685 -1.34315,-3 -3,-3c-1.65685,0 -3,1.34315 -3,3c1.71,-2.1 4.52,-1.01 8,2Z" transform="translate(21, 47.5)"></path><use fill="none" stroke="#191816" stroke-linecap="round" stroke-linejoin="round" stroke-width="1" transform="translate(21, 47.5)" xlink:href="#path-11"></use><path fill="#9CEB60" d="M8,5v0c0,-1.10457 -0.895431,-2 -2,-2v0c0,-1.65685 -1.34315,-3 -3,-3c-1.65685,0 -3,1.34315 -3,3c1.71,-2.1 4.5,-1.01 8,2Z" transform="translate(15.5, 36.5)"></path><use fill="none" stroke="#191816" stroke-linecap="round" stroke-linejoin="round" stroke-width="1" transform="translate(15.5, 36.5)" xlink:href="#path-11"></use></g><path opacity="0.15" fill="#191816" d="M43.061,0.675607c9.31791,0.675607 9.31791,1.77098 0,2.44659c-9.31791,0.675607 -24.4252,0.675607 -33.7431,0c-9.31791,-0.675607 -9.31791,-1.77098 -3.55271e-15,-2.44659c9.31791,-0.675607 24.4252,-0.675607 33.7431,0" transform="translate(22.5605, 84.8711)"></path><path stroke="#191816" stroke-linecap="round" stroke-linejoin="round" stroke-width="1" d="M0,6.34c0,0 0.58,6.3 8.05,6.3c7.47,0 6.9,-12.64 6.9,-12.64" transform="translate(33.51, 68.36)"></path><path fill="#FFF5E3" stroke="#191816" stroke-linecap="round" stroke-linejoin="round" stroke-width="1" d="M8.63754,9.2h-0.43l7.42295e-09,-6.43475e-09c1.0007,-0.867476 1.5769,-2.12565 1.58,-3.45c0,-2.54 -2.06,-5.75 -4.6,-5.75c-2.54,0 -4.6,3.21 -4.6,5.75l-9.90513e-08,4.13321e-05c-0.00315577,1.31932 0.561544,2.5762 1.55003,3.44999h-0.44c-1,0 -1.53,0.69 -1.67,1.64l-3.48024e-08,2.0833e-07c-0.0275731,0.165055 0.0201135,0.333792 0.13,0.46l-4.97094e-08,-5.82558e-08c0.10748,0.125959 0.264421,0.198954 0.43,0.2h9.12l1.11556e-08,1.24871e-10c0.169071,0.00189248 0.330256,-0.0713736 0.44,-0.2l-1.4714e-08,1.68994e-08c0.109887,-0.126208 0.157573,-0.294945 0.13,-0.46c-0.140031,-0.950028 -0.640031,-1.64003 -1.64003,-1.64003Z" transform="translate(28.3625, 74.7)"></path><path stroke="#191816" stroke-linecap="round" stroke-linejoin="round" stroke-width="1" d="M0,4.6v-4.6" transform="translate(33.51, 81.6)"></path><path fill="#BF8256" stroke="#191816" stroke-linecap="round" stroke-linejoin="round" stroke-width="1" d="M3.33665,2.31767l1.3793e-08,3.29788e-08c0.367269,0.878133 -0.0468673,1.88773 -0.925,2.255c-0.878133,0.367269 -1.88773,-0.0468673 -2.255,-0.925l-4.31448e-07,-3.05758e-06c-0.156654,-1.11018 -0.102371,-2.23995 0.160001,-3.33l3.31568e-09,-1.89029e-08c0.0333962,-0.190393 0.214813,-0.317664 0.405206,-0.284268c0.048233,0.00846038 0.0941538,0.026948 0.134794,0.0542677l5.32769e-07,3.22335e-07c0.959659,0.580611 1.80106,1.3372 2.48,2.23Z" transform="translate(28.3133, 66.2723)"></path><path fill="#BF8256" stroke="#191816" stroke-linecap="round" stroke-linejoin="round" stroke-width="1" d="M0.3257,2.31767l8.48491e-08,-2.33999e-07c-0.3257,0.898225 0.138423,1.89041 1.03665,2.21611c0.838894,0.304187 1.77152,-0.0795927 2.15335,-0.886114l4.15367e-07,-2.94362e-06c0.156654,-1.11018 0.102371,-2.23995 -0.160001,-3.33l2.21066e-09,1.26031e-08c-0.0333962,-0.190393 -0.214813,-0.317664 -0.405206,-0.284268c-0.048233,0.00846038 -0.0941538,0.026948 -0.134794,0.0542677l-1.05504e-06,6.40867e-07c-0.960433,0.583398 -1.80464,1.33946 -2.49,2.23Z" transform="translate(35.0443, 66.2723)"></path><use fill="#FFF5E3" transform="translate(26.01, 68.95)" xlink:href="#path-12"></use><path fill="#947746" d="M1.27204,3.38797e-07l2.00045e-07,-3.38797e-07c-1.27204,2.15434 -0.556803,4.93196 1.59753,6.20401c0.333225,0.196755 0.690288,0.350001 1.06247,0.455994c1.51,-2.66 1.62,-6.36 -2.66,-6.66Z" transform="translate(32.868, 69)"></path><path fill="#191816" d="M0.885378,0.00549145l-3.67995e-08,-4.20599e-10c-0.480456,-0.00549145 -0.874395,0.379544 -0.879886,0.86c-0.00549145,0.480456 0.379544,0.874395 0.86,0.879886c0.480456,0.00549145 0.874395,-0.379544 0.879886,-0.86c7.57622e-05,-0.00662857 7.57619e-05,-0.0132578 -8.68312e-10,-0.0198864l3.94836e-08,3.45508e-06c-0.00540104,-0.472709 -0.387288,-0.854599 -0.859997,-0.860003Z" transform="translate(31.1946, 71.2445)"></path><path fill="#191816" d="M0.885378,0.00549145l-3.67995e-08,-4.20599e-10c-0.480456,-0.00549145 -0.874395,0.379544 -0.879886,0.86c-0.00549145,0.480456 0.379544,0.874395 0.86,0.879886c0.480456,0.00549145 0.874395,-0.379544 0.879886,-0.86c7.57622e-05,-0.00662857 7.57619e-05,-0.0132578 -8.68312e-10,-0.0198864v0c0,-0.474965 -0.385035,-0.86 -0.86,-0.86Z" transform="translate(34.1146, 71.2445)"></path><path fill="#191816" d="M1.15,1.00006l-4.31906e-09,-1.05729e-11c0.0450445,0.000110346 0.0882039,0.0180934 0.12,0.05l-0.12,0.09l-0.11,-0.09l4.8378e-09,-5.12098e-09c0.0287221,-0.0304034 0.0682075,-0.0483513 0.11,-0.05m0,-1h-3.73545e-08c-0.635127,2.77623e-08 -1.15,0.514873 -1.15,1.15c0,0.64 1.15,1.15 1.15,1.15c0,0 1.15,-0.51 1.15,-1.15l1.45264e-08,-1.64879e-06c0.00554638,-0.62958 -0.500333,-1.14445 -1.12991,-1.15c-0.00669604,-5.89897e-05 -0.0133925,-5.898e-05 -0.0200885,2.90553e-08Z" transform="translate(32.36, 75.8499)"></path><use stroke="#191816" stroke-linecap="round" stroke-linejoin="round" stroke-width="1" transform="translate(26.01, 68.95)" xlink:href="#path-12"></use><use fill="#8CA4B8" transform="translate(50.19, 64.35)" xlink:href="#path-13"></use><use stroke="#191816" stroke-linecap="round" stroke-linejoin="round" stroke-width="1" transform="translate(50.19, 64.35)" xlink:href="#path-13"></use><path fill="#627B8C" d="M0,0h14.95v2.88h-14.95Z" transform="translate(50.19, 64.35)"></path><path fill="#947746" stroke="#191816" stroke-linecap="round" stroke-linejoin="round" stroke-width="1" d="M5.86735,3.45l-3.41331e-08,7.59286e-10c0.63497,-0.0141247 1.13827,-0.54032 1.12414,-1.17529c-0.00382867,-0.172116 -0.0462522,-0.341177 -0.124141,-0.494709l-6.15467e-08,-1.11263e-07c-0.604289,-1.09242 -1.7516,-1.77316 -3,-1.78h-0.58l7.71452e-08,-4.22688e-10c-1.2484,0.00684008 -2.39571,0.687578 -3,1.78l-9.1914e-08,1.81179e-07c-0.287345,0.566409 -0.0611186,1.25851 0.505291,1.54586c0.153532,0.0778884 0.322593,0.120312 0.494709,0.12414Z" transform="translate(48.6127, 82.75)"></path><path fill="#FFCEBF" stroke="#191816" stroke-linecap="round" stroke-linejoin="round" stroke-width="1" d="M2.13163e-14,2l2.13163e-14,3.01992e-07c1.66785e-07,1.10457 0.895431,2 2,2c1.10457,-1.66785e-07 2,-0.895431 2,-2v-2h-4Z" transform="translate(46.16, 66.09)"></path><use fill="#F0F0F0" transform="translate(46.14, 43.65)" xlink:href="#path-14"></use><path fill="#FFFFFF" d="M11.8176,7.10543e-15l-5.02681e-07,7.10543e-15c-6.35127,2.77623e-07 -11.5,5.14873 -11.5,11.5c0,0 0,7.10543e-15 0,7.10543e-15v3.45l-1.34397e-07,-2.68795e-06c-0.317562,-6.35127 4.57373,-11.7574 10.925,-12.075c6.35127,-0.317562 11.7574,4.57373 12.075,10.925v0v-2.3l3.2685e-13,-2.77271e-06c0,-6.35127 -5.14873,-11.5 -11.5,-11.5c-9.68308e-07,0 -1.94304e-06,1.27898e-13 -2.91134e-06,3.69482e-13Z" transform="translate(45.8424, 43.65)"></path><use stroke="#191816" stroke-linecap="round" stroke-linejoin="round" stroke-width="1" transform="translate(46.14, 43.65)" xlink:href="#path-14"></use><path fill="#FFFFFF" stroke="#191816" stroke-linecap="round" stroke-linejoin="round" stroke-width="1" d="M5.53,2.75691e-11l5.9359e-07,-2.75691e-11c-1.9335,8.97456e-05 -3.83566,0.488528 -5.53,1.42l2.29,1.44l-1.06754e-07,-6.80052e-08c0.530951,0.33823 1.23517,0.18669 1.58,-0.339999Z" transform="translate(52.13, 43.65)"></path><path fill="#FFFFFF" stroke="#191816" stroke-linecap="round" stroke-linejoin="round" stroke-width="1" d="M0,0.00116238l1.91442e-07,-1.14895e-10c1.93683,-0.00116238 3.84253,0.487302 5.54,1.42l-2.29,1.44l5.98216e-08,-3.74999e-08c-0.528879,0.331534 -1.22567,0.180638 -1.57,-0.34Z" transform="translate(57.66, 43.6488)"></path><use fill="#FF6242" transform="translate(50.23, 44.38)" xlink:href="#path-15"></use><path fill="#FF866E" d="M4.71,5.45v-3.45l4.7513e-07,3.98422e-07c-1.02149,-0.856573 -2.18141,-1.53291 -3.43,-2l-1.28,3l2.72293e-08,6.86972e-09c1.73934,0.438819 3.35216,1.27776 4.71,2.45Z" transform="translate(60.43, 44.41)"></path><path fill="#FF866E" d="M4.71,3l-1.28,-3l8.21865e-07,-3.05655e-07c-1.24969,0.464766 -2.40999,1.14132 -3.43,2v3.45l1.34216e-06,-1.16162e-06c1.35658,-1.17409 2.96987,-2.01327 4.71,-2.45Z" transform="translate(50.19, 44.43)"></path><use stroke="#191816" stroke-linecap="round" stroke-linejoin="round" stroke-width="1" transform="translate(50.23, 44.38)" xlink:href="#path-15"></use><path fill="#191816" d="M0.580001,0.00552287l2.86756e-08,5.03164e-10c-0.314754,-0.00552287 -0.574389,0.245158 -0.579912,0.559912c-5.89962e-05,0.00336225 -8.82373e-05,0.00672496 -8.77199e-05,0.0100877l7.10543e-15,8.75776e-08c4.83678e-08,0.320325 0.259675,0.58 0.58,0.58l-2.12876e-08,-3.2756e-12c0.314802,4.84616e-05 0.570039,-0.25511 0.570088,-0.569912c5.17675e-07,-0.00336277 -2.87232e-05,-0.00672548 -8.7719e-05,-0.0100877l8.07546e-10,-4.48079e-08c0.00557304,-0.309229 -0.240589,-0.564427 -0.549818,-0.57c-0.00672674,-0.000121232 -0.0134551,-0.000121231 -0.0201818,1.61509e-09Z" transform="translate(59.42, 55.7245)"></path><path fill="#191816" d="M0.58,0h1.86807e-08c-0.320325,1.40019e-08 -0.58,0.259675 -0.58,0.58c1.40019e-08,0.320325 0.259675,0.58 0.58,0.58h-2.44505e-10c0.320325,-2.41839e-08 0.58,-0.259675 0.58,-0.58c-2.41839e-08,-0.320325 -0.259675,-0.58 -0.58,-0.58Z" transform="translate(59.42, 59.17)"></path><path fill="#FFCEBF" stroke="#191816" stroke-linecap="round" stroke-linejoin="round" stroke-width="1" d="M15.0658,7.82v-0.92v1.69276e-07c0,-3.81076 -3.08924,-6.9 -6.9,-6.9c-3.81076,0 -6.9,3.08924 -6.9,6.9v0.92l-1.1962e-07,2.29472e-08c-0.764776,0.146711 -1.26582,0.885617 -1.11911,1.65039c0.119261,0.621684 0.63822,1.08769 1.26911,1.13961l-1.47155e-07,-7.06431e-07c0.777128,3.73068 4.43143,6.12501 8.16212,5.34789c2.68784,-0.559897 4.78799,-2.66004 5.34789,-5.34789l9.21635e-08,-8.04186e-09c0.775774,-0.0676913 1.34979,-0.751455 1.2821,-1.52723c-0.054903,-0.629214 -0.52154,-1.14516 -1.1421,-1.26277Z" transform="translate(49.4942, 25.25)"></path><path fill="#191816" d="M0.86,3.75918e-08h-3.75918e-08c-0.474965,2.07614e-08 -0.86,0.385035 -0.86,0.86c2.07614e-08,0.474965 0.385035,0.86 0.86,0.86c0.474965,-2.07614e-08 0.86,-0.385035 0.86,-0.86c0,0 0,0 0,0v0c0,-0.474965 -0.385035,-0.86 -0.86,-0.86Z" transform="translate(54.22, 32.73)"></path><path fill="#191816" d="M0.86,7.9409e-05h-3.75918e-08c-0.474965,2.07614e-08 -0.86,0.385035 -0.86,0.86c2.07614e-08,0.474965 0.385035,0.86 0.86,0.86c0.474965,-2.07614e-08 0.86,-0.385035 0.86,-0.86c0,0 0,0 0,0l-2.11039e-09,1.78307e-07c0.00555582,-0.469409 -0.370472,-0.854444 -0.839881,-0.86c-0.00670612,-7.93721e-05 -0.0134129,-7.93735e-05 -0.0201191,-4.22074e-09Z" transform="translate(59.39, 32.7299)"></path><use fill="#FFB59E" transform="translate(52.986, 34.366)" xlink:href="#path-16"></use><use fill="#FFB59E" transform="translate(60.456, 34.366)" xlink:href="#path-16"></use><path fill="#724F3D" stroke="#191816" stroke-linecap="round" stroke-linejoin="round" stroke-width="1" d="M11.4,2l2.14629e-07,-4.38203e-08c-0.853778,0.174314 -1.74189,0.0131641 -2.48,-0.45l1.60049e-08,9.92112e-09c-0.652201,-0.404287 -1.4027,-0.622173 -2.17,-0.63v0l1.96576e-07,-1.61003e-09c-0.767529,0.00628635 -1.51843,0.22429 -2.17,0.63l4.01235e-08,-2.51776e-08c-0.738107,0.463164 -1.62622,0.624314 -2.48,0.45l9.62678e-08,7.26733e-09c-1.08672,-0.0820377 -1.96508,-0.918567 -2.1,-2l0.4,2.49l1.37418e-07,6.8763e-07c0.37616,1.88228 1.74242,3.41311 3.57,4l-1.33239e-07,-4.82033e-08c0.902775,0.326606 1.83323,0.570933 2.77999,0.729999v0l1.69966e-06,-2.84921e-07c0.943697,-0.158196 1.87091,-0.402551 2.77,-0.73l1.87658e-08,-6.00538e-09c1.83025,-0.585712 3.20008,-2.11624 3.58,-4l0.4,-2.49l2.97452e-08,-2.38421e-07c-0.134919,1.08143 -1.01327,1.91796 -2.1,2Z" transform="translate(50.92, 35.83)"></path><path fill="#FF6242" stroke="#191816" stroke-linecap="round" stroke-linejoin="round" stroke-width="1" d="M14.94,0h-13.79h4.70605e-09c-0.635127,2.77623e-08 -1.15,0.514873 -1.15,1.15c2.77623e-08,0.635127 0.514873,1.15 1.15,1.15h13.79h-5.02681e-08c0.635127,2.77623e-08 1.15,-0.514872 1.15,-1.15c2.77623e-08,-0.635127 -0.514872,-1.15 -1.15,-1.15Z" transform="translate(49.62, 29.85)"></path><use stroke="#191816" stroke-linecap="round" stroke-linejoin="round" stroke-width="1" transform="translate(52.49, 29.85)" xlink:href="#path-17"></use><use stroke="#191816" stroke-linecap="round" stroke-linejoin="round" stroke-width="1" transform="translate(55.94, 29.85)" xlink:href="#path-17"></use><use stroke="#191816" stroke-linecap="round" stroke-linejoin="round" stroke-width="1" transform="translate(59.39, 29.85)" xlink:href="#path-17"></use><use stroke="#191816" stroke-linecap="round" stroke-linejoin="round" stroke-width="1" transform="translate(62.84, 29.85)" xlink:href="#path-17"></use><use fill="#FF6242" transform="translate(50.25, 23.5257)" xlink:href="#path-18"></use><path fill="#FF866E" d="M7.41,1.72067v0l-4.50582e-08,-2.00799e-11c3.01726,0.00134437 5.73828,1.81536 6.9,4.6l5.28127e-08,-4.98822e-10c0.173989,-0.00164334 0.345708,0.0395692 0.5,0.12l2.26889e-07,1.62978e-06c-0.514047,-3.69249 -3.6719,-6.44068 -7.4,-6.44v0l-2.57345e-07,5.14824e-11c-3.74021,0.000748329 -6.90497,2.76405 -7.41,6.47l1.90555e-08,-9.56106e-09c0.158251,-0.0794023 0.332947,-0.120507 0.51,-0.12l7.09287e-08,-1.72554e-07c1.15021,-2.7982 3.87463,-4.62632 6.9,-4.63Z" transform="translate(50.25, 23.5293)"></path><use stroke="#191816" stroke-linecap="round" stroke-linejoin="round" stroke-width="1" transform="translate(50.25, 23.5257)" xlink:href="#path-18"></use><path fill="#F0F0F0" stroke="#191816" stroke-linecap="round" stroke-linejoin="round" stroke-width="1" d="M2.88,0v3.59c0,2.11 -1,5.14 -2.88,6.19l2.88,2.3l9.51159e-08,-7.84488e-08c2.57246,-2.12169 4.04363,-5.29575 4,-8.63v-3.45" transform="translate(62.26, 56.3)"></path><path stroke="#191816" stroke-linecap="round" stroke-linejoin="round" stroke-width="1" d="M0,0v20.7" transform="translate(57.66, 43.65)"></path><path fill="#947746" stroke="#191816" stroke-linecap="round" stroke-linejoin="round" stroke-width="1" d="M1.1358,3.45l-2.09188e-08,-1.70417e-10c-0.629584,-0.00512899 -1.1358,-0.519665 -1.13068,-1.14925c0.00147871,-0.181512 0.0462795,-0.360046 0.130675,-0.520751l1.14629e-07,-2.07223e-07c0.604289,-1.09242 1.7516,-1.77316 3,-1.78h0.57l-4.72424e-08,-1.78332e-10c1.24899,0.00471475 2.39729,0.686043 3,1.78l-5.16802e-09,-9.84086e-09c0.292732,0.557414 0.0781647,1.24659 -0.479249,1.53932c-0.160705,0.0843958 -0.339239,0.129197 -0.520751,0.130675Z" transform="translate(59.7142, 82.75)"></path></g></svg>