<svg id="Multicolor" xmlns="http://www.w3.org/2000/svg" viewBox="0 0 100 112"><defs><style>.cls-1{fill:#e8f4fa;}.cls-2{fill:#fff;}.cls-24,.cls-3,.cls-6{fill:none;}.cls-3{stroke:#4f4a45;}.cls-12,.cls-13,.cls-16,.cls-21,.cls-22,.cls-3,.cls-6,.cls-8,.cls-9{stroke-linecap:round;}.cls-12,.cls-13,.cls-16,.cls-21,.cls-22,.cls-24,.cls-3,.cls-6,.cls-8,.cls-9{stroke-linejoin:round;}.cls-22,.cls-4{fill:#656769;}.cls-5{fill:#87898c;}.cls-12,.cls-13,.cls-16,.cls-21,.cls-22,.cls-24,.cls-6,.cls-8,.cls-9{stroke:#191816;}.cls-10,.cls-7{fill:#191816;}.cls-7{opacity:0.15;}.cls-11,.cls-8{fill:#c0dceb;}.cls-9{fill:#8ca4b8;}.cls-12{fill:#daedf7;}.cls-13,.cls-15{fill:#fff48c;}.cls-14{fill:#ffe500;}.cls-16,.cls-17{fill:#ffda8f;}.cls-18{fill:#ffbe3d;}.cls-19{fill:#614b44;}.cls-20{fill:#947063;}.cls-21{fill:#adc4d9;}.cls-23{fill:#f0f0f0;}</style></defs><title>20- podcaster-female-asian-1</title><g id="Background"><g id="New_Symbol_60-6" data-name="New Symbol 60"><path class="cls-1" d="M90.48,56A40,40,0,1,0,14.05,72.5H86.92A39.85,39.85,0,0,0,90.48,56Z"/><path class="cls-2" d="M14.05,72.5a40,40,0,0,0,72.87,0Z"/><line class="cls-3" x1="11.48" y1="72.5" x2="89.48" y2="72.5"/><line class="cls-3" x1="6.98" y1="72.5" x2="9.48" y2="72.5"/><line class="cls-3" x1="91.48" y1="72.5" x2="93.98" y2="72.5"/></g></g><g id="Scene"><path class="cls-4" d="M34,43.5H32a1,1,0,0,0-1,1V52h4V44.5A1,1,0,0,0,34,43.5Z"/><path class="cls-5" d="M35,46V44.5a1,1,0,0,0-1-1H32a1,1,0,0,0-1,1V46Z"/><path class="cls-6" d="M34,43.5H32a1,1,0,0,0-1,1V52h4V44.5A1,1,0,0,0,34,43.5Z"/><ellipse class="cls-7" cx="20.27" cy="81.5" rx="7" ry="1.5"/><path class="cls-4" d="M24.23,76h-7.5A1.75,1.75,0,0,0,15,77.75V79.5a1,1,0,0,0,1,1h9a1,1,0,0,0,1-1V77.75A1.75,1.75,0,0,0,24.23,76Z"/><path class="cls-5" d="M24.23,76h-7.5A1.75,1.75,0,0,0,15,77.75V79.5s0,.07,0,.11A1.75,1.75,0,0,1,16.73,78h7.5A1.75,1.75,0,0,1,26,79.61V77.75A1.75,1.75,0,0,0,24.23,76Z"/><path class="cls-6" d="M24.23,76h-7.5A1.75,1.75,0,0,0,15,77.75V79.5a1,1,0,0,0,1,1h9a1,1,0,0,0,1-1V77.75A1.75,1.75,0,0,0,24.23,76Z"/><path class="cls-8" d="M20.48,63.49A2.57,2.57,0,0,1,19,63V76h3V63A2.53,2.53,0,0,1,20.48,63.49Z"/><path class="cls-8" d="M18,58v3.09a2.5,2.5,0,0,0,5,0V58Z"/><rect class="cls-8" x="9.43" y="56.82" width="21.66" height="2.41" transform="translate(-12.54 6.05) rotate(-13.01)"/><path class="cls-9" d="M31.08,60.5l.44,2.21a1,1,0,0,0,1,.8h1a1,1,0,0,0,1-.8l.44-2.21Z"/><path class="cls-6" d="M32.75,63.51s-1.28,2.78,0,4.74S34,70.06,34,72.46"/><line class="cls-6" x1="29.48" y1="46" x2="36.48" y2="46"/><line class="cls-6" x1="32.98" y1="45.99" x2="32.98" y2="52.01"/><path class="cls-10" d="M20.49,60.9a.5.5,0,0,0-.5.5.5.5,0,0,0,.5.5.51.51,0,0,0,.5-.5.5.5,0,0,0-.5-.5Z"/><path class="cls-11" d="M13.36,60.43a1,1,0,0,1-.75,1.2l-6.93,1.6a1.79,1.79,0,1,1-.8-3.49l6.92-1.6a1,1,0,0,1,1.2.75Z"/><path class="cls-1" d="M3.57,62A3.06,3.06,0,0,1,4,61.87l9.2-2.13-.2-.85a1,1,0,0,0-1.2-.75l-6.92,1.6a1.79,1.79,0,0,0-1.35,2.15S3.56,62,3.57,62Z"/><path class="cls-6" d="M13.36,60.43a1,1,0,0,1-.75,1.2l-6.93,1.6a1.79,1.79,0,1,1-.8-3.49l6.92-1.6a1,1,0,0,1,1.2.75Z"/><rect class="cls-1" x="29.98" y="52" width="6" height="8.5" rx="1" ry="1"/><path class="cls-11" d="M36,59.5V57.39a1.19,1.19,0,0,1-1.09.7H31.08a1.21,1.21,0,0,1-1.1-.7V59.5a1,1,0,0,0,1,1h4A1,1,0,0,0,36,59.5Z"/><line class="cls-6" x1="29.97" y1="54.5" x2="35.98" y2="54.5"/><path class="cls-2" d="M83.48,76a2,2,0,0,1-2,2h-7a2,2,0,0,1-2-2V70.5a1,1,0,0,1,1-1h9a1,1,0,0,1,1,1Z"/><path class="cls-1" d="M81.48,75.5h-7a2,2,0,0,1-2-2V76a2,2,0,0,0,2,2h7a2,2,0,0,0,2-2V73.5A2,2,0,0,1,81.48,75.5Z"/><ellipse class="cls-7" cx="78.22" cy="80.78" rx="7" ry="1.5"/><path class="cls-12" d="M84.9,78H71a.4.4,0,0,0-.28.68A6.07,6.07,0,0,0,75,80.5h6a6.07,6.07,0,0,0,4.21-1.82A.4.4,0,0,0,84.9,78Z"/><line class="cls-6" x1="79.98" y1="69.5" x2="79.98" y2="71.91"/><path class="cls-13" d="M80.54,72.57a1,1,0,0,0-1.11,0l-.5.34a1,1,0,0,0-.45.83V75a1,1,0,0,0,1,1h1a1,1,0,0,0,1-1V73.74a1,1,0,0,0-.44-.83Z"/><path class="cls-6" d="M83.48,70.5h1.46a2.11,2.11,0,0,1,2,2.13,1.56,1.56,0,0,1-1.56,1.56,1.59,1.59,0,0,0-1.31.7l-.63.94"/><path class="cls-6" d="M79.45,58.51c-1.21,1.2,1.8,3,1.8,4.81,0,1.35-1.8,1.81-1.8,3"/><path class="cls-6" d="M75.24,56.1c-1.21,1.2,1.8,3,1.8,4.82,0,1.34-1.8,1.8-1.8,3"/><path class="cls-6" d="M83.48,76a2,2,0,0,1-2,2h-7a2,2,0,0,1-2-2V70.5a1,1,0,0,1,1-1h9a1,1,0,0,1,1,1Z"/><path class="cls-14" d="M56,49.23a15.53,15.53,0,0,0-15.5,15.64V66a1,1,0,0,0,1,1h5v5.51h19V67h5a1,1,0,0,0,1-1V64.87A15.52,15.52,0,0,0,56,49.23Z"/><path class="cls-15" d="M56,49.23a15.53,15.53,0,0,0-15.5,15.64V66a1,1,0,0,0,.15.51,15.48,15.48,0,0,1,30.71,0,1,1,0,0,0,.14-.51V64.87A15.52,15.52,0,0,0,56,49.23Z"/><path class="cls-6" d="M56,49.23a15.53,15.53,0,0,0-15.5,15.64V66a1,1,0,0,0,1,1h5v5.51h19V67h5a1,1,0,0,0,1-1V64.87A15.52,15.52,0,0,0,56,49.23Z"/><rect class="cls-16" x="41.48" y="67" width="5" height="5.5"/><rect class="cls-16" x="65.48" y="67" width="5" height="5.5"/><path class="cls-6" d="M46.48,67c-.77-1.55-1-2-.55-3.73l.55-2.2"/><path class="cls-6" d="M65.48,67c.78-1.55,1-2,.56-3.73l-.56-2.2"/><path class="cls-17" d="M59.48,49.62V46.5h-7v3.12a15.1,15.1,0,0,0-2.59.85,7,7,0,0,0,12.17,0A15.1,15.1,0,0,0,59.48,49.62Z"/><path class="cls-18" d="M59.48,46.5h-7v3.28a8.84,8.84,0,0,0,7,0Z"/><path class="cls-6" d="M59.48,49.62V46.5h-7v3.12a15.1,15.1,0,0,0-2.59.85,7,7,0,0,0,12.17,0A15.1,15.1,0,0,0,59.48,49.62Z"/><path class="cls-16" d="M66,36v-2.5a10,10,0,1,0-20,0V36a2,2,0,0,0,0,4h.13a10,10,0,0,0,19.75,0H66a2,2,0,0,0,0-4Z"/><circle class="cls-18" cx="50.24" cy="40.26" r="1.25"/><circle class="cls-18" cx="61.74" cy="40.26" r="1.25"/><path class="cls-6" d="M53.49,37a1.63,1.63,0,0,0-3,0"/><path class="cls-6" d="M61.49,37a1.63,1.63,0,0,0-3,0"/><path class="cls-6" d="M59,42.8a4.32,4.32,0,0,1-6,0"/><path class="cls-19" d="M61.85,24a1,1,0,0,1-.61-.24A8.68,8.68,0,0,0,55,21.51,11.5,11.5,0,0,0,43.49,33v5A6.07,6.07,0,0,0,45,42v1.3a6.67,6.67,0,0,0,2,4.75.3.3,0,0,0,.51-.21V35a1,1,0,0,1,1-1h15a1,1,0,0,1,1,1V47.85a.3.3,0,0,0,.51.21,6.63,6.63,0,0,0,2-4.75V42a6.07,6.07,0,0,0,1.5-4V31A7,7,0,0,0,61.85,24Z"/><path class="cls-20" d="M61.85,24a1,1,0,0,1-.61-.24A8.68,8.68,0,0,0,55,21.51,11.5,11.5,0,0,0,43.49,33v4A11.5,11.5,0,0,1,55,25.51a8.68,8.68,0,0,1,6.25,2.27,1,1,0,0,0,.61.24,7,7,0,0,1,6.64,7V31A7,7,0,0,0,61.85,24Z"/><path class="cls-6" d="M61.85,24a1,1,0,0,1-.61-.24A8.68,8.68,0,0,0,55,21.51,11.5,11.5,0,0,0,43.49,33v5A6.07,6.07,0,0,0,45,42v1.3a6.67,6.67,0,0,0,2,4.75.3.3,0,0,0,.51-.21V35a1,1,0,0,1,1-1h15a1,1,0,0,1,1,1V47.85a.3.3,0,0,0,.51.21,6.63,6.63,0,0,0,2-4.75V42a6.07,6.07,0,0,0,1.5-4V31A7,7,0,0,0,61.85,24Z"/><path class="cls-6" d="M48.87,28.51a9,9,0,0,0-1.81,4.38,1,1,0,0,0,1,1.12H63.92a1,1,0,0,0,1-1.12,8.9,8.9,0,0,0-1.8-4.38"/><line class="cls-6" x1="66.99" y1="42.01" x2="66.99" y2="35.01"/><line class="cls-6" x1="44.99" y1="35.01" x2="44.99" y2="42.01"/><path class="cls-21" d="M56,17.5c-6.67,0-13.5,4.72-13.5,15.5h2c0-9.58,5-13,11.5-13.5,6.5.5,11.5,3.92,11.5,13.5h2C69.48,22.22,62.66,17.51,56,17.5Z"/><path class="cls-22" d="M45,43.5H42V33h3a1,1,0,0,1,1,1v8.5A1,1,0,0,1,45,43.5Z"/><path class="cls-23" d="M42,43.5c-2.2,0-4-2.35-4-5.25S39.78,33,42,33Z"/><path class="cls-2" d="M38,38.25a6.53,6.53,0,0,0,.08,1C38.41,36.83,40,35,42,35V33C39.78,33,38,35.35,38,38.25Z"/><path class="cls-24" d="M42,43.5c-2.2,0-4-2.35-4-5.25S39.78,33,42,33Z"/><path class="cls-22" d="M67,43.5h3V33H67a1,1,0,0,0-1,1v8.5A1,1,0,0,0,67,43.5Z"/><path class="cls-23" d="M70,43.5c2.21,0,4-2.35,4-5.25S72.19,33,70,33Z"/><path class="cls-2" d="M74,38.25a6.54,6.54,0,0,1-.07,1C73.56,36.83,71.93,35,70,35V33C72.19,33,74,35.35,74,38.25Z"/><path class="cls-24" d="M70,43.5c2.21,0,4-2.35,4-5.25S72.19,33,70,33Z"/><path class="cls-4" d="M62.94,18.32a13.44,13.44,0,0,0-13.91,0,1.81,1.81,0,1,0,1.91,3.07,9.73,9.73,0,0,1,10.09,0,1.81,1.81,0,1,0,1.91-3.07Z"/><path class="cls-5" d="M56,18c2.8,0,6.88,1.23,7.61,2.66a1.81,1.81,0,0,0-.65-2.34,13.44,13.44,0,0,0-13.91,0,1.81,1.81,0,0,0-.65,2.34C49.11,19.23,53.17,18,56,18Z"/><path class="cls-6" d="M62.94,18.32a13.44,13.44,0,0,0-13.91,0,1.81,1.81,0,1,0,1.91,3.07,9.73,9.73,0,0,1,10.09,0,1.81,1.81,0,1,0,1.91-3.07Z"/><rect class="cls-6" x="29.98" y="52" width="6" height="8.5" rx="1" ry="1"/></g></svg>