<?xml version="1.0" encoding="UTF-8"?>
<svg version="1.1" viewBox="0 0 100 112" xmlns="http://www.w3.org/2000/svg" xmlns:xlink="http://www.w3.org/1999/xlink">
    <!--Generated by IJSVG (https://github.com/curthard89/IJSVG)-->
    <defs>
        <mask id="mask-1" maskContentUnits="userSpaceOnUse" maskUnits="objectBoundingBox">
            <g fill="#FFFFFF">
                <use transform="translate(5.74476, 12.5948)" xlink:href="#path-1"></use>
            </g>
        </mask>
        <path id="path-8" d="M1.55207,0.335851c0.335851,0.335851 0.335851,0.880373 0,1.21622c-0.335851,0.335851 -0.880373,0.335851 -1.21622,0c-0.335851,-0.335851 -0.335851,-0.880373 0,-1.21622c0.335851,-0.335851 0.880373,-0.335851 1.21622,0"></path>
        <path id="path-4" d="M7.76706,10.97v5l6.99409e-08,6.80404e-06c0.0107841,1.04929 -0.831088,1.90864 -1.88037,1.91943c-0.78997,0.00811895 -1.50254,-0.473438 -1.78963,-1.20944l9.43432e-08,1.88686e-07c-0.497056,-0.994113 -1.70589,-1.39706 -2.7,-0.9c-0.994113,0.497056 -1.39706,1.70589 -0.9,2.7c0,0 0,0 0,0l-3.31897e-07,-7.14998e-07c0.969534,2.08865 3.06732,3.42076 5.37,3.41l2.61718e-07,6.34418e-09c3.19127,0.077358 5.84101,-2.44697 5.91837,-5.63823c0.000902946,-0.0372495 0.00144568,-0.0745068 0.00162813,-0.111767v12.08h1.35l7.30477e-09,4.91838e-11c0.555348,0.00373961 1.03258,-0.39325 1.13,-0.94c1.58,-8.45 1.86,-18.19 1.52,-27.28l-3.10094e-07,9.88872e-08c-4.77503,1.52273 -8.01763,5.95805 -8.02,10.97Z"></path>
        <path id="path-12" d="M1,3c-0.55228,0 -1,-0.44772 -1,-1v-1c0,-0.55228 0.44772,-1 1,-1h17c0.55228,0 1,0.44772 1,1v1c0,0.55228 -0.44772,1 -1,1Z"></path>
        <path id="path-14" d="M1,24c-0.55228,0 -1,-0.44772 -1,-1v-22c0,-0.55228 0.44772,-1 1,-1h9c0.55228,0 1,0.44772 1,1v22c0,0.55228 -0.44772,1 -1,1Z"></path>
        <path id="path-7" d="M0,7.48v-7.48"></path>
        <path id="path-10" d="M1,25c-0.55228,0 -1,-0.44772 -1,-1v-23c0,-0.55228 0.44772,-1 1,-1h12c0.55228,0 1,0.44772 1,1v23c0,0.55228 -0.44772,1 -1,1Z"></path>
        <path id="path-2" d="M0,0h2.5"></path>
        <path id="path-9" d="M18.516,12.8403l6.53575e-09,6.57807e-07c-0.0067047,-0.674828 -0.487443,-1.25171 -1.15,-1.38l-1,1.45l1.60715e-08,-2.30847e-08c-0.116365,0.167144 -0.306352,0.267725 -0.51,0.27l4.98425e-09,-3.97904e-12c-0.134258,0.000107451 -0.24463,-0.105849 -0.25,-0.24v-3.72l4.43369e-08,1.82856e-05c-0.00063123,-0.261176 -0.0886322,-0.514632 -0.249989,-0.720004l-1.23,-1.53l1.40189e-08,1.71891e-08c-0.401416,-0.492191 -1.12583,-0.565779 -1.61802,-0.164363c-0.0213035,0.0173745 -0.0419772,0.0355073 -0.0619813,0.0543634l-2.50488e-07,2.27745e-07c-1.40198,1.27469 -3.22522,1.98689 -5.12,2h-2.39001l-2.7341e-07,4.6752e-09c-2.61032,0.0446353 -4.7653,-2.02988 -4.82,-4.64l-8.4709e-08,-1.55875e-06c-0.11598,-2.13419 1.5201,-3.95832 3.6543,-4.0743c0.0685055,-0.00372285 0.137098,-0.00562337 0.205704,-0.00569953l-1.27253e-07,1.46326e-08c1.21985,-0.140269 2.39241,0.516526 2.91,1.63l3.15339e-08,9.00745e-08c0.160807,0.459333 0.593338,0.767712 1.08,0.77h6l4.78217e-08,1.10547e-09c0.42119,0.00973643 0.803989,0.247072 1,0.62l-3.84919e-08,-7.59451e-08c0.15674,0.309251 0.448976,0.527502 0.79,0.59l1.80063e-07,3.55403e-08c1.61966,0.319682 2.78785,1.7391 2.79,3.39Z"></path>
        <path id="path-1" d="M72.1895,15.621c15.621,15.621 15.621,40.9476 0,56.5685c-15.621,15.621 -40.9476,15.621 -56.5685,0c-15.621,-15.621 -15.621,-40.9476 -1.42109e-14,-56.5685c15.621,-15.621 40.9476,-15.621 56.5685,-1.42109e-14"></path>
        <path id="path-11" d="M0,0h16v36h-16Z"></path>
        <path id="path-15" d="M10,0h-9h-4.37114e-08c-0.552285,2.41411e-08 -1,0.447715 -1,1c0,0 0,0 0,0v15.5l11,-10.5v-5v0c0,-0.552285 -0.447715,-1 -1,-1Z"></path>
        <path id="path-5" d="M0,0v7.47"></path>
        <path id="path-6" d="M8.37,10.97v5l-6.98113e-08,6.79142e-06c-0.0107841,1.04929 0.831088,1.90864 1.88037,1.91943c0.78997,0.00811895 1.50254,-0.473438 1.78963,-1.20944l-7.38255e-08,1.47651e-07c0.497056,-0.994113 1.70589,-1.39706 2.7,-0.9c0.994113,0.497056 1.39706,1.70589 0.9,2.7l1.89002e-07,-4.07163e-07c-0.969534,2.08865 -3.06732,3.42076 -5.37,3.41l-7.80459e-08,1.89188e-09c-3.19127,0.0773581 -5.84101,-2.44696 -5.91837,-5.63823c-0.000902947,-0.0372495 -0.00144568,-0.0745068 -0.00162813,-0.111767v12.08h-1.36l2.8931e-08,-1.94817e-10c-0.555348,0.00373962 -1.03258,-0.39325 -1.13,-0.94c-1.58,-8.46 -1.86,-18.19 -1.52,-27.28l-3.85014e-07,-1.22392e-07c4.77899,1.51919 8.02624,5.95535 8.03,10.97Z"></path>
        <path id="path-3" d="M0,0v20.7h5.18l0.5,-13.73l-5.75922e-08,-7.6242e-07c-0.0732164,-0.96926 0.65317,-1.81435 1.62243,-1.88757c0.96926,-0.0732164 1.81435,0.65317 1.88757,1.62243c0.00666659,0.0882543 0.00666659,0.176886 -1.11751e-08,0.26514l0.55,13.73h5.17v-20.7Z"></path>
        <path id="path-13" d="M0,0h12"></path>
    </defs>
    <g fill="#E8F4FA">
        <path d="M80,39.9963l1.75431e-07,0.00374627c-1.42109e-14,-22.0914 -17.9086,-40 -40,-40c-22.0914,7.10543e-15 -40,17.9086 -40,40c0,5.68809 1.21314,11.3108 3.55846,16.4928h72.8715l3.78746e-07,-8.33615e-07c2.35393,-5.18098 3.57122,-10.8059 3.57,-16.4966Z" transform="translate(9.65, 16.5037)"></path>
        <path fill="#FFFFFF" d="M1.56863e-06,3.46229e-06l-1.56863e-06,-3.46229e-06c9.11673,20.1225 32.8198,29.0444 52.9423,19.9277c8.84011,-4.00511 15.9226,-11.0876 19.9277,-19.9277Z" transform="translate(13.21, 73)"></path>
        <path fill="none" stroke="#191816" stroke-linecap="round" stroke-linejoin="round" stroke-width="1" d="M0,0h78" transform="translate(10.65, 73)"></path>
        <use fill="none" stroke="#191816" stroke-linecap="round" stroke-linejoin="round" stroke-width="1" transform="translate(6.15, 73)" xlink:href="#path-2"></use>
        <use fill="none" stroke="#191816" stroke-linecap="round" stroke-linejoin="round" stroke-width="1" transform="translate(90.65, 73)" xlink:href="#path-2"></use>
    </g>
    <g fill="none">
        <use transform="translate(5.74476, 12.5948)" xlink:href="#path-1"></use>
        <use fill="#87898C" transform="translate(27.32, 64.92)" xlink:href="#path-3"></use>
        <path fill="#656769" d="M0,0v9.76h2.3l9.77805e-08,-2.35957e-10c1.09469,-0.00264161 2.03582,-0.776464 2.25,-1.85c0.27,-1.32 0.49,-2.68 0.69,-4l-3.20865e-08,2.5936e-07c0.0710601,-0.574389 0.561248,-1.00438 1.14,-1h2.2l-5.70904e-08,-6.86526e-11c0.574943,0.000691393 1.05939,0.429408 1.13,1c0.2,1.36 0.42,2.72 0.69,4l2.67731e-08,1.3682e-07c0.212676,1.08686 1.17264,1.86578 2.28,1.85h2.3v-9.76Z" transform="translate(27.32, 64.92)"></path>
        <use stroke="#191816" stroke-linecap="round" stroke-linejoin="round" stroke-width="1" transform="translate(27.32, 64.92)" xlink:href="#path-3"></use>
        <path opacity="0.15" fill="#191816" d="M26.9808,0.675607c5.83834,0.675607 5.83834,1.77098 0,2.44659c-5.83834,0.675607 -15.3042,0.675607 -21.1425,0c-5.83834,-0.675607 -5.83834,-1.77098 -3.55271e-15,-2.44659c5.83834,-0.675607 15.3042,-0.675607 21.1425,0" transform="translate(18.3904, 84.8711)"></path>
        <path fill="#947746" stroke="#191816" stroke-linecap="round" stroke-linejoin="round" stroke-width="1" d="M5.89034,3.4554l2.0264e-08,1.23123e-10c0.635116,0.00385865 1.15311,-0.507876 1.15697,-1.14299c0.00125279,-0.206203 -0.0529616,-0.40895 -0.156966,-0.587008l2.91986e-08,5.03797e-08c-0.619733,-1.0693 -1.76411,-1.7254 -3,-1.72h-0.57l9.4811e-08,4.14573e-10c-1.23589,-0.0054042 -2.38027,0.650703 -3,1.72l-5.32866e-08,9.12282e-08c-0.320337,0.548426 -0.135434,1.2527 0.412992,1.57303c0.178058,0.104004 0.380805,0.158218 0.587008,0.156965Z" transform="translate(25.8197, 82.7446)"></path>
        <path fill="#947746" stroke="#191816" stroke-linecap="round" stroke-linejoin="round" stroke-width="1" d="M1.15822,3.4554l1.62898e-08,-9.89644e-11c-0.635116,0.00385867 -1.15311,-0.507876 -1.15697,-1.14299c-0.00125279,-0.206203 0.0529616,-0.40895 0.156966,-0.587008l2.57911e-08,-4.45003e-08c0.619733,-1.0693 1.76411,-1.7254 3,-1.72h0.57l1.48514e-08,-6.49436e-11c1.23589,-0.00540416 2.38027,0.650703 3,1.72l2.5795e-09,4.41619e-09c0.320337,0.548426 0.135434,1.2527 -0.412992,1.57303c-0.178058,0.104004 -0.380805,0.158218 -0.587008,0.156965Z" transform="translate(36.7218, 82.7446)"></path>
        <path fill="#6DD627" stroke="#191816" stroke-linecap="round" stroke-linejoin="round" stroke-width="1" d="M15,3.7096l2.61914e-07,2.25327e-07c-4.31194,-3.7096 -10.6881,-3.7096 -15,-4.50654e-07v18.51h15Z" transform="translate(27.27, 42.7004)"></path>
        <path fill="#FFDA8F" stroke="#191816" stroke-linecap="round" stroke-linejoin="round" stroke-width="1" d="M4.12,0.000843358l-6.6323e-07,-3.972e-10c-1.40826,-0.000843357 -2.80472,0.256756 -4.12,0.76c0.85,1.62 2.57,3.26 4.12,3.26c1.55,0 3.26,-1.64 4.11,-3.26l-6.36397e-08,-2.43729e-08c-1.31201,-0.502478 -2.70506,-0.760073 -4.11,-0.76Z" transform="translate(30.68, 43.6492)"></path>
        <use fill="#F0F0F0" transform="translate(15.5229, 44.18)" xlink:href="#path-4"></use>
        <path fill="#FFFFFF" d="M8.01348,0l-2.52853e-07,8.11403e-08c-4.77767,1.53315 -8.01348,5.98238 -8,11v3.42l8.78963e-09,1.27375e-05c-0.00348914,-5.05225 3.29088,-9.51508 8.11999,-11c-0.0399878,-1.14 -0.0799878,-2.28 -0.119988,-3.42Z" transform="translate(23.3065, 44.18)"></path>
        <path fill="#FFDA8F" stroke="#191816" stroke-linecap="round" stroke-linejoin="round" stroke-width="1" d="M4.09706,1.39706l9.43432e-08,1.88686e-07c-0.497056,-0.994113 -1.70589,-1.39706 -2.7,-0.9c-0.994113,0.497056 -1.39706,1.70589 -0.9,2.7c0,0 3.55271e-15,0 3.55271e-15,0l2.97855e-07,6.04797e-07c0.309302,0.628041 0.717883,1.20208 1.21,1.7l3.23,-2.55l5.14035e-09,3.18292e-09c-0.367175,-0.227356 -0.659313,-0.55775 -0.84,-0.95Z" transform="translate(15.5329, 59.4629)"></path>
        <use stroke="#191816" stroke-linecap="round" stroke-linejoin="round" stroke-width="1" transform="translate(27.32, 52.85)" xlink:href="#path-5"></use>
        <use stroke="#191816" stroke-linecap="round" stroke-linejoin="round" stroke-width="1" transform="translate(15.5229, 44.18)" xlink:href="#path-4"></use>
        <use fill="#F0F0F0" transform="translate(37.93, 44.18)" xlink:href="#path-6"></use>
        <path fill="#FFFFFF" d="M0.119989,0l6.01521e-07,1.93028e-07c4.77767,1.53315 8.01348,5.98238 8,11v3.42l-8.17662e-09,1.18499e-05c0.00348875,-5.05225 -3.29088,-9.51508 -8.11999,-11c0.0399887,-1.14 0.0799887,-2.28 0.119989,-3.42Z" transform="translate(38.15, 44.18)"></path>
        <path fill="#FFDA8F" stroke="#191816" stroke-linecap="round" stroke-linejoin="round" stroke-width="1" d="M0.84,1.39706l-7.38255e-08,1.47651e-07c0.497056,-0.994113 1.70589,-1.39706 2.7,-0.9c0.994113,0.497056 1.39706,1.70589 0.9,2.7l-3.49947e-08,7.10571e-08c-0.309302,0.628041 -0.717883,1.20208 -1.21,1.7l-3.23,-2.55l-3.69861e-08,2.29019e-08c0.367174,-0.227356 0.659313,-0.55775 0.84,-0.95Z" transform="translate(49.16, 59.4629)"></path>
        <use stroke="#191816" stroke-linecap="round" stroke-linejoin="round" stroke-width="1" transform="translate(42.27, 52.85)" xlink:href="#path-5"></use>
        <use stroke="#191816" stroke-linecap="round" stroke-linejoin="round" stroke-width="1" transform="translate(37.93, 44.18)" xlink:href="#path-6"></use>
        <path fill="#FF8A14" stroke="#191816" stroke-linecap="round" stroke-linejoin="round" stroke-width="1" d="M4.54788,12.9923l-1.96471e-08,1.71186e-07c-0.0724184,0.630985 -0.64264,1.08379 -1.27363,1.01137c-0.0255785,-0.00293565 -0.0510512,-0.00672946 -0.076375,-0.011375l-2.17,-0.41l-8.60526e-08,-1.59518e-08c-0.619058,-0.114756 -1.02788,-0.709631 -0.913119,-1.32869c0.00381006,-0.0205535 0.00818472,-0.0409983 0.013119,-0.0613113l2.6,-11.21l2.80407e-08,-1.20485e-07c0.139399,-0.598967 0.725359,-0.982264 1.33,-0.87l1.23,0.23l6.25448e-08,1.15719e-08c0.604208,0.111789 1.0111,0.682329 0.92,1.29Z" transform="translate(44.3821, 65.1177)"></path>
        <path stroke="#191816" stroke-linecap="round" stroke-linejoin="round" stroke-width="1" d="M0,7.35l1.38,-7.35" transform="translate(49.06, 59.17)"></path>
        <path fill="#F0D5A8" stroke="#191816" stroke-linecap="round" stroke-linejoin="round" stroke-width="1" d="M3.08062,13.9748l2.16,-0.41l1.21682e-07,-2.25566e-08c0.619058,-0.114756 1.02788,-0.709631 0.913119,-1.32869c-0.00381006,-0.0205535 -0.00818472,-0.0409983 -0.013119,-0.0613113l-2.6,-11.21l1.5749e-08,6.63334e-08c-0.138996,-0.585441 -0.705793,-0.964759 -1.3,-0.87l-1.22,0.23l1.14829e-08,-2.02161e-09c-0.608258,0.107086 -1.02062,0.679072 -0.93,1.29l1.66,11.39l-3.86283e-08,-2.52501e-07c0.0968815,0.633283 0.688796,1.06812 1.32208,0.97124c0.00264169,-0.000404133 0.00528197,-0.000817394 0.00792079,-0.00123977Z" transform="translate(52.7594, 65.1052)"></path>
        <path stroke="#191816" stroke-linecap="round" stroke-linejoin="round" stroke-width="1" d="M1.39,7.35l-1.39,-7.35" transform="translate(52.98, 59.17)"></path>
        <path fill="#00DBA8" stroke="#191816" stroke-linecap="round" stroke-linejoin="round" stroke-width="1" d="M4.5011,12.6006l6.26105e-08,1.1868e-06c0.0331689,0.62873 -0.449629,1.16531 -1.07836,1.19847c-0.0238588,0.00125868 -0.0477513,0.00176701 -0.071642,0.00152422h-2.2l-3.11191e-09,2.92744e-12c-0.635127,0.000600604 -1.15049,-0.513785 -1.15109,-1.14891c-1.61093e-05,-0.0170353 0.000346307,-0.0340688 0.00108698,-0.051088l0.48,-11.5l-4.81206e-08,1.10575e-06c0.0267862,-0.61552 0.533896,-1.10058 1.15,-1.1h1.24l-5.08644e-09,4.80327e-12c0.616103,-0.000582594 1.12321,0.48448 1.15,1.1Z" transform="translate(49.4989, 65.4994)"></path>
        <use stroke="#191816" stroke-linecap="round" stroke-linejoin="round" stroke-width="1" transform="translate(51.71, 59.23)" xlink:href="#path-7"></use>
        <path fill="#FF6242" stroke="#191816" stroke-linecap="round" stroke-linejoin="round" stroke-width="1" d="M3.09163,13.9923l2.17,-0.41l1.21682e-07,-2.25566e-08c0.619058,-0.114756 1.02788,-0.709631 0.913119,-1.32869c-0.00381006,-0.0205535 -0.00818472,-0.0409983 -0.013119,-0.0613113l-2.6,-11.21l-1.1986e-08,-5.15011e-08c-0.139399,-0.598967 -0.725359,-0.982264 -1.33,-0.87l-1.23,0.23l-1.13652e-07,2.20495e-08c-0.600159,0.116437 -1.00163,0.685557 -0.91,1.29l1.66,11.39l-1.7881e-09,-1.17986e-08c0.0959957,0.633417 0.687302,1.06908 1.32072,0.973088c0.00643544,-0.000975304 0.0128626,-0.00200476 0.0192807,-0.00308825Z" transform="translate(18.9084, 65.0877)"></path>
        <path stroke="#191816" stroke-linecap="round" stroke-linejoin="round" stroke-width="1" d="M1.38,7.35l-1.38,-7.35" transform="translate(19.15, 59.17)"></path>
        <path fill="#FFFFFF" stroke="#191816" stroke-linecap="round" stroke-linejoin="round" stroke-width="1" d="M3.19788,13.9923l-2.17,-0.41l-8.60526e-08,-1.59518e-08c-0.619058,-0.114756 -1.02788,-0.709631 -0.913119,-1.32869c0.00381006,-0.0205535 0.00818472,-0.0409983 0.013119,-0.0613113l2.6,-11.21l2.80407e-08,-1.20485e-07c0.139399,-0.598967 0.725359,-0.982264 1.33,-0.87l1.22,0.23l2.42048e-08,4.26138e-09c0.608258,0.107086 1.02062,0.679072 0.93,1.29l-1.66,11.39l1.82915e-08,-1.21905e-07c-0.0950633,0.633558 -0.685728,1.07009 -1.31929,0.975031c-0.0102601,-0.0015395 -0.0204991,-0.00321657 -0.0307142,-0.00503077Z" transform="translate(10.5521, 65.0877)"></path>
        <path stroke="#191816" stroke-linecap="round" stroke-linejoin="round" stroke-width="1" d="M0,7.35l1.39,-7.35" transform="translate(15.22, 59.17)"></path>
        <path fill="#00DBA8" stroke="#191816" stroke-linecap="round" stroke-linejoin="round" stroke-width="1" d="M1.18317,13.8006h2.22l3.96664e-08,3.75024e-11c0.635127,0.000600584 1.15049,-0.513785 1.15109,-1.14891c1.61088e-05,-0.0170353 -0.000346308,-0.0340688 -0.00108698,-0.051088l-0.48,-11.5l4.50535e-08,1.03527e-06c-0.0267863,-0.61552 -0.533896,-1.10058 -1.15,-1.1h-1.26l4.16409e-08,3.93783e-11c-0.616103,-0.000582614 -1.12321,0.484479 -1.15,1.1l-0.48,11.5l-5.77151e-09,1.09399e-07c-0.0331696,0.62873 0.449628,1.16531 1.07836,1.19848c0.0238588,0.00125871 0.0477513,0.00176706 0.0716421,0.0015243Z" transform="translate(15.5968, 65.4994)"></path>
        <use stroke="#191816" stroke-linecap="round" stroke-linejoin="round" stroke-width="1" transform="translate(17.88, 59.23)" xlink:href="#path-7"></use>
        <path fill="#FFDA8F" stroke="#191816" stroke-linecap="round" stroke-linejoin="round" stroke-width="1" d="M16.1,9.2l6.53575e-09,6.57807e-07c-0.0067047,-0.674828 -0.487443,-1.25171 -1.15,-1.38v-0.92v0c0,-3.81076 -3.08924,-6.9 -6.9,-6.9c-3.81076,0 -6.9,3.08924 -6.9,6.9v0.92l-1.21218e-07,2.27412e-08c-0.66467,0.124696 -1.14721,0.70374 -1.15,1.38l-4.2624e-08,-7.06597e-06c0.00432269,0.716884 0.538796,1.31978 1.24999,1.41001l-1.47155e-07,-7.06431e-07c0.777128,3.73068 4.43143,6.12501 8.16212,5.34789c2.68784,-0.559897 4.78799,-2.66004 5.34789,-5.34789l6.03576e-08,-4.19103e-09c0.744582,-0.0517013 1.32625,-0.66375 1.34001,-1.41Z" transform="translate(26.75, 25.25)"></path>
        <use fill="#FFBE3D" transform="translate(30.116, 34.366)" xlink:href="#path-8"></use>
        <use fill="#FFBE3D" transform="translate(37.586, 34.366)" xlink:href="#path-8"></use>
        <path stroke="#191816" stroke-linecap="round" stroke-linejoin="round" stroke-width="1" d="M1.38,0.368254l-2.28387e-09,-2.17719e-09c-0.386298,-0.368254 -0.993702,-0.368254 -1.38,4.35438e-09" transform="translate(36.52, 32.9317)"></path>
        <path stroke="#191816" stroke-linecap="round" stroke-linejoin="round" stroke-width="1" d="M1.78512e-08,0.368254l-1.78512e-08,1.70173e-08c0.386298,-0.368254 0.993702,-0.368254 1.38,-3.40347e-08" transform="translate(31.69, 32.9317)"></path>
        <path stroke="#191816" stroke-linecap="round" stroke-linejoin="round" stroke-width="1" d="M3.45,6.94448e-09l9.18371e-09,-6.94448e-09c-1.02054,0.771704 -2.42946,0.771704 -3.45,1.3889e-08" transform="translate(33.07, 37.32)"></path>
        <path fill="#614B44" stroke="#191816" stroke-linecap="round" stroke-linejoin="round" stroke-width="1" d="M1.37,0.19l8.14632e-08,-7.27095e-10c-0.46351,0.00413706 -0.92511,-0.0598805 -1.37,-0.19v2.84l1,1.47l-3.50598e-08,-5.0676e-08c0.10893,0.15745 0.288544,0.250999 0.48,0.25l1.23799e-09,8.45546e-13c0.145297,9.96875e-05 0.264619,-0.114802 0.27,-0.26v-4.11Z" transform="translate(27.9, 30.23)"></path>
        <use fill="#614B44" transform="translate(24.334, 21.6097)" xlink:href="#path-9"></use>
        <path fill="#947063" d="M3.87065,2.01026l-1.27253e-07,1.46326e-08c1.21985,-0.140269 2.39241,0.516526 2.91,1.63l-9.2729e-08,-2.90323e-07c0.150494,0.471177 0.585417,0.793343 1.08,0.8h6l4.78217e-08,1.10547e-09c0.42119,0.00973643 0.803989,0.247072 1,0.62l-3.84919e-08,-7.59451e-08c0.15674,0.309251 0.448976,0.527502 0.79,0.59l1.74278e-07,3.43969e-08c1.61598,0.318943 2.78309,1.73286 2.79,3.38v-1.89l5.31868e-08,4.09825e-05c-0.00213275,-1.6509 -1.17031,-3.07033 -2.78996,-3.39003l-1.05278e-07,-1.92937e-08c-0.341024,-0.0624976 -0.63326,-0.280749 -0.79,-0.59l-1.7751e-08,-3.37728e-08c-0.196011,-0.372928 -0.57881,-0.610264 -1,-0.62h-6l2.96876e-08,1.396e-10c-0.486662,-0.00228843 -0.919193,-0.310667 -1.08,-0.77l4.46245e-08,9.6e-08c-0.517586,-1.11347 -1.69015,-1.77027 -2.91,-1.63l-1.58145e-08,1.75646e-11c-2.13734,0.00237373 -3.86807,1.73695 -3.8657,3.8743c7.61943e-05,0.0686065 0.00197674,0.137199 0.00569962,0.205704l-3.03707e-08,9.07127e-07c-0.0106872,0.319211 0.0195591,0.638475 0.0900002,0.95l-1.51942e-08,8.89394e-08c0.313376,-1.83435 1.90907,-3.17187 3.76996,-3.16001Z" transform="translate(24.4394, 21.5597)"></path>
        <use stroke="#191816" stroke-linecap="round" stroke-linejoin="round" stroke-width="1" transform="translate(24.334, 21.6097)" xlink:href="#path-9"></use>
        <g mask="url(#mask-1)">
            <path fill="#FFFFFF" stroke="#191816" stroke-linecap="round" stroke-linejoin="round" stroke-width="1" d="M0,0h52v57h-52Z" transform="translate(60.15, 16)"></path>
            <use fill="#00B8F0" transform="translate(79.15, 39.5)" xlink:href="#path-10"></use>
            <path fill="#4ACFFF" d="M14,6.5l-14,14v-19.5l1.42109e-14,1.50996e-07c-8.33927e-08,-0.552285 0.447715,-1 1,-1h12h-4.37114e-08c0.552285,-2.41411e-08 1,0.447715 1,1Z" transform="translate(79.15, 39.5)"></path>
            <use fill="none" stroke="#191816" stroke-linecap="round" stroke-linejoin="round" stroke-width="1" transform="translate(79.15, 39.5)" xlink:href="#path-10"></use>
            <use fill="#FFFFFF" stroke="#191816" stroke-linecap="round" stroke-linejoin="round" stroke-width="1" transform="translate(60.15, 37)" xlink:href="#path-11"></use>
            <use fill="#FFFFFF" stroke="#191816" stroke-linecap="round" stroke-linejoin="round" stroke-width="1" transform="translate(59.15, 66)" xlink:href="#path-12"></use>
            <use fill="none" stroke="#191816" stroke-linecap="round" stroke-linejoin="round" stroke-width="1" transform="translate(62.15, 71)" xlink:href="#path-13"></use>
            <use fill="#00B8F0" transform="translate(62.65, 39.5)" xlink:href="#path-14"></use>
            <use fill="#4ACFFF" transform="translate(62.65, 39.5)" xlink:href="#path-15"></use>
            <use fill="none" stroke="#191816" stroke-linecap="round" stroke-linejoin="round" stroke-width="1" transform="translate(62.65, 39.5)" xlink:href="#path-14"></use>
            <use fill="#00DBA8" stroke="#191816" stroke-linecap="round" stroke-linejoin="round" stroke-width="1" transform="translate(96.15, 37)" xlink:href="#path-11"></use>
            <use fill="#00DBA8" stroke="#191816" stroke-linecap="round" stroke-linejoin="round" stroke-width="1" transform="translate(95.15, 66)" xlink:href="#path-12"></use>
            <use fill="none" stroke="#191816" stroke-linecap="round" stroke-linejoin="round" stroke-width="1" transform="translate(98.15, 71)" xlink:href="#path-13"></use>
            <use fill="#00B8F0" transform="translate(98.65, 39.5)" xlink:href="#path-14"></use>
            <use fill="#4ACFFF" transform="translate(98.65, 39.5)" xlink:href="#path-15"></use>
            <use fill="none" stroke="#191816" stroke-linecap="round" stroke-linejoin="round" stroke-width="1" transform="translate(98.65, 39.5)" xlink:href="#path-14"></use>
            <path fill="#FFFFFF" stroke="#191816" stroke-linecap="round" stroke-linejoin="round" stroke-width="1" d="M1,4c-0.55228,0 -1,-0.44772 -1,-1v-2c0,-0.55228 0.44772,-1 1,-1h10c0.55228,0 1,0.44772 1,1v2c0,0.55228 -0.44772,1 -1,1Z" transform="translate(80.15, 67)"></path>
            <path fill="#DEBB7E" stroke="#191816" stroke-linecap="round" stroke-linejoin="round" stroke-width="1" d="M1,9c-0.55228,0 -1,-0.44772 -1,-1v-7c0,-0.55228 0.44772,-1 1,-1h56c0.55228,0 1,0.44772 1,1v7c0,0.55228 -0.44772,1 -1,1Z" transform="translate(57.15, 16)"></path>
            <path fill="#87898C" stroke="#191816" stroke-linecap="round" stroke-linejoin="round" stroke-width="1" d="M55.99,0h-51.99l-4,7h59.99l-4,-7Z" transform="translate(56.15, 30)"></path>
            <path fill="#656769" stroke="#191816" stroke-linecap="round" stroke-linejoin="round" stroke-width="1" d="M60.0717,2.54l5.19838e-08,1.62065e-06c0.0662153,2.06434 -1.49241,3.82054 -3.55,4l1.49834e-07,-7.37882e-09c-1.45919,0.0718606 -2.82791,-0.708037 -3.51,-2l-4.79426e-09,-9.78245e-09c-0.119094,-0.243005 -0.412633,-0.343455 -0.655639,-0.224361c-0.0976012,0.0478332 -0.176528,0.12676 -0.224361,0.224361l6.78315e-09,-1.28267e-08c-0.968197,1.83082 -3.23725,2.53012 -5.06808,1.56192c-0.66565,-0.352016 -1.20991,-0.896274 -1.56192,-1.56192l-3.10651e-09,-5.99113e-09c-0.124571,-0.240244 -0.420311,-0.334016 -0.660555,-0.209445c-0.0897499,0.0465368 -0.162908,0.119695 -0.209445,0.209445l6.78315e-09,-1.28267e-08c-0.968197,1.83082 -3.23725,2.53012 -5.06808,1.56192c-0.66565,-0.352016 -1.20991,-0.896274 -1.56192,-1.56192l-3.10651e-09,-5.99113e-09c-0.124571,-0.240244 -0.420311,-0.334016 -0.660555,-0.209445c-0.0897499,0.0465368 -0.162908,0.119695 -0.209445,0.209445l6.78315e-09,-1.28267e-08c-0.968197,1.83082 -3.23725,2.53012 -5.06808,1.56192c-0.66565,-0.352016 -1.20991,-0.896274 -1.56192,-1.56192l-3.10651e-09,-5.99113e-09c-0.124571,-0.240244 -0.420311,-0.334016 -0.660555,-0.209445c-0.0897499,0.0465368 -0.162908,0.119695 -0.209445,0.209445l6.78315e-09,-1.28267e-08c-0.968197,1.83082 -3.23725,2.53012 -5.06808,1.56192c-0.66565,-0.352016 -1.20991,-0.896274 -1.56192,-1.56192l-3.10651e-09,-5.99113e-09c-0.124571,-0.240244 -0.420311,-0.334016 -0.660555,-0.209445c-0.0897499,0.0465368 -0.162908,0.119695 -0.209445,0.209445l6.78315e-09,-1.28267e-08c-0.968197,1.83082 -3.23725,2.53012 -5.06808,1.56192c-0.66565,-0.352016 -1.20991,-0.896274 -1.56192,-1.56192l-3.10651e-09,-5.99113e-09c-0.124571,-0.240244 -0.420311,-0.334016 -0.660555,-0.209445c-0.0897499,0.0465368 -0.162908,0.119695 -0.209445,0.209445l6.78315e-09,-1.28267e-08c-0.968197,1.83082 -3.23725,2.53012 -5.06808,1.56192c-0.66565,-0.352016 -1.20991,-0.896274 -1.56192,-1.56192l-4.79426e-09,-9.78245e-09c-0.119094,-0.243005 -0.412633,-0.343455 -0.655639,-0.224361c-0.0976012,0.0478332 -0.176528,0.12676 -0.224361,0.224361l-3.50824e-08,6.64507e-08c-0.682086,1.29196 -2.05081,2.07186 -3.51,2l1.30176e-07,1.13719e-08c-2.05605,-0.179611 -3.61166,-1.93736 -3.54,-4v-2.54h60Z" transform="translate(56.0783, 37)"></path>
        </g>
    </g>
</svg>