<?xml version="1.0" encoding="UTF-8"?>
<svg version="1.1" viewBox="0 0 100 112" xmlns="http://www.w3.org/2000/svg" xmlns:xlink="http://www.w3.org/1999/xlink">
    <!--Generated by IJSVG (https://github.com/curthard89/IJSVG)-->
    <defs>
        <mask id="mask-1" maskContentUnits="userSpaceOnUse" maskUnits="objectBoundingBox">
            <g fill="#FFFFFF">
                <path d="M40,0l-1.74846e-06,4.26326e-14c-22.0914,9.65645e-07 -40,17.9086 -40,40c9.65645e-07,22.0914 17.9086,40 40,40c22.0914,-9.65645e-07 40,-17.9086 40,-40l2.84217e-14,1.74846e-06c0,-22.0914 -17.9086,-40 -40,-40Z" transform="translate(10.5, 16.5)"></path>
            </g>
        </mask>
        <mask id="mask-2" maskContentUnits="userSpaceOnUse" maskUnits="objectBoundingBox">
            <g fill="#FFFFFF">
                <path d="M72.1895,15.621c15.621,15.621 15.621,40.9476 0,56.5685c-15.621,15.621 -40.9476,15.621 -56.5685,0c-15.621,-15.621 -15.621,-40.9476 -1.42109e-14,-56.5685c15.621,-15.621 40.9476,-15.621 56.5685,-1.42109e-14" transform="translate(6.59476, 12.5948)"></path>
            </g>
        </mask>
        <path id="path-30" d="M0.958003,5.5322v0l-5.4934e-08,-4.71986e-09c-0.550257,-0.0472774 -0.958003,-0.531675 -0.910726,-1.08193c0.000231132,-0.00269012 0.000473158,-0.0053793 0.000726072,-0.00806746l0.31,-3.49l-1.3688e-08,1.42647e-07c0.0527176,-0.54939 0.54056,-0.952196 1.09,-0.9v0l4.44179e-08,3.85602e-09c0.549146,0.0476726 0.956162,0.530725 0.91,1.08l-0.32,3.49l-1.78162e-08,2.05226e-07c-0.0476728,0.549146 -0.530725,0.956162 -1.08,0.91Z"></path>
        <path id="path-8" d="M8.78,8.96246l-2.6,-8.71l3.96347e-09,1.41001e-08c-0.0448357,-0.159504 -0.210485,-0.25246 -0.369989,-0.207625c-0.0402882,0.0113248 -0.0777613,0.0309536 -0.110011,0.0576247l-5.7,4.71Z"></path>
        <path id="path-14" d="M44.5,10h-44.5l3.5,-10h41v10Z"></path>
        <path id="path-24" d="M2.74667,2.66887l-2.24247e-09,2.5171e-09c0.551068,-0.618559 0.496356,-1.56673 -0.122202,-2.1178c-0.618559,-0.551068 -1.56673,-0.496356 -2.1178,0.122202c-0.506667,0.568719 -0.506667,1.42688 -4.48493e-09,1.9956Z"></path>
        <path id="path-12" d="M24.6198,20.61l1.00859e-07,-6.72104e-07c-0.538729,3.58999 -2.98068,6.60607 -6.38,7.88c0.9,1.26 2.22,3.13 2.35,4.78l2.9648e-07,2.85598e-06c0.195691,1.88508 -0.214116,3.7835 -1.17,5.42l3.60358e-08,-6.50956e-08c-0.267484,0.483188 -0.092622,1.09173 0.390566,1.35921c0.247634,0.137086 0.541763,0.162808 0.809434,0.0707869l-3.83491e-07,1.3764e-07c4.4317,-1.5906 7.38834,-5.7915 7.39,-10.5v-13.59c0,-5.13 -2.2,-13.84 -9,-13.09l-1.82,-0.64c-6.45,-2.3 -14.94,1.16 -16.34,11.54l-3.69466e-08,2.63332e-07c-0.849809,6.05691 2.76592,11.8514 8.58,13.75l9.59167e-07,6.02938e-07c-2.47235,-1.55413 -4.14182,-4.11132 -4.57,-7h-0.12h-8.74228e-08c-1.10457,-4.82823e-08 -2,-0.895431 -2,-2c4.82823e-08,-1.10457 0.895431,-2 2,-2l-8.3355e-08,7.14677e-09c0.844179,-0.072379 1.60787,-0.529853 2.07,-1.24l-1.9443e-07,2.50002e-07c0.451443,-0.580473 1.12681,-0.943574 1.86,-1l1.68,-0.230001l4.27363e-07,-6.62954e-08c2.95882,-0.458992 5.57195,-2.18161 7.16,-4.72l-3.75698e-07,-1.30884e-06c1.00266,3.49303 3.73559,6.22217 7.23,7.22h-8.74228e-08c1.10457,-4.82823e-08 2,0.89543 2,2c4.82823e-08,1.10457 -0.89543,2 -2,2Z"></path>
        <path id="path-1" d="M0,0h2.5"></path>
        <path id="path-17" d="M1,12c-0.55228,0 -1,-0.44772 -1,-1v-10c0,-0.55228 0.44772,-1 1,-1h6c0.55228,0 1,0.44772 1,1v10c0,0.55228 -0.44772,1 -1,1Z"></path>
        <path id="path-23" d="M1,2.41411e-08h10h-4.37114e-08c0.552285,-2.41411e-08 1,0.447715 1,1v7h-12v-7l1.42109e-14,1.50996e-07c-8.33927e-08,-0.552285 0.447715,-1 1,-1Z"></path>
        <path id="path-10" d="M2.25592,0.488155c0.488155,0.488155 0.488155,1.27961 0,1.76777c-0.488155,0.488155 -1.27961,0.488155 -1.76777,0c-0.488155,-0.488155 -0.488155,-1.27961 0,-1.76777c0.488155,-0.488155 1.27961,-0.488155 1.76777,0"></path>
        <path id="path-21" d="M1.50097,1l-1.05865e-08,-2.97504e-11c0.634127,0.00178218 1.19863,0.402136 1.41,1l-7.43587e-09,1.96435e-08c0.0604616,-0.159722 0.0909711,-0.32922 0.09,-0.5v0c0,-0.828427 -0.671573,-1.5 -1.5,-1.5c-0.828427,0 -1.5,0.671573 -1.5,1.5l-2.04078e-08,3.58966e-06c-0.000970694,0.17078 0.0295392,0.340277 0.0900013,0.5l-2.20859e-08,6.24696e-08c0.211373,-0.597865 0.775871,-0.99822 1.41,-1Z"></path>
        <path id="path-22" d="M1,5.92515e-08h4h-4.37114e-08c0.552285,-2.41411e-08 1,0.447715 1,1v5h-6v-5l1.42109e-14,-1.07284e-07c8.33927e-08,-0.552285 0.447715,-1 1,-1Z"></path>
        <path id="path-5" d="M4.85649,4.43649v0l8.7973e-10,-9.82837e-10c-0.367626,0.410713 -0.998278,0.446495 -1.41,0.08l-3,-2.66l5.72371e-08,5.12324e-08c-0.410713,-0.367625 -0.446495,-0.998278 -0.0800001,-1.41v0l-5.91856e-08,6.61224e-08c0.367625,-0.410713 0.998278,-0.446495 1.41,-0.0800001l3,2.66l-1.28248e-08,-1.14794e-08c0.410713,0.367625 0.446495,0.998278 0.0800001,1.41Z"></path>
        <path id="path-2" d="M16,0.26h-15l-5.62659e-08,3.88596e-10c-0.350353,0.00241965 -0.695194,-0.0872391 -1,-0.26v0.18c0,4.55333 0.206667,9.08667 0.62,13.6l0.27,3h15.22l0.27,-3c0.406667,-4.50667 0.613333,-9.04 0.62,-13.6v-0.18l1.38761e-07,-7.86482e-08c-0.304806,0.172761 -0.649647,0.26242 -1,0.26Z"></path>
        <path id="path-6" d="M3.27462,5.65462v0l-3.46449e-08,1.68288e-08c-0.496777,0.24131 -1.09512,0.0342131 -1.33643,-0.462564c-0.00120157,-0.00247364 -0.00239294,-0.00495223 -0.00357407,-0.0074357l-1.7,-3.62l3.26948e-08,6.96524e-08c-0.234617,-0.499823 -0.0197405,-1.09521 0.48,-1.33v0l-8.04472e-08,3.77619e-08c0.499823,-0.234617 1.09521,-0.0197405 1.33,0.48l1.67,3.61l3.21017e-08,6.53625e-08c0.240245,0.489164 0.0445733,1.08063 -0.44,1.33Z"></path>
        <path id="path-18" d="M1,0h39v6h-40v-5l1.42109e-14,1.50996e-07c-8.33927e-08,-0.552285 0.447715,-1 1,-1Z"></path>
        <path id="path-20" d="M2.70711,0.585786c0.585786,0.585786 0.585786,1.53553 0,2.12132c-0.585786,0.585786 -1.53553,0.585786 -2.12132,0c-0.585786,-0.585786 -0.585786,-1.53553 0,-2.12132c0.585786,-0.585786 1.53553,-0.585786 2.12132,0"></path>
        <path id="path-15" d="M1,2.41411e-08h20h-4.37114e-08c0.552285,-2.41411e-08 1,0.447715 1,1v10.5h-22v-10.5l1.42109e-14,1.50996e-07c-8.33927e-08,-0.552285 0.447715,-1 1,-1Z"></path>
        <path id="path-9" d="M15.7352,19.4871l-3.56,1.48l-3.67202e-08,1.66307e-08c-0.484067,0.219236 -1.05506,0.0215831 -1.3,-0.45l-10.8,-20.07l5.8193e-09,1.14153e-08c-0.0752494,-0.147612 -0.0165883,-0.328276 0.131023,-0.403526c0.0808972,-0.0412398 0.17612,-0.0436204 0.258977,-0.00647443l13.2,6.24l-4.52737e-08,-2.13885e-08c0.267201,0.126233 0.464886,0.364187 0.54,0.65l2.67,10.2l9.97009e-08,3.68125e-07c0.260202,0.960743 -0.225683,1.96661 -1.14,2.36Z"></path>
        <path id="path-19" d="M1,5.92515e-08h3h-4.37114e-08c0.552285,-2.41411e-08 1,0.447715 1,1v5h-5v-5l1.42109e-14,-1.07284e-07c8.33927e-08,-0.552285 0.447715,-1 1,-1Z"></path>
        <path id="path-11" d="M3,1.21441l1.5721e-08,3.69681e-08c-0.352295,-0.828427 -1.30946,-1.21441 -2.13789,-0.862113c-0.388072,0.165031 -0.697082,0.474041 -0.862113,0.862113"></path>
        <path id="path-13" d="M1,15.5c-0.55228,0 -1,-0.44772 -1,-1v-13.5c0,-0.55228 0.44772,-1 1,-1h18.5c0.55228,0 1,0.44772 1,1v13.5c0,0.55228 -0.44772,1 -1,1Z"></path>
        <path id="path-27" d="M5.52946,3.4489l-1.73936e-08,-1.64988e-08c-0.165755,-0.157228 -0.363636,-0.276638 -0.58,-0.35l-2.97066e-08,1.00725e-08c0.216364,-0.0733615 0.414245,-0.192772 0.58,-0.35l7.69125e-08,-8.2541e-08c0.564757,-0.606086 0.531253,-1.55524 -0.0748333,-2.12c-0.57606,-0.536778 -1.46911,-0.536778 -2.04517,1.53825e-07l-5.35849e-08,5.21325e-08c-0.162299,0.1579 -0.282604,0.353826 -0.35,0.57l-2.11312e-08,-6.12397e-08c-0.270221,-0.783117 -1.12412,-1.1989 -1.90724,-0.928681c-0.215719,0.0744356 -0.411612,0.197109 -0.572764,0.358682l5.89766e-08,-5.98338e-08c-0.579457,0.58788 -0.579458,1.53212 -1.19777e-07,2.12l5.38313e-08,5.10619e-08c0.165755,0.157228 0.363636,0.276638 0.58,0.35l7.72696e-08,-2.61994e-08c-0.216364,0.0733615 -0.414245,0.192772 -0.58,0.35l5.89766e-08,-5.98338e-08c-0.579457,0.58788 -0.579458,1.53212 -1.19777e-07,2.12l4.29861e-08,4.30983e-08c0.585023,0.586549 1.53477,0.587786 2.12132,0.0027635c0.161572,-0.161152 0.284246,-0.357044 0.358681,-0.572764l1.59647e-08,5.12073e-08c0.0673957,0.216174 0.187701,0.4121 0.35,0.57l3.45714e-08,3.2214e-08c0.606086,0.564757 1.55524,0.531253 2.12,-0.0748332c0.536778,-0.57606 0.536778,-1.46911 -6.44279e-08,-2.04517Z"></path>
        <path id="path-28" d="M9.98,0.12h-9.5l2.03661e-08,-1.01892e-10c-0.167526,0.000838167 -0.332578,-0.0404248 -0.48,-0.12l0.92,15.68l-2.90124e-08,-4.82684e-07c0.0317796,0.528724 0.470322,0.940954 1,0.94h6.62l-8.13731e-09,-1.46514e-11c0.529677,0.000954233 0.96822,-0.411276 1,-0.94l0.94,-15.68l1.55341e-08,-8.39707e-09c-0.153358,0.0828986 -0.325723,0.124266 -0.5,0.12Z"></path>
        <path id="path-26" d="M5.51476,3.41118l-1.73936e-08,-1.64988e-08c-0.165755,-0.157228 -0.363636,-0.276638 -0.58,-0.35l-2.97066e-08,1.00725e-08c0.216364,-0.0733615 0.414245,-0.192772 0.58,-0.35l3.78981e-08,-3.84489e-08c0.579457,-0.58788 0.579457,-1.53212 -7.39727e-08,-2.12l1.41487e-08,1.43224e-08c-0.578319,-0.585422 -1.52172,-0.59118 -2.10714,-0.0128611c-0.00431314,0.00426081 -0.00860023,0.0085479 -0.012861,0.012861l-4.99697e-08,4.75623e-08c-0.165278,0.157316 -0.288969,0.35316 -0.36,0.57l-3.09795e-09,-9.93683e-09c-0.0673957,-0.216174 -0.187701,-0.4121 -0.35,-0.57l3.11644e-10,2.90385e-10c-0.606086,-0.564757 -1.55524,-0.531253 -2.12,0.0748331c-0.536778,0.57606 -0.536778,1.46911 -5.80783e-10,2.04517l-1.43858e-07,-1.3898e-07c0.162263,0.156761 0.356791,0.276208 0.57,0.35l2.22838e-09,-7.71237e-10c-0.213208,0.0737918 -0.407737,0.193239 -0.57,0.35l-4.44082e-08,4.7658e-08c-0.564757,0.606086 -0.531253,1.55524 0.0748332,2.12c0.57606,0.536778 1.46911,0.536778 2.04517,-8.88163e-08l8.45699e-08,-8.22777e-08c0.162299,-0.1579 0.282604,-0.353826 0.35,-0.57l1.82964e-08,5.58544e-08c0.0710309,0.21684 0.194722,0.412684 0.36,0.57l-4.32781e-08,-4.38096e-08c0.578319,0.585422 1.52172,0.59118 2.10714,0.0128611c0.00431314,-0.00426081 0.00860023,-0.0085479 0.012861,-0.012861l-1.88941e-08,1.91687e-08c0.579458,-0.58788 0.579458,-1.53212 1.77013e-07,-2.12Z"></path>
        <path id="path-31" d="M0.922415,5.51756v0l-7.13703e-08,-1.07188e-08c-0.54616,-0.0820253 -0.922415,-0.59127 -0.840389,-1.13743c0.000128717,-0.000857056 0.000258549,-0.00171394 0.000389495,-0.00257066l0.52,-3.46l2.10626e-08,-1.38861e-07c0.0823118,-0.542664 0.586637,-0.91756 1.13,-0.84v0l-1.50829e-08,-2.26523e-09c0.54616,0.0820253 0.922415,0.59127 0.84039,1.13743c-0.000128717,0.000857056 -0.000258549,0.00171394 -0.000389494,0.00257066l-0.52,3.46l-2.2702e-08,1.49669e-07c-0.0823118,0.542664 -0.586637,0.91756 -1.13,0.84Z"></path>
        <path id="path-4" d="M5.74,7.4l-2.24,1.6l-2.24,-1.6l-1.53133e-07,-1.08999e-07c-0.77808,-0.553831 -1.24597,-1.44504 -1.26,-2.4v-5h7v5l2.60853e-08,-1.77516e-06c-0.0140324,0.954955 -0.481919,1.84617 -1.26,2.4Z"></path>
        <path id="path-16" d="M1,7.5c-0.55228,0 -1,-0.44772 -1,-1v-5.5c0,-0.55228 0.44772,-1 1,-1h6c0.55228,0 1,0.44772 1,1v5.5c0,0.55228 -0.44772,1 -1,1Z"></path>
        <path id="path-3" d="M15.5,1.42109e-14l-6.77527e-07,1.42109e-14c-8.56041,3.74188e-07 -15.5,6.93959 -15.5,15.5c0,0 0,1.42109e-14 0,1.42109e-14l2.13163e-14,3.01992e-07c1.66785e-07,1.10457 0.895431,2 2,2h4v6.5l2.13163e-14,3.01992e-07c1.66785e-07,1.10457 0.895431,2 2,2h15h-8.74228e-08c1.10457,4.82823e-08 2,-0.89543 2,-2v-6.5h4h-8.74228e-08c1.10457,4.82823e-08 2,-0.89543 2,-2v-8.74228e-08c0,-8.56041 -6.93959,-15.5 -15.5,-15.5c-2.0575e-07,0 -4.85656e-07,7.10543e-15 -6.91406e-07,1.42109e-14Z"></path>
        <path id="path-7" d="M7.33634,6.51134l-0.73,-1c-1.08,-1.53 -5.35,-4.5 -6.56,-5.32l-2.01315e-09,-1.895e-09c-0.044236,-0.0416401 -0.0463404,-0.111256 -0.00470031,-0.155492c0.0218866,-0.023251 0.0527966,-0.035844 0.0847003,-0.0345075l1.21141e-06,1.11336e-07c4.17748,0.383937 8.09623,2.1915 11.1,5.12l0.65,0.63Z"></path>
        <path id="path-25" d="M8.95,0.11h-8.5l-3.26051e-08,-1.95499e-10c-0.156542,-0.000938587 -0.310678,-0.0386161 -0.45,-0.11l0.83,6.24l-4.19327e-08,-3.19913e-07c0.0656677,0.500992 0.49474,0.874286 1,0.87h5.74l-3.4238e-08,-2.90399e-10c0.505259,0.00428542 0.934332,-0.369008 1,-0.87l0.88,-6.24l5.91292e-08,-3.04392e-08c-0.154298,0.0794313 -0.326612,0.11734 -0.5,0.11Z"></path>
        <path id="path-29" d="M2.83713,5.2932v0l-2.49806e-08,1.04538e-08c-0.509473,0.213203 -1.09532,-0.0269723 -1.30852,-0.536446c-0.000495416,-0.00118386 -0.000988553,-0.00236867 -0.00147941,-0.00355442l-1.32,-3.24l7.30129e-09,1.79098e-08c-0.207135,-0.508096 0.033831,-1.0882 0.54,-1.3v0l5.43031e-08,-2.27246e-08c0.509473,-0.213203 1.09532,0.0269723 1.30852,0.536446c0.000495416,0.00118386 0.000988553,0.00236867 0.00147941,0.00355442l1.32,3.24l3.77003e-08,9.24779e-08c0.207135,0.508096 -0.0338312,1.0882 -0.54,1.3Z"></path>
    </defs>
    <g fill="#FFFFFF">
        <path d="M34.61,20l-1.97144e-06,-1.79824e-10c14.2829,0.00130315 27.4793,-7.62449 34.61,-20h-69.22l-3.41389e-07,-5.92488e-07c7.1307,12.3755 20.3271,20.0013 34.61,20Z" transform="translate(15.89, 76.5)"></path>
        <path d="M0,0c0.55,1.2 1.17,2.36 1.83,3.5h69.22c0.66,-1.14 1.28,-2.3 1.83,-3.5Z" transform="translate(14.06, 73)"></path>
        <path fill="#E8F4FA" d="M80,39.9963l1.75431e-07,0.00374627c-1.42109e-14,-22.0914 -17.9086,-40 -40,-40c-22.0914,7.10543e-15 -40,17.9086 -40,40c0,5.68809 1.21314,11.3108 3.55846,16.4928h72.8815l6.1272e-07,-1.35057e-06c2.35079,-5.18164 3.56467,-10.8066 3.56,-16.4966Z" transform="translate(10.5, 16.5037)"></path>
        <path fill="none" stroke="#191816" stroke-linecap="round" stroke-linejoin="round" stroke-width="1" d="M0,0h78" transform="translate(11.5, 73)"></path>
        <use fill="none" stroke="#191816" stroke-linecap="round" stroke-linejoin="round" stroke-width="1" transform="translate(7, 73)" xlink:href="#path-1"></use>
        <use fill="none" stroke="#191816" stroke-linecap="round" stroke-linejoin="round" stroke-width="1" transform="translate(91.5, 73)" xlink:href="#path-1"></use>
    </g>
    <g mask="url(#mask-1)">
        <use fill="#FFF48C" transform="translate(28.5, 80.74)" xlink:href="#path-2"></use>
        <path fill="#FFE500" d="M16.94,4.26c0.04,-1.33333 0.06,-2.69333 0.06,-4.08v-0.18l-2.0296e-08,1.15036e-08c-0.304806,0.172761 -0.649647,0.26242 -1,0.26h-15l-5.62659e-08,3.88582e-10c-0.350353,0.00241965 -0.695194,-0.0872391 -1,-0.26v0.18c0,1.33333 0.02,2.69333 0.06,4.08Z" transform="translate(28.5, 80.74)"></path>
        <use fill="none" stroke="#191816" stroke-linecap="round" stroke-linejoin="round" stroke-width="1" transform="translate(28.5, 80.74)" xlink:href="#path-2"></use>
        <use fill="#FF8A14" transform="translate(21.5, 55)" xlink:href="#path-3"></use>
        <path fill="#FFAA54" d="M31,15.5v0c0,-8.56041 -6.93959,-15.5 -15.5,-15.5c-8.56041,0 -15.5,6.93959 -15.5,15.5l-1.6536e-07,3.81987e-07c3.70575,-8.56041 13.6494,-12.4959 22.2099,-8.79015c3.94098,1.70602 7.08412,4.84917 8.79015,8.79015Z" transform="translate(21.48, 54.13)"></path>
        <use fill="none" stroke="#191816" stroke-linecap="round" stroke-linejoin="round" stroke-width="1" transform="translate(21.5, 55)" xlink:href="#path-3"></use>
        <path fill="#FFFFFF" stroke="#191816" stroke-linecap="round" stroke-linejoin="round" stroke-width="1" d="M4.5,2.9v-2.9c-2.66,0.96 -4.5,2.9 -4.5,4.9c0,2 1.59,4.12 4,5.22l7.17272e-08,3.08119e-08c0.379901,0.163194 0.821062,0.0757571 1.11,-0.22l2.89,-3l-2.24,-1.6l-1.53133e-07,-1.08999e-07c-0.77808,-0.553831 -1.24597,-1.44504 -1.26,-2.4Z" transform="translate(29, 54.1)"></path>
        <path fill="#FFFFFF" stroke="#191816" stroke-linecap="round" stroke-linejoin="round" stroke-width="1" d="M3.5,0v2.9l-3.14595e-08,2.44289e-05c-0.00125196,0.969105 -0.470565,1.87792 -1.26002,2.43999l-2.23998,1.55999l2.89,3l-6.77791e-08,-7.11199e-08c0.299916,0.314699 0.768792,0.399581 1.16,0.21c2.36,-1.1 4,-3.38 4,-5.22c0,-1.84 -1.89,-3.93 -4.55,-4.89Z" transform="translate(37, 54.1)"></path>
        <use fill="#D18660" transform="translate(33.5, 52)" xlink:href="#path-4"></use>
        <path fill="#BD704A" d="M1.88924e-06,3.49l2.53248e-07,7.54368e-08c2.28375,0.680278 4.71625,0.680278 7,4.87326e-07v-3.49h-7Z" transform="translate(33.5, 52)"></path>
        <use fill="none" stroke="#191816" stroke-linecap="round" stroke-linejoin="round" stroke-width="1" transform="translate(33.5, 52)" xlink:href="#path-4"></use>
        <path fill="#D18660" stroke="#191816" stroke-linecap="round" stroke-linejoin="round" stroke-width="1" d="M5,0h-5v15.5l2.84217e-14,3.77489e-07c2.08482e-07,1.38071 1.11929,2.5 2.5,2.5c1.38071,-2.08482e-07 2.5,-1.11929 2.5,-2.5Z" transform="translate(46.5, 75)"></path>
        <path fill="none" stroke="#191816" stroke-linecap="round" stroke-linejoin="round" stroke-width="1" d="M0,0v11" transform="translate(37, 86.5)"></path>
        <path fill="none" stroke="#191816" stroke-linecap="round" stroke-linejoin="round" stroke-width="1" d="M0,0v3.5" transform="translate(46.5, 69)"></path>
        <path fill="#FFFFFF" stroke="#191816" stroke-linecap="round" stroke-linejoin="round" stroke-width="1" d="M5,5.3302e-08l9.18862e-08,-5.3302e-08c-0.30384,0.176253 -0.64874,0.269377 -1,0.27h-4v2.5h5Z" transform="translate(46.5, 72.23)"></path>
        <path fill="#FFFFFF" stroke="#191816" stroke-linecap="round" stroke-linejoin="round" stroke-width="1" d="M5,0.27h-4l-3.47904e-08,-6.1732e-11c-0.35126,-0.000623344 -0.69616,-0.0937465 -1,-0.27v2.77h5Z" transform="translate(22.5, 72.23)"></path>
        <path fill="#D18660" stroke="#191816" stroke-linecap="round" stroke-linejoin="round" stroke-width="1" d="M2.89777e-07,0v1l-2.89777e-07,-0.000249869c0.00537267,4.69214 3.80761,8.4946 8.49975,8.50025h3.5h-1.09278e-07c1.38071,6.03528e-08 2.5,-1.11929 2.5,-2.5c6.03528e-08,-1.38071 -1.11929,-2.5 -2.5,-2.5h-3.49975l-1.5299e-07,-1.42109e-14c-1.933,-8.4494e-08 -3.5,-1.567 -3.5,-3.5v-1Z" transform="translate(22.5, 75)"></path>
        <use fill="#FFB0CA" transform="translate(14.7435, 51.0235)" xlink:href="#path-5"></use>
        <path fill="#FFCCDD" d="M1.88608,1.78566l3.84473e-08,-4.29452e-08c0.265876,-0.296981 0.669559,-0.430272 1.06,-0.35l-1.22,-1.09l1.48123e-08,1.18867e-08c-0.430738,-0.345663 -1.06014,-0.276696 -1.4058,0.154043c-0.320286,0.399116 -0.287576,0.975631 0.075799,1.33596l1.3,1.12l-6.11385e-08,-1.52876e-07c-0.158015,-0.395115 -0.0849259,-0.845192 0.19,-1.17Z" transform="translate(14.8139, 51.0443)"></path>
        <use fill="#FFB0CA" transform="translate(21.2854, 49.4354)" xlink:href="#path-6"></use>
        <path fill="#FFCCDD" d="M1.44906,1.79026l-7.63258e-08,3.85487e-08c0.345862,-0.17468 0.754138,-0.17468 1.1,-1.25449e-07l-0.48,-1l3.05134e-08,8.51204e-08c-0.186367,-0.51989 -0.758901,-0.790265 -1.27879,-0.603898c-0.51989,0.186367 -0.790265,0.758901 -0.603898,1.27879c0.0218333,0.0609065 0.0495262,0.11955 0.0826892,0.175107l0.49,1l-3.94677e-08,1.79379e-07c0.0828215,-0.376419 0.338646,-0.691566 0.69,-0.85Z" transform="translate(21.2509, 49.3297)"></path>
        <use fill="none" stroke="#191816" stroke-linecap="round" stroke-linejoin="round" stroke-width="1" transform="translate(14.7435, 51.0235)" xlink:href="#path-5"></use>
        <use fill="none" stroke="#191816" stroke-linecap="round" stroke-linejoin="round" stroke-width="1" transform="translate(21.2854, 49.4354)" xlink:href="#path-6"></use>
        <path fill="none" stroke="#191816" stroke-linecap="round" stroke-linejoin="round" stroke-width="1" d="M7.51493e-07,1.51323e-06l-7.51493e-07,-1.51323e-06c1.40075,2.8206 2.62315,5.72631 3.66,8.7" transform="translate(24.56, 55.09)"></path>
        <path fill="none" stroke="#191816" stroke-linecap="round" stroke-linejoin="round" stroke-width="1" d="M0,0c0,0 1.27,0.54 8.4,11.24" transform="translate(19.6, 55.46)"></path>
        <use fill="#46B000" transform="translate(16.4637, 59.1087)" xlink:href="#path-7"></use>
        <path fill="#6DD627" d="M2.29584,1.78254l1.64788e-06,3.53842e-07c3.07668,0.660645 5.92951,2.10773 8.28,4.2l1.29,-0.23l-0.65,-0.63l6.43749e-07,6.27617e-07c-3.00377,-2.9285 -6.92252,-4.73606 -11.1,-5.12l-4.75105e-09,-1.99023e-10c-0.0606981,-0.00254267 -0.111965,0.0446016 -0.114508,0.1053c-0.00133646,0.0319037 0.0112565,0.0628137 0.0345075,0.0847003c0.489998,0.299999 1.3,0.889999 2.26,1.59Z" transform="translate(16.4742, 59.0675)"></path>
        <use fill="none" stroke="#191816" stroke-linecap="round" stroke-linejoin="round" stroke-width="1" transform="translate(16.4637, 59.1087)" xlink:href="#path-7"></use>
        <use fill="#F7E5C6" transform="translate(24.93, 60.0375)" xlink:href="#path-8"></use>
        <path fill="#FFF5E3" d="M6.62,1.71246l-0.44,-1.46l3.96347e-09,1.41001e-08c-0.0448357,-0.159504 -0.210485,-0.25246 -0.369989,-0.207625c-0.0402882,0.0113248 -0.0777613,0.0309536 -0.110011,0.0576247l-5.7,4.71l1.82,0.86Z" transform="translate(24.93, 60.0575)"></path>
        <use fill="none" stroke="#191816" stroke-linecap="round" stroke-linejoin="round" stroke-width="1" transform="translate(24.93, 60.0375)" xlink:href="#path-8"></use>
        <use fill="#FFF5E3" transform="translate(20.1248, 62.7829)" xlink:href="#path-9"></use>
        <path fill="#FFFFFF" d="M1.16362,2.56778l13.54,6.39v0l-0.53,-2l4.66158e-08,1.77376e-07c-0.0751141,-0.285813 -0.272799,-0.523767 -0.54,-0.65l-13.2,-6.24l-7.29762e-09,-3.27163e-09c-0.151187,-0.0677795 -0.328695,-0.000164013 -0.396474,0.151023c-0.0371459,0.0828569 -0.0347654,0.178079 0.00647442,0.258977Z" transform="translate(20.1564, 62.7522)"></path>
        <use fill="none" stroke="#191816" stroke-linecap="round" stroke-linejoin="round" stroke-width="1" transform="translate(20.1248, 62.7829)" xlink:href="#path-9"></use>
        <path fill="#D18660" stroke="#191816" stroke-linecap="round" stroke-linejoin="round" stroke-width="1" d="M0,5.41l7.06882e-07,4.43029e-07c1.34858,0.845206 2.90845,1.29237 4.5,1.29h3.5h-1.09278e-07c1.38071,6.03528e-08 2.5,-1.11929 2.5,-2.5c6.03528e-08,-1.38071 -1.11929,-2.5 -2.5,-2.5h-3.5l1.42343e-07,2.9722e-10c-1.22861,-0.00256533 -2.36645,-0.64734 -3,-1.7" transform="translate(26.5, 77.8)"></path>
        <path fill="#D18660" stroke="#191816" stroke-linecap="round" stroke-linejoin="round" stroke-width="1" d="M22,12.5v-2.5v0c0,-5.52285 -4.47715,-10 -10,-10c-5.52285,0 -10,4.47715 -10,10v2.5h-8.74228e-08c-1.10457,4.82823e-08 -2,0.895431 -2,2c4.82823e-08,1.10457 0.895431,2 2,2h0.12l-2.53277e-07,-1.62014e-06c0.853024,5.45657 5.96796,9.18849 11.4245,8.33546c4.29488,-0.671417 7.66405,-4.04058 8.33546,-8.33546h0.12h-8.74228e-08c1.10457,4.82823e-08 2,-0.89543 2,-2c4.82823e-08,-1.10457 -0.89543,-2 -2,-2Z" transform="translate(25, 29)"></path>
        <use fill="#BD704A" transform="translate(29.878, 43.878)" xlink:href="#path-10"></use>
        <use fill="#BD704A" transform="translate(41.378, 43.878)" xlink:href="#path-10"></use>
        <path fill="none" stroke="#191816" stroke-linecap="round" stroke-linejoin="round" stroke-width="1" d="M6,1.80939e-07l-1.87479e-07,1.80939e-07c-1.67381,1.61541 -4.3262,1.61541 -6,-3.61877e-07" transform="translate(34, 47.79)"></path>
        <use fill="none" stroke="#191816" stroke-linecap="round" stroke-linejoin="round" stroke-width="1" transform="translate(31.5, 40.7856)" xlink:href="#path-11"></use>
        <use fill="none" stroke="#191816" stroke-linecap="round" stroke-linejoin="round" stroke-width="1" transform="translate(39.5, 40.7856)" xlink:href="#path-11"></use>
        <use fill="#724F3D" transform="translate(22.2602, 24.88)" xlink:href="#path-12"></use>
        <path fill="#A86C4D" d="M0.161684,17.34c1.56,-10.22 9.94,-13.51 16.33,-11.22l1.82,0.64c6.4,-0.71 9,7.17 9,13.09v-3.82c0,-5.13 -2.2,-13.84 -9,-13.09l-1.82,-0.64c-6.45,-2.3 -14.94,1.16 -16.34,11.54l-3.33095e-07,2.55164e-06c-0.151684,1.16196 -0.148321,2.33892 0.0100007,3.5Z" transform="translate(22.9583, 24.88)"></path>
        <use fill="none" stroke="#191816" stroke-linecap="round" stroke-linejoin="round" stroke-width="1" transform="translate(22.2602, 24.88)" xlink:href="#path-12"></use>
    </g>
    <g mask="url(#mask-2)">
        <path opacity="0.15" fill="#191816" d="M23.4616,0.585786c5.07682,0.585786 5.07682,1.53553 0,2.12132c-5.07682,0.585786 -13.308,0.585786 -18.3848,0c-5.07682,-0.585786 -5.07682,-1.53553 0,-2.12132c5.07682,-0.585786 13.308,-0.585786 18.3848,0" transform="translate(55.2308, 85.8536)"></path>
        <path fill="#FFF48C" stroke="#191816" stroke-linecap="round" stroke-linejoin="round" stroke-width="1" d="M0,0h39.5v32h-39.5Z" transform="translate(63.5, 41)"></path>
        <use fill="#00B8F0" transform="translate(66.5, 47)" xlink:href="#path-13"></use>
        <path fill="#4ACFFF" d="M1,0h-4.37114e-08c-0.552285,2.41411e-08 -1,0.447715 -1,1c0,0 0,0 0,0v13.5l1.42109e-14,1.50996e-07c8.33927e-08,0.552285 0.447715,1 1,1h0.09l15.5,-15.5Z" transform="translate(66.5, 47)"></path>
        <use fill="none" stroke="#191816" stroke-linecap="round" stroke-linejoin="round" stroke-width="1" transform="translate(66.5, 47)" xlink:href="#path-13"></use>
        <use fill="#00DBA8" transform="translate(59.5, 31)" xlink:href="#path-14"></use>
        <path fill="#00F5BC" d="M42.4,4v-4h-41l-1.4,4h42.4Z" transform="translate(61.6, 31)"></path>
        <use fill="none" stroke="#191816" stroke-linecap="round" stroke-linejoin="round" stroke-width="1" transform="translate(59.5, 31)" xlink:href="#path-14"></use>
        <use fill="#627B8C" transform="translate(61.5, 61.5)" xlink:href="#path-15"></use>
        <path fill="#8CA4B8" d="M21,0h-20h-4.37114e-08c-0.552285,2.41411e-08 -1,0.447715 -1,1c0,0 0,0 0,0v2.5h22v-2.5v0c0,-0.552285 -0.447715,-1 -1,-1Z" transform="translate(61.5, 61.5)"></path>
        <use fill="none" stroke="#191816" stroke-linecap="round" stroke-linejoin="round" stroke-width="1" transform="translate(61.5, 61.5)" xlink:href="#path-15"></use>
        <path fill="#00F5BC" stroke="#191816" stroke-linecap="round" stroke-linejoin="round" stroke-width="1" d="M1,2.41411e-08h10h-4.37114e-08c0.552285,-2.41411e-08 1,0.447715 1,1v25h-12v-25l1.42109e-14,1.50996e-07c-8.33927e-08,-0.552285 0.447715,-1 1,-1Z" transform="translate(89, 47)"></path>
        <use fill="#00B8F0" transform="translate(91, 49)" xlink:href="#path-16"></use>
        <path fill="#4ACFFF" d="M7.00095,0.0278574h-6h-4.37114e-08c-0.552285,2.41411e-08 -1,0.447715 -1,1c0,0 0,0 0,0v5.5l-1.35084e-08,7.51396e-06c-0.000950249,0.529677 0.411283,0.968217 0.940008,0.999993l7,-7l1.11048e-08,1.93695e-08c-0.191191,-0.333485 -0.556615,-0.527858 -0.940007,-0.500001Z" transform="translate(90.999, 48.9721)"></path>
        <use fill="#00B8F0" transform="translate(91, 59)" xlink:href="#path-17"></use>
        <path fill="#4ACFFF" d="M7.93,0.64l3.29176e-08,8.53082e-08c-0.148424,-0.384652 -0.517707,-0.638782 -0.93,-0.64h-6h-4.37114e-08c-0.552285,2.41411e-08 -1,0.447715 -1,1c0,0 0,0 0,0v7.57Z" transform="translate(91, 59)"></path>
        <use fill="none" stroke="#191816" stroke-linecap="round" stroke-linejoin="round" stroke-width="1" transform="translate(91, 59)" xlink:href="#path-17"></use>
        <use fill="none" stroke="#191816" stroke-linecap="round" stroke-linejoin="round" stroke-width="1" transform="translate(91, 49)" xlink:href="#path-16"></use>
        <use fill="#C0DCEB" transform="translate(63, 25)" xlink:href="#path-18"></use>
        <path fill="#DAEDF7" d="M1,0h-4.37114e-08c-0.552285,2.41411e-08 -1,0.447715 -1,1c0,0 0,3.55271e-15 0,3.55271e-15v2l1.42109e-14,1.50996e-07c-8.33927e-08,-0.552285 0.447715,-1 1,-1h39v-2Z" transform="translate(63, 25)"></path>
        <use fill="none" stroke="#191816" stroke-linecap="round" stroke-linejoin="round" stroke-width="1" transform="translate(63, 25)" xlink:href="#path-18"></use>
        <path fill="#00AD85" stroke="#191816" stroke-linecap="round" stroke-linejoin="round" stroke-width="1" d="M0,0v2l2.13163e-14,3.01992e-07c1.66785e-07,1.10457 0.895431,2 2,2c1.10457,-1.66785e-07 2,-0.895431 2,-2l1.42109e-14,1.82782e-07c1.66785e-07,1.10457 0.895431,2 2,2c1.10457,-1.66785e-07 2,-0.895431 2,-2l2.84217e-14,3.01992e-07c1.66785e-07,1.10457 0.895431,2 2,2c1.10457,-1.66785e-07 2,-0.895431 2,-2l2.84217e-14,3.01992e-07c1.66785e-07,1.10457 0.895431,2 2,2c1.10457,-1.66785e-07 2,-0.895431 2,-2l2.84217e-14,3.01992e-07c1.66785e-07,1.10457 0.895431,2 2,2c1.10457,-1.66785e-07 2,-0.895431 2,-2l2.84217e-14,3.01992e-07c1.66785e-07,1.10457 0.895431,2 2,2c1.10457,-1.66785e-07 2,-0.895431 2,-2l2.84217e-14,3.01992e-07c1.66785e-07,1.10457 0.895431,2 2,2c1.10457,-1.66785e-07 2,-0.895431 2,-2l2.84217e-14,3.01992e-07c1.66785e-07,1.10457 0.895431,2 2,2c1.10457,-1.66785e-07 2,-0.895431 2,-2l2.84217e-14,3.01992e-07c1.66785e-07,1.10457 0.895431,2 2,2c1.10457,-1.66785e-07 2,-0.895431 2,-2l2.84217e-14,3.01992e-07c1.66785e-07,1.10457 0.895431,2 2,2c1.10457,-1.66785e-07 2,-0.895431 2,-2l2.84217e-14,3.01992e-07c1.66785e-07,1.10457 0.895431,2 2,2c1.10457,-1.66785e-07 2,-0.895431 2,-2v-2Z" transform="translate(59.5, 41)"></path>
        <use fill="#C0DCEB" transform="translate(68.5, 55.5)" xlink:href="#path-19"></use>
        <path fill="#DAEDF7" d="M4,0h-3h-4.37114e-08c-0.552285,2.41411e-08 -1,0.447715 -1,1c0,0 0,0 0,0v1.5l1.42109e-14,1.50996e-07c-8.33927e-08,-0.552285 0.447715,-1 1,-1h3h-4.37114e-08c0.552285,-2.41411e-08 1,0.447715 1,1v-1.5l1.42109e-14,-1.42109e-14c0,-0.552285 -0.447715,-1 -1,-1Z" transform="translate(68.5, 55.5)"></path>
        <use fill="#FFE500" transform="translate(67.8536, 48.8536)" xlink:href="#path-20"></use>
        <use fill="#FFE500" transform="translate(70.8536, 50.3536)" xlink:href="#path-20"></use>
        <use fill="#FFF48C" transform="translate(67.999, 49)" xlink:href="#path-21"></use>
        <path fill="#FFF48C" d="M1.50097,1l-1.05865e-08,-2.97504e-11c0.634127,0.00178218 1.19863,0.402136 1.41,1l6.28978e-09,-1.66158e-08c0.0604616,-0.159722 0.0909711,-0.32922 0.09,-0.5v0c0,-0.828427 -0.671573,-1.5 -1.5,-1.5c-0.828427,0 -1.5,0.671573 -1.5,1.5l-2.04078e-08,3.58966e-06c-0.000970694,0.17078 0.0295392,0.340277 0.0900013,0.5l-2.16189e-08,6.11488e-08c0.211373,-0.597865 0.775871,-0.99822 1.41,-1Z" transform="translate(70.999, 50.5)"></path>
        <use fill="none" stroke="#191816" stroke-linecap="round" stroke-linejoin="round" stroke-width="1" transform="translate(67.8536, 48.8536)" xlink:href="#path-20"></use>
        <use fill="none" stroke="#191816" stroke-linecap="round" stroke-linejoin="round" stroke-width="1" transform="translate(70.8536, 50.3536)" xlink:href="#path-20"></use>
        <path fill="none" stroke="#191816" stroke-linecap="round" stroke-linejoin="round" stroke-width="1" d="M0,0l0.59,3.56" transform="translate(69.91, 51.94)"></path>
        <path fill="none" stroke="#191816" stroke-linecap="round" stroke-linejoin="round" stroke-width="1" d="M0.52,0l-0.52,2.08" transform="translate(71.5, 53.42)"></path>
        <use fill="#C0DCEB" transform="translate(76, 55.5)" xlink:href="#path-22"></use>
        <path fill="#DAEDF7" d="M5,0h-4h-4.37114e-08c-0.552285,2.41411e-08 -1,0.447715 -1,1c0,0 0,0 0,0v1.5l1.42109e-14,1.50996e-07c-8.33927e-08,-0.552285 0.447715,-1 1,-1h4h-4.37114e-08c0.552285,-2.41411e-08 1,0.447715 1,1v-1.5l1.42109e-14,-1.42109e-14c0,-0.552285 -0.447715,-1 -1,-1Z" transform="translate(76, 55.5)"></path>
        <use fill="none" stroke="#191816" stroke-linecap="round" stroke-linejoin="round" stroke-width="1" transform="translate(68.5, 55.5)" xlink:href="#path-19"></use>
        <use fill="none" stroke="#191816" stroke-linecap="round" stroke-linejoin="round" stroke-width="1" transform="translate(76, 55.5)" xlink:href="#path-22"></use>
        <path fill="#6DD627" stroke="#191816" stroke-linecap="round" stroke-linejoin="round" stroke-width="1" d="M0.475957,5.72405l-0.47,-5.61l-1.8433e-09,-1.69903e-08c-0.00595683,-0.0549063 0.0337246,-0.104246 0.0886308,-0.110202c0.0354454,-0.0038455 0.0702573,0.0114717 0.0913692,0.0402025l3.79,5.68Z" transform="translate(76.524, 49.776)"></path>
        <path fill="#6DD627" stroke="#191816" stroke-linecap="round" stroke-linejoin="round" stroke-width="1" d="M3,4.71433l1.37,-4.57l-1.31726e-09,3.44593e-09c0.0197201,-0.0515878 -0.00611373,-0.109394 -0.0577015,-0.129114c-0.0398123,-0.0152188 -0.0848953,-0.0035306 -0.112298,0.0291144l-4.2,4.67Z" transform="translate(78, 50.7857)"></path>
        <path fill="none" stroke="#191816" stroke-linecap="round" stroke-linejoin="round" stroke-width="1" d="M0,0h40" transform="translate(63, 28)"></path>
        <use fill="#ADC4D9" transform="translate(74, 65)" xlink:href="#path-23"></use>
        <path fill="#C0DCEB" d="M11,0h-10h-4.37114e-08c-0.552285,2.41411e-08 -1,0.447715 -1,1c0,0 0,0 0,0v1h12v-1v0c0,-0.552285 -0.447715,-1 -1,-1Z" transform="translate(74, 65)"></path>
        <use fill="none" stroke="#191816" stroke-linecap="round" stroke-linejoin="round" stroke-width="1" transform="translate(74, 65)" xlink:href="#path-23"></use>
        <use fill="#9CEB60" transform="translate(75.3733, 60.3311)" xlink:href="#path-24"></use>
        <use fill="#C8FFA1" transform="translate(75.499, 60.5)" xlink:href="#path-21"></use>
        <use fill="none" stroke="#191816" stroke-linecap="round" stroke-linejoin="round" stroke-width="1" transform="translate(75.3733, 60.3311)" xlink:href="#path-24"></use>
        <use fill="#9CEB60" transform="translate(78.3733, 60.3311)" xlink:href="#path-24"></use>
        <use fill="#C8FFA1" transform="translate(78.499, 60.5)" xlink:href="#path-21"></use>
        <use fill="none" stroke="#191816" stroke-linecap="round" stroke-linejoin="round" stroke-width="1" transform="translate(78.3733, 60.3311)" xlink:href="#path-24"></use>
        <use fill="#9CEB60" transform="translate(81.3733, 60.3311)" xlink:href="#path-24"></use>
        <use fill="#C8FFA1" transform="translate(81.499, 60.5)" xlink:href="#path-21"></use>
        <use fill="none" stroke="#191816" stroke-linecap="round" stroke-linejoin="round" stroke-width="1" transform="translate(81.3733, 60.3311)" xlink:href="#path-24"></use>
        <path fill="#FFAA54" stroke="#191816" stroke-linecap="round" stroke-linejoin="round" stroke-width="1" d="M10.0316,0.0162005h-9l3.08415e-08,9.05082e-10c-0.552047,-0.0162005 -1.0127,0.418189 -1.0289,0.970236c-0.00266513,0.0908168 0.00705876,0.181573 0.0289033,0.269764l0.19,0.76h10.59l0.19,-0.76l-1.56462e-08,6.32869e-08c0.132549,-0.536143 -0.194629,-1.07822 -0.730772,-1.21077c-0.0782726,-0.019351 -0.158598,-0.0291646 -0.239227,-0.0292269Z" transform="translate(74.4684, 62.9838)"></path>
        <use fill="#FF8A14" transform="translate(71.55, 79.89)" xlink:href="#path-25"></use>
        <path fill="#EB6D00" d="M0.45,0.11l-3.26051e-08,-1.95499e-10c-0.156542,-0.000938587 -0.310678,-0.0386161 -0.45,-0.11l0.35,2.61h8.7l0.4,-2.61l8.53477e-08,-4.37292e-08c-0.139322,0.0713839 -0.293458,0.109061 -0.45,0.11Z" transform="translate(71.55, 79.89)"></path>
        <use fill="none" stroke="#191816" stroke-linecap="round" stroke-linejoin="round" stroke-width="1" transform="translate(71.55, 79.89)" xlink:href="#path-25"></use>
        <path fill="#FFAA54" stroke="#191816" stroke-linecap="round" stroke-linejoin="round" stroke-width="1" d="M9.5,2h-8.5h-4.37114e-08c-0.552285,-2.41411e-08 -1,-0.447715 -1,-1c0,0 0,0 0,0v0l1.42109e-14,1.50996e-07c-8.33927e-08,-0.552285 0.447715,-1 1,-1h8.5h-4.37114e-08c0.552285,-2.41411e-08 1,0.447715 1,1v0l1.42109e-14,8.74228e-08c0,0.552285 -0.447715,1 -1,1Z" transform="translate(71, 78)"></path>
        <path fill="none" stroke="#191816" stroke-linecap="round" stroke-linejoin="round" stroke-width="1" d="M0,0l1.86251e-07,3.14664e-07c0.554615,0.936998 0.857743,2.00139 0.88,3.09" transform="translate(74.78, 74.91)"></path>
        <path fill="none" stroke="#191816" stroke-linecap="round" stroke-linejoin="round" stroke-width="1" d="M0.62,0l-6.27582e-07,1.57601e-06c-0.404271,1.01522 -0.614572,2.09726 -0.619999,3.19" transform="translate(78, 74.81)"></path>
        <use fill="#FFB0CA" transform="translate(70.2052, 68.9388)" xlink:href="#path-26"></use>
        <path fill="#FFCCDD" d="M0.756394,1.99559l-4.32781e-08,4.38096e-08c0.578319,-0.585422 1.52172,-0.59118 2.10714,-0.0128611c0.00431314,0.00426081 0.00860023,0.0085479 0.012861,0.012861l1.17296e-08,1.17785e-08c0.0929249,0.0933125 0.218343,0.147063 0.35,0.15l-1.12612e-08,2.02888e-10c0.134703,-0.00242696 0.263427,-0.0560616 0.36,-0.15l-4.32781e-08,4.38096e-08c0.578319,-0.585422 1.52172,-0.59118 2.10714,-0.0128611c0.00431314,0.00426081 0.00860023,0.0085479 0.012861,0.012861c0.06,0.06 0.11,0.13 0.16,0.19l5.85496e-08,-1.43181e-07c0.311468,-0.761682 -0.0535028,-1.63164 -0.815185,-1.94311c-0.563841,-0.230567 -1.21125,-0.0946908 -1.63482,0.34311l-4.99697e-08,4.75623e-08c-0.165278,0.157316 -0.288969,0.35316 -0.36,0.57l-3.09795e-09,-9.93683e-09c-0.0673957,-0.216174 -0.187701,-0.4121 -0.35,-0.57l5.99137e-08,5.98743e-08c-0.585979,-0.585594 -1.53573,-0.585281 -2.12132,0.000697619c-0.513983,0.514322 -0.585074,1.32321 -0.16868,1.9193l-8.29429e-09,2.00903e-08c0.0787255,-0.190687 0.19426,-0.363989 0.34,-0.51Z" transform="translate(70.1836, 68.9444)"></path>
        <use fill="none" stroke="#191816" stroke-linecap="round" stroke-linejoin="round" stroke-width="1" transform="translate(70.2052, 68.9388)" xlink:href="#path-26"></use>
        <use fill="#FFB0CA" transform="translate(77.5305, 68.9011)" xlink:href="#path-27"></use>
        <path fill="#FFCCDD" d="M0.801698,2.12713l9.31188e-08,-9.2914e-08c0.586431,-0.585141 1.53618,-0.584096 2.12132,0.00233509c0.162203,0.16256 0.284916,0.360193 0.358681,0.577665l4.72122e-08,-1.47986e-07c0.0695808,-0.2181 0.189474,-0.416781 0.35,-0.58l-4.32781e-08,4.38096e-08c0.578319,-0.585422 1.52172,-0.59118 2.10714,-0.0128611c0.00431314,0.00426081 0.00860023,0.0085479 0.012861,0.012861l0.17,0.19l4.76746e-08,-1.23871e-07c0.297561,-0.773142 -0.0879735,-1.64112 -0.861116,-1.93868c-0.553071,-0.212862 -1.17962,-0.0801443 -1.59888,0.33868l-5.35849e-08,5.21325e-08c-0.162299,0.1579 -0.282604,0.353826 -0.35,0.57l6.38269e-09,2.49881e-08c-0.205022,-0.802657 -1.02191,-1.28714 -1.82456,-1.08211c-0.802657,0.205022 -1.28714,1.02191 -1.08211,1.82456c0.0572761,0.224235 0.165662,0.432175 0.316677,0.60755l-1.55422e-08,5.15598e-08c0.0565898,-0.187732 0.151983,-0.361483 0.28,-0.51Z" transform="translate(77.4783, 68.8129)"></path>
        <use fill="none" stroke="#191816" stroke-linecap="round" stroke-linejoin="round" stroke-width="1" transform="translate(77.5305, 68.9011)" xlink:href="#path-27"></use>
        <use fill="#DAEDF7" transform="translate(58.52, 70.38)" xlink:href="#path-28"></use>
        <path fill="#C0DCEB" d="M0.48,0.12l2.03661e-08,-1.01892e-10c-0.167526,0.000838167 -0.332578,-0.0404248 -0.48,-0.12l0.19,3.12h10.08l0.21,-3.12l2.35165e-08,-1.26937e-08c-0.147422,0.0795752 -0.312474,0.120838 -0.48,0.12Z" transform="translate(58.52, 70.38)"></path>
        <use fill="none" stroke="#191816" stroke-linecap="round" stroke-linejoin="round" stroke-width="1" transform="translate(58.52, 70.38)" xlink:href="#path-28"></use>
        <path fill="#6DD627" stroke="#191816" stroke-linecap="round" stroke-linejoin="round" stroke-width="1" d="M5.42309,7.10668c-1.08,-2.66 -4.12,-5.92 -5.25,-7.07l8.04128e-10,7.14373e-10c-0.0412887,-0.0366801 -0.104495,-0.032944 -0.141175,0.00834471c-0.0246628,0.0277615 -0.0319112,0.0669033 -0.018825,0.101655l3.56321e-07,7.07231e-07c1.12476,2.23244 2.00648,4.57923 2.63,7Z" transform="translate(57.4969, 61.3933)"></path>
        <path fill="#6DD627" stroke="#191816" stroke-linecap="round" stroke-linejoin="round" stroke-width="1" d="M4,0.000745488c-1.86,1.78 -3.24,5.57 -4,8.47h2.11l-1.6374e-06,9.67348e-06c0.478739,-2.8283 1.14691,-5.62126 2,-8.36l3.5166e-09,-3.30891e-08c0.00583663,-0.0549192 -0.0339527,-0.104172 -0.0888718,-0.110008c-0.00702197,-0.000746271 -0.0141032,-0.000746664 -0.0211253,-1.17231e-06Z" transform="translate(66.18, 59.9993)"></path>
        <use fill="#FFA694" transform="translate(57.0429, 53.6268)" xlink:href="#path-29"></use>
        <path fill="#FFCABF" d="M0.677135,2.65272l7.98467e-09,2.63249e-08c-0.160303,-0.528509 0.138186,-1.0869 0.666694,-1.2472c0.501245,-0.152034 1.03487,0.108478 1.22331,0.597204v0l-0.51,-1.25l-1.6419e-08,-3.96634e-08c-0.21124,-0.51029 -0.796155,-0.752719 -1.30645,-0.541479c-0.00118576,0.000490855 -0.00237056,0.000983992 -0.00355442,0.00147941l2.20486e-09,-9.22604e-10c-0.506169,0.211801 -0.747135,0.791904 -0.54,1.3Z" transform="translate(57.0329, 53.6173)"></path>
        <use fill="#FFA694" transform="translate(62.642, 50.9678)" xlink:href="#path-30"></use>
        <path fill="#FFCABF" d="M1.2,0.0521958l4.07493e-08,3.87111e-09c-0.54944,-0.0521958 -1.03728,0.35061 -1.09,0.9l-0.11,1.28l1.60387e-09,-4.16903e-09c0.173715,-0.451548 0.628817,-0.730349 1.11,-0.68l7.28817e-08,6.80216e-09c0.428333,0.039977 0.788949,0.337188 0.91,0.75l0.09,-1.15l1.83582e-08,-1.76272e-07c0.0572093,-0.549314 -0.34172,-1.041 -0.891034,-1.09821c-0.00631627,-0.000657819 -0.0126387,-0.00125546 -0.0189663,-0.00179283Z" transform="translate(62.89, 50.9478)"></path>
        <use fill="#FFA694" transform="translate(65.0176, 56.4824)" xlink:href="#path-31"></use>
        <path fill="#FFCABF" d="M1.31,0.0775603l9.4588e-08,1.35016e-08c-0.543363,-0.0775603 -1.04769,0.297336 -1.13,0.84l-0.18,1.14l-4.65845e-08,6.51823e-08c0.247623,-0.346481 0.669014,-0.524315 1.09,-0.46l5.73781e-08,8.06276e-09c0.41295,0.0580278 0.757582,0.344575 0.89,0.74l0.17,-1.13l3.7283e-08,-2.61194e-07c0.0775601,-0.543363 -0.297337,-1.04769 -0.84,-1.13Z" transform="translate(65.44, 56.4624)"></path>
        <use fill="none" stroke="#191816" stroke-linecap="round" stroke-linejoin="round" stroke-width="1" transform="translate(57.0429, 53.6268)" xlink:href="#path-29"></use>
        <use fill="none" stroke="#191816" stroke-linecap="round" stroke-linejoin="round" stroke-width="1" transform="translate(62.642, 50.9678)" xlink:href="#path-30"></use>
        <use fill="none" stroke="#191816" stroke-linecap="round" stroke-linejoin="round" stroke-width="1" transform="translate(65.0176, 56.4824)" xlink:href="#path-31"></use>
        <path fill="none" stroke="#191816" stroke-linecap="round" stroke-linejoin="round" stroke-width="1" d="M0,0l1.67153e-07,3.15735e-07c1.5789,2.98239 2.59581,6.22974 3,9.58" transform="translate(59.88, 58.92)"></path>
        <path fill="none" stroke="#191816" stroke-linecap="round" stroke-linejoin="round" stroke-width="1" d="M0.89,1.0088e-06l1.98302e-07,-1.0088e-06c-0.423443,2.15414 -0.720617,4.33118 -0.89,6.52" transform="translate(65.05, 62)"></path>
        <path fill="none" stroke="#191816" stroke-linecap="round" stroke-linejoin="round" stroke-width="1" d="M0.41,0c0,0 -0.41,5.68 -0.41,12" transform="translate(63.19, 56.5)"></path>
        <path fill="#E8F4FA" stroke="#191816" stroke-linecap="round" stroke-linejoin="round" stroke-width="1" d="M10.5,2h-9.5h-4.37114e-08c-0.552285,-2.41411e-08 -1,-0.447715 -1,-1c0,0 0,0 0,0v0l1.42109e-14,1.50996e-07c-8.33927e-08,-0.552285 0.447715,-1 1,-1h9.5h-4.37114e-08c0.552285,-2.41411e-08 1,0.447715 1,1v0l1.42109e-14,8.74228e-08c0,0.552285 -0.447715,1 -1,1Z" transform="translate(58, 68.5)"></path>
    </g>
</svg>