<?xml version="1.0" encoding="UTF-8"?>
<svg version="1.1" viewBox="0 0 100 112" xmlns="http://www.w3.org/2000/svg" xmlns:xlink="http://www.w3.org/1999/xlink">
    <!--Generated by IJSVG (https://github.com/curthard89/IJSVG)-->
    <defs>
        <path id="path-6" d="M2.19264,11.96l-1.10396e-07,-8.18289e-10c-1.21499,-0.00900613 -2.19264,-1.00125 -2.18363,-2.21625c0.00220425,-0.29737 0.0646734,-0.591206 0.183633,-0.863753l6.9018e-08,-1.61197e-07c0.119066,-0.278088 0.180308,-0.577494 0.18,-0.88v-7l1.42109e-14,1.50996e-07c-8.33927e-08,-0.552285 0.447715,-1 1,-1h7h-4.37114e-08c0.552285,-2.41411e-08 1,0.447715 1,1v7l-6.10848e-08,0.000516923c-4.51858e-08,0.299252 0.0613301,0.595329 0.180205,0.869957l-1.45187e-08,-3.45519e-08c0.474966,1.13034 -0.056316,2.43169 -1.18665,2.90666c-0.273321,0.114849 -0.566878,0.173789 -0.863348,0.173343Z"></path>
        <path id="path-12" d="M10.9452,0.028416l-4.60537e-07,2.30793e-09c5.67026,-0.028416 10.433,4.25809 11,9.9l2.39312e-09,2.38081e-08c0.0552354,0.549516 -0.345458,1.03976 -0.894974,1.095c-0.0348969,0.00350771 -0.0699541,0.0051771 -0.105026,0.00500125h-19.94l5.17633e-08,-2.59533e-10c-0.552278,0.00276909 -1.00223,-0.442696 -1.005,-0.994974c-0.00017585,-0.0350723 0.00149354,-0.0701295 0.00500125,-0.105026l5.93215e-08,-5.90241e-07c0.564731,-5.619 5.2927,-9.8975 10.94,-9.9Z"></path>
        <path id="path-10" d="M2.25592,0.488155c0.488155,0.488155 0.488155,1.27961 0,1.76777c-0.488155,0.488155 -1.27961,0.488155 -1.76777,0c-0.488155,-0.488155 -0.488155,-1.27961 0,-1.76777c0.488155,-0.488155 1.27961,-0.488155 1.76777,0"></path>
        <path id="path-1" d="M0,0h2.5"></path>
        <path id="path-11" d="M1.80474,0.390524c0.390524,0.390524 0.390524,1.02369 0,1.41421c-0.390524,0.390524 -1.02369,0.390524 -1.41421,0c-0.390524,-0.390524 -0.390524,-1.02369 0,-1.41421c0.390524,-0.390524 1.02369,-0.390524 1.41421,0"></path>
        <path id="path-4" d="M0,10v-10"></path>
        <path id="path-9" d="M0,1.21441l2.35657e-08,-5.54151e-08c0.352295,-0.828427 1.30946,-1.21441 2.13789,-0.862113c0.388072,0.165031 0.697082,0.474041 0.862113,0.862113"></path>
        <path id="path-5" d="M0.97,17c-0.535712,0 -0.97,-0.434288 -0.97,-0.97v-15.06c0,-0.535712 0.434288,-0.97 0.97,-0.97h24.56c0.535712,0 0.97,0.434288 0.97,0.97v15.06c0,0.535712 -0.434288,0.97 -0.97,0.97Z"></path>
        <path id="path-13" d="M0,3.5v-3.5"></path>
        <path id="path-8" d="M21.6569,4.68629c4.68629,4.68629 4.68629,12.2843 0,16.9706c-4.68629,4.68629 -12.2843,4.68629 -16.9706,0c-4.68629,-4.68629 -4.68629,-12.2843 0,-16.9706c4.68629,-4.68629 12.2843,-4.68629 16.9706,-3.55271e-15"></path>
        <path id="path-7" d="M9.47487,2.05025c2.05025,2.05025 2.05025,5.37437 0,7.42462c-2.05025,2.05025 -5.37437,2.05025 -7.42462,0c-2.05025,-2.05025 -2.05025,-5.37437 0,-7.42462c2.05025,-2.05025 5.37437,-2.05025 7.42462,0"></path>
        <path id="path-2" d="M23.2499,4.30999c-0.4,-0.19 -0.82,-0.37 -1.24,-0.52l6.59303e-08,2.44806e-08c-0.517746,-0.192245 -0.781616,-0.767805 -0.589372,-1.28555c0.0338414,-0.0911403 0.0807926,-0.176859 0.139372,-0.254449l2.08829e-08,-2.26438e-08c0.261724,-0.283793 0.450484,-0.626993 0.55,-1l3.37548e-08,3.22088e-05c-0.000586939,-0.566652 -0.36277,-1.06971 -0.899969,-1.25002l3.80322e-07,-2.31532e-07c-3.19401,1.94445 -7.20599,1.94445 -10.4,4.63065e-07l4.97624e-08,-1.67014e-08c-0.537204,0.180298 -0.899399,0.683348 -0.9,1.25l-2.11112e-08,-7.91292e-08c0.0995162,0.373007 0.288276,0.716207 0.55,1l1.57788e-08,2.22148e-08c0.319815,0.450263 0.214067,1.07453 -0.236196,1.39435c-0.0663103,0.0470993 -0.138119,0.0859328 -0.213835,0.11564c-0.42,0.15 -0.84,0.33 -1.24,0.52l5.18129e-07,-2.54566e-07c-5.37081,2.63877 -8.76986,8.10597 -8.76,14.09v7.89h26v4h6v-11.89l5.54183e-07,0.00416751c0,-5.97321 -3.39587,-11.4269 -8.75626,-14.0623Z"></path>
        <path id="path-3" d="M1.08284,0.234315c0.234315,0.234315 0.234315,0.614214 0,0.848528c-0.234315,0.234315 -0.614214,0.234315 -0.848528,0c-0.234315,-0.234315 -0.234315,-0.614214 0,-0.848528c0.234315,-0.234315 0.614214,-0.234315 0.848528,0"></path>
    </defs>
    <g fill="#E8F4FA">
        <path d="M80,39.9963l1.75431e-07,0.00374627c-1.42109e-14,-22.0914 -17.9086,-40 -40,-40c-22.0914,7.10543e-15 -40,17.9086 -40,40c0,5.68809 1.21314,11.3108 3.55846,16.4928h72.8815l6.1272e-07,-1.35057e-06c2.35079,-5.18164 3.56467,-10.8066 3.56,-16.4966Z" transform="translate(10, 16.0037)"></path>
        <path fill="#FFFFFF" d="M2.10036e-06,4.63966e-06l-2.10036e-06,-4.63966e-06c9.11063,20.1253 32.811,29.0544 52.9363,19.9438c8.84893,-4.00588 15.9379,-11.0948 19.9437,-19.9437Z" transform="translate(13.56, 72.5)"></path>
        <path fill="none" stroke="#191816" stroke-linecap="round" stroke-linejoin="round" stroke-width="1" d="M0,0h78" transform="translate(11, 72.5)"></path>
        <use fill="none" stroke="#191816" stroke-linecap="round" stroke-linejoin="round" stroke-width="1" transform="translate(6.5, 72.5)" xlink:href="#path-1"></use>
        <use fill="none" stroke="#191816" stroke-linecap="round" stroke-linejoin="round" stroke-width="1" transform="translate(91, 72.5)" xlink:href="#path-1"></use>
    </g>
    <g fill="#9CEB60">
        <use transform="translate(34.4901, 46.24)" xlink:href="#path-2"></use>
        <path fill="#C8FFA1" d="M23.2499,4.30999c-0.4,-0.19 -0.82,-0.37 -1.24,-0.52l6.59303e-08,2.44806e-08c-0.517746,-0.192245 -0.781616,-0.767805 -0.589372,-1.28555c0.0338414,-0.0911403 0.0807926,-0.176859 0.139372,-0.254449l2.08829e-08,-2.26438e-08c0.261724,-0.283793 0.450484,-0.626993 0.55,-1l3.37548e-08,3.22088e-05c-0.000586939,-0.566652 -0.36277,-1.06971 -0.899969,-1.25002l3.80322e-07,-2.31532e-07c-3.19401,1.94445 -7.20599,1.94445 -10.4,4.63065e-07l4.97624e-08,-1.67014e-08c-0.537204,0.180298 -0.899399,0.683348 -0.9,1.25l-2.11112e-08,-7.91292e-08c0.0995162,0.373007 0.288276,0.716207 0.55,1l1.57788e-08,2.22148e-08c0.319815,0.450263 0.214067,1.07453 -0.236196,1.39435c-0.0663103,0.0470993 -0.138119,0.0859328 -0.213835,0.11564c-0.42,0.15 -0.84,0.33 -1.24,0.52l5.18129e-07,-2.54566e-07c-5.37081,2.63877 -8.76986,8.10597 -8.76,14.09v4.39l1.84741e-13,2.41593e-06c-1.33428e-06,-8.83656 7.16344,-16 16,-16v0l-6.99382e-07,1.42109e-14c8.83656,-3.86258e-07 16,7.16344 16,16v-4.39l5.53868e-07,0.00416632c0,-5.97321 -3.39587,-11.4269 -8.75626,-14.0623Z" transform="translate(34.4901, 46.24)"></path>
        <use fill="none" stroke="#191816" stroke-linecap="round" stroke-linejoin="round" stroke-width="1" transform="translate(34.4901, 46.24)" xlink:href="#path-2"></use>
        <use opacity="0.6" fill="#F0FFE5" transform="translate(58.2414, 57.2414)" xlink:href="#path-3"></use>
        <use opacity="0.6" fill="#F0FFE5" transform="translate(61.2414, 60.2414)" xlink:href="#path-3"></use>
        <use opacity="0.6" fill="#F0FFE5" transform="translate(58.2414, 63.2414)" xlink:href="#path-3"></use>
        <use opacity="0.6" fill="#F0FFE5" transform="translate(58.2414, 69.2414)" xlink:href="#path-3"></use>
        <use opacity="0.6" fill="#F0FFE5" transform="translate(55.2414, 60.2414)" xlink:href="#path-3"></use>
        <use opacity="0.6" fill="#F0FFE5" transform="translate(52.2414, 63.2414)" xlink:href="#path-3"></use>
        <use opacity="0.6" fill="#F0FFE5" transform="translate(55.2414, 66.2414)" xlink:href="#path-3"></use>
        <use opacity="0.6" fill="#F0FFE5" transform="translate(52.2414, 69.2414)" xlink:href="#path-3"></use>
        <use opacity="0.6" fill="#F0FFE5" transform="translate(46.2414, 63.2414)" xlink:href="#path-3"></use>
        <use opacity="0.6" fill="#F0FFE5" transform="translate(52.2414, 57.2414)" xlink:href="#path-3"></use>
        <use opacity="0.6" fill="#F0FFE5" transform="translate(46.2414, 57.2414)" xlink:href="#path-3"></use>
        <use opacity="0.6" fill="#F0FFE5" transform="translate(49.2414, 66.2414)" xlink:href="#path-3"></use>
        <use opacity="0.6" fill="#F0FFE5" transform="translate(46.2414, 69.2414)" xlink:href="#path-3"></use>
        <use opacity="0.6" fill="#F0FFE5" transform="translate(40.2414, 57.2414)" xlink:href="#path-3"></use>
        <use opacity="0.6" fill="#F0FFE5" transform="translate(43.2414, 60.2414)" xlink:href="#path-3"></use>
        <use opacity="0.6" fill="#F0FFE5" transform="translate(55.2414, 54.2414)" xlink:href="#path-3"></use>
        <use opacity="0.6" fill="#F0FFE5" transform="translate(43.4414, 54.7414)" xlink:href="#path-3"></use>
        <use opacity="0.6" fill="#F0FFE5" transform="translate(49.2414, 60.2414)" xlink:href="#path-3"></use>
        <use opacity="0.6" fill="#F0FFE5" transform="translate(49.2414, 54.2414)" xlink:href="#path-3"></use>
        <use opacity="0.6" fill="#F0FFE5" transform="translate(43.2414, 66.2414)" xlink:href="#path-3"></use>
        <use opacity="0.6" fill="#F0FFE5" transform="translate(37.2414, 60.2414)" xlink:href="#path-3"></use>
        <use fill="none" stroke="#191816" stroke-linecap="round" stroke-linejoin="round" stroke-width="1" transform="translate(60.5, 62.5)" xlink:href="#path-4"></use>
        <use fill="none" stroke="#191816" stroke-linecap="round" stroke-linejoin="round" stroke-width="1" transform="translate(40.5, 62.5)" xlink:href="#path-4"></use>
        <path opacity="0.15" fill="#191816" d="M25.2663,0.585786c5.46734,0.585786 5.46734,1.53553 0,2.12132c-5.46734,0.585786 -14.3316,0.585786 -19.799,0c-5.46734,-0.585786 -5.46734,-1.53553 -3.55271e-15,-2.12132c5.46734,-0.585786 14.3316,-0.585786 19.799,0" transform="translate(25.1332, 85.8536)"></path>
        <path fill="#BDBEC0" stroke="#191816" stroke-linejoin="round" stroke-width="1" d="M24.5,0h-24.5l0.31,1.24l1.81989e-09,7.37508e-09c0.112816,0.457183 0.529303,0.773714 1,0.76h21.91l1.92943e-08,5.62125e-10c0.470697,0.0137136 0.887184,-0.302817 1,-0.76Z" transform="translate(28, 85)"></path>
        <use fill="#F0F0F0" transform="translate(27, 68)" xlink:href="#path-5"></use>
        <path fill="#FFFFFF" d="M25.53,0h-24.53h-4.37114e-08c-0.552285,2.41411e-08 -1,0.447715 -1,1c0,0 0,0 0,0v4l1.06581e-14,1.50996e-07c-8.33927e-08,-0.552285 0.447715,-1 1,-1h24.53h-4.37114e-08c0.552285,-2.41411e-08 1,0.447715 1,1v-4v0c0,-0.552285 -0.447715,-1 -1,-1Z" transform="translate(27, 68)"></path>
        <use fill="none" stroke="#191816" stroke-linejoin="round" stroke-width="1" transform="translate(27, 68)" xlink:href="#path-5"></use>
        <path fill="#FFFFFF" stroke="#191816" stroke-linejoin="round" stroke-width="1" d="M3.94,1.9l-7.26636e-08,-4.8337e-06c-0.00682448,-0.454021 0.178389,-0.889815 0.510004,-1.2l6.1423e-09,1.50569e-08c-0.147475,-0.361512 -0.466918,-0.624583 -0.85,-0.7l-5.54302e-08,1.49214e-10c-0.513259,0.00138165 -0.978429,0.302374 -1.19,0.77l3.15829e-08,6.80386e-08c-0.217011,-0.467502 -0.684591,-0.767533 -1.2,-0.77c-0.73,0.09 -1.21,1.1 -1.08,2.25c0.13,1.15 0.85,2 1.58,1.92l-1.47232e-08,1.99947e-09c0.28588,-0.0388235 0.541062,-0.199224 0.7,-0.44l2.26761e-08,3.44921e-08c0.156712,0.238371 0.407769,0.398466 0.69,0.44c0.54,0.06 1.06,-0.38 1.35,-1.08l-1.04637e-08,-9.73571e-09c-0.330062,-0.307099 -0.515248,-0.739194 -0.510004,-1.19Z" transform="translate(37.89, 75.68)"></path>
        <path fill="#FFFFFF" d="M3.50556e-08,0.48l6.00342e-08,-1.22031e-07c0.057205,-0.11628 0.139113,-0.218665 0.24,-0.3l-4.7221e-08,3.79988e-08c0.0983979,-0.0791808 0.210155,-0.140139 0.33,-0.18l-3.38843e-08,6.17322e-08c-0.0609205,0.110988 -0.142363,0.209398 -0.24,0.29l-2.74438e-08,2.46025e-08c-0.095546,0.0856539 -0.207953,0.150373 -0.33,0.19Z" transform="translate(41.31, 73.52)"></path>
        <path fill="#191816" d="M1.54351,0.0126605l4.6439e-08,1.60905e-09c-0.365399,-0.0126605 -0.722249,0.112237 -1,0.35l-9.02627e-08,7.32304e-08c-0.30591,0.248185 -0.500256,0.608085 -0.54,1l-2.78875e-09,4.33629e-08c-0.00351171,0.0546045 0.0144279,0.108423 0.05,0.15l2.793e-10,3.84077e-10c0.0325104,0.0447071 0.084728,0.0708159 0.14,0.07h0.16l-5.00037e-08,-1.23441e-09c0.363125,0.0089642 0.717594,-0.111555 1,-0.34l-4.2343e-08,3.63738e-08c0.296397,-0.254613 0.485694,-0.611778 0.53,-1l-2.32749e-09,5.41749e-09c0.0205721,-0.0478839 0.0205721,-0.102116 4.65498e-09,-0.15l9.15058e-09,1.10082e-08c-0.0354839,-0.0426871 -0.0852085,-0.0711012 -0.14,-0.08Z" transform="translate(40.6465, 72.9873)"></path>
        <path opacity="0.15" fill="#191816" d="M15.3403,0.585786c3.31946,0.585786 3.31946,1.53553 0,2.12132c-3.31946,0.585786 -8.70136,0.585786 -12.0208,0c-3.31946,-0.585786 -3.31946,-1.53553 0,-2.12132c3.31946,-0.585786 8.70136,-0.585786 12.0208,0" transform="translate(53.1701, 84.8536)"></path>
        <path fill="#FFFFFF" stroke="#191816" stroke-linejoin="round" stroke-width="1" d="M0,8.25627e-08h0.58h-1.49493e-07c1.88881,-8.25627e-08 3.42,1.53119 3.42,3.42c0,0 0,0 0,0v3.67v0c0,1.88881 -1.53119,3.42 -3.42,3.42c0,0 0,0 0,0h-0.58v-10.51Z" transform="translate(64.5, 75)"></path>
        <path fill="#FFDA8F" stroke="#191816" stroke-linejoin="round" stroke-width="1" d="M3,3.95915e-08h0.86l-7.16867e-08,-1.42109e-14c0.905747,-3.95915e-08 1.64,0.734253 1.64,1.64c0,0 0,0 0,0v3.73l-1.08583e-08,1.78058e-06c-0.00550006,0.901839 -0.738146,1.63002 -1.64,1.63h-0.859998h-1.31134e-07c-1.65685,-7.24234e-08 -3,-1.34315 -3,-3c0,0 0,0 0,0v-1l2.84217e-14,4.52987e-07c-2.50178e-07,-1.65685 1.34315,-3 3,-3Z" transform="translate(64.5, 77)"></path>
        <use fill="#FFFFFF" transform="translate(55.1474, 74.54)" xlink:href="#path-6"></use>
        <path fill="#4AEFF7" d="M0,0h9v1.5h-9Z" transform="translate(55.5, 77.5)"></path>
        <path fill="#F0F0F0" d="M9.73604,0c0,0.08 -0.09,0.16 -0.14,0.24l-3.46196e-08,5.29115e-08c-0.408394,0.624176 -1.10409,1.00023 -1.85,1h-5.29l-2.99923e-08,-5.33191e-11c-0.742825,-0.0013206 -1.43482,-0.377406 -1.84,-1l-0.13,-0.23v0.14l3.39139e-08,-7.77002e-08c-0.486044,1.11358 0.0226708,2.41032 1.13625,2.89637c0.272548,0.118959 0.566384,0.181428 0.863754,0.183633h5.29l-1.20814e-07,-3.69482e-11c0.74591,0.000228111 1.44161,-0.375824 1.85,-1l8.54653e-08,-1.28971e-07c0.412733,-0.622834 0.487744,-1.41045 0.2,-2.1Z" transform="translate(54.884, 83.27)"></path>
        <use fill="none" stroke="#191816" stroke-linejoin="round" stroke-width="1" transform="translate(55.1474, 74.54)" xlink:href="#path-6"></use>
        <use fill="#724F3D" transform="translate(43.6174, 17.4874)" xlink:href="#path-7"></use>
        <path fill="#A86C4D" d="M5.25,2.5l2.04499e-07,-3.51399e-10c-2.41465,0.00414915 -4.51509,1.65479 -5.09,4l-3.69059e-08,-1.44701e-07c-0.104204,-0.408564 -0.157938,-0.82836 -0.16,-1.25l5.68434e-14,7.92728e-07c-4.37812e-07,-2.89949 2.3505,-5.25 5.25,-5.25c2.89949,-4.37812e-07 5.25,2.3505 5.25,5.25c0,0 0,3.55271e-15 0,3.55271e-15l2.47911e-08,-1.96355e-06c-0.00532859,0.422051 -0.0624217,0.841855 -0.17,1.25l2.12832e-07,8.7385e-07c-0.570814,-2.34366 -2.66784,-3.99486 -5.08,-4Z" transform="translate(44.13, 18)"></path>
        <use fill="none" stroke="#191816" stroke-linecap="round" stroke-linejoin="round" stroke-width="1" transform="translate(43.6174, 17.4874)" xlink:href="#path-7"></use>
        <use fill="#724F3D" transform="translate(37.3284, 20.3284)" xlink:href="#path-8"></use>
        <path fill="#A86C4D" d="M12,3l-2.75617e-07,1.35085e-10c-6.04519,0.00296283 -11.1444,4.50222 -11.9,10.5l-1.34172e-07,-1.04565e-06c-0.0638365,-0.497498 -0.097232,-0.998431 -0.0999999,-1.5l1.35003e-13,1.81195e-06c-1.00071e-06,-6.62742 5.37258,-12 12,-12c6.62742,-1.00071e-06 12,5.37258 12,12c0,0 0,7.10543e-15 0,7.10543e-15l3.40794e-07,-6.17823e-05c-0.00276542,0.501569 -0.0361584,1.0025 -0.0999925,1.5l2.96915e-08,2.35659e-07c-0.755678,-5.99776 -5.85484,-10.497 -11.9,-10.4999Z" transform="translate(38.5, 21.5)"></path>
        <use fill="none" stroke="#191816" stroke-linecap="round" stroke-linejoin="round" stroke-width="1" transform="translate(37.3284, 20.3284)" xlink:href="#path-8"></use>
        <path fill="#FFDA8F" stroke="#191816" stroke-linecap="round" stroke-linejoin="round" stroke-width="1" d="M0,10.7l2.13163e-14,3.01992e-07c1.66785e-07,1.10457 0.895431,2 2,2h0.12l-2.53277e-07,-1.62014e-06c0.853024,5.45657 5.96796,9.18849 11.4245,8.33546c4.29488,-0.671417 7.66405,-4.04058 8.33546,-8.33546h0.12h-8.74228e-08c1.10457,4.82823e-08 2,-0.89543 2,-2c4.82823e-08,-1.10457 -0.89543,-2 -2,-2v-1.61l4.80465e-07,3.25795e-08c-2.55829,-0.173473 -4.95586,-1.30973 -6.71,-3.18l-5.27579e-08,-7.06147e-08c-0.905033,-1.21136 -1.66677,-2.52343 -2.27,-3.91l4.95287e-07,-1.40878e-06c-0.730672,2.0783 -1.96394,3.94367 -3.59,5.43l5.39031e-07,-3.93928e-07c-2.13793,1.56242 -4.83571,2.15063 -7.43,1.62v1.65l8.59878e-08,1.84741e-13c-1.10457,-2.45354e-06 -2,0.895426 -2,2c-3.22586e-12,1.45211e-06 -4.86722e-12,2.90443e-06 -4.93117e-12,4.35655e-06Z" transform="translate(38.5, 27.3)"></path>
        <use fill="none" stroke="#191816" stroke-linecap="round" stroke-linejoin="round" stroke-width="1" transform="translate(45, 35.7856)" xlink:href="#path-9"></use>
        <use fill="none" stroke="#191816" stroke-linecap="round" stroke-linejoin="round" stroke-width="1" transform="translate(53, 35.7856)" xlink:href="#path-9"></use>
        <use fill="#FFBE3D" transform="translate(54.878, 38.878)" xlink:href="#path-10"></use>
        <use fill="#FFBE3D" transform="translate(43.378, 38.878)" xlink:href="#path-10"></use>
        <path fill="none" stroke="#191816" stroke-linecap="round" stroke-linejoin="round" stroke-width="1" d="M5,1.69216e-07l-1.78144e-07,1.69216e-07c-1.40101,1.3308 -3.59899,1.3308 -5,-3.38432e-07" transform="translate(47.88, 43)"></path>
        <use fill="#FFFFFF" stroke="#191816" stroke-linecap="round" stroke-linejoin="round" stroke-width="1" transform="translate(38.9024, 38.9024)" xlink:href="#path-11"></use>
        <path fill="#FFFFFF" stroke="#191816" stroke-linecap="round" stroke-linejoin="round" stroke-width="1" d="M1,0l1,1l-1,3.5l-1,-3.5l1,-1Z" transform="translate(39, 41)"></path>
        <use fill="#FFFFFF" stroke="#191816" stroke-linecap="round" stroke-linejoin="round" stroke-width="1" transform="translate(59.9024, 38.9024)" xlink:href="#path-11"></use>
        <path fill="#FFFFFF" stroke="#191816" stroke-linecap="round" stroke-linejoin="round" stroke-width="1" d="M1,0l-1,1l1,3.5l1,-3.5l-1,-1Z" transform="translate(60, 41)"></path>
        <path fill="none" stroke="#191816" stroke-linecap="round" stroke-linejoin="round" stroke-width="1" d="M3,2.5l-3,-2.5" transform="translate(43.63, 18.5)"></path>
        <path fill="#6DD627" stroke="#191816" stroke-width="1" d="M2.70711,0.585786c0.585786,0.585786 0.585786,1.53553 0,2.12132c-0.585786,0.585786 -1.53553,0.585786 -2.12132,0c-0.585786,-0.585786 -0.585786,-1.53553 0,-2.12132c0.585786,-0.585786 1.53553,-0.585786 2.12132,0" transform="translate(40.9836, 15.8536)"></path>
        <use fill="#724F3D" transform="translate(39.5548, 23.9716)" xlink:href="#path-12"></use>
        <path fill="#A86C4D" d="M21.9284,10.481l4.38573e-08,4.58409e-07c-0.578582,-6.04752 -5.9501,-10.481 -11.9976,-9.90238c-5.24697,0.501992 -9.40039,4.65541 -9.90238,9.90238l-3.44833e-08,3.72586e-07c-0.0283646,0.306475 0.0859814,0.608938 0.31,0.82l-2.42219e-08,9.23356e-08c1.5415,-5.87631 7.55482,-9.39037 13.4311,-7.84887c3.84129,1.00766 6.84121,4.00758 7.84887,7.84887l4.54553e-08,-4.28263e-08c0.224019,-0.211062 0.338365,-0.513526 0.309999,-0.820002Z" transform="translate(39.5216, 23.419)"></path>
        <use fill="none" stroke="#191816" stroke-linecap="round" stroke-linejoin="round" stroke-width="1" transform="translate(39.5548, 23.9716)" xlink:href="#path-12"></use>
        <use fill="none" stroke="#191816" stroke-linecap="round" stroke-linejoin="round" stroke-width="1" transform="translate(58, 31.5)" xlink:href="#path-13"></use>
        <use fill="none" stroke="#191816" stroke-linecap="round" stroke-linejoin="round" stroke-width="1" transform="translate(54.5, 31.5)" xlink:href="#path-13"></use>
        <use fill="none" stroke="#191816" stroke-linecap="round" stroke-linejoin="round" stroke-width="1" transform="translate(51, 31.5)" xlink:href="#path-13"></use>
        <use fill="none" stroke="#191816" stroke-linecap="round" stroke-linejoin="round" stroke-width="1" transform="translate(47.5, 31.5)" xlink:href="#path-13"></use>
        <use fill="none" stroke="#191816" stroke-linecap="round" stroke-linejoin="round" stroke-width="1" transform="translate(44, 31.5)" xlink:href="#path-13"></use>
    </g>
</svg>