<?xml version="1.0" encoding="UTF-8"?>
<svg version="1.1" viewBox="0 0 100 112" xmlns="http://www.w3.org/2000/svg" xmlns:xlink="http://www.w3.org/1999/xlink">
    <!--Generated by IJSVG (https://github.com/curthard89/IJSVG)-->
    <defs>
        <path id="path-4" d="M0,0h3"></path>
        <path id="path-6" d="M2,10c-1.10456,0 -2,-0.89544 -2,-2v-6c0,-1.10456 0.89544,-2 2,-2h8c1.10456,0 2,0.89544 2,2v6c0,1.10456 -0.89544,2 -2,2Z"></path>
        <path id="path-15" d="M1.55207,0.335851c0.335851,0.335851 0.335851,0.880373 0,1.21622c-0.335851,0.335851 -0.880373,0.335851 -1.21622,0c-0.335851,-0.335851 -0.335851,-0.880373 0,-1.21622c0.335851,-0.335851 0.880373,-0.335851 1.21622,0"></path>
        <path id="path-5" d="M0.5,2.18557e-08h-2.18557e-08c-0.276142,1.20706e-08 -0.5,0.223858 -0.5,0.5c1.20706e-08,0.276142 0.223858,0.5 0.5,0.5c0.276142,-1.20706e-08 0.5,-0.223858 0.5,-0.5v0c0,-0.276142 -0.223858,-0.5 -0.5,-0.5Z"></path>
        <path id="path-10" d="M0,0h2"></path>
        <path id="path-16" d="M8.3,0.138144l2.53412e-07,7.87789e-09c-4.44375,-0.138144 -8.1581,3.35224 -8.29625,7.79598c-0.00211356,0.0679878 -0.00336531,0.136 -0.00375496,0.204019v15.47l-2.35638e-08,-3.06953e-06c0.00245812,0.320316 0.264118,0.57799 0.584434,0.575532c0.0252813,-0.00019401 0.0505229,-0.00204082 0.0755633,-0.00552862l-3.22352e-08,1.76005e-09c1.20002,-0.0655212 2.15529,-1.02944 2.21,-2.23v-9.17c0,-5.17 3.45,-3.44 5.18,-8.62l-3.15822e-07,-9.54805e-07c1.14236,3.45364 4.36238,5.79217 8,5.81v-1.45l3.7615e-07,-2.46287e-05c0.0674096,-4.41412 -3.34409,-8.10292 -7.75002,-8.37998Z"></path>
        <path id="path-1" d="M0,0h2.5"></path>
        <path id="path-8" d="M0.59,5.91l5.91,-5.91h-5.5h-4.37114e-08c-0.552285,2.41411e-08 -1,0.447715 -1,1c0,0 0,0 0,0v4l-3.12156e-08,-1.50144e-05c0.000813905,0.392899 0.23163,0.748915 0.589986,0.910009Z"></path>
        <path id="path-14" d="M4,11.79v0c0,1.10457 -0.895431,2 -2,2c-1.10457,0 -2,-0.895431 -2,-2v-11.79h4Z"></path>
        <path id="path-3" d="M0,0h2v2.5h-2Z"></path>
        <path id="path-11" d="M0,0l2.3,21.28h8.04l2.31,-21.28h-12.65Z"></path>
        <path id="path-12" d="M20.7,10.35v0c-7.10543e-15,-5.71615 -4.63385,-10.35 -10.35,-10.35c-5.71615,7.10543e-15 -10.35,4.63385 -10.35,10.35v2.3h4v8.62h12.67v-8.62h4Z"></path>
        <path id="path-13" d="M0,4.6v-4.6"></path>
        <path id="path-2" d="M0,0h2v14h-2Z"></path>
        <path id="path-9" d="M1,4c-0.55228,0 -1,-0.44772 -1,-1v-2c0,-0.55228 0.44772,-1 1,-1h6c0.55228,0 1,0.44772 1,1v2c0,0.55228 -0.44772,1 -1,1Z"></path>
        <path id="path-7" d="M1,6c-0.55228,0 -1,-0.44772 -1,-1v-4c0,-0.55228 0.44772,-1 1,-1h6c0.55228,0 1,0.44772 1,1v4c0,0.55228 -0.44772,1 -1,1Z"></path>
    </defs>
    <g fill="#E8F4FA">
        <path d="M80,39.9963l1.75431e-07,0.00374627c-1.42109e-14,-22.0914 -17.9086,-40 -40,-40c-22.0914,7.10543e-15 -40,17.9086 -40,40c0,5.68809 1.21314,11.3108 3.55846,16.4928h72.8815l6.1272e-07,-1.35057e-06c2.35079,-5.18164 3.56467,-10.8066 3.56,-16.4966Z" transform="translate(10, 16.0037)"></path>
        <path fill="#FFFFFF" d="M2.10036e-06,4.63966e-06l-2.10036e-06,-4.63966e-06c9.11063,20.1253 32.811,29.0544 52.9363,19.9438c8.84893,-4.00588 15.9379,-11.0948 19.9437,-19.9437Z" transform="translate(13.56, 72.5)"></path>
        <path fill="none" stroke="#191816" stroke-linecap="round" stroke-linejoin="round" stroke-width="1" d="M0,0h78" transform="translate(11, 72.5)"></path>
        <use fill="none" stroke="#191816" stroke-linecap="round" stroke-linejoin="round" stroke-width="1" transform="translate(6.5, 72.5)" xlink:href="#path-1"></use>
        <use fill="none" stroke="#191816" stroke-linecap="round" stroke-linejoin="round" stroke-width="1" transform="translate(91, 72.5)" xlink:href="#path-1"></use>
    </g>
    <g fill="#BF8256">
        <path stroke="#191816" stroke-linecap="round" stroke-linejoin="round" stroke-width="1" d="M0.5,3c-0.27614,0 -0.5,-0.22386 -0.5,-0.5v-2c0,-0.27614 0.22386,-0.5 0.5,-0.5h33c0.27614,0 0.5,0.22386 0.5,0.5v2c0,0.27614 -0.22386,0.5 -0.5,0.5Z" transform="translate(46.5, 55.5)"></path>
        <use transform="translate(48.5, 58.5)" xlink:href="#path-2"></use>
        <use fill="#915E3A" transform="translate(48.5, 58.5)" xlink:href="#path-3"></use>
        <use fill="none" stroke="#191816" stroke-linecap="round" stroke-linejoin="round" stroke-width="1" transform="translate(48.5, 58.5)" xlink:href="#path-2"></use>
        <use transform="translate(76.5, 58.5)" xlink:href="#path-2"></use>
        <use fill="#915E3A" transform="translate(76.5, 58.5)" xlink:href="#path-3"></use>
        <use fill="none" stroke="#191816" stroke-linecap="round" stroke-linejoin="round" stroke-width="1" transform="translate(76.5, 58.5)" xlink:href="#path-2"></use>
        <path fill="#FFFFFF" stroke="#191816" stroke-linecap="round" stroke-linejoin="round" stroke-width="1" d="M1.50996e-07,1l1.42109e-14,1.50996e-07c-8.33927e-08,-0.552285 0.447715,-1 1,-1h5h-4.37114e-08c0.552285,-2.41411e-08 1,0.447715 1,1v11h-7Z" transform="translate(67.5, 60.5)"></path>
        <use fill="none" stroke="#191816" stroke-linecap="round" stroke-linejoin="round" stroke-width="1" transform="translate(69.5, 62.5)" xlink:href="#path-4"></use>
        <use fill="none" stroke="#191816" stroke-linecap="round" stroke-linejoin="round" stroke-width="1" transform="translate(69.5, 64.5)" xlink:href="#path-4"></use>
        <use fill="#191816" transform="translate(69, 66)" xlink:href="#path-5"></use>
        <use fill="#191816" transform="translate(72, 66)" xlink:href="#path-5"></use>
        <path fill="#FFFFFF" stroke="#191816" stroke-linecap="round" stroke-linejoin="round" stroke-width="1" d="M1,5.92515e-08h5h-4.37114e-08c0.552285,-2.41411e-08 1,0.447715 1,1v14h-7v-14l1.42109e-14,-1.07284e-07c8.33927e-08,-0.552285 0.447715,-1 1,-1Z" transform="translate(71.5, 40.5)"></path>
        <use fill="none" stroke="#191816" stroke-linecap="round" stroke-linejoin="round" stroke-width="1" transform="translate(73.5, 42.5)" xlink:href="#path-4"></use>
        <use fill="none" stroke="#191816" stroke-linecap="round" stroke-linejoin="round" stroke-width="1" transform="translate(73.5, 44.5)" xlink:href="#path-4"></use>
        <use fill="#191816" transform="translate(73, 46)" xlink:href="#path-5"></use>
        <use fill="#191816" transform="translate(76, 46)" xlink:href="#path-5"></use>
        <use fill="#191816" transform="translate(73, 48)" xlink:href="#path-5"></use>
        <path fill="#E0E0E0" stroke="#191816" stroke-linecap="round" stroke-linejoin="round" stroke-width="1" d="M4.84336,1.0819l1.07651e-08,-1.28372e-07c0.0233576,-0.278537 -0.0709266,-0.554137 -0.26,-0.76l1.5727e-08,1.69587e-08c-0.190834,-0.205781 -0.459358,-0.321899 -0.74,-0.32h-2.82l4.38588e-08,2.96794e-10c-0.280642,-0.00189906 -0.549166,0.114219 -0.74,0.32l-8.13364e-08,8.85591e-08c-0.189073,0.205863 -0.283358,0.481463 -0.26,0.76l0.41,4.92h4Z" transform="translate(52.5666, 66.4981)"></path>
        <use fill="#FFFFFF" stroke="#191816" stroke-linecap="round" stroke-linejoin="round" stroke-width="1" transform="translate(57.5, 43.5)" xlink:href="#path-6"></use>
        <use fill="#00B8F0" transform="translate(59.5, 45.5)" xlink:href="#path-7"></use>
        <use fill="#4ACFFF" transform="translate(59.5, 45.5)" xlink:href="#path-8"></use>
        <use fill="none" stroke="#191816" stroke-linecap="round" stroke-linejoin="round" stroke-width="1" transform="translate(59.5, 45.5)" xlink:href="#path-7"></use>
        <path fill="#FFFFFF" stroke="#191816" stroke-linecap="round" stroke-linejoin="round" stroke-width="1" d="M0,0h4v2h-4Z" transform="translate(61.5, 53.5)"></path>
        <use fill="#FFFFFF" stroke="#191816" stroke-linecap="round" stroke-linejoin="round" stroke-width="1" transform="translate(57.5, 33.5)" xlink:href="#path-6"></use>
        <use fill="#00B8F0" transform="translate(59.5, 35.5)" xlink:href="#path-7"></use>
        <use fill="#4ACFFF" transform="translate(59.5, 35.5)" xlink:href="#path-8"></use>
        <use fill="none" stroke="#191816" stroke-linecap="round" stroke-linejoin="round" stroke-width="1" transform="translate(59.5, 35.5)" xlink:href="#path-7"></use>
        <use fill="#FFFFFF" stroke="#191816" stroke-linecap="round" stroke-linejoin="round" stroke-width="1" transform="translate(47.5, 51.5)" xlink:href="#path-9"></use>
        <use fill="none" stroke="#191816" stroke-linecap="round" stroke-linejoin="round" stroke-width="1" transform="translate(49.5, 53.5)" xlink:href="#path-10"></use>
        <use fill="#191816" transform="translate(53, 53)" xlink:href="#path-5"></use>
        <use fill="#FFFFFF" stroke="#191816" stroke-linecap="round" stroke-linejoin="round" stroke-width="1" transform="translate(47.5, 47.5)" xlink:href="#path-9"></use>
        <use fill="none" stroke="#191816" stroke-linecap="round" stroke-linejoin="round" stroke-width="1" transform="translate(49.5, 49.5)" xlink:href="#path-10"></use>
        <use fill="#191816" transform="translate(53, 49)" xlink:href="#path-5"></use>
        <path fill="#FFFFFF" stroke="#191816" stroke-linecap="round" stroke-linejoin="round" stroke-width="1" d="M0.42,0.889485c-0.42,1.65 1.72,1.36 1,3.35l2.29174e-07,-4.13097e-07c0.49601,-0.894084 0.933593,-1.81935 1.31,-2.77l2.92474e-08,-1.80885e-07c0.105785,-0.654245 -0.338829,-1.27037 -0.993074,-1.37616c-0.577205,-0.0933286 -1.13765,0.242939 -1.32693,0.796156Z" transform="translate(49.72, 38.0205)"></path>
        <path fill="#FF6242" stroke="#191816" stroke-linecap="round" stroke-linejoin="round" stroke-width="1" d="M5,0c0,1.38 -0.5,3 -2.5,3c-2,0 -2.5,-1.62 -2.5,-3Z" transform="translate(48.5, 44.5)"></path>
        <path fill="none" stroke="#191816" stroke-linecap="round" stroke-linejoin="round" stroke-width="1" d="M1.5,1.5v0c0,-0.828427 -0.671573,-1.5 -1.5,-1.5" transform="translate(53.5, 44.5)"></path>
        <path fill="#614B44" stroke="#191816" stroke-linecap="round" stroke-linejoin="round" stroke-width="1" d="M17.8021,23.1181l-4.62025e-08,-3.29726e-09c0.738977,0.0527375 1.41425,-0.418287 1.62,-1.13l5.8325e-09,-2.05242e-08c0.0820556,-0.288748 -0.069768,-0.592395 -0.35,-0.7c-0.85,-0.38 -1.27,-1.79 -1.27,-2.77v-10l1.03805e-07,-6.96107e-06c0.0660945,-4.43235 -3.3743,-8.12856 -7.80001,-8.37999l2.53412e-07,7.87789e-09c-4.44375,-0.138144 -8.1581,3.35224 -8.29625,7.79598c-0.00211356,0.0679878 -0.00336531,0.136 -0.00375496,0.204019v10.38c0,1 -0.42,2.39 -1.27,2.77l2.41376e-08,-9.26846e-09c-0.280232,0.107605 -0.432056,0.411252 -0.35,0.7l-1.31337e-08,-4.54312e-08c0.205749,0.711713 0.881023,1.18274 1.62,1.13Z" transform="translate(22.7479, 23.4119)"></path>
        <path opacity="0.15" fill="#191816" d="M20.7545,0.675607c4.49103,0.675607 4.49103,1.77098 0,2.44659c-4.49103,0.675607 -11.7724,0.675607 -16.2635,0c-4.49103,-0.675607 -4.49103,-1.77098 0,-2.44659c4.49103,-0.675607 11.7724,-0.675607 16.2635,0" transform="translate(19.8772, 84.8711)"></path>
        <use fill="#FFDA8F" transform="translate(26.18, 64.92)" xlink:href="#path-11"></use>
        <path fill="#F0D5A8" d="M11.03,14.96l1.62,-14.96h-12.65l1.61,14.96h9.42Z" transform="translate(26.18, 64.92)"></path>
        <path fill="#DEBB7E" d="M12.27,3.46l0.38,-3.46h-12.65l0.37,3.46h11.9Z" transform="translate(26.18, 64.92)"></path>
        <path fill="none" stroke="#191816" stroke-linecap="round" stroke-linejoin="round" stroke-width="1" d="M0,0v16.68" transform="translate(32.5, 69.52)"></path>
        <path fill="none" stroke="#191816" stroke-linecap="round" stroke-linejoin="round" stroke-width="1" d="M0,0h9.42" transform="translate(27.79, 79.88)"></path>
        <use fill="none" stroke="#191816" stroke-linecap="round" stroke-linejoin="round" stroke-width="1" transform="translate(26.18, 64.92)" xlink:href="#path-11"></use>
        <path fill="#FF6242" stroke="#191816" stroke-linecap="round" stroke-linejoin="round" stroke-width="1" d="M6.02007,3.48315l4.1098e-08,4.67097e-10c0.414482,0.00471083 0.798275,-0.217889 1,-0.58l1.01495e-08,-1.69598e-08c0.210039,-0.350976 0.210039,-0.789024 -2.0299e-08,-1.14l1.32517e-07,2.32234e-07c-0.614107,-1.07621 -1.76092,-1.73755 -3,-1.73h-0.52l1.00884e-08,1.7603e-10c-1.89957,-0.033146 -3.46635,1.47989 -3.49949,3.37946c-0.000410246,0.0235109 -0.000579415,0.0470254 -0.00050748,0.0705397Z" transform="translate(32.4999, 82.7169)"></path>
        <path fill="#FF6242" stroke="#191816" stroke-linecap="round" stroke-linejoin="round" stroke-width="1" d="M7.22965,3.45755l1.94819e-08,-6.69423e-06c0.0055272,-1.89985 -1.53013,-3.44447 -3.42998,-3.44999c-0.00667637,-1.94234e-05 -0.0133528,-1.94104e-05 -0.0200292,3.89769e-08h-0.57l-1.4192e-07,-8.64219e-10c-1.23908,-0.00754533 -2.38589,0.653786 -3,1.73l5.32892e-08,-9.01531e-08c-0.209644,0.35467 -0.209645,0.79533 -1.06578e-07,1.15l3.712e-08,6.43044e-08c0.205899,0.356687 0.588176,0.574585 1,0.57Z" transform="translate(25.2703, 82.7425)"></path>
        <use fill="#656769" transform="translate(22.15, 43.65)" xlink:href="#path-12"></use>
        <path fill="#87898C" d="M10.35,2.38521e-06l-4.52413e-07,1.42109e-14c-5.71615,2.49861e-07 -10.35,4.63385 -10.35,10.35c0,0 0,7.10543e-15 0,7.10543e-15v2.3v0h-2.62268e-09c0.0331371,1.44846e-09 0.06,-0.0268629 0.06,-0.06c0,0 0,0 0,0l-4.1603e-08,3.55893e-07c0.663684,-5.67749 5.80422,-9.74198 11.4817,-9.07829c4.76412,0.556914 8.52138,4.31417 9.07829,9.07829v0v-2.24l4.61809e-09,-0.000309184c0,-5.68505 -4.58543,-10.3059 -10.2703,-10.3497Z" transform="translate(22.15, 43.65)"></path>
        <use fill="none" stroke="#191816" stroke-linecap="round" stroke-linejoin="round" stroke-width="1" transform="translate(22.15, 43.65)" xlink:href="#path-12"></use>
        <use fill="none" stroke="#191816" stroke-linecap="round" stroke-linejoin="round" stroke-width="1" transform="translate(26.17, 51.7)" xlink:href="#path-13"></use>
        <use fill="none" stroke="#191816" stroke-linecap="round" stroke-linejoin="round" stroke-width="1" transform="translate(38.82, 51.7)" xlink:href="#path-13"></use>
        <use fill="#FFDA8F" transform="translate(22.17, 56.3)" xlink:href="#path-14"></use>
        <path fill="#FFBE3D" d="M0,0h4.02v2.34h-4.02Z" transform="translate(22.15, 56.3)"></path>
        <use fill="none" stroke="#191816" stroke-linecap="round" stroke-linejoin="round" stroke-width="1" transform="translate(22.17, 56.3)" xlink:href="#path-14"></use>
        <use fill="#FFDA8F" transform="translate(38.85, 56.3)" xlink:href="#path-14"></use>
        <path fill="#FFBE3D" d="M0,0h4.03v2.34h-4.03Z" transform="translate(38.82, 56.3)"></path>
        <use fill="none" stroke="#191816" stroke-linecap="round" stroke-linejoin="round" stroke-width="1" transform="translate(38.85, 56.3)" xlink:href="#path-14"></use>
        <path fill="#FFDA8F" stroke="#191816" stroke-linecap="round" stroke-linejoin="round" stroke-width="1" d="M6.76,0.773222l-3.53662e-08,2.04855e-07c-0.322271,1.86672 -2.0968,3.11875 -3.96352,2.79648c-1.42982,-0.246844 -2.54963,-1.36666 -2.79648,-2.79648l2.8567e-07,-1.01e-07c2.187,-0.773222 4.573,-0.773222 6.76,2.01999e-07Z" transform="translate(29.12, 43.4568)"></path>
        <path fill="none" stroke="#00AED9" stroke-linecap="round" stroke-linejoin="round" stroke-width="1" d="M2.3,0h-1.00536e-07c-1.27025,5.55246e-08 -2.3,1.02975 -2.3,2.3c5.55246e-08,1.27025 1.02975,2.3 2.3,2.3v-1.73" transform="translate(27.9, 50.55)"></path>
        <path fill="none" stroke="#48CF3E" stroke-linecap="round" stroke-linejoin="round" stroke-width="1" d="M1.00536e-07,4.6l-1.00536e-07,-7.10543e-15c1.27025,5.55246e-08 2.3,-1.02974 2.3,-2.3c5.55246e-08,-1.27025 -1.02974,-2.3 -2.3,-2.3v1.72" transform="translate(34.8, 50.55)"></path>
        <path fill="none" stroke="#FF4064" stroke-linecap="round" stroke-linejoin="round" stroke-width="1" d="M0,0v1.72" transform="translate(31.92, 50.55)"></path>
        <path fill="none" stroke="#FFB700" stroke-linecap="round" stroke-linejoin="round" stroke-width="1" d="M0,0v1.73" transform="translate(33.07, 53.42)"></path>
        <path fill="#FFDA8F" stroke="#191816" stroke-linecap="round" stroke-linejoin="round" stroke-width="1" d="M15.0832,7.82v-0.92v0c0,-3.81076 -3.08924,-6.9 -6.9,-6.9c-3.81076,0 -6.9,3.08924 -6.9,6.9v0.92l-6.20328e-08,9.93808e-09c-0.763463,0.122312 -1.28322,0.840375 -1.16091,1.60384c0.103932,0.648739 0.645008,1.13793 1.30091,1.17616l5.04835e-08,2.38323e-07c0.790848,3.73344 4.45851,6.11889 8.19196,5.32804c2.67329,-0.566277 4.76177,-2.65475 5.32804,-5.32804l4.1793e-08,-2.43605e-09c0.771888,-0.0449922 1.36115,-0.707205 1.31616,-1.47909c-0.0382313,-0.655898 -0.527423,-1.19697 -1.17616,-1.30091Z" transform="translate(24.3168, 25.83)"></path>
        <use fill="#FFBE3D" transform="translate(27.816, 34.946)" xlink:href="#path-15"></use>
        <use fill="#FFBE3D" transform="translate(35.296, 34.946)" xlink:href="#path-15"></use>
        <path fill="none" stroke="#191816" stroke-linecap="round" stroke-linejoin="round" stroke-width="1" d="M1.67666e-07,1.12235e-07l-1.67666e-07,-1.12235e-07c1.04688,0.70078 2.41312,0.70078 3.46,2.2447e-07" transform="translate(30.77, 38)"></path>
        <use fill="#614B44" transform="translate(24.45, 23.3919)" xlink:href="#path-16"></use>
        <path fill="#947063" d="M8.09007,3.05569l-1.27422e-07,-5.74499e-10c3.42973,0.0154633 6.54393,2.00466 8,5.11l-6.08403e-09,-2.11381e-07c-0.123355,-4.28577 -3.50902,-7.76271 -7.79,-8l-1.71043e-08,-6.41865e-10c-4.41517,-0.165687 -8.12869,3.2792 -8.29437,7.69437c-0.00382138,0.101831 -0.00569675,0.203726 -0.00562507,0.305629v0l8.91781e-08,-1.90192e-07c1.46987,-3.13483 4.62774,-5.12947 8.09,-5.11Z" transform="translate(24.4099, 23.3443)"></path>
        <use fill="none" stroke="#191816" stroke-linecap="round" stroke-linejoin="round" stroke-width="1" transform="translate(24.45, 23.3919)" xlink:href="#path-16"></use>
        <path fill="none" stroke="#191816" stroke-linecap="round" stroke-linejoin="round" stroke-width="1" d="M1.38,0.368254l-2.28386e-09,-2.17719e-09c-0.386298,-0.368254 -0.993702,-0.368254 -1.38,4.35438e-09" transform="translate(34.28, 33.3617)"></path>
        <path fill="none" stroke="#191816" stroke-linecap="round" stroke-linejoin="round" stroke-width="1" d="M1.38,0.368254l-2.28387e-09,-2.17719e-09c-0.386298,-0.368254 -0.993702,-0.368254 -1.38,4.35438e-09" transform="translate(29.34, 33.3617)"></path>
        <path fill="#FF6196" stroke="#191816" stroke-linecap="round" stroke-linejoin="round" stroke-width="1" d="M3.1222,0.675607c0.675607,0.675607 0.675607,1.77098 0,2.44659c-0.675607,0.675607 -1.77098,0.675607 -2.44659,0c-0.675607,-0.675607 -0.675607,-1.77098 0,-2.44659c0.675607,-0.675607 1.77098,-0.675607 2.44659,0" transform="translate(30.6011, 19.3311)"></path>
        <path fill="#FFFFFF" stroke="#191816" stroke-linecap="round" stroke-linejoin="round" stroke-width="1" d="M6.71311e-07,8.05l9.59233e-14,1.21552e-06c-6.71311e-07,-4.44589 3.60411,-8.05 8.05,-8.05c4.44589,-6.71311e-07 8.05,3.60411 8.05,8.05c0,0 0,1.06581e-14 0,1.06581e-14v1.15h-16.1Z" transform="translate(24.45, 21.8)"></path>
        <path fill="#FF6196" stroke="#191816" stroke-linecap="round" stroke-linejoin="round" stroke-width="1" d="M7.94486e-07,2.3c0,0 2.3,-2.3 8.05,-2.3c5.75,0 8,2.3 8,2.3l-4.11855e-07,5.10689e-08c-2.65507,0.329222 -5.32521,0.522807 -8,0.58l-8.00387e-07,-1.65013e-08c-2.69149,-0.0554894 -5.37836,-0.249077 -8.05,-0.58Z" transform="translate(24.45, 28.7)"></path>
        <path fill="#FF6196" d="M1.15,1.00006h-6.55671e-09c0.0828427,-3.62117e-09 0.15,0.0671573 0.15,0.15c3.62117e-09,0.0828427 -0.0671573,0.15 -0.15,0.15c-0.0828427,3.62117e-09 -0.15,-0.0671573 -0.15,-0.15c0,0 0,0 0,0v-2.26494e-08c1.25089e-08,-0.0828427 0.0671573,-0.15 0.15,-0.15m0,-1h-5.02681e-08c-0.635127,2.77623e-08 -1.15,0.514873 -1.15,1.15c2.77623e-08,0.635127 0.514873,1.15 1.15,1.15c0.635127,-2.77623e-08 1.15,-0.514873 1.15,-1.15c0,0 0,-3.55271e-15 0,-3.55271e-15l1.4143e-08,-1.60527e-06c0.00554638,-0.62958 -0.500333,-1.14445 -1.12991,-1.15c-0.00669603,-5.89896e-05 -0.0133924,-5.898e-05 -0.0200885,2.8868e-08Z" transform="translate(31.35, 24.0999)"></path>
        <path fill="none" stroke="#FF6196" stroke-linecap="round" stroke-linejoin="round" stroke-width="1" d="M1.3,1.14439e-07l1.69381e-07,-1.14439e-07c-0.508166,0.34333 -0.948833,0.777218 -1.3,1.28" transform="translate(28.33, 25.55)"></path>
        <path fill="none" stroke="#FF6196" stroke-linecap="round" stroke-linejoin="round" stroke-width="1" d="M3.76886e-08,2.54634e-08l-3.76886e-08,-2.54634e-08c0.508166,0.34333 0.948833,0.777218 1.3,1.28" transform="translate(35.37, 25.55)"></path>
    </g>
</svg>