<svg id="Multicolor" xmlns="http://www.w3.org/2000/svg" viewBox="0 0 100 112"><defs><style>.cls-1,.cls-7{fill:#e8f4fa;}.cls-11,.cls-2{fill:#fff;}.cls-3{fill:none;}.cls-10,.cls-11,.cls-16,.cls-18,.cls-21,.cls-3,.cls-4,.cls-5,.cls-6,.cls-7,.cls-8,.cls-9{stroke:#191816;stroke-linecap:round;stroke-linejoin:round;}.cls-4{fill:#bdbec0;}.cls-5{fill:#c0dceb;}.cls-6{fill:#8ca4b8;}.cls-8{fill:#00dba8;}.cls-9{fill:#e0e0e0;}.cls-10{fill:#ffcebf;}.cls-12,.cls-22{fill:#191816;}.cls-13{fill:#ffb59e;}.cls-14{fill:#a86c4d;}.cls-15{fill:#de926a;}.cls-16{fill:#00dfeb;}.cls-17{fill:#f0f0f0;}.cls-18{fill:#ffe500;}.cls-19{fill:#80ddff;}.cls-20{fill:#4acfff;}.cls-21{fill:#947746;}.cls-22{opacity:0.15;}</style></defs><title>44- programming-server</title><g id="Background"><g id="New_Symbol_28-4" data-name="New Symbol 28"><path class="cls-1" d="M90.34,56A40,40,0,1,0,13.9,72.5H86.77A39.7,39.7,0,0,0,90.34,56Z"/><path class="cls-2" d="M13.9,72.5a40,40,0,0,0,72.87,0Z"/><line class="cls-3" x1="10.84" y1="72.5" x2="88.84" y2="72.5"/><line class="cls-3" x1="6.34" y1="72.5" x2="8.84" y2="72.5"/><line class="cls-3" x1="90.84" y1="72.5" x2="93.34" y2="72.5"/></g></g><g id="Scene"><rect class="cls-4" x="65.01" y="35.5" width="17.5" height="34"/><rect class="cls-5" x="65.01" y="33.5" width="17.5" height="2"/><path class="cls-5" d="M63,72.5h2v-39a1,1,0,0,0-1-1h0a1,1,0,0,0-1,1Z"/><path class="cls-5" d="M82.51,72.5h2v-39a1,1,0,0,0-1-1h0a1,1,0,0,0-1,1Z"/><rect class="cls-4" x="43.51" y="35.5" width="17.5" height="34"/><path class="cls-6" d="M46.51,37.5H58a1,1,0,0,1,1,1v2a0,0,0,0,1,0,0H45.51a0,0,0,0,1,0,0v-2A1,1,0,0,1,46.51,37.5Z"/><path class="cls-7" d="M53,37.5l-3,3h9v-2a1,1,0,0,0-1-1Z"/><path class="cls-6" d="M46.51,53.5H58a1,1,0,0,1,1,1v2a0,0,0,0,1,0,0H45.51a0,0,0,0,1,0,0v-2A1,1,0,0,1,46.51,53.5Z"/><path class="cls-7" d="M53,53.5l-3,3h9v-2a1,1,0,0,0-1-1Z"/><path class="cls-6" d="M45.51,40.5H59a0,0,0,0,1,0,0v2a1,1,0,0,1-1,1H46.51a1,1,0,0,1-1-1v-2A0,0,0,0,1,45.51,40.5Z"/><path class="cls-7" d="M53,40.5l-3,3h8a1,1,0,0,0,1-1v-2Z"/><path class="cls-6" d="M68,37.5h11.5a1,1,0,0,1,1,1v2a0,0,0,0,1,0,0H67a0,0,0,0,1,0,0v-2A1,1,0,0,1,68,37.5Z"/><path class="cls-7" d="M74.51,37.5l-3,3h9v-2a1,1,0,0,0-1-1Z"/><path class="cls-6" d="M67,40.5h13.5a0,0,0,0,1,0,0v2a1,1,0,0,1-1,1H68a1,1,0,0,1-1-1v-2A0,0,0,0,1,67,40.5Z"/><path class="cls-7" d="M74.51,40.5l-3,3h8a1,1,0,0,0,1-1v-2Z"/><path class="cls-6" d="M68,45.5h11.5a1,1,0,0,1,1,1v2a0,0,0,0,1,0,0H67a0,0,0,0,1,0,0v-2A1,1,0,0,1,68,45.5Z"/><path class="cls-7" d="M74.51,45.5l-3,3h9v-2a1,1,0,0,0-1-1Z"/><path class="cls-6" d="M67,48.5h13.5a0,0,0,0,1,0,0v2a1,1,0,0,1-1,1H68a1,1,0,0,1-1-1v-2A0,0,0,0,1,67,48.5Z"/><path class="cls-7" d="M74.51,48.5l-3,3h8a1,1,0,0,0,1-1v-2Z"/><path class="cls-6" d="M46.51,61.5H58a1,1,0,0,1,1,1v2a0,0,0,0,1,0,0H45.51a0,0,0,0,1,0,0v-2A1,1,0,0,1,46.51,61.5Z"/><path class="cls-7" d="M53,61.5l-3,3h9v-2a1,1,0,0,0-1-1Z"/><path class="cls-6" d="M45.51,64.5H59a0,0,0,0,1,0,0v2a1,1,0,0,1-1,1H46.51a1,1,0,0,1-1-1v-2A0,0,0,0,1,45.51,64.5Z"/><path class="cls-7" d="M53,64.5l-3,3h8a1,1,0,0,0,1-1v-2Z"/><path class="cls-8" d="M46.51,45.5H58a1,1,0,0,1,1,1v2a0,0,0,0,1,0,0H45.51a0,0,0,0,1,0,0v-2A1,1,0,0,1,46.51,45.5Z"/><path class="cls-7" d="M53,45.5l-3,3h9v-2a1,1,0,0,0-1-1Z"/><path class="cls-8" d="M45.51,48.5H59a0,0,0,0,1,0,0v2a1,1,0,0,1-1,1H46.51a1,1,0,0,1-1-1v-2A0,0,0,0,1,45.51,48.5Z"/><path class="cls-7" d="M53,48.5l-3,3h8a1,1,0,0,0,1-1v-2Z"/><path class="cls-8" d="M68,53.5h11.5a1,1,0,0,1,1,1v2a0,0,0,0,1,0,0H67a0,0,0,0,1,0,0v-2A1,1,0,0,1,68,53.5Z"/><path class="cls-7" d="M74.51,53.5l-3,3h9v-2a1,1,0,0,0-1-1Z"/><path class="cls-8" d="M67,56.5h13.5a0,0,0,0,1,0,0v2a1,1,0,0,1-1,1H68a1,1,0,0,1-1-1v-2A0,0,0,0,1,67,56.5Z"/><path class="cls-7" d="M74.51,56.5l-3,3h8a1,1,0,0,0,1-1v-2Z"/><path class="cls-8" d="M68,61.5h11.5a1,1,0,0,1,1,1v2a0,0,0,0,1,0,0H67a0,0,0,0,1,0,0v-2A1,1,0,0,1,68,61.5Z"/><path class="cls-7" d="M74.51,61.5l-3,3h9v-2a1,1,0,0,0-1-1Z"/><path class="cls-8" d="M67,64.5h13.5a0,0,0,0,1,0,0v2a1,1,0,0,1-1,1H68a1,1,0,0,1-1-1v-2A0,0,0,0,1,67,64.5Z"/><path class="cls-7" d="M74.51,64.5l-3,3h8a1,1,0,0,0,1-1v-2Z"/><path class="cls-8" d="M45.51,56.5H59a0,0,0,0,1,0,0v2a1,1,0,0,1-1,1H46.51a1,1,0,0,1-1-1v-2A0,0,0,0,1,45.51,56.5Z"/><path class="cls-7" d="M53,56.5l-3,3h8a1,1,0,0,0,1-1v-2Z"/><rect class="cls-5" x="43.51" y="33.5" width="17.5" height="2"/><path class="cls-5" d="M41.51,72.5h2v-39a1,1,0,0,0-1-1h0a1,1,0,0,0-1,1Z"/><path class="cls-5" d="M61,72.5h2v-39a1,1,0,0,0-1-1h0a1,1,0,0,0-1,1Z"/><path class="cls-3" d="M45.92,60.38h0a2.86,2.86,0,0,1,2.87,2.87V84A4.22,4.22,0,0,0,53,88.17h3.83"/><path class="cls-9" d="M58,89.13h2.88v-2.3H58A1.15,1.15,0,0,0,56.84,88h0A1.16,1.16,0,0,0,58,89.13Z"/><path class="cls-3" d="M58,69.58V76.1a2.68,2.68,0,0,0,2.68,2.68h2.5a4.59,4.59,0,0,1,4.6,4.6h0a4.6,4.6,0,0,1-4.6,4.6h-2.3"/><path class="cls-3" d="M54.54,69.58V76a2.77,2.77,0,0,0,2.76,2.76h5.87"/><path class="cls-10" d="M29.24,28.18a6.89,6.89,0,0,0-6.9,6.9V36a1.4,1.4,0,0,0,.15,2.78,6.9,6.9,0,0,0,13.65-1.4v-2.3A6.89,6.89,0,0,0,29.24,28.18Z"/><path class="cls-11" d="M17.74,57.5a10.93,10.93,0,0,1,21.85,0v1.73H36.72v8.62H21.77V59.23h-4Z"/><circle class="cls-12" cx="28.38" cy="35.94" r="0.86"/><circle class="cls-12" cx="32.98" cy="35.94" r="0.86"/><circle class="cls-13" cx="26.08" cy="38.24" r="0.86"/><path class="cls-3" d="M28.67,40.3a3.1,3.1,0,0,0,3.45,0"/><path class="cls-14" d="M36.72,33.35a7.48,7.48,0,0,0-14.95,0v2.3a5.94,5.94,0,0,0,4-3.45C29,34.37,33.27,33.93,36.72,33.35Z"/><path class="cls-15" d="M29.24,28.75a7.47,7.47,0,0,1,6.93,4.68l.55-.08a7.48,7.48,0,0,0-14.95,0v2.3h0A7.47,7.47,0,0,1,29.24,28.75Z"/><path class="cls-3" d="M36.72,33.35a7.48,7.48,0,0,0-14.95,0v2.3a5.94,5.94,0,0,0,4-3.45C29,34.37,33.27,33.93,36.72,33.35Z"/><path class="cls-3" d="M24.64,31.05a3.79,3.79,0,0,0,1.15,1.15"/><path class="cls-10" d="M17.74,71a2,2,0,1,0,4,0V59.23h-4Z"/><line class="cls-3" x1="21.77" y1="59.23" x2="21.77" y2="55.78"/><line class="cls-3" x1="36.72" y1="59.23" x2="36.72" y2="55.78"/><path class="cls-10" d="M26.4,46.81l2.84,3.79L32,47.09a10.9,10.9,0,0,0-3.3-.51A11.28,11.28,0,0,0,26.4,46.81Z"/><path class="cls-16" d="M29.24,50.6l2.12.35a1,1,0,0,0,1.1-1.11L32,47.09Z"/><path class="cls-16" d="M26.4,46.81,26,49.88A1,1,0,0,0,27.08,51l2.16-.36Z"/><line class="cls-3" x1="29.24" y1="50.6" x2="29.24" y2="67.85"/><rect class="cls-2" x="32.69" y="54.63" width="13.23" height="8.62" rx="1" ry="1"/><rect class="cls-17" x="32.69" y="57.5" width="13.23" height="5.75" rx="1.15" ry="1.15"/><rect class="cls-3" x="32.69" y="54.63" width="13.23" height="8.62" rx="1" ry="1"/><circle class="cls-18" cx="39.31" cy="59.8" r="1.15"/><line class="cls-3" x1="39.31" y1="57.5" x2="39.88" y2="56.93"/><path class="cls-10" d="M37.53,62.68h3a.81.81,0,0,1,.81.81v.86a1.2,1.2,0,0,1-1.2,1.2h-2.2a1.2,1.2,0,0,1-1.2-1.2v-.86A.81.81,0,0,1,37.53,62.68Z"/><path class="cls-19" d="M36.14,85.68a3.69,3.69,0,0,1,.58,0V67.85H21.77V85.68h4.6a3.11,3.11,0,0,1,.69.07l.39-11a1.79,1.79,0,0,1,3.58,0l.51,10.93Z"/><rect class="cls-20" x="21.77" y="67.85" width="14.95" height="2.87"/><path class="cls-3" d="M36.14,85.68a3.69,3.69,0,0,1,.58,0V67.85H21.77V85.68h4.6a3.11,3.11,0,0,1,.69.07l.39-11a1.79,1.79,0,0,1,3.58,0l.51,10.93Z"/><path class="cls-21" d="M39.59,89.13a3.44,3.44,0,0,0-3.45-3.45h-4.6V88a1.16,1.16,0,0,0,1.15,1.15Z"/><path class="cls-21" d="M29.82,89.13a3.45,3.45,0,0,0-3.45-3.45h-4.6V88a1.15,1.15,0,0,0,1.15,1.15Z"/><ellipse class="cls-22" cx="30.97" cy="90.28" rx="11.5" ry="1.72"/></g></svg>