<?xml version="1.0" encoding="UTF-8"?>
<svg version="1.1" viewBox="0 0 100 112" xmlns="http://www.w3.org/2000/svg" xmlns:xlink="http://www.w3.org/1999/xlink">
    <!--Generated by IJSVG (https://github.com/curthard89/IJSVG)-->
    <defs>
        <mask id="mask-1" maskContentUnits="userSpaceOnUse" maskUnits="objectBoundingBox">
            <g fill="#FFFFFF">
                <path d="M40,0l-1.74846e-06,4.26326e-14c-22.0914,9.65645e-07 -40,17.9086 -40,40c9.65645e-07,22.0914 17.9086,40 40,40c22.0914,-9.65645e-07 40,-17.9086 40,-40l2.84217e-14,1.74846e-06c0,-22.0914 -17.9086,-40 -40,-40Z" transform="translate(10, 16.5)"></path>
            </g>
        </mask>
        <path id="path-11" d="M4.59332,5.63299l-2.4,10.35l2.54097e-08,-1.04195e-07c-0.10901,0.44701 -0.547229,0.731852 -1,0.65v0l-6.38269e-08,-1.42346e-08c-0.367968,-0.0820635 -0.639585,-0.394221 -0.67,-0.77l-9.68689e-07,-9.9037e-06c-0.523323,-5.35037 0.712491,-10.7254 3.52001,-15.31l6.67025e-08,-1.09117e-07c0.226826,-0.371061 0.667469,-0.552978 1.09,-0.45l2.38,0.55l6.41435e-08,1.51346e-08c0.461168,0.108812 0.782663,0.526339 0.77,1l-0.17,3.55l8.42412e-09,-1.65051e-07c-0.0151611,0.297046 -0.161764,0.571927 -0.4,0.75l4.96007e-08,-3.78739e-08c-0.23618,0.180341 -0.540331,0.246302 -0.83,0.18Z"></path>
        <path id="path-4" d="M36,3.5h-36l1.45,-2.39l5.21578e-08,-1.04964e-07c0.33773,-0.679658 1.03106,-1.1096 1.79,-1.11h29.52l7.41372e-08,3.93499e-11c0.758944,0.000402753 1.45227,0.430342 1.79,1.11Z"></path>
        <path id="path-2" d="M6.11111,28.0313h21.84l5.64402e-07,-5.60289e-07c6.07522,-6.03095 6.11111,-15.8449 0.0801625,-21.9202c-6.03095,-6.07522 -15.8449,-6.11111 -21.9202,-0.0801625c-6.07522,6.03095 -6.11111,15.8449 -0.0801625,21.9202c0.0266234,0.0268188 0.0533448,0.0535402 0.0801636,0.0801636Z"></path>
        <path id="path-8" d="M2.25592,0.488155c0.488155,0.488155 0.488155,1.27961 0,1.76777c-0.488155,0.488155 -1.27961,0.488155 -1.76777,0c-0.488155,-0.488155 -0.488155,-1.27961 0,-1.76777c0.488155,-0.488155 1.27961,-0.488155 1.76777,0"></path>
        <path id="path-1" d="M0,0h2.5"></path>
        <path id="path-12" d="M0.224396,3.69935l0.53,-2.38l-1.8946e-08,8.55689e-08c0.179086,-0.808838 0.979957,-1.31935 1.7888,-1.14027c0.00040139,8.88725e-05 0.000802744,0.00017791 0.00120406,0.000267112l2.93,0.66l-1.39732e-08,-3.17451e-09c0.789604,0.179386 1.29141,0.956527 1.13,1.75l-0.53,2.38l8.45459e-08,-4.40243e-07c-0.188447,0.981271 -1.0722,1.6729 -2.07,1.62l1.79892e-07,1.68292e-08c-0.881227,-0.0824401 -1.74827,-0.277358 -2.58,-0.579999l1.50217e-07,6.0536e-08c-0.914931,-0.368708 -1.4244,-1.34943 -1.2,-2.31Z"></path>
        <path id="path-7" d="M3,1.21441l1.5721e-08,3.69681e-08c-0.352295,-0.828427 -1.30946,-1.21441 -2.13789,-0.862113c-0.388072,0.165031 -0.697082,0.474041 -0.862113,0.862113"></path>
        <path id="path-5" d="M0,16.2375c0,-8.48 6.61,-15.74 15.08,-16l8.35435e-07,-2.32008e-08c8.55159,-0.237485 15.6766,6.50243 15.914,15.054c0.00384976,0.138626 0.00583771,0.277297 0.00596332,0.415976l-9.34513e-09,6.23024e-07c-0.016568,1.10457 0.865432,2.01343 1.97,2.03c1.10457,0.016568 2.01343,-0.865432 2.03,-1.97c0,0 4.47017e-10,-2.98023e-08 4.47017e-10,-2.98023e-08v-5h6v4.73l1.65814e-07,1.12281e-05c0.0633335,4.2888 -3.19689,7.89817 -7.47001,8.26999l4.55715e-07,-3.02581e-08c-4.40857,0.292716 -8.21972,-3.04384 -8.51243,-7.45242c-0.0121025,-0.182274 -0.0179582,-0.36491 -0.0175568,-0.547585v6.8l-1.19578e-06,-9.79387e-05c0.0506661,4.15031 0.988284,8.2418 2.74996,12l9.89882e-07,2.75737e-06c1.03595,2.8857 1.54405,5.9343 1.5,9h-25.75l-1.06138e-06,-7.81966e-05c-0.0447935,-3.30038 0.328175,-6.59316 1.11002,-9.7999h-4.61002Z"></path>
        <path id="path-10" d="M6.19,3.27642l-5.53236e-07,6.59399e-07c2.378,-2.83432 6.57346,-3.27642 9.49,-1v5.5l1.39971e-07,-2.18298e-07c-1.18321,1.84531 -2.93997,3.25072 -5,4c-4.85,1.64 -4.15,8.82 -1.85,12.56l-2.76982e-08,-4.49721e-08c0.289626,0.47025 0.1432,1.08625 -0.32705,1.37588c-0.271886,0.167454 -0.607395,0.194996 -0.90295,0.0741228c-7.6,-2.87 -7,-16.51 -1.41,-22.51Z"></path>
        <path id="path-3" d="M9.5014,23.8527h6.7l-4.10436e-07,1.24982e-07c6.07582,-1.85015 9.5014,-8.27543 7.65125,-14.3512c-1.85015,-6.07582 -8.27543,-9.5014 -14.3512,-7.65125c-6.07582,1.85015 -9.5014,8.27543 -7.65125,14.3512c1.11631,3.66592 3.98533,6.53494 7.65125,7.65125Z"></path>
        <path id="path-9" d="M9.49,3.27642l1.67208e-07,1.99295e-07c-2.378,-2.83432 -6.57346,-3.27642 -9.49,-1v5.5l3.16018e-08,4.92857e-08c1.18321,1.84531 2.93997,3.25072 5,4c4.85,1.64 4.15,8.82 1.85,12.56l-1.81475e-08,2.94652e-08c-0.289626,0.47025 -0.1432,1.08625 0.32705,1.37588c0.271886,0.167454 0.607395,0.194996 0.90295,0.0741227c7.6,-2.87 7,-16.51 1.41,-22.51Z"></path>
        <path id="path-6" d="M7,0v4l6.42395e-08,-6.75494e-08c-1.83828,1.933 -4.8955,2.00978 -6.8285,0.171502c-0.0585938,-0.0557227 -0.115779,-0.112908 -0.171502,-0.171502v-4Z"></path>
    </defs>
    <g fill="#E8F4FA">
        <path d="M80,39.9963l1.75431e-07,0.00374627c-1.42109e-14,-22.0914 -17.9086,-40 -40,-40c-22.0914,7.10543e-15 -40,17.9086 -40,40c0,5.68809 1.21314,11.3108 3.55846,16.4928h72.8815l6.1272e-07,-1.35057e-06c2.35079,-5.18164 3.56467,-10.8066 3.56,-16.4966Z" transform="translate(10, 16.5037)"></path>
        <path fill="#FFFFFF" d="M2.10036e-06,4.63966e-06l-2.10036e-06,-4.63966e-06c9.11063,20.1253 32.811,29.0544 52.9363,19.9438c8.84893,-4.00588 15.9379,-11.0948 19.9437,-19.9437Z" transform="translate(13.56, 73)"></path>
        <path fill="none" stroke="#191816" stroke-linecap="round" stroke-linejoin="round" stroke-width="1" d="M0,0h78" transform="translate(11, 73)"></path>
        <use fill="none" stroke="#191816" stroke-linecap="round" stroke-linejoin="round" stroke-width="1" transform="translate(6.5, 73)" xlink:href="#path-1"></use>
        <use fill="none" stroke="#191816" stroke-linecap="round" stroke-linejoin="round" stroke-width="1" transform="translate(91, 73)" xlink:href="#path-1"></use>
    </g>
    <g mask="url(#mask-1)">
        <use fill="#ADC4D9" transform="translate(13.9689, 41.4687)" xlink:href="#path-2"></use>
        <path fill="#C0DCEB" d="M15.4999,0.0160566l-2.93704e-07,3.12639e-12c-8.56041,9.1197e-05 -15.4999,6.93975 -15.4998,15.5002c4.40022e-05,4.13036 1.64861,8.08988 4.57984,10.9998h3l-1.19702e-06,-8.68249e-07c-6.05323,-4.39066 -7.401,-12.8571 -3.01034,-18.9103c4.39066,-6.05323 12.8571,-7.401 18.9103,-3.01034c6.05323,4.39066 7.401,12.8571 3.01034,18.9103c-0.83843,1.15591 -1.85443,2.17191 -3.01034,3.01034h3l1.5818e-07,-1.57028e-07c6.0752,-6.03098 6.11105,-15.845 0.0800697,-21.9202c-2.92465,-2.94609 -6.90884,-4.59589 -11.0601,-4.57984Z" transform="translate(15.5001, 42.9839)"></path>
        <use fill="none" stroke="#191816" stroke-linecap="round" stroke-linejoin="round" stroke-width="1" transform="translate(13.9689, 41.4687)" xlink:href="#path-2"></use>
        <use fill="#E0E0E0" transform="translate(18.1486, 45.6473)" xlink:href="#path-3"></use>
        <path fill="#BDBEC0" d="M11.5,2.86l5.72902e-07,9.5568e-11c5.79593,0.000967046 10.6837,4.31851 11.4,10.07l-6.29899e-08,4.67565e-07c0.0638621,-0.474039 0.097264,-0.951686 0.1,-1.43v0c0,-6.35127 -5.14873,-11.5 -11.5,-11.5c-6.35127,0 -11.5,5.14873 -11.5,11.5l-3.11683e-07,-5.45111e-05c0.00273373,0.478314 0.0361333,0.955961 0.099993,1.43l-1.9379e-07,1.55599e-06c0.716318,-5.75147 5.6041,-10.069 11.4,-10.0699Z" transform="translate(19.5, 47)"></path>
        <use fill="none" stroke="#191816" stroke-linecap="round" stroke-linejoin="round" stroke-width="1" transform="translate(18.1486, 45.6473)" xlink:href="#path-3"></use>
        <path fill="#FF8A14" stroke="#191816" stroke-linecap="round" stroke-linejoin="round" stroke-width="1" d="M8.07056e-08,0.16l2.12,3.34l2.12,-3.34l1.38495e-06,1.95497e-07c-0.702459,-0.0991581 -1.41062,-0.152604 -2.12,-0.16l-8.15014e-08,8.49745e-10c-0.709385,0.00739613 -1.41754,0.0608419 -2.12,0.16Z" transform="translate(28.88, 43)"></path>
        <path fill="#FF8A14" stroke="#191816" stroke-linecap="round" stroke-linejoin="round" stroke-width="1" d="M0.85,0l-0.85,3.85l3.86,-0.85l5.31018e-07,7.23295e-07c-0.841791,-1.1466 -1.8534,-2.15821 -3,-3Z" transform="translate(39.49, 46.15)"></path>
        <path fill="#FF8A14" stroke="#191816" stroke-linecap="round" stroke-linejoin="round" stroke-width="1" d="M3.34,1.06627e-06l-3.34,2.12l3.34,2.12l1.61927e-07,-1.06627e-06c0.21341,-1.40528 0.21341,-2.83472 -3.23855e-07,-4.24Z" transform="translate(43, 56.38)"></path>
        <path fill="#FF8A14" stroke="#191816" stroke-linecap="round" stroke-linejoin="round" stroke-width="1" d="M2.43,2.5v0l5.95844e-07,-6.0878e-07c0.498228,-0.509046 0.962554,-1.0502 1.38999,-1.61999l-3.81999,-0.880011l0.51,2.5Z" transform="translate(39.49, 67)"></path>
        <path fill="#FF8A14" stroke="#191816" stroke-linecap="round" stroke-linejoin="round" stroke-width="1" d="M3.01,0l0.85,3.85l-3.86,-0.85l-1.25533e-06,1.70988e-06c0.84179,-1.1466 1.8534,-2.15821 3,-3Z" transform="translate(18.65, 46.15)"></path>
        <path fill="#FF8A14" stroke="#191816" stroke-linecap="round" stroke-linejoin="round" stroke-width="1" d="M0.213257,0l3.34,2.12l-3.34,2.12l-2.99573e-07,-1.97408e-06c-0.213257,-1.40529 -0.213257,-2.83471 -2.14359e-07,-4.23999Z" transform="translate(15.4467, 56.38)"></path>
        <path fill="#FF8A14" stroke="#191816" stroke-linecap="round" stroke-linejoin="round" stroke-width="1" d="M1.43,2.5h1.92l0.51,-2.5l-3.86,0.85l6.34745e-08,8.6458e-08c0.414906,0.565139 0.865841,1.10292 1.34999,1.60999Z" transform="translate(18.65, 67)"></path>
        <path fill="none" stroke="#191816" stroke-dasharray="3.29 5.49 2.2 3.29 5.49 2.2" stroke-linecap="round" stroke-linejoin="round" stroke-width="1" d="M12.6332,2.73367c2.73367,2.73367 2.73367,7.16582 0,9.89949c-2.73367,2.73367 -7.16582,2.73367 -9.89949,0c-2.73367,-2.73367 -2.73367,-7.16582 -3.55271e-15,-9.89949c2.73367,-2.73367 7.16582,-2.73367 9.89949,0" transform="translate(23.3166, 50.8166)"></path>
        <use fill="#C0DCEB" transform="translate(13, 69.5)" xlink:href="#path-4"></use>
        <path fill="#E8F4FA" d="M33.58,1.5l-0.24,-0.39l2.65624e-09,5.34548e-09c-0.33773,-0.679658 -1.03106,-1.1096 -1.79,-1.11h-29.52l-1.05642e-08,5.59908e-12c-0.758944,0.000402729 -1.45227,0.430342 -1.79,1.11l-0.24,0.39Z" transform="translate(14.21, 69.5)"></path>
        <use fill="none" stroke="#191816" stroke-linecap="round" stroke-linejoin="round" stroke-width="1" transform="translate(13, 69.5)" xlink:href="#path-4"></use>
        <use fill="#FF6242" transform="translate(43, 54.2325)" xlink:href="#path-5"></use>
        <path fill="#FF866E" d="M14.21,4.27194l-2.56346e-07,6.91173e-09c7.30855,-0.197057 13.9329,4.27681 16.48,11.13l-1.73685e-07,-1.38666e-05c-0.107149,-8.55422 -7.12858,-15.4019 -15.6828,-15.2948c-0.0790837,0.000990593 -0.158159,0.00258686 -0.237218,0.00478865l-1.26265e-07,5.21938e-09c-7.30862,0.302114 -13.4373,5.61756 -14.77,12.81l9.90084e-08,-1.75881e-07c2.90599,-5.16227 8.28974,-8.4395 14.21,-8.65Z" transform="translate(43.31, 54.3981)"></path>
        <use fill="none" stroke="#191816" stroke-linecap="round" stroke-linejoin="round" stroke-width="1" transform="translate(43, 54.2325)" xlink:href="#path-5"></use>
        <path fill="none" stroke="#191816" stroke-linecap="round" stroke-linejoin="round" stroke-width="1" d="M0,0v19.5" transform="translate(49, 68.5)"></path>
        <path fill="#4ACFFF" stroke="#191816" stroke-linecap="round" stroke-linejoin="round" stroke-width="1" d="M2.76714,7.56212l3.24768e-08,1.16231e-10c0.552281,0.00197659 1.0016,-0.444133 1.00357,-0.996415c0.00115228,-0.321959 -0.152782,-0.62478 -0.413573,-0.813585v0l2.97646e-08,2.1511e-08c-0.66684,-0.481928 -1.13029,-1.19493 -1.3,-2l9.32708e-09,-3.40421e-06c0.00205951,-0.751496 0.339409,-1.46286 0.920003,-1.94l6.91211e-08,-6.91211e-08c0.392122,-0.392122 0.392122,-1.02788 -1.38242e-07,-1.42c-0.392122,-0.392122 -1.02788,-0.392122 -1.42,1.38242e-07l2.46067e-08,-2.16687e-08c-1.00859,0.888167 -1.55715,2.18777 -1.49,3.53l-2.34948e-07,-1.54195e-06c0.213229,1.39941 0.976393,2.65575 2.12,3.49l-7.54936e-08,-4.70465e-08c0.173461,0.108098 0.37588,0.160449 0.579999,0.150004Z" transform="translate(45.2329, 24.9379)"></path>
        <path fill="#4ACFFF" stroke="#191816" stroke-linecap="round" stroke-linejoin="round" stroke-width="1" d="M3,4h-4.37114e-08c0.552285,2.41411e-08 1,-0.447715 1,-1c2.41411e-08,-0.552285 -0.447715,-1 -1,-1h-4.37114e-08c-0.552285,-2.41411e-08 -1,-0.447715 -1,-1c0,0 0,-3.55271e-15 0,-3.55271e-15v0c0,-0.552285 -0.447715,-1 -1,-1c-0.552285,0 -1,0.447715 -1,1l3.55271e-14,-4.09276e-07c-2.50178e-07,1.65685 1.34315,3 3,3c0,0 7.10543e-15,0 7.10543e-15,0Z" transform="translate(46, 23)"></path>
        <path fill="#4ACFFF" stroke="#191816" stroke-linecap="round" stroke-linejoin="round" stroke-width="1" d="M1.00472,7.56212l-6.90477e-10,2.47269e-12c-0.552281,0.00197661 -1.0016,-0.444133 -1.00357,-0.996415c-0.00115229,-0.321959 0.152782,-0.62478 0.413573,-0.813585v0l5.55101e-08,-4.01174e-08c0.66684,-0.481928 1.13029,-1.19493 1.3,-2l-8.90174e-09,-3.24901e-06c-0.00205946,-0.751496 -0.339408,-1.46286 -0.920003,-1.94l-4.23334e-09,-4.23333e-09c-0.392122,-0.392122 -0.392122,-1.02788 8.46667e-09,-1.42c0.392122,-0.392122 1.02788,-0.392122 1.42,8.46666e-09l-1.16675e-07,-1.02744e-07c1.00859,0.888167 1.55715,2.18777 1.49,3.53l1.65022e-07,-1.08303e-06c-0.213229,1.39941 -0.976393,2.65575 -2.12,3.49l-2.80359e-08,1.74716e-08c-0.173461,0.108098 -0.375879,0.160449 -0.579999,0.150003Z" transform="translate(67.9953, 24.9379)"></path>
        <path fill="none" stroke="#191816" stroke-linecap="round" stroke-linejoin="round" stroke-width="1" d="M0,1.5v-1.5" transform="translate(68, 68.5)"></path>
        <path fill="#FFE500" stroke="#191816" stroke-linecap="round" stroke-linejoin="round" stroke-width="1" d="M4,4.5l1.68487e-07,8.37306e-08c-1.1427,-0.567873 -2.52934,-0.199815 -3.24,0.86l-0.76,1.14c0,-2.56 0.5,-5.5 2,-6.5c1.75,0.66 2,4 2,4.5Z" transform="translate(62, 65)"></path>
        <path fill="#525252" stroke="#191816" stroke-linecap="round" stroke-linejoin="round" stroke-width="1" d="M3.44,0.00999788l-1.65849e-06,3.96139e-07c-1.19442,0.285293 -2.34961,0.71513 -3.44,1.28c1.44,1.58 4.86,4.54 6.29,5.81l-8.15401e-08,-6.97443e-08c0.374224,0.320088 0.925776,0.320088 1.3,1.51646e-07c1.44,-1.23 4.92,-4.23 6.33,-5.8l1.28551e-06,6.65134e-07c-1.10377,-0.5711 -2.27213,-1.00756 -3.47999,-1.3v0.6l6.42395e-08,-6.75494e-08c-1.83828,1.933 -4.8955,2.00978 -6.8285,0.171502c-0.0585938,-0.0557227 -0.115779,-0.112908 -0.171502,-0.171502Z" transform="translate(51.56, 54.9)"></path>
        <use fill="#4ACFFF" transform="translate(55, 51.5)" xlink:href="#path-6"></use>
        <path fill="#00B8F0" d="M0,3.5l2.53248e-07,7.54368e-08c2.28375,0.680278 4.71625,0.680278 7,4.87326e-07v-3.5h-7Z" transform="translate(55, 51.5)"></path>
        <use fill="none" stroke="#191816" stroke-linecap="round" stroke-linejoin="round" stroke-width="1" transform="translate(55, 51.5)" xlink:href="#path-6"></use>
        <path fill="#4ACFFF" stroke="#191816" stroke-linecap="round" stroke-linejoin="round" stroke-width="1" d="M0,3l3.55271e-14,4.52987e-07c2.50178e-07,1.65685 1.34315,3 3,3c1.65685,-2.50178e-07 3,-1.34315 3,-3v-3h-6Z" transform="translate(43, 88)"></path>
        <path fill="#4ACFFF" stroke="#191816" stroke-linecap="round" stroke-linejoin="round" stroke-width="1" d="M22,12v-2.5c0,-5.5 -4.5,-9.5 -10,-9.5c-5.5,0 -10,4 -10,9.5v2.5h-8.74228e-08c-1.10457,4.82823e-08 -2,0.895431 -2,2c4.82823e-08,1.10457 0.895431,2 2,2h0.12l-2.53277e-07,-1.62014e-06c0.853024,5.45657 5.96796,9.18849 11.4245,8.33546c4.29488,-0.671417 7.66405,-4.04058 8.33546,-8.33546h0.12h-8.74228e-08c1.10457,4.82823e-08 2,-0.89543 2,-2c4.82823e-08,-1.10457 -0.89543,-2 -2,-2Z" transform="translate(46.5, 29)"></path>
        <use fill="none" stroke="#191816" stroke-linecap="round" stroke-linejoin="round" stroke-width="1" transform="translate(61, 40.7856)" xlink:href="#path-7"></use>
        <use fill="none" stroke="#191816" stroke-linecap="round" stroke-linejoin="round" stroke-width="1" transform="translate(53, 40.7856)" xlink:href="#path-7"></use>
        <use fill="#00B8F0" transform="translate(51.378, 43.878)" xlink:href="#path-8"></use>
        <use fill="#00B8F0" transform="translate(62.878, 43.878)" xlink:href="#path-8"></use>
        <path fill="none" stroke="#191816" stroke-linecap="round" stroke-linejoin="round" stroke-width="1" d="M0,2.31632e-07l2.46403e-07,2.31632e-07c1.686,1.58493 4.314,1.58493 6,-4.63265e-07" transform="translate(55.49, 47.8)"></path>
        <path fill="#4ACFFF" stroke="#191816" stroke-linecap="round" stroke-linejoin="round" stroke-width="1" d="M0,0v2.39h6v-0.07c-2.58,-0.81 -2.58,-1.4 -6,-2.32Z" transform="translate(78, 62.61)"></path>
        <use fill="#F0F0F0" transform="translate(58.51, 26.7236)" xlink:href="#path-9"></use>
        <path fill="#FFFFFF" d="M9.49,6.74642l-1.33876e-09,-1.58592e-09c2.43437,2.88381 3.89093,6.46568 4.16,10.23c0.46,-4.84 -1.1,-10.42 -4.16,-13.7l1.67208e-07,1.99295e-07c-2.378,-2.83432 -6.57346,-3.27642 -9.49,-1v3.5l-6.8706e-07,5.39382e-07c2.90881,-2.28359 7.10334,-1.85485 9.49,0.969999Z" transform="translate(58.51, 26.7236)"></path>
        <use fill="none" stroke="#191816" stroke-linecap="round" stroke-linejoin="round" stroke-width="1" transform="translate(58.51, 26.7236)" xlink:href="#path-9"></use>
        <use fill="#F0F0F0" transform="translate(42.81, 26.7236)" xlink:href="#path-10"></use>
        <path fill="#FFFFFF" d="M4.62,6.74642l-3.18604e-07,3.77426e-07c-2.43437,2.88381 -3.89093,6.46568 -4.16,10.23c-0.46,-4.84 1.1,-10.42 4.16,-13.7l-5.53236e-07,6.59399e-07c2.378,-2.83432 6.57346,-3.27642 9.49,-1v3.5l4.28359e-08,3.36287e-08c-2.90881,-2.28359 -7.10334,-1.85485 -9.49,0.97Z" transform="translate(44.38, 26.7236)"></path>
        <use fill="none" stroke="#191816" stroke-linecap="round" stroke-linejoin="round" stroke-width="1" transform="translate(42.81, 26.7236)" xlink:href="#path-10"></use>
        <g transform="translate(162, 136)">
            <g fill="#FFE500" stroke="#191816" stroke-linecap="round" stroke-linejoin="round" stroke-width="1" transform="rotate(180)">
                <path d="M0,0h6v2h-6Z" transform="translate(78, 67)"></path>
            </g>
        </g>
        <use fill="#ADC4D9" transform="translate(71.5867, 47.287)" xlink:href="#path-11"></use>
        <path fill="#FFFFFF" d="M4.04332,0.480001l-7.99106e-07,1.30491e-06c-2.80751,4.58456 -4.04332,9.95963 -3.52,15.31l-4.60025e-08,-6.27128e-07c0.0347472,0.473692 0.446919,0.829527 0.920611,0.79478c0.2178,-0.0159765 0.421365,-0.114214 0.569389,-0.274779l-3.22312e-07,-3.08352e-06c-0.591203,-5.65597 0.778575,-11.3434 3.88,-16.11l-7.26067e-08,-2.15125e-08c-0.348824,-0.103352 -0.707395,-0.170375 -1.07,-0.2l5.18821e-08,-3.95004e-09c-0.322296,0.024538 -0.612856,0.203344 -0.780001,0.480001Z" transform="translate(71.5367, 47.36)"></path>
        <use fill="none" stroke="#191816" stroke-linecap="round" stroke-linejoin="round" stroke-width="1" transform="translate(71.5867, 47.287)" xlink:href="#path-11"></use>
        <path fill="#C0DCEB" stroke="#191816" stroke-linecap="round" stroke-linejoin="round" stroke-width="1" d="M0.31,1.89172l2.38,0.55l8.16514e-08,1.89973e-08c0.12171,0.0283175 0.237034,0.0791959 0.34,0.15h0.07v-1.37l-8.89546e-09,-2.21509e-07c-0.019373,-0.482414 -0.359409,-0.892096 -0.83,-1l-0.46,-0.11l-2.04829e-08,-4.78231e-09c-0.478518,-0.111723 -0.971083,0.120072 -1.19,0.56l-0.62,1.21l-7.4884e-08,1.03335e-08c0.103155,-0.0142347 0.207977,-0.0108534 0.31,0.00999993Z" transform="translate(76.36, 45.4983)"></path>
        <path fill="#ADC4D9" stroke="#191816" stroke-linecap="round" stroke-linejoin="round" stroke-width="1" d="M2.8,9.33l2.04,-8.77l-2.44,-0.56l-2.4,10.38l2.8,-1.05Z" transform="translate(73.78, 52.92)"></path>
        <path fill="#87898C" stroke="#191816" stroke-linecap="round" stroke-linejoin="round" stroke-width="1" d="M9.74,10.53l0.47,-2l2.99677e-08,-1.28406e-07c0.118526,-0.507866 -0.173141,-1.02155 -0.67,-1.18c-2.36,-0.74 -8.64,-2.93 -8.18,-4.91c0.56,-2.44 -1.36,5.84 -1.36,5.84c5.45,1.27 4.35,1.9 8.51,3l-1.83031e-08,-4.80421e-09c0.534189,0.140215 1.0809,-0.179165 1.22112,-0.713355c0.0031913,-0.0121582 0.00615307,-0.0243755 0.00888373,-0.0366454Z" transform="translate(76.58, 53.97)"></path>
        <path fill="#FFE500" stroke="#191816" stroke-linecap="round" stroke-linejoin="round" stroke-width="1" d="M0,2.19823c0.28,-0.56 0.58,-1.11 0.91,-1.65l2.68384e-08,-4.36643e-08c0.225531,-0.366923 0.660657,-0.548226 1.08,-0.45l2.38,0.55l6.41435e-08,1.51346e-08c0.461168,0.108812 0.782663,0.526339 0.77,1l-0.08,1.71Z" transform="translate(74.68, 47.2918)"></path>
        <use fill="#4ACFFF" transform="translate(78.1856, 57.4106)" xlink:href="#path-12"></use>
        <path fill="#80DDFF" d="M5.81,4.46935l7.01273e-08,-3.15499e-07c0.179751,-0.808691 -0.330105,-1.60998 -1.1388,-1.78973c-0.000401317,-8.92024e-05 -0.000802671,-0.00017824 -0.00120406,-0.000267112l-2.93,-0.66l4.42511e-08,9.76774e-09c-0.75118,-0.165811 -1.5051,0.267478 -1.74,1l0.38,-1.7l-1.8946e-08,8.55689e-08c0.179086,-0.808838 0.979957,-1.31935 1.7888,-1.14027c0.00040139,8.88725e-05 0.000802744,0.00017791 0.00120406,0.000267112l2.93,0.66l1.22372e-07,2.78012e-08c0.789604,0.179386 1.29142,0.956528 1.13,1.75l-0.53,2.38l2.63137e-08,-1.18243e-07c-0.0121593,0.0546387 -0.0288847,0.10816 -0.05,0.16Z" transform="translate(78.56, 57.4106)"></path>
        <use fill="none" stroke="#191816" stroke-linecap="round" stroke-linejoin="round" stroke-width="1" transform="translate(78.1856, 57.4106)" xlink:href="#path-12"></use>
        <path fill="#4ACFFF" stroke="#191816" stroke-linecap="round" stroke-linejoin="round" stroke-width="1" d="M1,4h-4.37114e-08c-0.552285,-2.41411e-08 -1,-0.447715 -1,-1c2.41411e-08,-0.552285 0.447715,-1 1,-1h-4.37114e-08c0.552285,2.41411e-08 1,-0.447715 1,-1l1.42109e-14,1.50996e-07c-8.33927e-08,-0.552285 0.447715,-1 1,-1c0.552285,-8.33927e-08 1,0.447715 1,1c0,0 0,0 0,0l1.42109e-14,1.07284e-07c0,1.65685 -1.34315,3 -3,3c-5.29393e-08,0 -9.80565e-08,0 -1.50996e-07,-3.55271e-15Z" transform="translate(67, 23)"></path>
    </g>
</svg>