<?xml version="1.0" encoding="UTF-8"?>
<svg version="1.1" viewBox="0 0 100 112" xmlns="http://www.w3.org/2000/svg" xmlns:xlink="http://www.w3.org/1999/xlink">
    <!--Generated by IJSVG (https://github.com/curthard89/IJSVG)-->
    <defs>
        <path id="path-4" d="M3,1.21441l1.5721e-08,3.69681e-08c-0.352295,-0.828427 -1.30946,-1.21441 -2.13789,-0.862113c-0.388072,0.165031 -0.697082,0.474041 -0.862113,0.862113"></path>
        <path id="path-2" d="M41.0533,16.0988v7h-25v-7.5l2.35614e-07,0.000107567c0.00964801,4.41827 -3.56424,8.0078 -7.98251,8.01745c-0.182679,0.00039891 -0.365318,-0.00545949 -0.547596,-0.0175649l2.07852e-07,1.83275e-08c-4.26691,-0.376238 -7.52317,-3.97687 -7.47,-8.26v-3.69999l1.42109e-14,1.50996e-07c-8.33927e-08,-0.552285 0.447715,-1 1,-1h5v5l2.13163e-14,3.01992e-07c1.66785e-07,1.10457 0.895431,2 2,2c1.10457,-1.66785e-07 2,-0.895431 2,-2v0l-2.75557e-08,-4.78253e-07c-0.00498936,-0.0865949 -0.00498934,-0.173405 5.51115e-08,-0.26l-1.37226e-07,8.71159e-06c0.134739,-8.55383 7.17822,-15.3789 15.732,-15.2441c0.0626924,0.000987523 0.125378,0.00235568 0.188054,0.00410441c8.44001,0.23 15.08,7.45 15.08,15.96Z"></path>
        <path id="path-6" d="M8.12132,1.75736c1.75736,1.75736 1.75736,4.6066 0,6.36396c-1.75736,1.75736 -4.6066,1.75736 -6.36396,0c-1.75736,-1.75736 -1.75736,-4.6066 0,-6.36396c1.75736,-1.75736 4.6066,-1.75736 6.36396,0"></path>
        <path id="path-1" d="M0,0h2.5"></path>
        <path id="path-7" d="M1.76127,8.12627l1.19319e-07,1.19132e-07c-1.75903,-1.75627 -1.76127,-4.60597 -0.00500024,-6.365c1.75627,-1.75903 4.60597,-1.76127 6.365,-0.00500024Z"></path>
        <path id="path-5" d="M2.25592,0.488155c0.488155,0.488155 0.488155,1.27961 0,1.76777c-0.488155,0.488155 -1.27961,0.488155 -1.76777,0c-0.488155,-0.488155 -0.488155,-1.27961 0,-1.76777c0.488155,-0.488155 1.27961,-0.488155 1.76777,0"></path>
        <path id="path-3" d="M20.45,2.31l-10.26,14.47l-10.19,-14.68l-4.02111e-07,3.54226e-07c0.935988,-0.824528 1.97054,-1.5299 3.08,-2.1l7.11,9.78l7.23,-9.65l6.48597e-07,3.56305e-07c1.09455,0.601289 2.112,1.33332 3.03,2.18Z"></path>
    </defs>
    <g fill="#E8F4FA">
        <path d="M80,39.9963l1.75431e-07,0.00374627c-1.42109e-14,-22.0914 -17.9086,-40 -40,-40c-22.0914,7.10543e-15 -40,17.9086 -40,40c0,5.68809 1.21314,11.3108 3.55846,16.4928h72.8815l6.1272e-07,-1.35057e-06c2.35079,-5.18164 3.56467,-10.8066 3.56,-16.4966Z" transform="translate(10, 16.1137)"></path>
        <path fill="#FFFFFF" d="M2.10036e-06,4.63966e-06l-2.10036e-06,-4.63966e-06c9.11063,20.1253 32.811,29.0544 52.9363,19.9438c8.84893,-4.00588 15.9379,-11.0948 19.9437,-19.9437Z" transform="translate(13.56, 72.61)"></path>
        <path fill="none" stroke="#191816" stroke-linecap="round" stroke-linejoin="round" stroke-width="1" d="M0,0h78" transform="translate(11, 72.61)"></path>
        <use fill="none" stroke="#191816" stroke-linecap="round" stroke-linejoin="round" stroke-width="1" transform="translate(6.5, 72.61)" xlink:href="#path-1"></use>
        <use fill="none" stroke="#191816" stroke-linecap="round" stroke-linejoin="round" stroke-width="1" transform="translate(91, 72.61)" xlink:href="#path-1"></use>
    </g>
    <g stroke="#191816" stroke-width="1">
        <path fill="#614B44" stroke-linecap="round" stroke-linejoin="round" d="M32.9,8.81c0,-0.44 -0.33,-0.86 -0.89,-1.06l-2.5178e-08,2.47129e-08c0.286494,-0.281201 0.37706,-0.706468 0.23,-1.08c-0.24,-0.45 -1,-0.54 -1.65,-0.24l6.42931e-08,7.53567e-08c-0.160146,-0.187703 -0.362277,-0.335019 -0.59,-0.43c-2.37,-1 -3.5,-6 -3.5,-6h-20c0,0 -1.13,5 -3.5,6l1.07983e-07,-4.50385e-08c-0.227723,0.0949806 -0.429854,0.242297 -0.59,0.43c-0.69,-0.3 -1.4,-0.21 -1.64,0.24l2.06079e-08,-5.23442e-08c-0.14706,0.373532 -0.0564937,0.798799 0.23,1.08c-0.57,0.2 -1,0.62 -0.9,1.06c0.1,0.44 0.68,0.84 1.41,0.82c-0.7,0.33 -1.1,1 -0.89,1.44c0.48,1.16 1.6,-0.08 2,0.52c-0.57,0.52 -0.78,1.23 -0.45,1.63l-3.2054e-08,-2.76682e-08c0.395493,0.34138 0.972426,0.370227 1.4,0.0700001c-0.33,0.83 0.49,1.84 1.68,1l1.97338e-09,-5.3106e-09c-0.156143,0.420201 -0.0883584,0.890928 0.18,1.25c0.36,0.36 1.25,0.23 1.82,-0.25c0.16,0.72 0.15,1.23 0.95,1.2c0.38,0 0.77,-0.86 0.77,-0.86c0,0 -0.62,1.24 0.48,1.79c0.5,0.25 1.72,-1.32 1.72,-1.32c0,0 1,2.19 2.2,1.12l7.6399e-10,-8.18652e-10c0.21079,-0.22587 0.343926,-0.513164 0.38,-0.82c0.31,1.52 1.39,1.59 1.82,1.11c0.15,0.58 0.51,1 0.94,1c0.43,0 0.8,-0.41 0.94,-1c1.11,1.25 1.72,-0.93 1.72,-0.93c0.32,0.55 0.76,1.06 1.38,0.91l-1.85599e-09,8.47521e-10c0.599645,-0.273819 1.06687,-0.773394 1.3,-1.39c0,0 0.38,2 1.72,1.32c1.11,-0.53 0.48,-1.79 0.48,-1.79l-4.70731e-08,-1.34289e-07c0.189695,0.541159 0.769248,0.839716 1.32,0.68l3.72241e-09,-1.04918e-09c0.432464,-0.121892 0.692433,-0.562519 0.59,-1c0.57,0.47 1.28,0.58 1.63,0.22l4.56964e-09,-6.11372e-09c0.237221,-0.317378 0.264676,-0.744886 0.07,-1.09c0.95,0.19 2.12,-0.33 1.79,-1.16l9.92495e-08,6.96894e-08c0.427574,0.300227 1.00451,0.27138 1.4,-0.0700001c0.33,-0.4 -0.44,-1.63 -0.44,-1.63c0,0 1.51,0.64 2,-0.52c0.2,-0.48 -0.2,-1.11 -0.9,-1.44c0.72,0.0300001 1.33,-0.31 1.39,-0.81Z" transform="translate(41.5, 34.61)"></path>
        <use fill="#00DBA8" transform="translate(32.4467, 49.4712)" xlink:href="#path-2"></use>
        <use fill="#00DBA8" transform="translate(32.4467, 49.4712)" xlink:href="#path-2"></use>
        <path fill="#00F5BC" d="M31.04,16.1308v3.5l2.65315e-07,3.45677e-05c-0.0656069,-8.54912 -7.04922,-15.4264 -15.5983,-15.3608c-2.66148,0.0204245 -5.27274,0.726725 -7.58163,2.0507l7.33669e-07,-4.20836e-07c-3.66905,2.10458 -6.3148,5.6214 -7.32003,9.73002c-0.54,2.2 -0.44,-0.5 -0.44,-0.5l-5.26432e-08,-1.61207e-07c-0.0213585,-0.0654052 -0.0380668,-0.132238 -0.05,-0.2l-7.76331e-08,3.95206e-06c0.168016,-8.55324 7.23799,-15.3508 15.7912,-15.1828c0.0395911,0.000777711 0.079179,0.00170724 0.118763,0.00278855c8.44,0.23 15.08,7.45 15.08,15.96Z" transform="translate(42.46, 49.4392)"></path>
        <use fill="none" stroke-linecap="round" stroke-linejoin="round" transform="translate(32.4467, 49.4712)" xlink:href="#path-2"></use>
        <path fill="#D18660" d="M14.34,6.46c-2.17,2.91 -4.53,6 -5.92,7.89l-0.81,1.09l-0.5,0.67l-7.11,-9.78l-1.703e-06,9.07394e-07c1.10022,-0.586223 2.26924,-1.033 3.48,-1.33v-5h7v5l1.41385e-06,3.29218e-07c1.34572,0.313351 2.64377,0.804324 3.86,1.46Z" transform="translate(50.89, 45)"></path>
        <path fill="#BD704A" d="M6.97,0v4.72l1.52283e-09,-4.4065e-10c-1.2153,0.351669 -2.47485,0.526793 -3.74,0.52l-7.43282e-07,1.4533e-09c-1.08794,0.00212717 -2.17226,-0.12544 -3.23,-0.38v-4.86Z" transform="translate(54.37, 45)"></path>
        <path fill="none" stroke-linecap="round" stroke-linejoin="round" d="M14.34,6.46c-2.17,2.92 -4.51,6 -5.92,7.89l-0.81,1.09l-0.5,0.67l-7.11,-9.78l-1.703e-06,9.07394e-07c1.10022,-0.586223 2.26924,-1.033 3.48,-1.33v-5h7v5l1.65079e-06,3.8317e-07c1.26137,0.292781 2.48093,0.742977 3.63,1.34l0.17,0.1Z" transform="translate(50.89, 45)"></path>
        <use fill="#FF8A14" transform="translate(47.81, 51.33)" xlink:href="#path-3"></use>
        <path fill="#FFAA54" d="M5.38,3.16l-2.55919e-07,8.07526e-08c-1.2372,0.390386 -2.41488,0.948944 -3.5,1.66l-1.88,-2.72l-6.13151e-07,5.33359e-07c0.940773,-0.818347 1.97454,-1.52319 3.08,-2.1Z" transform="translate(47.81, 51.33)"></path>
        <path fill="#FFAA54" d="M5.32,2.13l-1.82,2.56l5.29416e-08,3.46086e-08c-1.08894,-0.711852 -2.26536,-1.2799 -3.5,-1.69l2.29,-3l9.09914e-07,4.85826e-07c1.09315,0.583661 2.11072,1.29898 3.02999,2.13Z" transform="translate(62.94, 51.51)"></path>
        <use fill="none" stroke-linecap="round" stroke-linejoin="round" transform="translate(47.81, 51.33)" xlink:href="#path-3"></use>
        <path fill="#00DFEB" d="M24.57,2.57v0l-1.36,2.23l-9,14.38h-4l-8.72,-14.55l-1.49,-2.5c0.18,-0.24 0.38,-0.47 0.59,-0.7l-2.34398e-07,2.92467e-07c0.115225,-0.143771 0.23877,-0.280672 0.37,-0.41c0.17,-0.18 0.34,-0.36 0.52,-0.53l0.4,-0.37l0.07,-0.06l0.07,-0.06l1.89,2.71l8.3,12l8.44,-11.94l1.82,-2.56v0c0.11,0.11 0.23,0.21 0.34,0.33c0.11,0.12 0.35,0.35 0.52,0.53l0.45,0.49c0.18,0.213333 0.36,0.433333 0.54,0.66l0.12,0.17l3.80975e-08,4.65201e-08c0.0469367,0.0573134 0.0903499,0.117424 0.13,0.18Z" transform="translate(45.79, 53.43)"></path>
        <path fill="#4AEFF7" d="M3.91,2.71l1.38558e-06,-8.89455e-07c-0.868706,0.557655 -1.67941,1.20086 -2.42,1.92l-1.49,-2.5l-1.12509e-06,1.44977e-06c0.598427,-0.771119 1.26804,-1.48426 2,-2.13Z" transform="translate(45.79, 53.43)"></path>
        <path fill="#4AEFF7" d="M3.86,2.33l-1.35,2.23l-1.26503e-07,-1.25375e-07c-0.762063,-0.755267 -1.60363,-1.42584 -2.51,-2l1.82,-2.56l4.10035e-08,3.85629e-08c0.75374,0.708877 1.43694,1.4892 2.04,2.33Z" transform="translate(66.49, 53.67)"></path>
        <path fill="none" d="M24.55,2.58l5.82204e-07,7.97133e-07c-0.618322,-0.846584 -1.31835,-1.63035 -2.08999,-2.33999l-10.27,14.45l-10.19,-14.69l8.07031e-07,-7.16206e-07c-0.731857,0.649492 -1.40143,1.36594 -2,2.14l10.19,17.05h4Z" transform="translate(45.81, 53.42)"></path>
        <path opacity="0.15" fill="#191816" d="M22.5592,0.585786c4.88155,0.585786 4.88155,1.53553 0,2.12132c-4.88155,0.585786 -12.7961,0.585786 -17.6777,0c-4.88155,-0.585786 -4.88155,-1.53553 0,-2.12132c4.88155,-0.585786 12.7961,-0.585786 17.6777,0" transform="translate(18.7796, 79.3636)"></path>
        <path fill="none" stroke-linecap="round" stroke-linejoin="round" d="M0,0v1.5" transform="translate(48.5, 63.61)"></path>
        <path fill="none" stroke-linecap="round" stroke-linejoin="round" d="M0,0v9" transform="translate(67.5, 63.61)"></path>
        <path fill="#00DFEB" stroke-linecap="round" stroke-linejoin="round" d="M6,2.5h-6v-1.5l1.42109e-14,1.50996e-07c-8.33927e-08,-0.552285 0.447715,-1 1,-1h5Z" transform="translate(32.5, 60.11)"></path>
        <path fill="#FF8A14" stroke-linecap="round" stroke-linejoin="round" d="M0,0h6v2.5h-6Z" transform="translate(32.5, 62.61)"></path>
        <path fill="#D18660" stroke-linecap="round" stroke-linejoin="round" d="M0,0h5v4.5h-5Z" transform="translate(33.5, 55.61)"></path>
        <path fill="#D18660" stroke-linecap="round" stroke-linejoin="round" d="M9.16957,7.49866l3.53749e-08,2.03362e-08c-0.226947,-0.130466 -0.490331,-0.183143 -0.75,-0.15l-0.3,-5.88l-2.34315e-08,-5.02102e-07c-0.0386602,-0.828427 -0.741573,-1.46866 -1.57,-1.43c-0.828427,0.0386602 -1.46866,0.741573 -1.43,1.57l0.27,5.35l-2.36,-4.52l3.98452e-08,7.76022e-08c-0.374359,-0.7291 -1.26198,-1.02645 -2,-0.67l-1.79238e-07,9.04095e-08c-0.734189,0.370332 -1.02957,1.26543 -0.66,2l2.76,5.37c-1,0.79 -2.62,1.88 -2.12,2.89c1,2 3.57,2.33 5.4,1.72l-5.06156e-08,1.90266e-08c0.742824,-0.27923 1.36989,-0.800612 1.78,-1.48l-1.92124e-07,2.89115e-07c0.488705,-0.73542 0.812763,-1.56774 0.95,-2.44c0.14,-0.900001 0.29,-2.14 0.0300002,-2.33Z" transform="translate(29.9704, 45.1713)"></path>
        <path fill="#D18660" stroke-linecap="round" stroke-linejoin="round" d="M1.18055,0.575566l1.04532e-07,-3.16179e-08c-0.720745,0.218005 -1.18055,0.92247 -1.09,1.67l-4.47718e-08,-3.14199e-07c0.117645,0.82561 0.882305,1.39953 1.70791,1.28188c0.0995115,-0.0141799 0.197359,-0.0382606 0.292085,-0.0718838l0.95,-0.31l6.7265e-08,-1.99773e-08c0.794143,-0.235856 1.24672,-1.07084 1.01087,-1.86498c-0.0034801,-0.0117177 -0.0071033,-0.0233925 -0.0108688,-0.0350216v0l6.14394e-09,2.00435e-08c-0.244407,-0.797332 -1.0889,-1.24557 -1.88623,-1.00116c-0.00125579,0.000384939 -0.00251109,0.000771517 -0.00376587,0.00115973Z" transform="translate(35.2695, 51.5444)"></path>
        <path fill="#D18660" stroke-linecap="round" stroke-linejoin="round" d="M22,12.5v-2.5v0c0,-5.52285 -4.47715,-10 -10,-10c-5.52285,0 -10,4.47715 -10,10v2.5h-8.74228e-08c-1.10457,4.82823e-08 -2,0.895431 -2,2c4.82823e-08,1.10457 0.895431,2 2,2h0.12l-2.53277e-07,-1.62014e-06c0.853024,5.45657 5.96796,9.18849 11.4245,8.33546c4.29488,-0.671417 7.66405,-4.04058 8.33546,-8.33546h0.12h-8.74228e-08c1.10457,4.82823e-08 2,-0.89543 2,-2c4.82823e-08,-1.10457 -0.89543,-2 -2,-2Z" transform="translate(46, 23.61)"></path>
        <path fill="#614B44" stroke-linecap="round" stroke-linejoin="round" d="M9.88,8l-7.21726e-08,-5.836e-09c0.673427,0.0544546 1.30007,0.365985 1.75,0.87l-2.60371e-08,-1.35589e-08c0.166144,0.08652 0.35325,0.124634 0.54,0.11c1.56,-0.24 2,-2.36 2.15,-3.6l-1.41085e-08,1.16747e-07c0.0610233,-0.504965 0.491374,-0.883674 1,-0.88h0.15l4.11641e-08,1.73323e-10c0.26234,0.00110463 0.513739,0.105256 0.7,0.29l0.37,0.36l-5.34002e-08,-5.38136e-08c0.102611,0.103405 0.244543,0.157994 0.39,0.15l-1.45339e-08,1.57696e-09c0.142054,-0.0154132 0.271866,-0.0875311 0.36,-0.2c1.09,-1.46 1.09,-5.1 1.09,-5.1c0,2.5 1.38,2.49 1.38,2.49c-0.72,4.81 -3.88,9 -9.88,9c-6,0 -9.16,-4.2 -9.88,-9c0,0 1.38,0 1.38,-2.49c0,0 0,3.64 1.09,5.1l2.8417e-08,3.60734e-08c0.0904698,0.114845 0.224361,0.187218 0.37,0.2l-1.75887e-08,-6.6909e-10c0.145056,0.00551814 0.286027,-0.0487015 0.39,-0.15l0.36,-0.36l-5.44459e-08,5.40039e-08c0.188719,-0.187187 0.444197,-0.291537 0.71,-0.29h0.15l-3.53894e-08,2.55625e-10c0.508626,-0.00367389 0.938977,0.375035 1,0.88c0.13,1.24 0.6,3.36 2.15,3.6l3.65161e-08,3.17991e-09c0.190073,0.016552 0.380914,-0.0216162 0.55,-0.11l-6.78051e-08,7.70436e-08c0.442487,-0.502776 1.06254,-0.814593 1.73,-0.87Z" transform="translate(48.12, 37.61)"></path>
        <use fill="none" stroke-linecap="round" stroke-linejoin="round" transform="translate(60.5, 35.8956)" xlink:href="#path-4"></use>
        <use fill="none" stroke-linecap="round" stroke-linejoin="round" transform="translate(52.51, 35.8956)" xlink:href="#path-4"></use>
        <use fill="#BD704A" transform="translate(50.878, 38.988)" xlink:href="#path-5"></use>
        <use fill="#BD704A" transform="translate(62.378, 38.988)" xlink:href="#path-5"></use>
        <path fill="none" stroke-linecap="round" stroke-linejoin="round" d="M1.59284e-07,1.51038e-07l-1.59284e-07,-1.51038e-07c1.68202,1.59494 4.31798,1.59494 6,3.21096e-07" transform="translate(55, 42.9)"></path>
        <path fill="#614B44" stroke-linecap="round" stroke-linejoin="round" d="M11.0258,0.05c-0.33,0 -0.67,-0.05 -1,-0.05c-0.33,0 -0.69,0 -1,0.05l5.25375e-10,-5.27969e-11c-5.12901,0.51542 -9.02583,4.84522 -9,10v2.44l6.99301e-08,6.4783e-09c0.193809,0.0179544 0.383165,0.0686747 0.56,0.15l-9.34853e-09,-3.87496e-09c0.510193,0.211475 1.09522,-0.0306847 1.30669,-0.540878c0.060167,-0.145156 0.0852808,-0.302448 0.0733052,-0.459122l1.04452e-07,3.38025e-05c-0.00154233,-0.49943 -0.0450266,-0.997849 -0.129994,-1.49c1.06,0.35 2.79,-1.15 2.79,-1.15v-2.4l2.20553e-06,7.65741e-07c1.74773,0.606796 3.55976,1.00947 5.4,1.2l-3.97637e-07,4.0837e-08c1.84048,-0.189015 3.65268,-0.591727 5.39999,-1.2v2.4c0,0 1.73,1.5 2.79,1.15l-2.44644e-08,1.417e-07c-0.0849696,0.492151 -0.128456,0.99057 -0.13,1.49l-2.12174e-08,2.77584e-07c-0.0420915,0.550678 0.3702,1.03121 0.920878,1.0733c0.156675,0.0119755 0.313966,-0.0131383 0.459122,-0.0733054l1.12397e-07,-5.1699e-08c0.176832,-0.0813373 0.366187,-0.13207 0.559998,-0.150036v-2.49l7.88972e-10,-0.000125616c0,-5.13565 -3.89021,-9.43639 -9.00013,-9.94989Z" transform="translate(47.9742, 23.61)"></path>
        <path fill="#614B44" d="M30.33,10.54c0.54,-1.22 -0.12,-2.41 -1,-1.91c0.71,-0.92 0.2,-1.82 -1,-1.5c0.36,-0.85 -0.9,-1.53 -2.11,-1c0.89,-1.05 0.52,-2.52 -0.6,-2.11c0,-1 -0.87,-1.18 -1.55,-0.53l1.0417e-07,5.81457e-08c-0.360488,-0.201219 -0.799511,-0.201219 -1.16,-1.16291e-07c0,-1.22 -1,-2.07 -1.66,-1.17c0,-0.79 -0.66,-1.11 -1.38,-0.67c-0.24,-1.27 -1.37,-1.65 -1.82,-0.55c-0.41,-0.32 -0.89,-0.11 -1.21,0.3c-0.33,-1.27 -1.53,-1.27 -1.86,0c-0.32,-0.41 -0.79,-0.62 -1.2,-0.3c-0.46,-1.09 -1.59,-0.73 -1.83,0.55c-0.72,-0.44 -1.37,-0.12 -1.38,0.67c-0.65,-0.89 -1.65,-0.0999999 -1.65,1.17l1.0417e-07,5.81457e-08c-0.360488,-0.201219 -0.799511,-0.201219 -1.16,-1.16291e-07c-0.68,-0.65 -1.5,-0.46 -1.55,0.53c-1.12,-0.41 -1.49,1.06 -0.6,2.11c-1.12,-0.49 -2.49,0.1 -2.1,1c-1.16,-0.32 -1.67,0.58 -1,1.5c-1,-0.52 -1.55,0.75 -1,1.91c-1.51,0.65 -1.3,2.21 0.3,2c-0.32,1.46 0.9,2 1.72,0.81c0,1.15 1.37,1.06 2.08,-0.09c0.19,0.13 0.31,0.23 0.31,0.23c0,0 3.5,-2 10,-2c6.5,0 10,2 10,2c0,0 0.12,-0.1 0.31,-0.23l-2.67062e-08,-5.69407e-08c0.0279775,0.0596514 0.0614558,0.116564 0.1,0.17c0.7,0.94 2,1.05 2,-0.08c0.81,1.16 2,0.65 1.71,-0.81c1.6,0.22 1.8,-1.35 0.29,-2Zm0,0c0.54,-1.22 -0.12,-2.41 -1,-1.91c0.71,-0.92 0.2,-1.82 -1,-1.5c0.36,-0.85 -0.9,-1.53 -2.11,-1c0.89,-1.05 0.52,-2.52 -0.6,-2.11c0,-1 -0.87,-1.18 -1.55,-0.53l1.0417e-07,5.81457e-08c-0.360488,-0.201219 -0.799511,-0.201219 -1.16,-1.16291e-07c0,-1.22 -1,-2.07 -1.66,-1.17c0,-0.79 -0.66,-1.11 -1.38,-0.67c-0.24,-1.27 -1.37,-1.65 -1.82,-0.55c-0.41,-0.32 -0.89,-0.11 -1.21,0.3c-0.33,-1.27 -1.53,-1.27 -1.86,0c-0.32,-0.41 -0.79,-0.62 -1.2,-0.3c-0.46,-1.09 -1.59,-0.73 -1.83,0.55c-0.72,-0.44 -1.37,-0.12 -1.38,0.67c-0.65,-0.89 -1.65,-0.0999999 -1.65,1.17l1.0417e-07,5.81457e-08c-0.360488,-0.201219 -0.799511,-0.201219 -1.16,-1.16291e-07c-0.68,-0.65 -1.5,-0.46 -1.55,0.53c-1.12,-0.41 -1.49,1.06 -0.6,2.11c-1.12,-0.49 -2.49,0.1 -2.1,1c-1.16,-0.32 -1.67,0.58 -1,1.5c-1,-0.52 -1.55,0.75 -1,1.91c-1.51,0.65 -1.3,2.21 0.3,2c-0.32,1.46 0.9,2 1.72,0.81c0,1.15 1.37,1.06 2.08,-0.09c0.19,0.13 0.31,0.23 0.31,0.23c0,0 3.5,-2 10,-2c6.5,0 10,2 10,2c0,0 0.12,-0.1 0.31,-0.23l-2.67062e-08,-5.69407e-08c0.0279775,0.0596514 0.0614558,0.116564 0.1,0.17c0.7,0.94 2,1.05 2,-0.08c0.81,1.16 2,0.65 1.71,-0.81c1.6,0.22 1.8,-1.35 0.29,-2Z" transform="translate(42.08, 17.66)"></path>
        <path fill="#947063" d="M30.13,10.54c0.54,-1.22 -0.12,-2.41 -1,-1.91c0.71,-0.92 0.2,-1.82 -1,-1.5c0.36,-0.85 -0.9,-1.53 -2.11,-1c0.89,-1.05 0.52,-2.52 -0.6,-2.11c0,-1 -0.87,-1.18 -1.55,-0.53l1.0417e-07,5.81457e-08c-0.360488,-0.201219 -0.799511,-0.201219 -1.16,-1.16291e-07c0,-1.22 -1,-2.07 -1.66,-1.17c0,-0.79 -0.66,-1.11 -1.38,-0.67c-0.24,-1.27 -1.37,-1.65 -1.82,-0.55c-0.41,-0.32 -0.89,-0.11 -1.21,0.3c-0.33,-1.27 -1.53,-1.27 -1.86,0c-0.32,-0.41 -0.79,-0.62 -1.2,-0.3c-0.46,-1.09 -1.59,-0.73 -1.83,0.55c-0.72,-0.44 -1.37,-0.12 -1.38,0.67c-0.65,-0.89 -1.65,-0.0999999 -1.65,1.17l1.0417e-07,5.81457e-08c-0.360488,-0.201219 -0.799511,-0.201219 -1.16,-1.16291e-07c-0.68,-0.65 -1.5,-0.46 -1.55,0.53c-1.12,-0.41 -1.49,1.06 -0.6,2.11c-1.12,-0.49 -2.49,0.1 -2.11,1c-1.15,-0.32 -1.66,0.58 -0.95,1.5c-1,-0.52 -1.55,0.75 -1,1.91c-1.35,0.58 -1.32,1.89 -0.15,2c0.13,-0.63 0.59,-1 1.19,-0.69c-0.71,-0.92 -0.2,-1.83 0.95,-1.5c-0.38,-0.9 1,-1.49 2.11,-1c-0.89,-1.06 -0.52,-2.52 0.6,-2.11c0.05,-1 0.87,-1.18 1.55,-0.54l-7.11406e-08,3.97095e-08c0.360488,-0.201219 0.799511,-0.201219 1.16,-7.9419e-08c0,-1.27 1,-2.06 1.66,-1.17c0,-0.79 0.66,-1.12 1.38,-0.67c0.24,-1.28 1.37,-1.65 1.83,-0.55c0.41,-0.32 0.88,-0.11 1.2,0.3c0.33,-1.27 1.53,-1.27 1.86,0c0.32,-0.41 0.8,-0.62 1.21,-0.3c0.45,-1.1 1.58,-0.72 1.82,0.55c0.72,-0.45 1.37,-0.12 1.38,0.67c0.62,-0.92 1.62,-0.0599999 1.62,1.16l-7.11406e-08,3.97095e-08c0.360488,-0.201219 0.799511,-0.201219 1.16,-7.9419e-08c0.68,-0.64 1.5,-0.45 1.55,0.54c1.12,-0.41 1.49,1.05 0.6,2.11c1.21,-0.53 2.47,0.15 2.11,1c1.15,-0.33 1.66,0.58 1,1.5c0.59,-0.32 1.07,0.06 1.2,0.69c1.11,-0.11 1.14,-1.41 -0.21,-1.99Z" transform="translate(42.28, 17.66)"></path>
        <path fill="none" stroke-linecap="round" stroke-linejoin="round" d="M30.33,10.54c0.54,-1.22 -0.12,-2.41 -1,-1.91c0.71,-0.92 0.2,-1.82 -1,-1.5c0.36,-0.85 -0.9,-1.53 -2.11,-1c0.89,-1.05 0.52,-2.52 -0.6,-2.11c0,-1 -0.87,-1.18 -1.55,-0.53l1.0417e-07,5.81457e-08c-0.360488,-0.201219 -0.799511,-0.201219 -1.16,-1.16291e-07c0,-1.22 -1,-2.07 -1.66,-1.17c0,-0.79 -0.66,-1.11 -1.38,-0.67c-0.24,-1.27 -1.37,-1.65 -1.82,-0.55c-0.41,-0.32 -0.89,-0.11 -1.21,0.3c-0.33,-1.27 -1.53,-1.27 -1.86,0c-0.32,-0.41 -0.79,-0.62 -1.2,-0.3c-0.46,-1.09 -1.59,-0.73 -1.83,0.55c-0.72,-0.44 -1.37,-0.12 -1.38,0.67c-0.65,-0.89 -1.65,-0.0999999 -1.65,1.17l1.0417e-07,5.81457e-08c-0.360488,-0.201219 -0.799511,-0.201219 -1.16,-1.16291e-07c-0.68,-0.65 -1.5,-0.46 -1.55,0.53c-1.12,-0.41 -1.49,1.06 -0.6,2.11c-1.12,-0.49 -2.49,0.1 -2.1,1c-1.16,-0.32 -1.67,0.58 -1,1.5c-1,-0.52 -1.55,0.75 -1,1.91c-1.51,0.65 -1.3,2.21 0.3,2c-0.32,1.46 0.9,2 1.72,0.81c0,1.15 1.37,1.06 2.08,-0.09c0.19,0.13 0.31,0.23 0.31,0.23c0,0 3.5,-2 10,-2c6.5,0 10,2 10,2c0,0 0.12,-0.1 0.31,-0.23l-2.67062e-08,-5.69407e-08c0.0279775,0.0596514 0.0614558,0.116564 0.1,0.17c0.7,0.94 2,1.05 2,-0.08c0.81,1.16 2,0.65 1.71,-0.81c1.6,0.22 1.8,-1.35 0.29,-2Z" transform="translate(42.08, 17.66)"></path>
        <path fill="#FFE500" stroke-linecap="round" stroke-linejoin="round" d="M20,3.33333l1.53479e-06,8.18553e-07c-6.25,-3.33333 -13.75,-3.33333 -20,-1.63711e-06v1.5l1.95523e-07,-5.19866e-08c3.2675,-0.868777 6.6214,-1.37186 9.99999,-1.5l1.22847e-06,4.65909e-08c3.37859,0.128137 6.73249,0.631221 9.99999,1.5Z" transform="translate(48, 29.7767)"></path>
        <path fill="#FF6242" stroke-linecap="round" stroke-linejoin="round" d="M20,6.68001l1.53479e-06,8.18553e-07c-6.25,-3.33333 -13.75,-3.33333 -20,-1.63711e-06v-2l6.12796e-07,-4.9063e-07c5.84533,-4.68001 14.1547,-4.68 20,9.8126e-07Z" transform="translate(48, 26.43)"></path>
        <path fill="none" stroke-linecap="round" stroke-linejoin="round" d="M11.44,7.70643e-07l1.60992e-07,-7.70643e-07c-0.57295,2.74262 -2.92194,4.75486 -5.72,4.9l-1.04158e-09,-5.53371e-11c-2.79669,-0.148563 -5.14388,-2.15926 -5.72,-4.9" transform="translate(52.28, 50.71)"></path>
        <path fill="#FFF5E3" stroke-linecap="round" stroke-linejoin="round" d="M3.60948,0.585786c0.781049,0.585786 0.781049,1.53553 0,2.12132c-0.781049,0.585786 -2.04738,0.585786 -2.82843,0c-0.781049,-0.585786 -0.781049,-1.53553 0,-2.12132c0.781049,-0.585786 2.04738,-0.585786 2.82843,0" transform="translate(55.8047, 53.9636)"></path>
        <path fill="#FFF5E3" stroke-linecap="round" stroke-linejoin="round" d="M3.38193,0.345876l3.11083e-08,5.67846e-08c0.551926,1.00748 0.18263,2.27162 -0.824846,2.82355c-0.624877,0.342327 -1.38149,0.340987 -2.00515,-0.00354901l-1.18474e-07,-2.16261e-07c-0.551926,-1.00748 -0.18263,-2.27162 0.824847,-2.82355c0.624877,-0.342327 1.38149,-0.340987 2.00515,0.00354918Z" transform="translate(60.7981, 51.0841)"></path>
        <path fill="#FFF5E3" stroke-linecap="round" stroke-linejoin="round" d="M0.551927,0.345876l-1.18474e-07,2.16261e-07c-0.551926,1.00748 -0.18263,2.27162 0.824847,2.82355c0.624877,0.342327 1.38149,0.340987 2.00515,-0.00354918l3.11083e-08,-5.67846e-08c0.551926,-1.00748 0.18263,-2.27162 -0.824846,-2.82355c-0.624877,-0.342327 -1.38149,-0.340987 -2.00515,0.00354901Z" transform="translate(51.2681, 51.0841)"></path>
        <path fill="none" stroke-linecap="round" stroke-linejoin="round" d="M0,0h20l4.5,4.5" transform="translate(20.5, 76.01)"></path>
        <path fill="none" stroke-linecap="round" stroke-linejoin="round" d="M24.5,0h-20l-4.5,4.5" transform="translate(20, 76.01)"></path>
        <use fill="#BF8DF2" transform="translate(21.5607, 71.0707)" xlink:href="#path-6"></use>
        <use fill="#DABFF5" transform="translate(21.5587, 71.0637)" xlink:href="#path-7"></use>
        <use fill="#BF8DF2" transform="translate(33.5607, 71.0707)" xlink:href="#path-6"></use>
        <use fill="#DABFF5" transform="translate(33.5587, 71.0637)" xlink:href="#path-7"></use>
        <use fill="none" stroke-linecap="round" stroke-linejoin="round" transform="translate(21.5607, 71.0707)" xlink:href="#path-6"></use>
        <use fill="none" stroke-linecap="round" stroke-linejoin="round" transform="translate(33.5607, 71.0707)" xlink:href="#path-6"></use>
        <path fill="none" stroke-linecap="round" stroke-linejoin="round" d="M1.25089e-07,1.5l1.77636e-14,2.26494e-07c-1.25089e-07,-0.828427 0.671573,-1.5 1.5,-1.5c0.828427,-1.25089e-07 1.5,0.671573 1.5,1.5c0,0 0,0 0,0" transform="translate(31, 74.5)"></path>
        <path fill="#D18660" stroke-linecap="round" stroke-linejoin="round" d="M3.89209,2.91527v0l-2.18756e-08,3.90026e-08c-0.405254,0.722538 -1.31951,0.979746 -2.04205,0.574492c-0.00265532,-0.00148931 -0.0053061,-0.0029867 -0.00795231,-0.00449214l-0.87,-0.49l-7.99189e-08,-4.54348e-08c-0.720179,-0.40943 -0.972091,-1.32516 -0.562661,-2.04534c0.000884118,-0.00155514 0.00177102,-0.00310871 0.00266069,-0.00466068v0l-2.01155e-08,3.45971e-08c0.405307,-0.697096 1.29163,-0.945267 2,-0.56l0.87,0.49l7.2177e-08,3.86001e-08c0.730521,0.390681 1.00602,1.29959 0.615335,2.03011c-0.0017659,0.003302 -0.00354416,0.00659737 -0.00533474,0.00988606Z" transform="translate(29.2879, 54.5247)"></path>
        <path fill="#D18660" stroke-linecap="round" stroke-linejoin="round" d="M4.39209,3.42527v0l-2.18756e-08,3.90026e-08c-0.405254,0.722538 -1.31951,0.979746 -2.04205,0.574492c-0.00265532,-0.00148931 -0.0053061,-0.0029867 -0.00795231,-0.00449214l-1.37,-1l-7.99189e-08,-4.54348e-08c-0.720179,-0.40943 -0.972091,-1.32516 -0.562661,-2.04534c0.000884118,-0.00155514 0.00177102,-0.00310871 0.00266069,-0.00466068v0l-2.01155e-08,3.45971e-08c0.405307,-0.697096 1.29163,-0.945267 2,-0.56l1.37,1l7.21769e-08,3.86001e-08c0.730521,0.390681 1.00602,1.29959 0.615335,2.03011c-0.0017659,0.003302 -0.00354416,0.00659737 -0.00533474,0.00988606Z" transform="translate(29.9179, 51.5147)"></path>
    </g>
</svg>