<?xml version="1.0" encoding="UTF-8"?>
<svg version="1.1" viewBox="0 0 100 112" xmlns="http://www.w3.org/2000/svg" xmlns:xlink="http://www.w3.org/1999/xlink">
    <!--Generated by IJSVG (https://github.com/curthard89/IJSVG)-->
    <defs>
        <path id="path-4" d="M5.41421,1.17157c1.17157,1.17157 1.17157,3.07107 0,4.24264c-1.17157,1.17157 -3.07107,1.17157 -4.24264,0c-1.17157,-1.17157 -1.17157,-3.07107 0,-4.24264c1.17157,-1.17157 3.07107,-1.17157 4.24264,0"></path>
        <path id="path-14" d="M0,0h4.61"></path>
        <path id="path-15" d="M0.58,2.06426e-06h-2.53526e-08c-0.320325,1.40019e-08 -0.58,0.259675 -0.58,0.58l-6.75077e-09,8.76401e-05c-4.75338e-08,0.314802 0.255198,0.57 0.57,0.57c0.00336277,5.07768e-10 0.00672548,-2.97575e-05 0.0100877,-8.92705e-05l2.65909e-08,4.79233e-10c0.309229,0.00557305 0.564427,-0.240589 0.57,-0.549818c0.000121232,-0.00672674 0.000121232,-0.0134551 -9.58465e-10,-0.0201818l3.62317e-09,-2.06491e-07c0.00552274,-0.314754 -0.245159,-0.574389 -0.559912,-0.579912c-0.00336225,-5.89948e-05 -0.00672496,-8.82345e-05 -0.0100877,-8.77158e-05Z"></path>
        <path id="path-11" d="M9.41,11.98l5.93563e-08,-8.36692e-08c0.207698,-0.292772 0.54116,-0.470619 0.9,-0.48h4l4.0214e-08,1.16108e-09c0.206136,0.00595171 0.406713,0.0681998 0.58,0.18v-11.68h-14.89v11.68l-7.16295e-08,4.62721e-08c0.170399,-0.110076 0.367287,-0.172252 0.57,-0.18h4l-8.23294e-09,-8.25509e-11c0.368183,0.00369128 0.71148,0.186534 0.92,0.49l0.12,-5l2.51155e-08,-3.40914e-07c0.0750683,-1.01897 0.961958,-1.78415 1.98092,-1.70908c0.914538,0.067375 1.6417,0.79454 1.70908,1.70908Z"></path>
        <path id="path-1" d="M0,0h2.5"></path>
        <path id="path-9" d="M0,0v1.5"></path>
        <path id="path-6" d="M0,0v8"></path>
        <path id="path-10" d="M6.78968,21.6913l6.69,-13.39h8.94l1.32899e-08,-5.38414e-11c0.635122,-0.00257307 1.1479,-0.519527 1.14533,-1.15465c-0.000967287,-0.238759 -0.0762252,-0.471298 -0.215332,-0.665351l5.04174e-07,6.81163e-07c-3.96256,-5.35361 -11.5148,-6.48127 -16.8684,-2.51871c-5.35361,3.96256 -6.48127,11.5148 -2.51871,16.8684c0.30392,0.410611 0.633623,0.801496 0.987116,1.17029l1.28337e-07,1.23838e-07c0.461017,0.444855 1.19537,0.431753 1.64023,-0.0292638c0.0801966,-0.0831102 0.147532,-0.177731 0.199778,-0.280732Z"></path>
        <path id="path-12" d="M0.86,1.91622e-09h-7.58067e-09c-0.474965,2.07614e-08 -0.86,0.385035 -0.86,0.86c2.07614e-08,0.474965 0.385035,0.86 0.86,0.86h3.49171e-08c0.474965,-3.58589e-08 0.86,-0.385035 0.86,-0.86c-3.58589e-08,-0.474965 -0.385035,-0.86 -0.86,-0.86Z"></path>
        <path id="path-2" d="M2,4.82823e-08h8h-8.74228e-08c1.10457,-4.82823e-08 2,0.89543 2,2v30.5h-12v-30.5l2.84217e-14,3.01992e-07c-1.66785e-07,-1.10457 0.89543,-2 2,-2Z"></path>
        <path id="path-13" d="M2.3,0h-1.00536e-07c-1.27025,5.55246e-08 -2.3,1.02975 -2.3,2.3v3.55l-3.17706e-08,-2.93143e-06c0.00332639,0.306956 0.125143,0.600751 0.339998,0.820001l0.81,0.81h2.3l0.82,-0.81l7.28588e-09,-7.56649e-09c0.212086,-0.220254 0.330395,-0.514235 0.33,-0.82v-3.55l-7.10543e-15,-9.166e-13c0,-1.27025 -1.02974,-2.3 -2.3,-2.3Z"></path>
        <path id="path-8" d="M1,5.92515e-08h0.5h-4.37114e-08c0.552285,-2.41411e-08 1,0.447715 1,1v1h-2.5v-1l1.42109e-14,-1.07284e-07c8.33927e-08,-0.552285 0.447715,-1 1,-1Z"></path>
        <path id="path-3" d="M7.21895,1.5621c1.5621,1.5621 1.5621,4.09476 0,5.65685c-1.5621,1.5621 -4.09476,1.5621 -5.65685,0c-1.5621,-1.5621 -1.5621,-4.09476 0,-5.65685c1.5621,-1.5621 4.09476,-1.5621 5.65685,0"></path>
        <path id="path-7" d="M0,0h21"></path>
        <path id="path-5" d="M3.60948,0.781049c0.781049,0.781049 0.781049,2.04738 0,2.82843c-0.781049,0.781049 -2.04738,0.781049 -2.82843,0c-0.781049,-0.781049 -0.781049,-2.04738 0,-2.82843c0.781049,-0.781049 2.04738,-0.781049 2.82843,0"></path>
    </defs>
    <g fill="#E8F4FA">
        <path d="M80,39.9963l1.75431e-07,0.00374627c-1.42109e-14,-22.0914 -17.9086,-40 -40,-40c-22.0914,7.10543e-15 -40,17.9086 -40,40c0,5.68809 1.21314,11.3108 3.55846,16.4928h72.8815l6.1272e-07,-1.35057e-06c2.35079,-5.18164 3.56467,-10.8066 3.56,-16.4966Z" transform="translate(10, 16.0037)"></path>
        <path fill="#FFFFFF" d="M2.10036e-06,4.63966e-06l-2.10036e-06,-4.63966e-06c9.11063,20.1253 32.811,29.0544 52.9363,19.9438c8.84893,-4.00588 15.9379,-11.0948 19.9437,-19.9437Z" transform="translate(13.56, 72.5)"></path>
        <path fill="none" stroke="#191816" stroke-linecap="round" stroke-linejoin="round" stroke-width="1" d="M0,0h78" transform="translate(11, 72.5)"></path>
        <use fill="none" stroke="#191816" stroke-linecap="round" stroke-linejoin="round" stroke-width="1" transform="translate(6.5, 72.5)" xlink:href="#path-1"></use>
        <use fill="none" stroke="#191816" stroke-linecap="round" stroke-linejoin="round" stroke-width="1" transform="translate(91, 72.5)" xlink:href="#path-1"></use>
    </g>
    <g stroke="#191816" stroke-width="1">
        <path fill="#656769" stroke-linecap="round" stroke-linejoin="round" d="M6.9,0.0118016l5.27863e-07,1.16069e-09c-2.51578,-0.00553193 -4.95515,0.864156 -6.9,2.46v18.81h15v-17.71l7.99429e-08,8.77667e-08c-2.07531,-2.27841 -5.01813,-3.5718 -8.1,-3.56Z" transform="translate(25.59, 43.6382)"></path>
        <use fill="#87898C" transform="translate(71, 40)" xlink:href="#path-2"></use>
        <path fill="#BDBEC0" d="M10,0h-8h-8.74228e-08c-1.10457,4.82823e-08 -2,0.895431 -2,2c0,0 0,7.10543e-15 0,7.10543e-15v2.5l2.84217e-14,3.01992e-07c-1.66785e-07,-1.10457 0.89543,-2 2,-2h8h-8.74228e-08c1.10457,-4.82823e-08 2,0.89543 2,2v-2.5v-2.13163e-14c0,-1.10457 -0.89543,-2 -2,-2Z" transform="translate(71, 40)"></path>
        <use fill="none" stroke-linecap="round" stroke-linejoin="round" transform="translate(71, 40)" xlink:href="#path-2"></use>
        <use fill="#525252" transform="translate(72.6095, 60.6095)" xlink:href="#path-3"></use>
        <use fill="#525252" transform="translate(73.7071, 51.2071)" xlink:href="#path-4"></use>
        <use fill="#525252" transform="translate(74.8047, 43.8047)" xlink:href="#path-5"></use>
        <path fill="#8CA4B8" stroke-linecap="round" stroke-linejoin="round" d="M2,18c-1.10456,0 -2,-0.89544 -2,-2v-14c0,-1.10456 0.89544,-2 2,-2h21c1.10456,0 2,0.89544 2,2v14c0,1.10456 -0.89544,2 -2,2Z" transform="translate(46, 54.5)"></path>
        <path fill="#DAEDF7" stroke-linecap="round" stroke-linejoin="round" d="M1,4c-0.55228,0 -1,-0.44772 -1,-1v-2c0,-0.55228 0.44772,-1 1,-1h19c0.55228,0 1,0.44772 1,1v2c0,0.55228 -0.44772,1 -1,1Z" transform="translate(48, 56.5)"></path>
        <path fill="#525252" stroke-linecap="round" stroke-linejoin="round" d="M1,8c-0.55228,0 -1,-0.44772 -1,-1v-6c0,-0.55228 0.44772,-1 1,-1h19c0.55228,0 1,0.44772 1,1v6c0,0.55228 -0.44772,1 -1,1Z" transform="translate(48, 62.5)"></path>
        <use fill="none" stroke-linecap="round" stroke-linejoin="round" transform="translate(51, 62.5)" xlink:href="#path-6"></use>
        <use fill="none" stroke-linecap="round" stroke-linejoin="round" transform="translate(54, 62.5)" xlink:href="#path-6"></use>
        <use fill="none" stroke-linecap="round" stroke-linejoin="round" transform="translate(57, 62.5)" xlink:href="#path-6"></use>
        <use fill="none" stroke-linecap="round" stroke-linejoin="round" transform="translate(60, 62.5)" xlink:href="#path-6"></use>
        <use fill="none" stroke-linecap="round" stroke-linejoin="round" transform="translate(63, 62.5)" xlink:href="#path-6"></use>
        <use fill="none" stroke-linecap="round" stroke-linejoin="round" transform="translate(66, 62.5)" xlink:href="#path-6"></use>
        <use fill="none" stroke-linecap="round" stroke-linejoin="round" transform="translate(48, 64.5)" xlink:href="#path-7"></use>
        <use fill="none" stroke-linecap="round" stroke-linejoin="round" transform="translate(48, 66.5)" xlink:href="#path-7"></use>
        <use fill="none" stroke-linecap="round" stroke-linejoin="round" transform="translate(48, 68.5)" xlink:href="#path-7"></use>
        <use fill="#DAEDF7" stroke-linecap="round" stroke-linejoin="round" transform="translate(51, 52.51)" xlink:href="#path-8"></use>
        <use fill="#DAEDF7" stroke-linecap="round" stroke-linejoin="round" transform="translate(55.5, 52.51)" xlink:href="#path-8"></use>
        <path fill="none" stroke-linecap="round" stroke-linejoin="round" d="M3,0h-3" transform="translate(63.5, 58.5)"></path>
        <path fill="none" stroke-linecap="round" stroke-linejoin="round" d="M5,0h-5" transform="translate(50, 58.5)"></path>
        <use fill="none" stroke-linecap="round" stroke-linejoin="round" transform="translate(63.5, 53)" xlink:href="#path-9"></use>
        <use fill="none" stroke-linecap="round" stroke-linejoin="round" transform="translate(65.5, 53)" xlink:href="#path-9"></use>
        <use fill="none" stroke-linecap="round" stroke-linejoin="round" transform="translate(67.5, 53)" xlink:href="#path-9"></use>
        <use fill="#FF6242" transform="translate(19.5803, 18.0987)" xlink:href="#path-10"></use>
        <path fill="#FF866E" d="M12.0589,4.52828l-5.98553e-08,2.77396e-10c3.43416,-0.0159155 6.71057,1.44027 9,4l4.46374e-08,-2.775e-09c0.628391,-0.0390655 1.10613,-0.580146 1.06707,-1.20854c-0.013496,-0.21709 -0.0888156,-0.425788 -0.217069,-0.601462l-1.19268e-07,-1.68316e-07c-3.85087,-5.4345 -11.3781,-6.71828 -16.8126,-2.86741c-3.19886,2.2667 -5.09625,5.94689 -5.08735,9.86741l7.33651e-08,-5.94135e-06c-0.00593932,0.480976 0.0174371,0.961867 0.0699994,1.44l1.87882e-07,-1.56356e-06c0.728672,-6.06404 5.87234,-10.6281 11.98,-10.63Z" transform="translate(21.0011, 17.8417)"></path>
        <use fill="none" stroke-linecap="round" stroke-linejoin="round" transform="translate(19.5803, 18.0987)" xlink:href="#path-10"></use>
        <path fill="none" stroke-linecap="round" stroke-linejoin="round" d="M0,4.69l3.3,-4.69" transform="translate(36.72, 21.71)"></path>
        <path fill="none" stroke-linecap="round" stroke-linejoin="round" d="M0,6.68l1.31,-6.68" transform="translate(34.08, 19.72)"></path>
        <path fill="none" stroke-linecap="round" stroke-linejoin="round" d="M1.9,8.23l-1.9,-8.23" transform="translate(30.34, 19.81)"></path>
        <path fill="none" stroke-linecap="round" stroke-linejoin="round" d="M5.73,7.56l-5.73,-7.56" transform="translate(25.77, 21.96)"></path>
        <path fill="none" stroke-linecap="round" stroke-linejoin="round" d="M8.56,4.68l-8.56,-4.68" transform="translate(22.47, 25.78)"></path>
        <path fill="none" stroke-linecap="round" stroke-linejoin="round" d="M9.55,0.76l-9.55,-0.76" transform="translate(21.03, 30.62)"></path>
        <path fill="none" stroke-linecap="round" stroke-linejoin="round" d="M8.23,0l-8.23,2.93" transform="translate(21.69, 32.69)"></path>
        <use fill="#00B8F0" transform="translate(25.59, 64.92)" xlink:href="#path-11"></use>
        <path fill="#009FD9" d="M0,0h14.95v2.88h-14.95Z" transform="translate(25.59, 67.22)"></path>
        <use fill="none" stroke-linecap="round" stroke-linejoin="round" transform="translate(25.59, 64.92)" xlink:href="#path-11"></use>
        <path fill="#4ACFFF" stroke-linecap="round" stroke-linejoin="round" d="M5.15,2.3h-4h-5.02681e-08c-0.635127,-2.77623e-08 -1.15,-0.514873 -1.15,-1.15c0,0 0,0 0,0v0l-7.30164e-09,8.5063e-07c0.00543214,-0.632864 0.517136,-1.14457 1.15,-1.15h4l2.97397e-08,2.55284e-10c0.632864,0.00543262 1.14457,0.517136 1.15,1.15v0v1.32265e-08c0,0.635127 -0.514872,1.15 -1.15,1.15Z" transform="translate(34.85, 76.42)"></path>
        <path fill="#FFCEBF" stroke-linecap="round" stroke-linejoin="round" d="M11.46,15.42v1.72l7.21938e-09,-8.41048e-07c-0.00543215,0.632864 -0.517136,1.14457 -1.15,1.15h-4.85l2.0482e-07,1.12266e-12c-2.18865,-1.20974e-05 -4.23449,-1.08663 -5.46,-2.9v-15.39l5.07572e-08,5.51773e-08c1.84584,2.00658 2.87022,4.63355 2.87,7.36v4.32l-8.94485e-09,-2.31695e-06c0.00550657,1.42651 1.16348,2.58001 2.59,2.58h4.9l7.41805e-08,3.22469e-09c0.619414,0.0269264 1.10598,0.54003 1.1,1.16Z" transform="translate(40.54, 47.21)"></path>
        <path fill="#FFCEBF" stroke-linecap="round" stroke-linejoin="round" d="M4.18789,1.1618v1.73l8.21927e-10,4.34791e-05c0,0.635127 -0.514873,1.15 -1.15,1.15c-0.00334787,0 -0.00669573,-1.46195e-05 -0.0100435,-4.3858e-05h-0.77l1.20719e-09,-1.44667e-11c-1.01159,0.0121278 -1.88521,-0.705348 -2.06996,-1.7l8.16275e-08,4.72868e-07c-0.187894,-1.08847 0.542167,-2.12317 1.63064,-2.31106c0.12196,-0.021053 0.245611,-0.0307399 0.369361,-0.0289362h0.87l2.67658e-08,4.64503e-10c0.631216,0.0109544 1.13559,0.528714 1.13,1.16Z" transform="translate(47.8121, 61.4682)"></path>
        <path fill="#87898C" stroke-linecap="round" stroke-linejoin="round" d="M0,0h14.95v2.3h-14.95Z" transform="translate(25.59, 64.92)"></path>
        <path fill="#FFCEBF" stroke-linecap="round" stroke-linejoin="round" d="M8.06,0.000115943l-3.01609e-07,7.10543e-15c-3.81076,1.66574e-07 -6.9,3.08924 -6.9,6.9v0.92l-4.74381e-08,8.83204e-09c-0.666526,0.124094 -1.15236,0.702063 -1.16,1.38l1.06869e-08,6.6333e-07c0.0117962,0.732172 0.571193,1.3389 1.3,1.41l-3.20259e-07,-1.91325e-06c0.629132,3.75847 4.18599,6.29531 7.94446,5.66617c3.42629,-0.573528 5.89191,-3.60489 5.75554,-7.07617v-2.3l9.52546e-10,-0.000114652c0,-3.81076 -3.08924,-6.9 -6.9,-6.9c-0.0133716,0 -0.0267432,3.88696e-05 -0.0401146,0.000116608Z" transform="translate(25, 25.2499)"></path>
        <use fill="#191816" transform="translate(31.34, 32.15)" xlink:href="#path-12"></use>
        <use fill="#191816" transform="translate(35.94, 32.15)" xlink:href="#path-12"></use>
        <path fill="#FFB59E" d="M1.55207,0.335851c0.335851,0.335851 0.335851,0.880373 0,1.21622c-0.335851,0.335851 -0.880373,0.335851 -1.21622,0c-0.335851,-0.335851 -0.335851,-0.880373 0,-1.21622c0.335851,-0.335851 0.880373,-0.335851 1.21622,0" transform="translate(28.956, 34.366)"></path>
        <path fill="none" stroke-linecap="round" stroke-linejoin="round" d="M0,1.01617e-07l1.53855e-07,1.01617e-07c1.0462,0.690991 2.4038,0.69099 3.45,-2.03235e-07" transform="translate(32.49, 37.38)"></path>
        <path opacity="0.15" fill="#191816" d="M37.3581,0.675607c8.08385,0.675607 8.08385,1.77098 0,2.44659c-8.08385,0.675607 -21.1904,0.675607 -29.2742,0c-8.08385,-0.675607 -8.08385,-1.77098 -3.55271e-15,-2.44659c8.08385,-0.675607 21.1904,-0.675607 29.2742,0" transform="translate(18.969, 84.8811)"></path>
        <path fill="#947746" stroke-linecap="round" stroke-linejoin="round" d="M5.17555,4.09v-4.09h-5.17v6.33l-1.38612e-08,1.57327e-06c-0.00554642,0.62958 0.500333,1.14445 1.12991,1.15c0.00669604,5.89901e-05 0.0133925,5.89809e-05 0.0200885,-2.77245e-08h6.9l-1.37288e-09,-1.14801e-06c-0.00201195,-1.68217 -1.22027,-3.11616 -2.88,-3.39Z" transform="translate(25.5845, 78.72)"></path>
        <path fill="#BDBEC0" stroke-linecap="round" stroke-linejoin="round" d="M6.49,1.77l-3.8601e-08,-3.23664e-08c-0.895769,-0.751091 -1.9094,-1.34913 -3,-1.77l-3.49,9l5.75,-4.6l-1.72,-1.15Z" transform="translate(33.01, 44.46)"></path>
        <path fill="#BDBEC0" stroke-linecap="round" stroke-linejoin="round" d="M3.43,1.91358e-07l6.42419e-07,-1.91358e-07c-1.23527,0.367953 -2.39627,0.950142 -3.43,1.72l3,1.86l-1.73,1.15l5.75,4.6l-3.63,-9.33Z" transform="translate(26, 44.09)"></path>
        <path fill="#FFCEBF" stroke-linecap="round" stroke-linejoin="round" d="M3.63,9.8l3.49,-9v0l-2.26282e-07,-9.21162e-08c-1.28941,-0.5249 -2.66785,-0.796515 -4.06,-0.8l6.46838e-07,-1.17974e-09c-1.03563,0.0018888 -2.0658,0.150018 -3.06,0.439999Z" transform="translate(29.43, 43.62)"></path>
        <path fill="none" stroke-linecap="round" stroke-linejoin="round" d="M0,0v11.5" transform="translate(33.06, 53.42)"></path>
        <path fill="none" stroke-linecap="round" stroke-linejoin="round" d="M0,2.3l2.88,-2.3" transform="translate(35.36, 54.57)"></path>
        <path fill="none" stroke-linecap="round" stroke-linejoin="round" d="M2.87,2.3l-2.87,-2.3" transform="translate(27.89, 54.57)"></path>
        <path fill="#00DBA8" stroke-linecap="round" stroke-linejoin="round" d="M7.42116,5.65166e-11l2.64808e-08,-5.65166e-11c-0.489382,0.00104423 -0.925467,0.309104 -1.09,0.77l-6.11,17.22l-9.29525e-08,2.50241e-07c-0.221155,0.59538 0.0822141,1.25731 0.677594,1.47847c0.305074,0.11332 0.643878,0.0920752 0.932406,-0.058468l7.07,-5l7.07,5l-1.16737e-07,-6.27443e-08c0.55944,0.30069 1.25671,0.0909312 1.5574,-0.468508c0.15757,-0.293162 0.180402,-0.640212 0.0625982,-0.951491l-6.11,-17.22l4.22077e-09,1.18233e-08c-0.164533,-0.460896 -0.600618,-0.768956 -1.09,-0.77Z" transform="translate(41.4088, 66.65)"></path>
        <path fill="#BDBEC0" stroke-linecap="round" stroke-linejoin="round" d="M2.3,0h-2.3v25.3l1.42109e-14,-1.73645e-07c-9.59016e-08,0.635127 0.514872,1.15 1.15,1.15c0,0 7.10543e-15,0 7.10543e-15,0v0l-3.32754e-08,-2.93213e-10c0.62958,0.0055474 1.14445,-0.500331 1.15,-1.12991c5.90011e-05,-0.00669609 5.90018e-05,-0.0133926 2.10304e-09,-0.0200887Z" transform="translate(49.16, 51.7)"></path>
        <use fill="#BDBEC0" transform="translate(48.01, 44.22)" xlink:href="#path-13"></use>
        <path fill="#E0E0E0" d="M2.3,0h-1.00536e-07c-1.27025,5.55246e-08 -2.3,1.02975 -2.3,2.3v2.88l2.13163e-14,3.4729e-07c-1.91803e-07,-1.27025 1.02974,-2.3 2.3,-2.3c1.27025,-1.91803e-07 2.3,1.02974 2.3,2.3c0,0 0,0 0,0v-2.88v0c0,-1.27025 -1.02975,-2.3 -2.3,-2.3Z" transform="translate(48.01, 44.22)"></path>
        <use fill="none" transform="translate(48.01, 44.22)" xlink:href="#path-13"></use>
        <use fill="none" stroke-linecap="round" stroke-linejoin="round" transform="translate(48.01, 75.85)" xlink:href="#path-14"></use>
        <use fill="none" stroke-linecap="round" stroke-linejoin="round" transform="translate(48.01, 72.97)" xlink:href="#path-14"></use>
        <use fill="#191816" transform="translate(54.91, 79.87)" xlink:href="#path-15"></use>
        <use fill="#191816" transform="translate(53.76, 77.57)" xlink:href="#path-15"></use>
        <path fill="#FFCEBF" stroke-linecap="round" stroke-linejoin="round" d="M2.0289,0.0151571l-1.05162e-08,-1.44318e-10c-1.10447,-0.0151571 -2.0121,0.867902 -2.02726,1.97237c-0.00164389,0.119787 0.00747814,0.239479 0.0272561,0.357633l-1.06166e-07,-5.5905e-07c0.188474,0.992466 1.05983,1.70807 2.07,1.7h0.77l2.35059e-08,-8.17295e-10c0.615597,-0.0214045 1.10502,-0.524052 1.11,-1.14v-1.73l-9.97015e-09,-1.15142e-06c-0.00543246,-0.627341 -0.51266,-1.13457 -1.14,-1.14Z" transform="translate(48.0211, 61.4548)"></path>
        <path fill="#656769" d="M4,2l5.53069e-08,1.79597e-10c1.81916,0.00590722 3.40522,1.2386 3.86,3l-3.80218e-08,1.41304e-07c0.0877926,-0.326271 0.134818,-0.662163 0.14,-0.999999v0c0,-2.20914 -1.79086,-4 -4,-4c-2.20914,0 -4,1.79086 -4,4l-1.39865e-07,-9.11843e-06c0.00518161,0.337836 0.0522057,0.673728 0.139998,0.999999l7.31748e-08,-2.83408e-07c0.454786,-1.7614 2.04085,-2.99409 3.86,-2.99999Z" transform="translate(73, 61)"></path>
        <use fill="none" stroke-linecap="round" stroke-linejoin="round" transform="translate(72.6095, 60.6095)" xlink:href="#path-3"></use>
        <path fill="#656769" d="M3.06,2.4088l-2.1173e-08,-5.9508e-11c1.26825,0.00356436 2.39725,0.804271 2.82,2l2.60846e-09,-7.18683e-09c0.565276,-1.55744 -0.239034,-3.27825 -1.79648,-3.84352c-1.55744,-0.565276 -3.27825,0.239034 -3.84352,1.79648c-0.24,0.661245 -0.24,1.3858 5.21693e-09,2.04705l-5.1111e-08,1.44566e-07c0.422748,-1.19573 1.55174,-1.99644 2.82,-2Z" transform="translate(73.94, 51.0912)"></path>
        <use fill="none" stroke-linecap="round" stroke-linejoin="round" transform="translate(73.7071, 51.2071)" xlink:href="#path-4"></use>
        <path fill="#656769" d="M2.0025,1.5l7.51163e-08,1.52163e-10c0.813496,0.00164788 1.54494,0.495867 1.85,1.25l3.48863e-08,-8.14945e-08c0.101417,-0.236909 0.152496,-0.492308 0.15,-0.75v0c0,-1.10457 -0.895431,-2 -2,-2c-1.10457,0 -2,0.895431 -2,2l-1.88942e-08,1.95052e-06c-0.00249606,0.257692 0.048584,0.513091 0.150001,0.75l-2.68642e-08,6.64107e-08c0.305059,-0.754134 1.0365,-1.24835 1.85,-1.25Z" transform="translate(74.9975, 44)"></path>
        <use fill="none" stroke-linecap="round" stroke-linejoin="round" transform="translate(74.8047, 43.8047)" xlink:href="#path-5"></use>
        <path fill="none" stroke-linecap="round" stroke-linejoin="round" d="M0.76,7.45003h8.91h-8.74228e-08c1.10457,4.82823e-08 2,-0.89543 2,-2c4.82823e-08,-1.10457 -0.89543,-2 -2,-2h-3.74l-2.95212e-08,4.83169e-13c-0.94993,1.60386e-05 -1.72001,-0.770041 -1.72003,-1.71997c-5.6444e-08,-0.00334304 9.63358e-06,-0.00668608 2.90699e-05,-0.0100291l2.45656e-10,-2.907e-05c0,-0.94993 -0.77007,-1.72 -1.72,-1.72c-0.00334304,0 -0.00668608,9.74647e-06 -0.0100291,2.92393e-05h-2.47997" transform="translate(55.88, 75.87)"></path>
        <path fill="#4ACFFF" stroke-linecap="round" stroke-linejoin="round" d="M5.19001,2.3h-4l-6.00824e-08,2.0911e-09c-0.634743,0.0220915 -1.16721,-0.474561 -1.1893,-1.1093c-0.000471946,-0.0135602 -0.000703868,-0.0271277 -0.000695657,-0.0406961v0l-7.30163e-09,8.5063e-07c0.00543214,-0.632864 0.517136,-1.14457 1.15,-1.15h4l2.97396e-08,2.55284e-10c0.632864,0.00543262 1.14457,0.517136 1.15,1.15v0l4.92399e-09,8.18512e-06c0.00037067,0.619829 -0.490554,1.12844 -1.11001,1.14999Z" transform="translate(25, 76.42)"></path>
        <path fill="#4ACFFF" stroke-linecap="round" stroke-linejoin="round" d="M5.15006,2.3h-4l-2.86174e-08,2.52143e-10c-0.62958,0.00554727 -1.14445,-0.500331 -1.15,-1.12991c-5.89992e-05,-0.00669604 -5.8999e-05,-0.0133925 5.04301e-10,-0.0200885v0l1.42109e-14,1.73645e-07c-9.59016e-08,-0.635127 0.514872,-1.15 1.15,-1.15c0,0 7.10543e-15,0 7.10543e-15,0h4h-5.02681e-08c0.635127,-2.77623e-08 1.15,0.514872 1.15,1.15c0,0 0,0 0,0v0l1.52081e-08,1.72615e-06c0.00554638,0.62958 -0.500333,1.14445 -1.12991,1.15c-0.006696,5.89894e-05 -0.0133924,5.898e-05 -0.0200884,-2.8215e-08Z" transform="translate(34.8499, 76.42)"></path>
        <path fill="#947746" stroke-linecap="round" stroke-linejoin="round" d="M5.18,4.09v-4.09h-5.18v6.33l2.13163e-14,-1.73645e-07c-9.59016e-08,0.635127 0.514872,1.15 1.15,1.15c0,0 7.10543e-15,0 7.10543e-15,0h6.9l-2.88127e-08,1.63882e-05c0.00295854,-1.68049 -1.21204,-3.11564 -2.86998,-3.39001Z" transform="translate(35.36, 78.72)"></path>
        <path fill="#FFCEBF" stroke-linecap="round" stroke-linejoin="round" d="M5.70476,8.46v3.78l-2.64911e-08,-3.44275e-05c0.00188235,2.43815 -1.31892,4.68545 -3.44997,5.87002l1.34831e-07,-6.56434e-08c-0.596506,0.290413 -1.1487,0.664152 -1.64,1.11l-5.94089e-09,4.37927e-09c-0.506794,0.37358 -0.614786,1.08726 -0.241206,1.59406c0.019299,0.0261808 0.0397097,0.0515238 0.0611759,0.0759592l1.09,1.34l-9.04794e-09,-1.13114e-08c0.392552,0.490754 1.10822,0.571267 1.6,0.18l0.54,-0.43l0.54,-0.3l1.63539e-07,-9.0723e-08c3.4123,-1.89296 5.52939,-5.48781 5.53,-9.39v-12.29l-3.67226e-07,2.97589e-07c-2.55115,2.06737 -4.03214,5.17635 -4.03,8.46Z" transform="translate(15.8552, 46.11)"></path>
        <path fill="#A86C4D" stroke-linecap="round" stroke-linejoin="round" d="M10.6734,10.6718l-1.76,1.48l2.28738e-08,-1.86809e-08c-0.490431,0.400533 -1.21145,0.333772 -1.62,-0.15l-2.92,-3.47l-3.702e-07,-4.483e-07c-0.811233,-0.982376 -1.44413,-2.09925 -1.87,-3.3l-1.18554e-07,-2.75862e-07c-0.509719,-1.18606 -1.22013,-2.27535 -2.1,-3.22l-1.15592e-07,-1.38507e-07c-0.403412,-0.483384 -0.338583,-1.20228 0.144802,-1.60569c0.00172859,-0.00144261 0.00346145,-0.0028801 0.00519856,-0.00431244v0l1.28527e-07,-1.0659e-07c0.484536,-0.401835 1.2021,-0.339438 1.61,0.14l-1.81929e-07,-2.39617e-07c0.7801,1.02746 1.73053,1.91362 2.81,2.62l3.19384e-07,1.82424e-07c1.10806,0.632899 2.09914,1.45147 2.93,2.42l2.91,3.48l-1.95606e-08,-2.35862e-08c0.401836,0.484535 0.33944,1.2021 -0.139999,1.61Z" transform="translate(12.7766, 58.2582)"></path>
        <path fill="#FFCEBF" stroke-linecap="round" stroke-linejoin="round" d="M3.78219,3.71813l7.31565e-08,-5.70904e-08c0.870792,-0.679555 1.02582,-1.93636 0.346265,-2.80715c-0.0740156,-0.0948446 -0.156438,-0.182817 -0.246265,-0.262848l8.67852e-08,7.25058e-08c-0.775775,-0.648131 -1.90422,-0.648131 -2.68,-1.73883e-07l-0.6,0.48l4.95994e-08,-3.74533e-08c-0.502447,0.379406 -0.602192,1.09429 -0.222786,1.59674c0.0137266,0.0181781 0.0279949,0.0359408 0.0427858,0.053264l1.09,1.34l-9.04794e-09,-1.13114e-08c0.392552,0.490754 1.10822,0.571267 1.6,0.18Z" transform="translate(15.8678, 64.2219)"></path>
    </g>
</svg>