<?xml version="1.0" encoding="UTF-8"?>
<svg version="1.1" viewBox="0 0 100 112" xmlns="http://www.w3.org/2000/svg" xmlns:xlink="http://www.w3.org/1999/xlink">
    <!--Generated by IJSVG (https://github.com/curthard89/IJSVG)-->
    <defs>
        <path id="path-5" d="M9.77,32.2c3.89,0 8.62,-3.61 8.62,-5.75c0,-2.14 -1.12,-4.74 -1.12,-6.9c0,-2.16 2.29,-3.76 2.29,-6.33c0,-2.57 -1.74,-3.32 -1.74,-5.17v0c0,-4.44589 -3.60411,-8.05 -8.05,-8.05c-4.44589,0 -8.05,3.60411 -8.05,8.05c0,1.85 -1.72,2.61 -1.72,5.17c0,2.56 2.27,4.17 2.27,6.33c0,2.16 -1.14,4.76 -1.14,6.9c0,2.14 4.75,5.75 8.64,5.75Z"></path>
        <path id="path-4" d="M1.24,0.476756l7.75,-0.46l-1.37345e-08,7.19261e-10c0.319965,-0.0167561 0.628584,0.120821 0.83,0.37l1.68,2.13h-11.5l0.32,-1.28l-4.73748e-08,1.92738e-07c0.105349,-0.428599 0.47922,-0.737449 0.92,-0.76Z"></path>
        <path id="path-1" d="M0,0h2.5"></path>
        <path id="path-6" d="M1.55207,0.335851c0.335851,0.335851 0.335851,0.880373 0,1.21622c-0.335851,0.335851 -0.880373,0.335851 -1.21622,0c-0.335851,-0.335851 -0.335851,-0.880373 0,-1.21622c0.335851,-0.335851 0.880373,-0.335851 1.21622,0"></path>
        <path id="path-3" d="M0.0994851,13.3024l-4.6502e-08,2.5393e-07c-0.099485,0.543251 0.260258,1.06429 0.803509,1.16378c0.0648029,0.0118673 0.13062,0.0173017 0.196492,0.016224h4.39l4.11641e-08,-1.73344e-10c0.26234,-0.00110463 0.513739,-0.105256 0.7,-0.29l0.42,-0.42l-1.10863e-08,1.09961e-08c0.186261,-0.184744 0.43766,-0.288895 0.7,-0.29h8.18l4.11641e-08,1.73344e-10c0.26234,0.00110463 0.513739,0.105256 0.7,0.29l0.42,0.42l-1.10863e-08,-1.09961e-08c0.186261,0.184744 0.43766,0.288895 0.7,0.29h14.89l3.63622e-08,3.52003e-11c0.409804,0.0003967 0.778373,-0.249279 0.93,-0.63l1.25,-3.11l5.89716e-08,-1.48075e-07c0.3019,-0.75806 1.03404,-1.25671 1.85,-1.26h3.3l-1.09478e-07,-4.41759e-10c0.815958,0.00329237 1.5481,0.50194 1.85,1.26l1.25,3.11l-2.67084e-08,-6.70622e-08c0.151627,0.380721 0.520196,0.630397 0.93,0.63h2.46l1.07452e-08,1.21474e-10c0.498643,0.00563717 0.925231,-0.356962 1,-0.85l0.67,-4.32l7.22525e-08,-5.54586e-07c0.105286,-0.808143 -0.290314,-1.59934 -1,-2l-1.31,-0.83l-0.12,-0.5l3.7796e-08,1.52881e-07c-0.220585,-0.892245 -1.02089,-1.51929 -1.94,-1.52h-11.44l-1.76,-2.63l-2.23476e-08,-3.35573e-08c-0.771377,-1.1583 -2.08934,-1.83243 -3.48,-1.78l-4.29,0.16l1.70778e-06,-7.02086e-08c-4.26522,0.175347 -8.44435,1.25592 -12.26,3.17l-2.21001,1.1l-3,0.94l3.56953e-07,-1.09907e-07c-2.12694,0.654889 -3.71668,2.43324 -4.13,4.62Z"></path>
        <path id="path-7" d="M16.17,5.75001l1.19395e-07,-7.61068e-06c0.0337147,-2.14916 -0.79882,-4.22148 -2.31001,-5.75h-11.48l-6.90709e-07,6.98631e-07c-1.51118,1.52852 -2.34372,3.60084 -2.31,5.75001l7.39051e-08,-6.10243e-06c-0.0023649,0.195291 -0.0258341,0.389754 -0.0699987,0.58h16.24l-6.39322e-08,-2.75396e-07c-0.0441645,-0.190244 -0.0676342,-0.384705 -0.0699999,-0.579994Z"></path>
        <path id="path-8" d="M0,0h1.72"></path>
        <path id="path-9" d="M20.7,10.35v0c-7.10543e-15,-5.71615 -4.63385,-10.35 -10.35,-10.35c-5.71615,7.10543e-15 -10.35,4.63385 -10.35,10.35v8h20.7Z"></path>
        <path id="path-2" d="M7.21895,1.5621c1.5621,1.5621 1.5621,4.09476 0,5.65685c-1.5621,1.5621 -4.09476,1.5621 -5.65685,0c-1.5621,-1.5621 -1.5621,-4.09476 0,-5.65685c1.5621,-1.5621 4.09476,-1.5621 5.65685,0"></path>
    </defs>
    <g fill="#E8F4FA">
        <path d="M80,39.9963l1.75431e-07,0.00374627c-1.42109e-14,-22.0914 -17.9086,-40 -40,-40c-22.0914,7.10543e-15 -40,17.9086 -40,40c0,5.68809 1.21314,11.3108 3.55846,16.4928h72.8815l6.1272e-07,-1.35057e-06c2.35079,-5.18164 3.56467,-10.8066 3.56,-16.4966Z" transform="translate(10, 16.0037)"></path>
        <path fill="#FFFFFF" d="M2.10036e-06,4.63966e-06l-2.10036e-06,-4.63966e-06c9.11063,20.1253 32.811,29.0544 52.9363,19.9438c8.84893,-4.00588 15.9379,-11.0948 19.9437,-19.9437Z" transform="translate(13.56, 72.5)"></path>
        <path fill="none" stroke="#191816" stroke-linecap="round" stroke-linejoin="round" stroke-width="1" d="M0,0h78" transform="translate(11, 72.5)"></path>
        <use fill="none" stroke="#191816" stroke-linecap="round" stroke-linejoin="round" stroke-width="1" transform="translate(6.5, 72.5)" xlink:href="#path-1"></use>
        <use fill="none" stroke="#191816" stroke-linecap="round" stroke-linejoin="round" stroke-width="1" transform="translate(91, 72.5)" xlink:href="#path-1"></use>
    </g>
    <g stroke-linecap="round" stroke-linejoin="round" stroke-width="1">
        <use fill="#525252" stroke="#191816" transform="translate(43.1095, 64.1095)" xlink:href="#path-2"></use>
        <use fill="#525252" stroke="#191816" transform="translate(69.6095, 64.1095)" xlink:href="#path-2"></use>
        <path fill="#FFFFFF" stroke="#191816" d="M4.51184,0.976311c0.976311,0.976311 0.976311,2.55922 0,3.53553c-0.976311,0.976311 -2.55922,0.976311 -3.53553,0c-0.976311,-0.976311 -0.976311,-2.55922 0,-3.53553c0.976311,-0.976311 2.55922,-0.976311 3.53553,0" transform="translate(44.7559, 65.7559)"></path>
        <path fill="#FFFFFF" stroke="#191816" d="M3.60948,0.781049c0.781049,0.781049 0.781049,2.04738 0,2.82843c-0.781049,0.781049 -2.04738,0.781049 -2.82843,0c-0.781049,-0.781049 -0.781049,-2.04738 0,-2.82843c0.781049,-0.781049 2.04738,-0.781049 2.82843,0" transform="translate(71.8047, 66.3047)"></path>
        <use fill="#FF6242" transform="translate(36.1205, 56.0176)" xlink:href="#path-3"></use>
        <path fill="#FF866E" d="M42.43,2.1l5.33777e-09,1.5978e-08c-0.119816,-0.358657 -0.462158,-0.595036 -0.84,-0.58l-18.51,0.45l1.31249e-07,-3.75384e-09c-0.69636,0.0199165 -1.35854,0.306262 -1.85,0.8v0l1.23241e-07,-1.2258e-07c-0.473509,0.470969 -1.10323,0.752032 -1.77,0.79l-16,0.86l1.58356e-07,-8.73622e-09c-0.942677,0.052006 -1.80588,0.544735 -2.33,1.33l-1.13,0.25l1.17,-1.75l1.70986e-07,-2.5618e-07c0.524122,-0.785265 1.38732,-1.27799 2.33,-1.33l16,-0.86l-3.6273e-08,2.06552e-09c0.666769,-0.0379682 1.29649,-0.319031 1.77,-0.79v0l-4.74003e-08,4.69397e-08c0.494325,-0.489521 1.15475,-0.775111 1.85,-0.8l19.38,-0.47Z" transform="translate(39, 62.5)"></path>
        <path fill="#FF866E" d="M47.4033,10.5224l3.61735e-08,7.37137e-08c-0.168667,-0.343707 -0.432445,-0.63178 -0.76,-0.83l-0.92,-0.56l-6.42077e-08,-3.7643e-08c-0.276103,-0.16187 -0.474609,-0.428952 -0.55,-0.74v0l4.75516e-08,1.88173e-07c-0.224468,-0.888274 -1.0238,-1.51044 -1.94,-1.51h-11.44l-1.76,-2.64l-2.23476e-08,-3.35573e-08c-0.771377,-1.1583 -2.08934,-1.83243 -3.48,-1.78l-4.29,0.17l1.36714e-06,-5.15634e-08c-4.26377,0.160813 -8.44387,1.23141 -12.26,3.14l-2.21,1.11l-3,0.93l1.85736e-07,-5.72593e-08c-2.1297,0.656551 -3.72004,2.43942 -4.13,4.63l-0.32,1.72l2.97846e-08,2.89257e-08c-0.234927,-0.228153 -0.343257,-0.556877 -0.29,-0.88l0.61,-3.26l-9.95563e-08,5.31968e-07c0.40996,-2.19058 2.0003,-3.97345 4.13,-4.63l3,-0.93l2.21,-1.1l-1.57931e-06,7.89055e-07c3.81719,-1.90714 7.99625,-2.98088 12.26,-3.15l4.29,-0.16l-6.61531e-08,2.49418e-09c1.39066,-0.0524323 2.70862,0.621697 3.48,1.78l1.76001,2.63h11.44l7.14148e-08,-1.25247e-10c0.913302,-0.00160169 1.71168,0.615697 1.94,1.5l0.12,0.48l1.35,0.81l8.92447e-08,5.03835e-08c0.709686,0.400657 1.10529,1.19186 1,2Z" transform="translate(36.2067, 56.0376)"></path>
        <use fill="none" stroke="#191816" transform="translate(36.1205, 56.0176)" xlink:href="#path-3"></use>
        <path fill="none" stroke="#191816" d="M42.5,0l-19.42,0.5l4.70482e-08,-1.68425e-09c-0.695248,0.0248887 -1.35567,0.310479 -1.85,0.8v0l1.23241e-07,-1.2258e-07c-0.473509,0.470969 -1.10323,0.752032 -1.77,0.79l-16,0.86l1.58356e-07,-8.73622e-09c-0.942677,0.052006 -1.80588,0.544735 -2.33,1.33l-1.13,1.72" transform="translate(39, 62.5)"></path>
        <use fill="#00B8F0" transform="translate(54.5, 57.9832)" xlink:href="#path-4"></use>
        <path fill="#4ACFFF" d="M0,0.276756l4.23,-0.26l-1.37345e-08,7.19261e-10c0.319965,-0.0167561 0.628584,0.120821 0.83,0.37l1.68,2.13h-4.5Z" transform="translate(59.26, 57.9832)"></path>
        <use fill="none" stroke="#191816" transform="translate(54.5, 57.9832)" xlink:href="#path-4"></use>
        <path fill="#00B8F0" stroke="#191816" d="M5.5,0l-0.5,2h-5c0,0 3.61,-2 5.5,-2Z" transform="translate(48, 58.5)"></path>
        <path fill="#87898C" stroke="#191816" d="M0.267563,1.62l-1.82605e-09,-7.92717e-09c0.0514457,0.223332 0.250822,0.381172 0.48,0.38h3.11h-4.37114e-08c0.552285,2.41411e-08 1,-0.447715 1,-1v0v0c0,-0.552285 -0.447715,-1 -1,-1h-3.36l-7.92255e-09,8.52367e-11c-0.276126,0.0029709 -0.497563,0.229224 -0.494592,0.50535c0.000415866,0.0386521 0.0053125,0.0771256 0.0145918,0.11465Z" transform="translate(80.1424, 67.5)"></path>
        <path fill="#87898C" stroke="#191816" d="M1,2h3.61l-2.17814e-08,-1.11356e-10c0.229178,0.00117167 0.428554,-0.156668 0.48,-0.38l0.25,-1l-9.23583e-09,3.73483e-08c0.0662902,-0.268068 -0.0972827,-0.539118 -0.36535,-0.605408c-0.037524,-0.00927928 -0.0759975,-0.0141759 -0.11465,-0.0145918h-3.86h-4.37114e-08c-0.552285,2.41411e-08 -1,0.447715 -1,1c0,0 0,0 0,0v0l1.42109e-14,8.56447e-08c8.33927e-08,0.552285 0.447715,1 1,1Z" transform="translate(34.5, 67.5)"></path>
        <path fill="none" stroke="#191816" d="M0,0l1.5,2.5l-1.5,7.5" transform="translate(66, 60.5)"></path>
        <path fill="none" stroke="#191816" d="M0,0v10" transform="translate(54.5, 60.5)"></path>
        <use fill="#724F3D" transform="translate(28.73, 22.95)" xlink:href="#path-5"></use>
        <use fill="none" stroke="#191816" transform="translate(28.73, 22.95)" xlink:href="#path-5"></use>
        <path fill="#FFCEBF" stroke="#191816" d="M16.2178,9.2l6.53574e-09,6.57807e-07c-0.0067047,-0.674828 -0.487443,-1.25171 -1.15,-1.38v-0.92v0c0,-3.81076 -3.08924,-6.9 -6.9,-6.9c-3.81076,0 -6.9,3.08924 -6.9,6.9v0.92l-5.66359e-08,1.07343e-08c-0.765101,0.145011 -1.26778,0.882803 -1.12277,1.6479c0.117615,0.620557 0.633558,1.08719 1.26277,1.1421l5.04835e-08,2.38323e-07c0.790848,3.73344 4.45851,6.11889 8.19196,5.32804c2.67329,-0.566277 4.76177,-2.65475 5.32804,-5.32804l2.3577e-08,-2.31838e-09c0.727036,-0.0714914 1.28329,-0.679488 1.29,-1.41Z" transform="translate(30.3322, 25.25)"></path>
        <path fill="#191816" d="M0.885378,0.00549145l-3.67995e-08,-4.20606e-10c-0.480456,-0.00549145 -0.874395,0.379544 -0.879886,0.86c-0.00549145,0.480456 0.379544,0.874395 0.86,0.879886c0.480456,0.00549145 0.874395,-0.379544 0.879886,-0.86c7.57622e-05,-0.00662857 7.57619e-05,-0.0132578 -8.68312e-10,-0.0198864l3.94836e-08,3.45508e-06c-0.00540104,-0.472709 -0.387288,-0.854599 -0.859997,-0.860003Z" transform="translate(35.0246, 32.1445)"></path>
        <path fill="#191816" d="M0.851068,0.00999995l4.64635e-08,-2.14971e-09c-0.479974,0.0222068 -0.851068,0.429305 -0.828861,0.909279c0.0222068,0.479974 0.429305,0.851068 0.909279,0.828861c0.471744,-0.021826 0.839934,-0.416006 0.829582,-0.888141v0c0,-0.474965 -0.385035,-0.86 -0.86,-0.86Z" transform="translate(40.2389, 32.14)"></path>
        <use fill="#FFB59E" transform="translate(33.816, 34.366)" xlink:href="#path-6"></use>
        <use fill="#FFB59E" transform="translate(41.296, 34.366)" xlink:href="#path-6"></use>
        <path fill="none" stroke="#191816" d="M0,1.64475e-07l2.5027e-07,1.64475e-07c1.0501,0.690115 2.4099,0.690115 3.46,-3.2895e-07" transform="translate(36.77, 37.38)"></path>
        <use fill="#FF6242" transform="translate(30.38, 25.25)" xlink:href="#path-7"></use>
        <path fill="#FF866E" d="M14.64,2.3l1.66465e-07,3.77001e-07c-0.378979,-0.858293 -0.91482,-1.63831 -1.58,-2.3h-11.48l-6.59809e-07,6.56343e-07c-0.66518,0.661686 -1.20102,1.44171 -1.58,2.3Z" transform="translate(31.18, 25.25)"></path>
        <path fill="none" stroke="#FFFFFF" d="M11.46,1.79818e-08l-1.4,2.34l-1.75778e-08,3.05749e-08c-0.154149,0.268127 -0.496471,0.360524 -0.764597,0.206375c-0.0191695,-0.0110207 -0.0376694,-0.0231671 -0.0554026,-0.0363755l-3.19,-2.27l1.69777e-08,1.2055e-08c-0.197624,-0.140323 -0.462375,-0.140323 -0.66,-3.78454e-08l-3.17,2.27l-1.66345e-08,1.239e-08c-0.248037,0.184747 -0.598878,0.13344 -0.783625,-0.114597c-0.0132083,-0.0177332 -0.0253547,-0.0362331 -0.0363754,-0.0554026l-1.4,-2.34" transform="translate(32.78, 25.25)"></path>
        <use fill="none" stroke="#FFFFFF" transform="translate(30.45, 29.85)" xlink:href="#path-8"></use>
        <path fill="none" stroke="#FFFFFF" d="M0,0h1.73" transform="translate(44.82, 29.85)"></path>
        <use fill="none" stroke="#FFFFFF" transform="translate(37.35, 29.85)" xlink:href="#path-8"></use>
        <use fill="none" stroke="#191816" transform="translate(30.38, 25.25)" xlink:href="#path-7"></use>
        <path opacity="0.15" fill="#191816" d="M20.7545,0.675607c4.49103,0.675607 4.49103,1.77098 0,2.44659c-4.49103,0.675607 -11.7724,0.675607 -16.2635,0c-4.49103,-0.675607 -4.49103,-1.77098 0,-2.44659c4.49103,-0.675607 11.7724,-0.675607 16.2635,0" transform="translate(25.8772, 84.8711)"></path>
        <path fill="#FFCEBF" d="M0,0l2.31,21.28h8.04l2.31,-21.28h-12.66Z" transform="translate(32.17, 64.92)"></path>
        <path fill="#656769" d="M0,0v2.87v0l1.62,14.96h9.42l1.62,-14.96v0v-2.87h-12.66Z" transform="translate(32.17, 62.05)"></path>
        <path fill="none" stroke="#FFFFFF" d="M2.87,0h-2.87" transform="translate(32.18, 63.77)"></path>
        <path fill="none" stroke="#FFFFFF" d="M2.88,0h-2.88" transform="translate(41.95, 63.77)"></path>
        <path fill="none" stroke="#FFFFFF" d="M0,0h2.3" transform="translate(37.35, 63.77)"></path>
        <path fill="none" stroke="#191816" d="M0,0v2.87v0l2.31,21.28h8.04l2.31,-21.28v0v-2.87h-12.66Z" transform="translate(32.17, 62.05)"></path>
        <path fill="none" stroke="#191816" d="M0,0v18.97" transform="translate(38.5, 67.23)"></path>
        <path fill="none" stroke="#191816" d="M0,0h9.42" transform="translate(33.79, 79.88)"></path>
        <use fill="#8CFFE4" transform="translate(28.15, 43.65)" xlink:href="#path-9"></use>
        <use fill="none" stroke="#191816" transform="translate(28.15, 43.65)" xlink:href="#path-9"></use>
        <path fill="#525252" stroke="#191816" d="M6,4.66l-2.27164e-08,-2.37179e-11c0.635127,0.00066335 1.15054,-0.513671 1.1512,-1.1488c0.000209221,-0.20032 -0.0519114,-0.39722 -0.1512,-0.571202c-1.69,-2.94 -7,-2 -7,1.72Z" transform="translate(38.52, 81.54)"></path>
        <path fill="#525252" stroke="#191816" d="M7.32041,4.64c0,-3.81 -5.33,-4.64 -7,-1.72l-4.59111e-08,7.76594e-08c-0.320409,0.541978 -0.140793,1.24108 0.401185,1.56149c0.181149,0.107093 0.388406,0.161955 0.598816,0.15851Z" transform="translate(31.1796, 81.56)"></path>
        <path fill="#FFCEBF" stroke="#191816" d="M4,1v13.09v0c0,1.10457 -0.895431,2 -2,2c-1.10457,0 -2,-0.895431 -2,-2v-14.09h3.82l-5.1323e-08,-1.5012e-07c0.110195,0.322321 0.170884,0.659485 0.18,1Z" transform="translate(28.18, 54)"></path>
        <path fill="#FFCEBF" stroke="#191816" d="M4.00073,6.15954e-06v14.09v0c0,1.10457 -0.895431,2 -2,2c-1.10457,0 -2,-0.895431 -2,-2v-13.09l-1.39078e-08,-6.44737e-06c-0.000730925,-0.338992 0.0498423,-0.676142 0.150002,-1Z" transform="translate(44.8493, 54)"></path>
        <path fill="none" stroke="#191816" d="M1.01355,2.88l-2.99271e-09,-1.00061e-08c-0.107093,-0.358065 -0.27266,-0.695956 -0.49,-1l-1.66881e-07,-2.72035e-07c-0.346536,-0.564893 -0.523552,-1.21742 -0.51,-1.88" transform="translate(30.9864, 51.12)"></path>
        <path fill="none" stroke="#191816" d="M0,2.88l1.20719e-07,-4.03624e-07c0.107093,-0.358065 0.27266,-0.695956 0.49,-1l9.44034e-08,-1.53888e-07c0.346536,-0.564893 0.523552,-1.21742 0.51,-1.88" transform="translate(45, 51.12)"></path>
        <path fill="#FFCEBF" stroke="#191816" d="M4.55,5.53262l2.34268e-07,-8.10317e-10c2.34694,-0.00811793 4.30969,-1.78539 4.55,-4.12l3.07132e-07,1.51231e-07c-2.86887,-1.41262 -6.23113,-1.41262 -9.1,-3.02461e-07l-1.10432e-07,-1.07288e-06c0.240305,2.33461 2.20306,4.11188 4.55,4.12Z" transform="translate(33.95, 43.2974)"></path>
    </g>
</svg>