<?xml version="1.0" encoding="UTF-8"?><svg version="1.1" viewBox="0 0 100 112" xmlns="http://www.w3.org/2000/svg" xmlns:xlink="http://www.w3.org/1999/xlink"><!--Generated by IJSVG (https://github.com/curthard89/IJSVG)--><defs><path id="path-7" d="M3,1.21441l1.5721e-08,3.69681e-08c-0.352295,-0.828427 -1.30946,-1.21441 -2.13789,-0.862113c-0.388072,0.165031 -0.697082,0.474041 -0.862113,0.862113"></path><path id="path-5" d="M1.85,7.24234e-08h1.15h-1.31134e-07c1.65685,-7.24234e-08 3,1.34315 3,3v1.5v0c0,1.65685 -1.34315,3 -3,3h-1.15h-8.08661e-08c-1.02173,-4.46611e-08 -1.85,-0.828273 -1.85,-1.85v-3.8l7.10543e-15,-6.7342e-08c1.54276e-07,-1.02173 0.828273,-1.85 1.85,-1.85Z"></path><path id="path-4" d="M30.6226,15.5006h-29l-1.49,-13.26l-5.8917e-09,-4.8732e-08c-0.132577,-1.09658 0.648905,-2.09302 1.74549,-2.22559c0.0844443,-0.0102093 0.169454,-0.0150212 0.254511,-0.0144063h28l-6.82949e-08,-1.25993e-10c0.569396,0.00105045 1.11135,0.244748 1.49,0.67l7.42596e-08,8.36062e-08c0.380912,0.428855 0.559359,1.00061 0.49,1.57Z"></path><path id="path-8" d="M11.5,0c-10.17,0 -11.5,7.82 -11.5,11.66v3.25l-1.63919e-08,-1.46221e-06c0.00619052,0.55225 0.458896,0.994919 1.01115,0.988728c0.239063,-0.00267981 0.469255,-0.0909197 0.648853,-0.248726c2.35,-2.08 6.13,-4.13 9.84,-4.14c3.71,-0.01 7.49,2.06 9.84,4.14l2.99626e-08,2.63271e-08c0.414882,0.364543 1.04673,0.323734 1.41127,-0.0911476c0.157806,-0.179598 0.246047,-0.40979 0.248727,-0.648852v-3.24c1.09805e-06,-3.84 -1.32,-11.67 -11.5,-11.67Z"></path><path id="path-1" d="M0,0h2.5"></path><path id="path-2" d="M31.34,4.43l-1.28804e-09,-4.68987e-10c-0.518955,-0.188955 -0.786473,-0.762829 -0.597518,-1.28178c0.0351166,-0.096446 0.0848722,-0.186911 0.147518,-0.268215l0.53,-0.7c0.74,-1 0.6,-2.18 -0.9,-2.18h-8.71c-1.5,0 -1.65,1.17 -0.9,2.18c0.16,0.23 0.34,0.47 0.52,0.7l2.24601e-08,2.91496e-08c0.337086,0.437483 0.255698,1.0654 -0.181785,1.40248c-0.0813047,0.0626463 -0.171769,0.112402 -0.268215,0.147518l1.28877e-06,-4.77352e-07c-5.88554,2.17997 -9.79162,7.7937 -9.79,14.07v4.49l9.5463e-08,-1.00961e-06c-0.13518,1.42966 -1.34407,2.51678 -2.78,2.5l-1.02312e-07,-2.06029e-10c-0.756658,-0.0015237 -1.47259,-0.342966 -1.95,-0.93l-2.41,-2.94l0.39,2.62l3.9208e-09,4.53654e-08c0.042326,0.489731 -0.303771,0.927828 -0.79,1c-0.41,0.06 -3.27,0.52 -3.65,0.48l3,3l-2.74993e-07,-2.75352e-07c1.41979,1.42164 3.32253,2.25699 5.33,2.34c4.4,0.19 8.07,-3.29 8.35,-8.23v3.6h24.5v-8l4.03678e-08,7.15486e-06c-0.0353367,-6.26339 -3.95873,-11.8455 -9.83999,-14Z"></path><path id="path-3" d="M1.4,15.08c-0.773192,0 -1.4,-0.626808 -1.4,-1.4v-12.28c0,-0.773192 0.626808,-1.4 1.4,-1.4h8.04c0.773192,0 1.4,0.626808 1.4,1.4v12.28c0,0.773192 -0.626808,1.4 -1.4,1.4Z"></path><path id="path-6" d="M2.25592,0.488155c0.488155,0.488155 0.488155,1.27961 0,1.76777c-0.488155,0.488155 -1.27961,0.488155 -1.76777,0c-0.488155,-0.488155 -0.488155,-1.27961 0,-1.76777c0.488155,-0.488155 1.27961,-0.488155 1.76777,0"></path></defs><g fill="#FFFFFF"><path d="M34.61,20l1.38183e-06,6.55689e-10c14.2974,0.00678407 27.5113,-7.61808 34.66,-20h-69.27l-1.66043e-06,-2.87595e-06c7.13977,12.3665 20.3305,19.9889 34.61,20Z" transform="translate(15.73, 76)"></path><path d="M0,0c0.54,1.2 1.17,2.36 1.82,3.5h69.27c0.66,-1.14 1.28,-2.3 1.83,-3.5Z" transform="translate(13.91, 72.51)"></path><path fill="#E8F4FA" d="M80.0028,40.0291l-5.74494e-07,0.00121431c0.0107868,-22.0914 -17.8891,-40.0087 -39.9805,-40.0195c-22.0914,-0.0107868 -40.0087,17.8891 -40.0195,39.9805c-0.00278501,5.70369 1.21426,11.342 3.56949,16.5367h72.8705l1.32545e-06,-2.92284e-06c2.35022,-5.18265 3.56407,-10.8083 3.56,-16.4989Z" transform="translate(10.3372, 15.9709)"></path><path fill="none" stroke="#191816" stroke-linecap="round" stroke-linejoin="round" stroke-width="1" d="M0,0h78" transform="translate(11.34, 72.51)"></path><use fill="none" stroke="#191816" stroke-linecap="round" stroke-linejoin="round" stroke-width="1" transform="translate(6.84, 72.51)" xlink:href="#path-1"></use><use fill="none" stroke="#191816" stroke-linecap="round" stroke-linejoin="round" stroke-width="1" transform="translate(91.34, 72.51)" xlink:href="#path-1"></use><path fill="none" stroke="#191816" stroke-linejoin="round" stroke-width="1" d="M0,0h77.98" transform="translate(11.34, 72.51)"></path><path fill="none" stroke="#191816" stroke-linecap="round" stroke-linejoin="round" stroke-width="1" d="M0,0h77" transform="translate(11.84, 72.51)"></path></g><g fill="#F0F0F0"><use transform="translate(24.19, 46.01)" xlink:href="#path-2"></use><path fill="#FFFFFF" d="M14.9516,7.50006l-6.55671e-07,7.10543e-15c8.28427,-3.62117e-07 15,6.71573 15,15v-4l1.0107e-09,-0.00017413c0,-6.27884 -3.91066,-11.8933 -9.80016,-14.0699l-1.28804e-09,-4.68987e-10c-0.518955,-0.188955 -0.786473,-0.762829 -0.597518,-1.28178c0.0351166,-0.096446 0.0848722,-0.186911 0.147518,-0.268215l0.53,-0.7c0.74,-1 0.6,-2.18 -0.9,-2.18h-8.70984c-1.5,0 -1.65,1.17 -0.9,2.18c0.16,0.23 0.34,0.47 0.52,0.7l2.24601e-08,2.91496e-08c0.337086,0.437483 0.255698,1.0654 -0.181785,1.40248c-0.0813047,0.0626463 -0.171769,0.112402 -0.268215,0.147518l1.28877e-06,-4.77352e-07c-5.88554,2.17997 -9.79162,7.7937 -9.79,14.07v4l-1.39977e-11,-1.8355e-05c-1.24794e-06,-8.26476 6.6853,-14.9724 14.95,-14.9999Z" transform="translate(35.3784, 46.0099)"></path><use fill="none" stroke="#191816" stroke-linecap="round" stroke-linejoin="round" stroke-width="1" transform="translate(24.19, 46.01)" xlink:href="#path-2"></use><path fill="none" stroke="#191816" stroke-linecap="round" stroke-linejoin="round" stroke-width="1" d="M2.31,14.51v-4.51c0,-3 -2.31,-4 -0.89,-7.52c0.3,-0.73 0.64,-1.65 0.89,-2.48" transform="translate(38.52, 58)"></path><path fill="none" stroke="#191816" stroke-linecap="round" stroke-linejoin="round" stroke-width="1" d="M0,14.51v-4.51c0,-3 2.3,-4 0.88,-7.52c-0.3,-0.73 -0.63,-1.65 -0.88,-2.48" transform="translate(59.83, 58)"></path><g transform="translate(-11.75, 6.6)"><g fill="#656769" transform="rotate(-10.57)"><use transform="translate(24.39, 59.27)" xlink:href="#path-3"></use></g></g><path fill="#87898C" d="M0.259925,3.86847l-1.3282e-07,9.29877e-08c0.168143,-0.117717 0.358795,-0.199425 0.56,-0.24l9.49,-1.77l-4.07733e-08,9.29309e-09c0.197468,-0.0450071 0.402532,-0.0450071 0.6,-1.85862e-08l-0.12,-0.6l1.99851e-08,1.11551e-07c-0.135379,-0.755644 -0.857697,-1.25847 -1.61334,-1.12309c-0.00555913,0.000995958 -0.0111121,0.00202579 -0.0166587,0.00308943l-7.9,1.47l-2.82576e-08,5.27294e-09c-0.758886,0.14161 -1.25993,0.870801 -1.12,1.63Z" transform="translate(23.2101, 58.5215)"></path><g transform="translate(-11.75, 6.6)"><g fill="none" stroke="#191816" stroke-linecap="round" stroke-linejoin="round" stroke-width="1" transform="rotate(-10.57)"><use transform="translate(24.39, 59.27)" xlink:href="#path-3"></use></g></g><path fill="#FFFFFF" stroke="#191816" stroke-linecap="round" stroke-linejoin="round" stroke-width="1" d="M2.4705,1.11802l1.25843e-08,8.25624e-08c0.0998631,0.655175 -0.350306,1.26725 -1.00548,1.36712c-0.655175,0.0998631 -1.26725,-0.350306 -1.36712,-1.00548c-0.097907,-0.642341 0.333224,-1.24592 0.972598,-1.36164l-1.71092e-10,3.09583e-11c0.652148,-0.118024 1.2765,0.314969 1.39452,0.967117c0.001979,0.0109351 0.003806,0.0218971 0.00548048,0.0328829Z" transform="translate(28.0395, 63.432)"></path><path fill="none" stroke="#191816" stroke-linecap="round" stroke-linejoin="round" stroke-width="1" d="M0,0.32l1.53,-0.32" transform="translate(25.28, 61.63)"></path><path fill="none" stroke="#191816" stroke-linecap="round" stroke-linejoin="round" stroke-width="1" d="M16.49,7.74h-2.47l2.75733e-09,7.46212e-11c-0.817082,-0.0221121 -1.49738,0.622339 -1.5195,1.43942c-0.000456152,0.0168556 -0.000624214,0.0337178 -0.000504112,0.0505792v0l-3.4899e-10,3.24491e-05c-1.27003e-07,0.841106 0.678945,1.52449 1.52003,1.52997h2.73h-7.64949e-08c0.966498,-4.2247e-08 1.75,0.783502 1.75,1.75v0l-2.36214e-09,1.03974e-07c-0.0216396,0.952504 -0.797297,1.71485 -1.75003,1.72h-14.25h-1.09278e-07c-1.38071,-6.03528e-08 -2.5,-1.11929 -2.5,-2.5c0,0 0,0 0,0v0l2.4869e-14,3.77489e-07c-2.08482e-07,-1.38071 1.11929,-2.5 2.5,-2.5c4.91,0 3.52,-3.85 1.36,-9.23" transform="translate(29.67, 73.77)"></path><path opacity="0.15" fill="#191816" d="M33,1.5c0,0.83 -7.29,1.5 -17.5,1.5c-10.21,0 -15.5,-0.67 -15.5,-1.5c0,-0.83 5.28,-1.5 15.5,-1.5c10.22,0 17.5,0.68 17.5,1.5Z" transform="translate(44.18, 83.5)"></path><path fill="#8CA4B8" stroke="#191816" stroke-linejoin="round" stroke-width="1" d="M4.82823e-08,0.0100001h29v0.49v0c0,1.10457 -0.895431,2 -2,2h-25h-8.74228e-08c-1.10457,-4.82823e-08 -2,-0.895431 -2,-2c0,0 0,0 0,0v-0.5Z" transform="translate(46.16, 81.5)"></path><use fill="#ADC4D9" transform="translate(44.5574, 66.0094)" xlink:href="#path-4"></use><path fill="#C0DCEB" d="M0.245021,4.19799l-1.14338e-08,3.52981e-08c0.0597242,-0.184379 0.151088,-0.356955 0.27,-0.51l-2.20586e-07,2.47737e-07c0.380965,-0.427858 0.927118,-0.671806 1.5,-0.67h28l-6.82949e-08,-1.25993e-10c0.569396,0.00105045 1.11135,0.244748 1.49,0.67l-1.08836e-08,-1.43745e-08c0.117693,0.155443 0.212024,0.32726 0.28,0.51l0.21,-1.94l4.82846e-08,-3.96378e-07c0.0693593,-0.569386 -0.109088,-1.14115 -0.49,-1.57l5.6061e-09,6.38167e-09c-0.376831,-0.428962 -0.919037,-0.676412 -1.49,-0.679999h-28l-9.15984e-08,-6.62197e-10c-1.10454,-0.00798518 -2.00642,0.880949 -2.01441,1.98549c-0.000614912,0.085057 0.00419695,0.170067 0.0144063,0.254511Z" transform="translate(44.665, 65.992)"></path><use fill="none" stroke="#191816" stroke-linejoin="round" stroke-width="1" transform="translate(44.5574, 66.0094)" xlink:href="#path-4"></use><path stroke="#191816" stroke-linejoin="round" stroke-width="1" d="M4.79864,2.02l-1.08387e-08,4.44653e-07c0.0129201,-0.530047 0.290836,-1.01828 0.74,-1.3l5.31578e-10,7.45658e-10c-0.287405,-0.403161 -0.745265,-0.650554 -1.24,-0.67c-0.53,-0.05 -1,0.31 -1.31,0.31c-0.31,0 -0.68,-0.3 -1.12,-0.3l3.45055e-08,-1.05094e-09c-0.58878,0.0179326 -1.12456,0.344723 -1.41,0.86l7.51909e-08,-1.87039e-07c-0.458638,1.14087 -0.296068,2.43765 0.43,3.43c0.29,0.41 0.63,0.87 1.08,0.86c0.45,-0.01 0.59,-0.28 1.11,-0.28c0.52,0 0.67,0.28 1.13,0.27c0.46,-0.01 0.75,-0.42 1,-0.84l-9.13407e-08,1.4005e-07c0.202173,-0.309985 0.360348,-0.646529 0.47,-0.999999l-6.04028e-08,-2.67847e-08c-0.530794,-0.235373 -0.87492,-0.759384 -0.879999,-1.34Z" transform="translate(57.4814, 71.85)"></path><path fill="none" stroke="#191816" stroke-linecap="round" stroke-linejoin="round" stroke-width="1" d="M0,0.62l0.62,-0.62" transform="translate(61.12, 69.51)"></path><g transform="translate(-9.62, 4.43)"><g fill="#FFDA8F" transform="scale(1) rotate(-8.29001)"><use transform="translate(22.74, 64.86)" xlink:href="#path-5"></use></g></g><path fill="#FFE9BD" d="M0.284982,3.16715l5.70994e-08,-1.13528e-07c0.2719,-0.540605 0.791003,-0.914061 1.39,-1l1.27,-0.19l8.06776e-09,-1.1707e-09c1.63968,-0.237934 3.16179,0.898406 3.39972,2.53809c9.25461e-05,0.000637765 0.000184887,0.00127556 0.000277022,0.00191338l0.12,0.83l1.44574e-07,-7.39373e-07c0.070378,-0.359925 0.070378,-0.730074 -1.29368e-07,-1.09l-0.21,-1.48l1.35354e-07,9.37014e-07c-0.236877,-1.63983 -1.75825,-2.77716 -3.39809,-2.54028c-0.000637824,9.21349e-05 -0.00127562,0.000184475 -0.00191338,0.000277021l-1.14,0.17l-1.65583e-07,2.35435e-08c-1.01155,0.143828 -1.71498,1.08045 -1.57115,2.092c0.000379191,0.00266688 0.000764207,0.00533293 0.00115504,0.00799813Z" transform="translate(22.305, 64.6628)"></path><g transform="translate(-9.62, 4.43)"><g fill="none" stroke="#191816" stroke-width="1" transform="scale(1) rotate(-8.29001)"><use transform="translate(22.74, 64.86)" xlink:href="#path-5"></use></g></g><path fill="#FFDA8F" stroke="#191816" stroke-linecap="round" stroke-linejoin="round" stroke-width="1" d="M22,12.51v-2.51v0c0,-5.52285 -4.47715,-10 -10,-10c-5.52285,0 -10,4.47715 -10,10v2.5h-8.74228e-08c-1.10457,4.82823e-08 -2,0.895431 -2,2c4.82823e-08,1.10457 0.895431,2 2,2h0.12l-2.53277e-07,-1.62014e-06c0.853024,5.45657 5.96796,9.18849 11.4245,8.33546c4.29488,-0.671417 7.66405,-4.04058 8.33546,-8.33546h0.12h-8.74228e-08c1.10457,4.82823e-08 2,-0.89543 2,-2c4.82823e-08,-1.10457 -0.89543,-2 -2,-2Z" transform="translate(38.34, 22)"></path><use fill="#FFBE3D" transform="translate(43.218, 37.388)" xlink:href="#path-6"></use><use fill="#FFBE3D" transform="translate(54.718, 37.388)" xlink:href="#path-6"></use><path fill="none" stroke="#191816" stroke-linecap="round" stroke-linejoin="round" stroke-width="1" d="M6,1.80939e-07l-1.87479e-07,1.80939e-07c-1.67381,1.61541 -4.3262,1.61541 -6,-3.61877e-07" transform="translate(47.34, 41.3)"></path><use fill="none" stroke="#191816" stroke-linecap="round" stroke-linejoin="round" stroke-width="1" transform="translate(44.84, 34.2956)" xlink:href="#path-7"></use><use fill="none" stroke="#191816" stroke-linecap="round" stroke-linejoin="round" stroke-width="1" transform="translate(52.84, 34.2956)" xlink:href="#path-7"></use><path fill="#614B44" stroke="#191816" stroke-linecap="round" stroke-linejoin="round" stroke-width="1" d="M1.20477,25.73l-3.44483e-07,3.08079e-07c-0.754976,0.675193 -1.1906,1.63719 -1.2,2.65v1.8l7.96476e-09,-1.1061e-06c-0.00477243,0.662725 0.528603,1.20384 1.19133,1.20861c0.139172,0.00100221 0.277457,-0.0222134 0.408671,-0.0686087l4.42,-1.58c3.47,-1.24 2.12,-4.47 1.8,-5.67c1.52,-2.73 1.94,-5.28 0.25,-7.75l2.07313e-07,-1.17566e-06c0.284541,-1.61362 0.401829,-3.2523 0.35,-4.88999c0,-2.4 -1.37,-5.82 0,-11.43l-4.21,2.37999c-0.33,6.65 -0.08,7.66 -1.52,11l2.27731e-07,-5.21464e-07c-0.1928,0.441477 -0.291563,0.918262 -0.29,1.4v4.4l3.24839e-07,-2.91989e-07c-0.760625,0.683707 -1.19654,1.65726 -1.2,2.68Z" transform="translate(35.3152, 27.62)"></path><path fill="none" stroke="#191816" stroke-linecap="round" stroke-linejoin="round" stroke-width="1" d="M5.05,0l-2.66,1l1.04773e-07,-3.75841e-08c-1.40397,0.503634 -2.35365,1.81887 -2.39,3.31" transform="translate(35.32, 51.69)"></path><path fill="none" stroke="#191816" stroke-linecap="round" stroke-linejoin="round" stroke-width="1" d="M4.61516,0l-2.14,1l2.3666e-07,-7.82377e-08c-1.47852,0.488786 -2.47516,1.87279 -2.47,3.43v1.6" transform="translate(36.5148, 45.07)"></path><path fill="#614B44" stroke="#191816" stroke-linecap="round" stroke-linejoin="round" stroke-width="1" d="M8.57,25.73l1.09891e-07,9.8278e-08c0.754977,0.675193 1.1906,1.63719 1.2,2.65v1.8l1.93093e-08,-1.18873e-05c-0.00108222,0.668264 -0.543694,1.20912 -1.21196,1.20804c-0.135551,-0.000219517 -0.270101,-0.023214 -0.398031,-0.0680231l-4.42,-1.58c-3.47,-1.24 -2.11,-4.47 -1.79,-5.67c-1.55001,-2.69 -1.95001,-5.28 -0.260011,-7.75l-8.68207e-07,-5.44923e-06c-0.257545,-1.61646 -0.354684,-3.25443 -0.289999,-4.89c0,-2.4 1.37,-5.82 0,-11.43l4.16,2.38001c0.32,6.65 0.08,7.66 1.51,11l-5.94244e-08,-1.36071e-07c0.1928,0.441477 0.291562,0.918262 0.29,1.4v4.4l1.18993e-08,1.0537e-08c0.76747,0.679603 1.2078,1.65488 1.21,2.68Z" transform="translate(55.6, 27.62)"></path><path fill="none" stroke="#191816" stroke-linecap="round" stroke-linejoin="round" stroke-width="1" d="M0,0l2.66,1l-3.74542e-08,-1.3242e-08c1.44041,0.509258 2.4025,1.87222 2.4,3.4" transform="translate(60.31, 51.69)"></path><path fill="none" stroke="#191816" stroke-linecap="round" stroke-linejoin="round" stroke-width="1" d="M0,0l2.14,1l-5.36364e-08,-1.79701e-08c1.47464,0.494057 2.46894,1.87479 2.47,3.43v1.6" transform="translate(59.56, 45.07)"></path><use fill="#FF6242" transform="translate(38.84, 18)" xlink:href="#path-8"></use><path fill="#E04122" d="M11.5,0c-10.17,0 -11.5,7.82 -11.5,11.66v3.34c0.07,-3.92 1.56,-11.38 11.5,-11.38c9.94,0 11.44,7.44 11.5,11.38v-3.33c0,-3.84 -1.32,-11.67 -11.5,-11.67Z" transform="translate(38.84, 18)"></path><use fill="none" stroke="#191816" stroke-linecap="round" stroke-linejoin="round" stroke-width="1" transform="translate(38.84, 18)" xlink:href="#path-8"></use><path fill="#FF6242" stroke="#191816" stroke-linecap="round" stroke-linejoin="round" stroke-width="1" d="M11.5042,5.78604c3.72,0 7.49,2.06 9.84,4.14l2.99626e-08,2.63271e-08c0.414882,0.364543 1.04673,0.323734 1.41127,-0.0911476c0.157806,-0.179598 0.246047,-0.40979 0.248727,-0.648852v-2.48l7.0698e-09,-4.5099e-07c0.00422087,-0.269257 -0.100332,-0.528837 -0.29,-0.72l5.51158e-07,5.25807e-07c-6.27465,-5.98604 -16.1454,-5.98604 -22.42,-1.05161e-06l2.63221e-08,-2.65295e-08c-0.189668,0.191163 -0.294221,0.450743 -0.29,0.72v2.48l-1.63919e-08,-1.46221e-06c0.00619052,0.55225 0.458896,0.994919 1.01115,0.988728c0.239063,-0.00267981 0.469255,-0.0909197 0.648853,-0.248726c2.35,-2.08 6.13,-4.13 9.84,-4.14Z" transform="translate(38.8358, 23.734)"></path><path fill="none" stroke="#191816" stroke-linecap="round" stroke-linejoin="round" stroke-width="1" d="M0,0v4.21" transform="translate(50.34, 25.22)"></path><path fill="none" stroke="#191816" stroke-linecap="round" stroke-linejoin="round" stroke-width="1" d="M0,0l1.13,4.17" transform="translate(45.67, 25.91)"></path><path fill="none" stroke="#191816" stroke-linejoin="round" stroke-width="1" d="M0,0l2.5,4" transform="translate(41.34, 27.51)"></path><path fill="none" stroke="#191816" stroke-linecap="round" stroke-linejoin="round" stroke-width="1" d="M1.12,0l-1.12,4.17" transform="translate(53.89, 25.91)"></path><path fill="none" stroke="#191816" stroke-linejoin="round" stroke-width="1" d="M2.5,0l-2.5,4" transform="translate(56.84, 27.51)"></path><path fill="none" stroke="#191816" stroke-linecap="round" stroke-linejoin="round" stroke-width="1" d="M0,0v7.22" transform="translate(50.34, 18.01)"></path><path fill="none" stroke="#191816" stroke-linecap="round" stroke-linejoin="round" stroke-width="1" d="M0,0c0,0 2.5,4.39 2.5,8" transform="translate(54.34, 18.52)"></path><path fill="none" stroke="#191816" stroke-linecap="round" stroke-linejoin="round" stroke-width="1" d="M2.5,0c0,0 -2.5,4.39 -2.5,8" transform="translate(43.84, 18.52)"></path></g></svg>