<?xml version="1.0" encoding="UTF-8"?>
<svg version="1.1" viewBox="0 0 100 112" xmlns="http://www.w3.org/2000/svg" xmlns:xlink="http://www.w3.org/1999/xlink">
    <!--Generated by IJSVG (https://github.com/curthard89/IJSVG)-->
    <defs>
        <mask id="mask-1" maskContentUnits="userSpaceOnUse" maskUnits="objectBoundingBox">
            <g fill="#FFFFFF">
                <path d="M72.1895,15.621c15.621,15.621 15.621,40.9476 0,56.5685c-15.621,15.621 -40.9476,15.621 -56.5685,0c-15.621,-15.621 -15.621,-40.9476 -1.42109e-14,-56.5685c15.621,-15.621 40.9476,-15.621 56.5685,-1.42109e-14" transform="translate(6.09476, 12.0148)"></path>
            </g>
        </mask>
        <path id="path-4" d="M3,1.21441l1.5721e-08,3.69681e-08c-0.352295,-0.828427 -1.30946,-1.21441 -2.13789,-0.862113c-0.388072,0.165031 -0.697082,0.474041 -0.862113,0.862113"></path>
        <path id="path-6" d="M0,0h4.5"></path>
        <path id="path-5" d="M1,4.5c-0.55228,0 -1,-0.44772 -1,-1v-2.5c0,-0.55228 0.44772,-1 1,-1h2.5c0.55228,0 1,0.44772 1,1v2.5c0,0.55228 -0.44772,1 -1,1Z"></path>
        <path id="path-1" d="M0,0h2.5"></path>
        <path id="path-7" d="M5.51185,3.66l4.51392e-09,-3.73524e-08c-0.0610234,0.504965 -0.491374,0.883674 -1,0.88h-3.2l-5.20311e-08,3.7582e-10c-0.508626,0.00367385 -0.938977,-0.375035 -1,-0.88l-0.28,-2.54l-1.12784e-09,-1.00474e-08c-0.0318537,-0.283769 0.059124,-0.567619 0.25,-0.78l1.53507e-08,-1.74734e-08c0.18957,-0.215784 0.462773,-0.339636 0.75,-0.34h3.76l1.30319e-08,1.64988e-11c0.287227,0.000363721 0.56043,0.124216 0.75,0.34l-7.68175e-09,-8.54722e-09c0.190876,0.212381 0.281854,0.496231 0.25,0.78Z"></path>
        <path id="path-8" d="M3.55,0.06h-3.2l3.51212e-08,-3.06301e-10c-0.119312,0.00104054 -0.237847,-0.0192798 -0.35,-0.06l0.45,4.06h3l0.5,-4.06l-3.76818e-08,1.38632e-08c-0.127854,0.0470377 -0.263972,0.0674553 -0.4,0.06Z"></path>
        <path id="path-3" d="M22,12.5v-2.5v0c0,-5.52285 -4.47715,-10 -10,-10c-5.52285,0 -10,4.47715 -10,10v2.5h-8.74228e-08c-1.10457,4.82823e-08 -2,0.895431 -2,2c4.82823e-08,1.10457 0.895431,2 2,2h0.12l-2.53277e-07,-1.62014e-06c0.853024,5.45657 5.96796,9.18849 11.4245,8.33546c4.29488,-0.671417 7.66405,-4.04058 8.33546,-8.33546h0.12h-8.74228e-08c1.10457,4.82823e-08 2,-0.89543 2,-2c4.82823e-08,-1.10457 -0.89543,-2 -2,-2Z"></path>
        <path id="path-9" d="M12.421,2.5h-12.12l-4.95502e-09,1.47793e-11c-0.165685,0.000494188 -0.300399,-0.133419 -0.300893,-0.299104c-0.000113206,-0.0379542 0.0069767,-0.0755853 0.0208935,-0.110896l0.34,-0.83l5.89716e-08,-1.48075e-07c0.3019,-0.75806 1.03404,-1.25671 1.85,-1.26h8.3l3.0718e-09,1.23919e-11c0.815958,0.00329247 1.5481,0.50194 1.85,1.26l0.34,0.83l7.80262e-09,1.97975e-08c0.0607521,0.154146 -0.0149583,0.328354 -0.169104,0.389107c-0.0353109,0.0139168 -0.0729419,0.0210067 -0.110896,0.0208935Z"></path>
        <path id="path-2" d="M18,2.08v-2.08l-2.09142e-07,7.81423e-08c-2.25713,0.843337 -4.74287,0.843337 -7,-1.56285e-07v2.08l-5.05405e-07,1.25132e-07c-6.45954,1.5993 -10.9974,7.39542 -11,14.05v8.5h24v0c0,1.933 -1.567,3.5 -3.5,3.5h-3.5h-1.09278e-07c-1.38071,6.03528e-08 -2.5,1.11929 -2.5,2.5c6.03528e-08,1.38071 1.11929,2.5 2.5,2.5h3.5l6.30921e-08,-7.40954e-11c4.69214,-0.00551048 8.49449,-3.80786 8.5,-8.5v0v-8.5l2.21249e-07,0.000604285c-0.00229761,-6.65458 -4.53994,-12.4509 -10.9994,-14.0505Z"></path>
    </defs>
    <g fill="#E8F4FA">
        <path d="M80,39.9963l1.75431e-07,0.00374627c-1.42109e-14,-22.0914 -17.9086,-40 -40,-40c-22.0914,7.10543e-15 -40,17.9086 -40,40c0,5.68809 1.21314,11.3108 3.55846,16.4928h72.8815l6.1272e-07,-1.35057e-06c2.35079,-5.18164 3.56467,-10.8066 3.56,-16.4966Z" transform="translate(10, 15.9237)"></path>
        <path fill="#FFFFFF" d="M2.10036e-06,4.63966e-06l-2.10036e-06,-4.63966e-06c9.11063,20.1253 32.811,29.0544 52.9363,19.9438c8.84893,-4.00588 15.9379,-11.0948 19.9437,-19.9437Z" transform="translate(13.56, 72.42)"></path>
        <path fill="none" stroke="#191816" stroke-linecap="round" stroke-linejoin="round" stroke-width="1" d="M0,0h78" transform="translate(11, 72.42)"></path>
        <use fill="none" stroke="#191816" stroke-linecap="round" stroke-linejoin="round" stroke-width="1" transform="translate(6.5, 72.42)" xlink:href="#path-1"></use>
        <use fill="none" stroke="#191816" stroke-linecap="round" stroke-linejoin="round" stroke-width="1" transform="translate(91, 72.42)" xlink:href="#path-1"></use>
    </g>
    <g stroke="#191816" stroke-width="1">
        <path fill="#FFFFFF" stroke-linejoin="round" d="M18.8733,11l-1.91377e-08,1.2902e-10c0.552272,-0.00372306 0.996959,-0.454446 0.993236,-1.00672c-0.00079042,-0.11725 -0.0221951,-0.233447 -0.0632361,-0.343282l-3.44,-9l-7.72433e-09,-2.06751e-08c-0.145178,-0.388586 -0.515189,-0.647197 -0.93,-0.65h-10.87l2.68178e-08,-1.81245e-10c-0.414811,0.00280344 -0.784822,0.261414 -0.93,0.65l-3.44,9l-1.36225e-09,3.6457e-09c-0.193312,0.517348 0.0693706,1.09345 0.586718,1.28676c0.109835,0.0410409 0.226032,0.0624456 0.343282,0.0632361Z" transform="translate(46.3167, 75.92)"></path>
        <g transform="translate(58.57, -21.92)">
            <g fill="#FF6242" stroke="#191816" stroke-linecap="round" stroke-linejoin="round" stroke-width="1" transform="rotate(36.42)">
                <path d="M0,0h2v9.5h-2Z" transform="translate(61.6, 73.3)"></path>
            </g>
        </g>
        <path fill="#F0F0F0" stroke-linecap="round" stroke-linejoin="round" d="M1.61,2.43928l-1.61,-1.18l0.59,-0.81l-3.78569e-09,4.253e-09c0.367202,-0.41253 0.9993,-0.449276 1.41183,-0.0820745c0.355943,0.316832 0.438874,0.84081 0.19817,1.25207Z" transform="translate(64.62, 72.3807)"></path>
        <path fill="#F0F0F0" stroke-linecap="round" stroke-linejoin="round" d="M0.795436,0l-0.76,2.33l1.60043e-10,-5.76847e-10c-0.0354358,0.127724 0.0393783,0.259991 0.167102,0.295427c0.0695196,0.0192876 0.144028,0.00627824 0.202898,-0.0354266l2,-1.4Z" transform="translate(58.2046, 81.28)"></path>
        <use fill="#D18660" transform="translate(46.5, 47.79)" xlink:href="#path-2"></use>
        <path fill="#BD704A" d="M3.5,0.63l5.89358e-07,-1.25383e-09c-1.19509,0.00254254 -2.38081,-0.210886 -3.5,-0.63v2.12l2.53248e-07,7.54368e-08c2.28375,0.680278 4.71625,0.680278 7,4.87326e-07v-2.12l-2.07737e-07,7.77929e-08c-1.11919,0.419113 -2.30491,0.632542 -3.5,0.63Z" transform="translate(57.5, 47.79)"></path>
        <use fill="none" stroke-linecap="round" stroke-linejoin="round" transform="translate(46.5, 47.79)" xlink:href="#path-2"></use>
        <path opacity="0.15" fill="#191816" d="M12.6332,0.585786c2.73367,0.585786 2.73367,1.53553 0,2.12132c-2.73367,0.585786 -7.16582,0.585786 -9.89949,0c-2.73367,-0.585786 -2.73367,-1.53553 -3.55271e-15,-2.12132c2.73367,-0.585786 7.16582,-0.585786 9.89949,0" transform="translate(24.3166, 78.2736)"></path>
        <use fill="#D18660" transform="translate(49, 23.42)" xlink:href="#path-3"></use>
        <path fill="#E09F7E" d="M8.33927e-07,12.5l1.13687e-13,1.50996e-06c-8.33927e-07,-5.52285 4.47715,-10 10,-10c5.52285,-8.33927e-07 10,4.47715 10,10c0,0 0,7.10543e-15 0,7.10543e-15v0v-2.5v0c0,-5.52285 -4.47715,-10 -10,-10c-5.52285,0 -10,4.47715 -10,10v2.5v0Z" transform="translate(51, 23.42)"></path>
        <use fill="none" stroke-linecap="round" stroke-linejoin="round" transform="translate(49, 23.42)" xlink:href="#path-3"></use>
        <path fill="#BD704A" d="M2.25592,0.488155c0.488155,0.488155 0.488155,1.27961 0,1.76777c-0.488155,0.488155 -1.27961,0.488155 -1.76777,0c-0.488155,-0.488155 -0.488155,-1.27961 0,-1.76777c0.488155,-0.488155 1.27961,-0.488155 1.76777,0" transform="translate(53.878, 38.798)"></path>
        <path fill="#BD704A" d="M2.25592,0.488155c0.488155,0.488155 0.488155,1.27961 0,1.76777c-0.488155,0.488155 -1.27961,0.488155 -1.76777,0c-0.488155,-0.488155 -0.488155,-1.27961 -1.42109e-14,-1.76777c0.488155,-0.488155 1.27961,-0.488155 1.76777,0" transform="translate(65.378, 38.798)"></path>
        <path fill="none" stroke-linecap="round" stroke-linejoin="round" d="M0,2.31632e-07l2.46403e-07,2.31632e-07c1.686,1.58493 4.314,1.58493 6,-4.63265e-07" transform="translate(58, 42.71)"></path>
        <use fill="none" stroke-linecap="round" stroke-linejoin="round" transform="translate(63.5, 35.7056)" xlink:href="#path-4"></use>
        <use fill="none" stroke-linecap="round" stroke-linejoin="round" transform="translate(55.49, 35.7056)" xlink:href="#path-4"></use>
        <path fill="#656769" d="M2.92,2.75c-0.25,-1 -1.15,-2.72 -2.92,-2.75c0,0.32 0,0.65 0,1v1c0.67,0 1,1.24 1,1.25l2.85769e-08,1.10914e-07c0.116766,0.4532 0.532234,0.764801 1,0.75h0.24l2.14372e-08,-6.18638e-09c0.530631,-0.15313 0.836656,-0.707428 0.683526,-1.23806c-0.00115068,-0.00398738 -0.00232618,-0.00796756 -0.00352641,-0.0119403Z" transform="translate(51.08, 32.43)"></path>
        <path fill="#656769" d="M3.60835e-07,1.34l5.24687e-07,4.26434e-07c0.47858,0.388961 0.99835,0.724297 1.55,1c1.05,0.52 2,1.16 2,1.64l1.42109e-14,1.50996e-07c8.33927e-08,0.552285 0.447715,1 1,1c0.552285,-8.33927e-08 1,-0.447715 1,-1c0,-1.76 -2,-2.88 -3.1,-3.43l4.79724e-08,2.16942e-08c-0.347157,-0.156993 -0.681509,-0.340886 -1,-0.55l-4.31703e-07,3.27864e-07c-0.525326,0.398968 -1.01091,0.847715 -1.45,1.34Z" transform="translate(53.5, 25.48)"></path>
        <path fill="#656769" d="M1.85,0.54l2.63441e-07,1.20984e-07c-0.34462,-0.158265 -0.67865,-0.338641 -1,-0.54l-3.16699e-07,5.28188e-07c-0.345236,0.575783 -0.63008,1.18568 -0.849998,1.81999c0.32,0.19 0.64,0.36 0.94,0.51c1.14,0.56 2,1.31 2,1.79l1.42109e-14,1.50996e-07c8.33927e-08,0.552285 0.447715,1 1,1c0.552285,-8.33927e-08 1,-0.447715 1,-1c0.00999814,-1.81 -2,-3.05 -3.09,-3.58Z" transform="translate(51.55, 28.3)"></path>
        <path fill="#656769" d="M7.55673,21.8867l-7.25619e-08,-7.61877e-09c-0.549265,-0.0576712 -0.947781,-0.54969 -0.89011,-1.09896c3.6548e-05,-0.000348087 7.32788e-05,-0.000696154 0.000110192,-0.0010442c1.62,-16 -5.79,-18.69 -5.86,-18.71l3.46501e-08,1.16716e-08c-0.524671,-0.176731 -0.806731,-0.745329 -0.63,-1.27c0.176731,-0.524671 0.745329,-0.806731 1.27,-0.63c0.37,0.13 9,3.27 7.21,20.81l3.54955e-08,-3.73825e-07c-0.0522057,0.549812 -0.540237,0.953201 -1.09005,0.900996c-0.00331849,-0.000315097 -0.00663538,-0.000646784 -0.00995054,-0.00099505Z" transform="translate(61.3733, 28.7633)"></path>
        <path fill="#656769" d="M11.5,20.3h-4.37114e-08c-0.552285,-2.41411e-08 -1,-0.447715 -1,-1c0,0 0,0 0,0c-0.5,-17.14 -9.12,-17.24 -9.5,-17.24h-4.37114e-08c-0.552285,-2.41411e-08 -1,-0.447715 -1,-1c2.41411e-08,-0.552285 0.447715,-1 1,-1c0.45,0 11,-0.06 11.5,19.21l2.96535e-08,9.88017e-07c0.0165681,0.552036 -0.417515,1.01298 -0.969551,1.02955c-0.0101472,0.000304544 -0.0202985,0.000454553 -0.0304503,0.000449973Z" transform="translate(60, 27.33)"></path>
        <path fill="#656769" d="M14.5,16.29l-1.17181e-08,1.03841e-09c-0.492659,0.0436577 -0.943229,-0.279392 -1.06,-0.76c-3.14,-13.33 -12.35,-13.53 -12.44,-13.53h-4.37114e-08c-0.552285,-2.41411e-08 -1,-0.447715 -1,-1c0,0 0,-3.55271e-15 0,-3.55271e-15l1.42109e-14,1.50996e-07c-8.33927e-08,-0.552285 0.447715,-1 1,-1c0.11,0 10.88,0.23 14.37,15.07l3.29453e-08,1.40887e-07c0.125204,0.535421 -0.205366,1.07148 -0.74,1.2Z" transform="translate(59.5, 25.33)"></path>
        <path fill="#656769" d="M11.0552,13.1781h-4.37114e-08c-0.552285,-2.41411e-08 -1,-0.447715 -1,-1c0,0 0,0 0,0c0,-3.6 -0.94,-6.29 -2.8,-8l-1.07631e-07,-8.9684e-08c-1.70404,-1.41989 -3.88606,-2.13531 -6.1,-2l4.50236e-08,-4.50236e-09c-0.552285,0.0552285 -1.04477,-0.347715 -1.1,-0.9c-0.0552285,-0.552285 0.347715,-1.04477 0.9,-1.1l-1.45161e-07,9.3064e-09c2.77731,-0.178056 5.51354,0.741203 7.62,2.56c2.31,2.05 3.48,5.24 3.48,9.44v0c0,0.552285 -0.447715,1 -1,1Z" transform="translate(58.9448, 23.2619)"></path>
        <path fill="#656769" d="M14.2,13.28l-8.6971e-09,-2.18514e-07c0.0182756,0.459171 -0.278741,0.871694 -0.72,1l1.65224e-08,-3.76581e-09c-0.0394936,0.00900143 -0.0805064,0.00900143 -0.12,7.53162e-09h-0.11l-4.22204e-08,3.06701e-09c-0.297908,0.0216408 -0.58808,-0.101124 -0.78,-0.33l-9.07109e-08,-9.86046e-08c-0.130875,-0.142264 -0.217711,-0.31941 -0.25,-0.51c0,0 0,-0.07 0,-0.11l-1.67686e-07,-5.52068e-06c-0.0489258,-1.61076 -0.338808,-3.20511 -0.860002,-4.73l-1.18463e-07,-3.52539e-07c-0.182464,-0.543004 -0.420386,-1.06576 -0.71,-1.56v0l1.59855e-07,3.00454e-07c-0.952595,-1.79045 -2.68085,-3.03863 -4.68,-3.38l2.16893e-07,3.9046e-08c-0.270943,-0.0487764 -0.544922,-0.0788474 -0.819995,-0.0899998l8.55346e-07,2.33753e-07c-0.872947,-0.238563 -1.77514,-0.353018 -2.68,-0.339995l-4.99333e-07,4.65729e-10c-0.832985,0.000776956 -1.66266,0.104906 -2.47,0.31c1,-1.71 4.37,-3.54 8.47,-1.15c2.33,1.36 5.41,3.97 5.73,10.89Z" transform="translate(58.53, 20.19)"></path>
        <path fill="#FFE500" stroke-linejoin="round" d="M4.97017,0.550001l-1.6081e-08,1.51972e-08c-0.362054,0.342156 -0.841853,0.531927 -1.34,0.53l-4.10318e-08,-3.25613e-10c-0.741517,-0.00588431 -1.41891,-0.42156 -1.76,-1.08l5.29374e-07,-4.71095e-07c-1.22615,1.09116 -1.87017,2.69381 -1.74,4.33c0,2.71 1.29,4.75 3,4.75c1.71,0 3,-2 3,-4.75l-9.07519e-08,2.38596e-06c0.051534,-1.35487 -0.357345,-2.68726 -1.16,-3.78Zm-1.84,6.53c-0.26,0 -1,-1 -1,-2.75c0,-1.75 0.74,-2.75 1,-2.75c0.26,0 1,0.95 1,2.75c0,1.8 -0.74,2.75 -1,2.75Z" transform="translate(47.3698, 38.84)"></path>
        <path fill="none" stroke-linecap="round" stroke-linejoin="round" d="M1.43,4.12l-1.43,-4.12" transform="translate(56.07, 50.3)"></path>
        <path fill="none" stroke-linecap="round" stroke-linejoin="round" d="M0,4.12l1.43,-4.12" transform="translate(64.5, 50.3)"></path>
        <path fill="#00DFEB" stroke-linecap="round" stroke-linejoin="round" d="M19.6273,6.64c-1.33,-0.83 -4.52,-3.12 -5.69,-6.64c0,0 -0.5,2 -3.5,2c-3,0 -3.5,-2 -3.5,-2c-1.17,3.52 -4.36,5.81 -5.69,6.64l5.78344e-08,-3.80667e-08c-0.405753,0.267067 -0.695196,0.678004 -0.81,1.15l-2.46089e-07,8.88418e-07c-0.437295,1.5787 -0.331645,3.25853 0.3,4.77l-3.06274e-08,-5.76695e-08c0.163566,0.307985 0.249389,0.651276 0.25,1v4.49h19v-4.54l-9.54705e-08,5.48956e-05c0.000602003,-0.348724 0.086416,-0.692017 0.249974,-1.00001l3.11832e-07,-7.46187e-07c0.631645,-1.51147 0.737295,-3.1913 0.3,-4.77l9.94518e-08,3.10269e-07c-0.150656,-0.470015 -0.476531,-0.863959 -0.909974,-1.10005Z" transform="translate(50.5627, 54.42)"></path>
        <path fill="#A6FBFF" stroke-linejoin="round" d="M20.5564,4.16214c-2.84,-0.11 -7.27,-0.83 -8.94,-3.33l5.91159e-09,7.91736e-09c-0.515462,-0.690356 -1.49297,-0.832135 -2.18333,-0.316673c-0.120239,0.0897776 -0.226895,0.196434 -0.316673,0.316673c-1.66,2.49 -6.09,3.21 -8.94,3.33v0l-3.11388e-07,1.75515e-06c-0.176402,0.994299 -0.156017,2.01355 0.0600005,3v0c2.3,-0.09 6.15,-0.53 9,-2.36l1.74033e-07,-1.15629e-07c0.690721,-0.458921 1.58928,-0.458921 2.28,2.31258e-07c2.84,1.82 6.69,2.27 9,2.36v0l-6.68315e-08,3.07061e-07c0.214733,-0.986603 0.235113,-2.0056 0.0600001,-3Z" transform="translate(50.6336, 58.7179)"></path>
        <path fill="#A6FBFF" stroke-linejoin="round" d="M19,4.12214c-2.83,-0.2 -6.72,-1 -8.25,-3.29l5.91159e-09,7.91736e-09c-0.515462,-0.690356 -1.49297,-0.832135 -2.18333,-0.316673c-0.120239,0.0897776 -0.226895,0.196434 -0.316673,0.316673c-1.53,2.29 -5.41,3.09 -8.25,3.29v2.08h5.22l-1.58295e-07,4.67464e-08c1.11543,-0.329399 2.18161,-0.806994 3.17,-1.42l1.82058e-07,-1.21467e-07c0.672074,-0.448399 1.54793,-0.448399 2.22,2.42933e-07l-6.67587e-07,-4.17391e-07c0.984729,0.615676 2.04752,1.09662 3.16,1.43h5.23001Z" transform="translate(51.5, 66.2179)"></path>
        <g mask="url(#mask-1)">
            <path fill="#F7E5C6" stroke="#191816" stroke-linecap="round" stroke-linejoin="round" stroke-width="1" d="M1,32.5c-0.55228,0 -1,-0.44772 -1,-1v-30.5c0,-0.55228 0.44772,-1 1,-1h36.99c0.55228,0 1,0.44772 1,1v30.5c0,0.55228 -0.44772,1 -1,1Z" transform="translate(5.51, 23.92)"></path>
            <path fill="#B89558" stroke="#191816" stroke-linecap="round" stroke-linejoin="round" stroke-width="1" d="M1,28.5c-0.55228,0 -1,-0.44772 -1,-1v-26.5c0,-0.55228 0.44772,-1 1,-1h32.99c0.55228,0 1,0.44772 1,1v26.5c0,0.55228 -0.44772,1 -1,1Z" transform="translate(7.51, 25.92)"></path>
            <use fill="#6DD627" stroke="#191816" stroke-linecap="round" stroke-linejoin="round" stroke-width="1" transform="translate(16, 43.92)" xlink:href="#path-5"></use>
            <use fill="#FF6242" stroke="#191816" stroke-linecap="round" stroke-linejoin="round" stroke-width="1" transform="translate(22.5, 43.92)" xlink:href="#path-5"></use>
            <path fill="#FFFFFF" stroke="#191816" stroke-linecap="round" stroke-linejoin="round" stroke-width="1" d="M1,12c-0.55228,0 -1,-0.44772 -1,-1v-10c0,-0.55228 0.44772,-1 1,-1h6.5c0.55228,0 1,0.44772 1,1v10c0,0.55228 -0.44772,1 -1,1Z" transform="translate(22, 29.92)"></path>
            <use fill="#FFE500" stroke="#191816" stroke-linecap="round" stroke-linejoin="round" stroke-width="1" transform="translate(34, 30.42)" xlink:href="#path-5"></use>
            <use fill="#FF87AF" stroke="#191816" stroke-linecap="round" stroke-linejoin="round" stroke-width="1" transform="translate(34, 36.92)" xlink:href="#path-5"></use>
            <path fill="none" stroke="#191816" stroke-linecap="round" stroke-linejoin="round" stroke-width="1" d="M0,4.5l4.5,-4.5" transform="translate(21, 28.92)"></path>
            <path fill="none" stroke="#191816" stroke-linecap="round" stroke-linejoin="round" stroke-width="1" d="M0,0h4" transform="translate(24, 32.92)"></path>
            <use fill="none" stroke="#191816" stroke-linecap="round" stroke-linejoin="round" stroke-width="1" transform="translate(24, 34.92)" xlink:href="#path-6"></use>
            <use fill="none" stroke="#191816" stroke-linecap="round" stroke-linejoin="round" stroke-width="1" transform="translate(24, 36.92)" xlink:href="#path-6"></use>
        </g>
        <path fill="#87898C" stroke-linejoin="round" d="M2.41411e-08,4.37114e-08h12v1v0c0,0.552285 -0.447715,1 -1,1h-10h-4.37114e-08c-0.552285,-2.41411e-08 -1,-0.447715 -1,-1c0,0 0,0 0,0v-1Z" transform="translate(26, 76.92)"></path>
        <use fill="#FF6242" transform="translate(29.0881, 65.88)" xlink:href="#path-7"></use>
        <path fill="#FF866E" d="M0.141854,2.05l-2.56171e-09,5.68484e-09c0.0347987,-0.0772237 0.0821006,-0.148177 0.14,-0.21l1.53507e-08,-1.74734e-08c0.18957,-0.215784 0.462773,-0.339636 0.75,-0.34h3.76l1.30319e-08,1.64988e-11c0.287227,0.000363721 0.56043,0.124216 0.75,0.34l2.21933e-08,2.36974e-08c0.0578993,0.0618233 0.105201,0.132776 0.14,0.21l0.11,-0.93l-1.11177e-08,9.9042e-08c0.0318537,-0.283769 -0.0591239,-0.567619 -0.25,-0.78l5.62842e-09,6.40674e-09c-0.18957,-0.215784 -0.462773,-0.339636 -0.75,-0.34h-3.76l1.87545e-08,-2.37605e-11c-0.287227,0.000363712 -0.56043,0.124216 -0.75,0.34l-5.07559e-08,5.64742e-08c-0.190876,0.212381 -0.281854,0.496231 -0.25,0.78Z" transform="translate(29.0881, 65.95)"></path>
        <use fill="none" stroke-linejoin="round" transform="translate(29.0881, 65.88)" xlink:href="#path-7"></use>
        <use fill="#FF6242" transform="translate(30.05, 70.36)" xlink:href="#path-8"></use>
        <path fill="#E04122" d="M0.35,1.48h3.2l-1.47307e-08,-2.44583e-09c0.0629028,0.0104441 0.127097,0.0104441 0.19,4.89165e-09l0.21,-1.48l-5.37677e-08,1.95218e-08c-0.112153,0.0407202 -0.230688,0.0610405 -0.35,0.06h-3.25l3.51212e-08,-3.06301e-10c-0.119312,0.00104054 -0.237847,-0.0192798 -0.35,-0.06l0.16,1.46l2.80197e-08,7.76458e-09c0.0617924,0.0171234 0.125997,0.0238817 0.19,0.02Z" transform="translate(30.05, 70.36)"></path>
        <use fill="none" stroke-linejoin="round" transform="translate(30.05, 70.36)" xlink:href="#path-8"></use>
        <use fill="#FF6242" transform="translate(25.639, 74.42)" xlink:href="#path-9"></use>
        <path fill="#FF866E" d="M0.288606,2.5l0.11,-0.28l5.89716e-08,-1.48075e-07c0.3019,-0.75806 1.03404,-1.25671 1.85,-1.26h8.3l1.72288e-08,6.95195e-11c0.815958,0.00329247 1.5481,0.50194 1.85,1.26l0.11,0.28l1.10993e-08,-2.23795e-09c0.167831,-0.0338397 0.276452,-0.197326 0.242612,-0.365157c-0.00307344,-0.015243 -0.00728941,-0.0302331 -0.0126122,-0.0448434l-0.34,-0.83l3.07096e-08,7.71106e-08c-0.3019,-0.75806 -1.03404,-1.25671 -1.85,-1.26h-8.3l4.1595e-08,-1.6783e-10c-0.815958,0.00329235 -1.5481,0.50194 -1.85,1.26l-0.34,0.83l-1.72981e-08,4.74808e-08c-0.0586061,0.160865 0.0242913,0.338782 0.185157,0.397388c0.0146104,0.00532282 0.0296005,0.0095388 0.0448435,0.0126122Z" transform="translate(25.6014, 74.42)"></path>
        <use fill="none" stroke-linejoin="round" transform="translate(25.639, 74.42)" xlink:href="#path-9"></use>
    </g>
</svg>