<?xml version="1.0" encoding="UTF-8"?><svg version="1.1" viewBox="0 0 100 112" xmlns="http://www.w3.org/2000/svg" xmlns:xlink="http://www.w3.org/1999/xlink"><!--Generated by IJSVG (https://github.com/curthard89/IJSVG)--><defs><path id="path-4" d="M5.42054,18.0003h22.86l-5.86,-18h-21.25l-3.11178e-08,-1.30598e-11c-0.646173,-0.000271271 -1.17022,0.523336 -1.17049,1.16951c-4.84318e-05,0.115366 0.016966,0.230104 0.0504911,0.340491Z"></path><path id="path-1" d="M0,0h2.5"></path><path id="path-2" d="M15.5,1.66677e-06l-2.07845e-07,-3.55271e-14c-8.56041,-1.66677e-06 -15.5,6.93958 -15.5,15.5c-6.49237e-10,0.00333441 1.07466e-06,0.00666882 3.22594e-06,0.0100032v7.5h24.83l6.6032e-09,-2.03998e-08c-0.385988,1.19246 -1.49662,2.0002 -2.75,2h-3.58v6c3.66,0 4.68,0.13 6.5,-0.5l-5.71442e-07,1.86342e-07c3.26255,-1.06389 5.60626,-3.93103 6,-7.34v-7.66l4.54191e-07,-0.000730691c0.0051193,-8.56041 -6.93032,-15.5041 -15.4907,-15.5093c-0.00333439,-1.99403e-06 -0.00666877,-2.91211e-06 -0.0100032,-2.75424e-06Z"></path><path id="path-3" d="M11.8609,0.00220446l-1.16165e-07,4.5429e-09c-6.63748,0.259574 -11.8609,5.75794 -11.78,12.4v10.34l1.61929e-07,-8.1348e-06c-0.060979,3.06335 0.687556,6.08854 2.17,8.77l4.37479e-08,7.36615e-08c1.36724,2.30211 3.39984,4.13599 5.83,5.26l-0.07,-0.07c-0.37,-0.39 -0.73,-0.8 -1.07,-1.23c-0.06,-0.06 -0.11,-0.13 -0.16,-0.19c-0.35,-0.44 -0.68,-0.89 -1,-1.35l-6.24676e-07,-9.41115e-07c-0.258814,-0.38992 -0.495842,-0.793869 -0.709997,-1.20999l-0.109998,-0.209997l3.05962e-07,6.01446e-07c-0.357414,-0.702588 -0.651898,-1.43545 -0.88,-2.19c0,0 0,0 0,-0.07c-0.73,-2.46 -1,-5.65 -1,-11.08c0,-3.66 2,-8.16 9,-8.16c7,0 9,5 9,8.16c0,5.43 -0.25,8.62 -1,11.08c-0.1,0.333333 -0.21,0.666667 -0.33,1v0l6.13755e-08,-1.65666e-07c-0.27297,0.736804 -0.607485,1.44932 -1,2.13v0l-0.31,0.5l-1.58397e-08,2.96134e-08c-0.0296974,0.0555214 -0.0631066,0.108976 -0.1,0.16l3.97745e-07,-6.1026e-07c-0.646287,0.991598 -1.38998,1.91618 -2.22,2.76l-0.19,0.23l2.63173e-08,-1.27797e-08c2.44759,-1.18855 4.52273,-3.02504 6,-5.31l0.06,-0.1l-4.49889e-07,7.44485e-07c1.36935,-2.26603 2.09536,-4.86236 2.1,-7.51v-12.11l2.02485e-07,-0.00220446c0,-6.62742 -5.37258,-12 -12,-12c-0.0774083,0 -0.154815,0.000749006 -0.232209,0.00224691Z"></path></defs><g fill="#E8F4FA"><path d="M80,39.9963l1.75431e-07,0.00374627c-1.42109e-14,-22.0914 -17.9086,-40 -40,-40c-22.0914,7.10543e-15 -40,17.9086 -40,40c0,5.68809 1.21314,11.3108 3.55846,16.4928h72.8715l1.09097e-06,-2.39565e-06c2.35868,-5.17941 3.57619,-10.8054 3.57,-16.4966Z" transform="translate(10.34, 16.0037)"></path><path fill="#FFFFFF" d="M1.56863e-06,3.46229e-06l-1.56863e-06,-3.46229e-06c9.11673,20.1225 32.8198,29.0444 52.9423,19.9277c8.84011,-4.00511 15.9226,-11.0876 19.9277,-19.9277Z" transform="translate(13.9, 72.5)"></path><path fill="none" stroke="#191816" stroke-linecap="round" stroke-linejoin="round" stroke-width="1" d="M0,0h78" transform="translate(11.34, 72.5)"></path><use fill="none" stroke="#191816" stroke-linecap="round" stroke-linejoin="round" stroke-width="1" transform="translate(6.84, 72.5)" xlink:href="#path-1"></use><use fill="none" stroke="#191816" stroke-linecap="round" stroke-linejoin="round" stroke-width="1" transform="translate(91.34, 72.5)" xlink:href="#path-1"></use></g><g stroke-width="1"><path fill="#525252" stroke="#191816" stroke-linecap="round" stroke-linejoin="round" d="M12.0929,28.002l4.17181e-07,-7.25059e-10c3.61325,-0.00627983 7.11382,1.25732 9.89,3.57v0l-4.49889e-07,7.44485e-07c1.36935,-2.26603 2.09536,-4.86236 2.1,-7.51v-12.06l1.69485e-07,-0.00201684c0,-6.62742 -5.37258,-12 -12,-12c-0.0740103,0 -0.148019,0.000684691 -0.222017,0.00205398l-1.16165e-07,4.54291e-09c-6.63748,0.259574 -11.8609,5.75794 -11.78,12.4v10.34l-1.32358e-07,5.96471e-06c-0.0678886,3.05941 0.667204,6.08319 2.13202,8.77l2.92638e-07,-2.40436e-07c2.78309,-2.28663 6.27806,-3.52827 9.88,-3.51001Z" transform="translate(48.7871, 21.488)"></path><path fill="#FFCEBF" stroke="#191816" stroke-linecap="round" stroke-linejoin="round" d="M6.75,0h-3.75h-1.31134e-07c-1.65685,7.24234e-08 -3,1.34315 -3,3c0,0 0,0 0,0v0l3.55271e-14,4.52987e-07c2.50178e-07,1.65685 1.34315,3 3,3h3.75Z" transform="translate(57.13, 74.49)"></path><use fill="#656769" transform="translate(45.38, 49.49)" xlink:href="#path-2"></use><path fill="#87898C" d="M15.5,1.66677e-06l-2.07845e-07,-3.55271e-14c-8.56041,-1.66677e-06 -15.5,6.93958 -15.5,15.5c-6.49237e-10,0.00333441 1.07466e-06,0.00666882 3.22594e-06,0.0100032v4.5l1.77636e-13,2.34043e-06c-1.29259e-06,-8.56041 6.93958,-15.5 15.5,-15.5c8.56041,-1.29259e-06 15.5,6.93958 15.5,15.5c0,0 0,1.42109e-14 0,1.42109e-14v-4.5l4.54191e-07,-0.000730691c0.0051193,-8.56041 -6.93032,-15.5041 -15.4907,-15.5093c-0.00333441,-1.99404e-06 -0.00666882,-2.91212e-06 -0.0100032,-2.75424e-06Z" transform="translate(45.38, 49.49)"></path><use fill="none" stroke="#191816" stroke-linecap="round" stroke-linejoin="round" transform="translate(45.38, 49.49)" xlink:href="#path-2"></use><path fill="#009FD9" stroke="#191816" stroke-linecap="round" stroke-linejoin="round" d="M16.02,2.96992l-6.52878e-08,2.16094e-07c-0.402432,1.33199 -1.00244,2.59607 -1.78,3.75l1.89963e-08,-2.90122e-08c-0.942717,1.43977 -2.08018,2.74212 -3.38,3.87c-1.19,1 -2.86,2.87 -2.86,5.14c0,-2.25 -1.66,-4.09 -2.84,-5.12l9.63719e-07,8.33319e-07c-1.3253,-1.14598 -2.48326,-2.47224 -3.44,-3.94l-6.60166e-07,-9.88159e-07c-0.747812,-1.11935 -1.32732,-2.34238 -1.72,-3.63c0,0 0,0 0,-0.07l-8.52882e-07,5.14848e-07c4.91988,-2.96992 11.0801,-2.96992 16,-1.0297e-06Z" transform="translate(52.88, 48.7601)"></path><path fill="#FFCEBF" d="M7,5.5l-4.2254e-09,4.14172e-09c-1.94422,1.90571 -5.05578,1.90571 -7,-8.28344e-09v-5.5h7Z" transform="translate(57.38, 46.5)"></path><path fill="#FFB59E" d="M2.16516e-06,3.51l-1.30086e-07,-3.96665e-08c2.28148,0.695679 4.71852,0.69568 7,6.99877e-07v-3.51h-7Z" transform="translate(57.38, 46.49)"></path><path fill="none" stroke="#191816" stroke-linecap="round" stroke-linejoin="round" d="M7,0v5.51l-4.2254e-09,4.14172e-09c-1.94422,1.90571 -5.05578,1.90571 -7,-8.28344e-09v-5.5Z" transform="translate(57.38, 46.49)"></path><path fill="none" stroke="#191816" stroke-linecap="round" stroke-linejoin="round" d="M2.92,0v8.08v0c0,1.61267 -1.30733,2.92 -2.92,2.92c0,0 0,0 0,0" transform="translate(67.46, 63.49)"></path><path fill="none" stroke="#191816" stroke-linecap="round" stroke-linejoin="round" d="M0,0v8.07" transform="translate(60.88, 64.42)"></path><path fill="#FFFFFF" stroke="#191816" stroke-linecap="round" stroke-linejoin="round" d="M22,11.49v-1.49v0c0,-5.52285 -4.47715,-10 -10,-10c-5.52285,0 -10,4.47715 -10,10v1.5h-8.74228e-08c-1.10457,4.82823e-08 -2,0.895431 -2,2c4.82823e-08,1.10457 0.895431,2 2,2h0.12c0,3.5 6.88,10.5 9.88,10.5c3,0 9.87,-7 9.87,-10.51h0.13h-8.74228e-08c1.10457,4.82823e-08 2,-0.89543 2,-2c4.82823e-08,-1.10457 -0.89543,-2 -2,-2Z" transform="translate(48.88, 24)"></path><path fill="#F0F0F0" d="M24,13.49v0c0,-1.10457 -0.895431,-2 -2,-2v-1.49v0c0,-5.52285 -4.47715,-10 -10,-10c-5.52285,0 -10,4.47715 -10,10v1.5h-8.74228e-08c-1.10457,4.82823e-08 -2,0.895431 -2,2c4.82823e-08,1.10457 0.895431,2 2,2h0.12l-7.96537e-08,-1.34286e-06c0.043479,0.733003 0.241116,1.44859 0.579999,2.1c1.56,-2.75 4.41,-4.83 9.27,-4.83c4.86,0 7.66,2.27 9.22,5l1.87032e-07,-3.3401e-07c0.398769,-0.712138 0.63124,-1.50527 0.68,-2.32h0.13l6.45578e-08,1.29319e-11c1.08914,0.00021817 1.97822,-0.871082 2,-1.96Z" transform="translate(48.88, 24)"></path><path fill="#FFB59E" d="M2.25592,0.488155c0.488155,0.488155 0.488155,1.27961 0,1.76777c-0.488155,0.488155 -1.27961,0.488155 -1.76777,0c-0.488155,-0.488155 -0.488155,-1.27961 0,-1.76777c0.488155,-0.488155 1.27961,-0.488155 1.76777,0" transform="translate(53.758, 38.868)"></path><path fill="#FFB59E" d="M2.25592,0.488155c0.488155,0.488155 0.488155,1.27961 0,1.76777c-0.488155,0.488155 -1.27961,0.488155 -1.76777,0c-0.488155,-0.488155 -0.488155,-1.27961 -1.42109e-14,-1.76777c0.488155,-0.488155 1.27961,-0.488155 1.76777,0" transform="translate(65.258, 38.868)"></path><path fill="none" stroke="#191816" stroke-linecap="round" stroke-linejoin="round" d="M0,1.01992e-07l1.88341e-07,1.01992e-07c1.24773,0.675684 2.75227,0.675684 4,-2.03985e-07" transform="translate(58.88, 44.79)"></path><path fill="#525252" stroke="#191816" stroke-linecap="round" stroke-linejoin="round" d="M1.5,6.5l-1.5,-6.5h3l-1.5,6.5Z" transform="translate(59.38, 45.3)"></path><path fill="none" stroke="#191816" stroke-linecap="round" stroke-linejoin="round" d="M0,0.75l2.5,-0.75" transform="translate(63.38, 36.49)"></path><path fill="none" stroke="#191816" stroke-linecap="round" stroke-linejoin="round" d="M2.5,0.87l-2.5,-0.87" transform="translate(55.88, 36.49)"></path><path fill="none" stroke="#191816" stroke-linecap="round" stroke-linejoin="round" d="M5.76,1.45307e-07l1.1477e-07,-1.45307e-07c-1.25631,1.59058 -3.56417,1.86156 -5.15475,0.605248c-0.224666,-0.177451 -0.427796,-0.380581 -0.605247,-0.605247" transform="translate(55.12, 42)"></path><path fill="none" stroke="#191816" stroke-linecap="round" stroke-linejoin="round" d="M5.75,3.2537e-07l2.56329e-07,-3.2537e-07c-1.25089,1.58782 -3.55213,1.86095 -5.13994,0.610056c-0.226692,-0.178589 -0.431466,-0.383363 -0.610055,-0.610055" transform="translate(60.88, 42)"></path><use fill="#656769" transform="translate(48.7991, 21.4878)" xlink:href="#path-3"></use><path fill="#87898C" d="M11.8609,0.00201701l-1.16165e-07,4.54291e-09c-6.63748,0.259574 -11.8609,5.75794 -11.78,12.4v3.81l-1.10966e-07,-9.10783e-06c-0.0809218,-6.64206 5.14253,-12.1404 11.78,-12.4l-6.93763e-07,1.27212e-08c6.6263,-0.121503 12.0965,5.15168 12.218,11.778c0.00135686,0.0739979 0.00202912,0.148007 0.00201668,0.222017v-3.81l1.69513e-07,-0.00201701c0,-6.62742 -5.37258,-12 -12,-12c-0.0740134,0 -0.148025,0.000684748 -0.222026,0.00205416Z" transform="translate(48.7991, 21.488)"></path><use fill="none" stroke="#191816" stroke-linecap="round" stroke-linejoin="round" transform="translate(48.7991, 21.4878)" xlink:href="#path-3"></use><path opacity="0.15" fill="#191816" d="M38.08,0.585786c8.24006,0.585786 8.24006,1.53553 0,2.12132c-8.24006,0.585786 -21.5998,0.585786 -29.8399,0c-8.24006,-0.585786 -8.24006,-1.53553 0,-2.12132c8.24006,-0.585786 21.5998,-0.585786 29.8399,0" transform="translate(24.47, 80.3436)"></path><path fill="#87898C" stroke="#191816" stroke-linejoin="round" d="M5.86,18.0018h2.34l-5.6,-17.19l6.23345e-09,1.9697e-08c-0.153067,-0.483677 -0.602684,-0.811775 -1.11,-0.81h-1.49Z" transform="translate(46.45, 59.4882)"></path><use fill="#525252" transform="translate(24.0295, 59.4897)" xlink:href="#path-4"></use><path fill="#656769" d="M22.4205,0.000271271h-21.25l-3.11178e-08,-1.30669e-11c-0.646173,-0.000271271 -1.17022,0.523336 -1.17049,1.16951c-4.84318e-05,0.115366 0.016966,0.230104 0.0504911,0.340491l0.34,1.06h22.87Z" transform="translate(24.0295, 59.4897)"></path><use fill="none" stroke="#191816" stroke-linejoin="round" transform="translate(24.0295, 59.4897)" xlink:href="#path-4"></use><path fill="#656769" stroke="#191816" stroke-linejoin="round" d="M0.00554032,0h24v3h-21.69l4.53591e-08,1.93822e-10c-1.28129,-0.00547511 -2.31554,-1.0486 -2.31007,-2.32989c1.43972e-05,-0.00336923 3.61339e-05,-0.00673843 6.521e-05,-0.0101076Z" transform="translate(29.5145, 77.49)"></path><path fill="#87898C" stroke="#191816" stroke-linejoin="round" d="M0,0h11.48v0.66v0c0,1.29235 -1.04765,2.34 -2.34,2.34c0,0 -7.10543e-15,0 -7.10543e-15,0h-9.14Z" transform="translate(53.52, 77.49)"></path><use fill="none" stroke="#191816" stroke-linejoin="round" transform="translate(24.0295, 59.4897)" xlink:href="#path-4"></use><path fill="#FF6242" stroke="#191816" stroke-linejoin="round" d="M1.57491,0.49c0.14,-0.49 0.74,-0.49 1.08,0c0.74,1 1.1,1.58 1.83,2.63l1.84,2.63c0.34,0.49 0.17,1.11 -0.31,1.11h-5.16l-5.40695e-08,-7.47697e-09c-0.503312,-0.0696002 -0.854906,-0.534038 -0.785305,-1.03735c0.00383998,-0.0277688 0.00894716,-0.0553475 0.0153055,-0.0826499l0.75,-2.57c0.3,-1.1 0.44,-1.62 0.74,-2.68Z" transform="translate(39.3551, 66.83)"></path><path fill="none" stroke="#FFFFFF" stroke-linecap="round" stroke-linejoin="round" d="M0,0l0.31,1.49" transform="translate(41.86, 69.21)"></path><path fill="#FFFFFF" d="M0.9,0.5c0.06,0.28 -0.08,0.5 -0.32,0.5l-4.02925e-08,-4.36994e-09c-0.266903,-0.0289472 -0.480612,-0.234436 -0.52,-0.5c-0.06,-0.28 0.08,-0.5 0.32,-0.5l3.49102e-08,4.23941e-09c0.26536,0.0322246 0.477398,0.236107 0.52,0.5Z" transform="translate(42, 71.7)"></path><path fill="#FFE500" stroke="#191816" stroke-linejoin="round" d="M6.74,3.77c0.41,2.07 -0.66,3.75 -2.42,3.75c-1.76,0 -3.5,-1.69 -3.91,-3.77c-0.41,-2.08 0.66,-3.75 2.41,-3.74c1.75,0.01 3.5,1.69 3.92,3.76Z" transform="translate(29.2, 63.59)"></path><path fill="#191816" d="M0.38,0c-0.24,0 -0.38,0.23 -0.33,0.5l6.893e-09,4.34007e-08c0.0427821,0.269371 0.259183,0.477606 0.53,0.51c0.23,0 0.37,-0.23 0.32,-0.5l1.33714e-08,7.91848e-08c-0.0446858,-0.264626 -0.254556,-0.47046 -0.52,-0.51Z" transform="translate(31.05, 65.87)"></path><path fill="#FFE500" stroke="#191816" stroke-linecap="round" stroke-linejoin="round" d="M0,3.5723e-08l2.5217e-08,6.16014e-08c0.198893,0.485866 0.648031,0.823679 1.17,0.88l3.3912e-08,-3.65162e-10c0.463892,-0.00499534 0.835902,-0.385104 0.830906,-0.848996c-0.000111337,-0.0103393 -0.000413572,-0.0206757 -0.000906549,-0.0310039" transform="translate(32, 68.6)"></path><path fill="none" stroke="#191816" d="M0,0l5.35,1.52" transform="translate(30.33, 64.59)"></path><path fill="#191816" d="M0.99,1.09647e-08h-0.43c-0.35,0 -0.56,0.33 -0.48,0.74l0.11,0.52l-1.82922e-09,-1.18423e-08c0.0605526,0.392016 0.375888,0.695066 0.77,0.74h0.44c0.34,0 0.55,-0.33 0.47,-0.74l-0.1,-0.51l-1.31727e-08,-7.75299e-08c-0.0669798,-0.39422 -0.383458,-0.698525 -0.78,-0.75Z" transform="translate(32.65, 65.35)"></path></g></svg>