<?xml version="1.0" encoding="UTF-8"?>
<svg version="1.1" viewBox="0 0 100 112" xmlns="http://www.w3.org/2000/svg" xmlns:xlink="http://www.w3.org/1999/xlink">
    <!--Generated by IJSVG (https://github.com/curthard89/IJSVG)-->
    <defs>
        <path id="path-3" d="M1.55207,0.335851c0.335851,0.335851 0.335851,0.880373 0,1.21622c-0.335851,0.335851 -0.880373,0.335851 -1.21622,0c-0.335851,-0.335851 -0.335851,-0.880373 0,-1.21622c0.335851,-0.335851 0.880373,-0.335851 1.21622,0"></path>
        <path id="path-15" d="M0,0v14.38"></path>
        <path id="path-7" d="M1,3c-0.55228,0 -1,-0.44772 -1,-1v-1c0,-0.55228 0.44772,-1 1,-1h16c0.55228,0 1,0.44772 1,1v1c0,0.55228 -0.44772,1 -1,1Z"></path>
        <path id="path-8" d="M0,0v9"></path>
        <path id="path-11" d="M2.3,1.15h-3.55271e-15c0,0.635127 -0.514873,1.15 -1.15,1.15c-0.635127,0 -1.15,-0.514873 -1.15,-1.15v-1.15h2.3Z"></path>
        <path id="path-1" d="M0,0h2.5"></path>
        <path id="path-6" d="M32.6743,7l5.51995e-09,-1.5941e-10c0.552055,-0.0159421 0.98666,-0.476394 0.970718,-1.02845c-0.00338199,-0.117114 -0.0273186,-0.232723 -0.0707176,-0.341551c-1.5,-3.21 -8.2,-5.63 -16.69,-5.63c-8.49,0 -15.18,2.42 -16.68,5.63l4.09931e-08,-1.02929e-07c-0.204346,0.51309 0.045941,1.09469 0.559031,1.29903c0.118026,0.0470055 0.243927,0.071091 0.370969,0.070968Z"></path>
        <path id="path-2" d="M25.4368,21.3l7.94219e-08,3.40936e-06c-0.0189017,-0.811432 -0.602474,-1.49922 -1.4,-1.65l6.93046e-09,-5.6951e-09c0.972871,-0.799456 1.11345,-2.23621 0.313996,-3.20908c-0.13928,-0.169492 -0.302292,-0.317995 -0.483996,-0.440918l-1.25518e-07,3.82686e-08c0.908637,-0.277031 1.42065,-1.2382 1.14362,-2.14684c-0.245661,-0.805745 -1.03872,-1.31501 -1.87363,-1.20316h-1l4.89415e-08,-7.18638e-09c0.571514,-0.0839188 0.996254,-0.57237 1,-1.15l1.45264e-08,-1.64879e-06c0.00554638,-0.62958 -0.500333,-1.14445 -1.12991,-1.15c-0.00669604,-5.89897e-05 -0.0133925,-5.898e-05 -0.0200885,2.90553e-08h-0.26l-9.80528e-08,3.21365e-08c0.497896,-0.163184 0.835997,-0.62606 0.84,-1.15h-7.10543e-15c0,-0.635127 -0.514873,-1.15 -1.15,-1.15c-0.25,0 -0.49,0.17 -0.58,0v0c0,-4.44589 -3.60411,-8.05 -8.05,-8.05c-4.44589,0 -8.05,3.60411 -8.05,8.05c-0.08,0.17 -0.32,0 -0.57,0l-2.86174e-08,-2.5215e-10c-0.62958,-0.00554727 -1.14445,0.500331 -1.15,1.12991c-5.89992e-05,0.00669604 -5.8999e-05,0.0133925 5.04301e-10,0.0200885l-5.47464e-08,-7.16752e-06c0.00400038,0.52394 0.342098,0.986818 0.839993,1.15h-0.27h-5.02681e-08c-0.635127,2.77623e-08 -1.15,0.514873 -1.15,1.15l-1.47871e-08,-7.63811e-07c0.0114734,0.592653 0.460839,1.08481 1.05001,1.15h-1.05l-9.27807e-08,2.38352e-10c-0.949927,0.00244037 -1.71802,0.774486 -1.71558,1.72441c0.00171568,0.667837 0.389859,1.27431 0.995576,1.55559l-4.42056e-08,2.98381e-08c-0.627758,0.423727 -1.00284,1.13263 -1,1.89l1.47427e-08,-5.61061e-07c-0.0185247,0.704989 0.287405,1.37951 0.829999,1.83l-7.14343e-08,1.35194e-08c-0.933361,0.176645 -1.5468,1.07648 -1.37016,2.00984c0.131535,0.695006 0.67515,1.23862 1.37016,1.37016l8.90381e-09,-7.40029e-09c-0.972644,0.8084 -1.10579,2.25222 -0.297389,3.22487c0.8084,0.972644 2.25222,1.10579 3.22487,0.297389c0.435333,-0.361821 0.721229,-0.872057 0.802523,-1.43225l-1.39262e-08,-1.14312e-08c0.228979,0.187955 0.537159,0.248087 0.82,0.16l2.35113e-09,-3.29642e-09c-0.359181,0.503591 -0.242113,1.20301 0.261479,1.56219c0.19767,0.140986 0.435801,0.213919 0.678521,0.207813l-7.63151e-09,1.36239e-10c0.234233,-0.00418159 0.461377,-0.0810609 0.65,-0.22l2.00628e-08,6.51829e-08c0.183588,0.596468 0.815948,0.931173 1.41242,0.747585c0.357592,-0.110064 0.637521,-0.389993 0.747585,-0.747585l1.06689e-08,8.18078e-09c0.380507,0.291767 0.909493,0.291767 1.29,-1.63616e-08l6.64461e-08,1.97342e-07c0.0922946,0.274111 0.28533,0.502893 0.54,0.64l-2.96658e-08,2.7653e-07c-0.00570513,0.0531806 -0.00570512,0.106819 1.53946e-08,0.16l1.42109e-14,1.18671e-07c9.59016e-08,0.635127 0.514873,1.15 1.15,1.15c0.635127,-9.59016e-08 1.15,-0.514873 1.15,-1.15l2.12653e-08,-2.00898e-07c0.00562966,-0.0531848 0.00562964,-0.106815 -4.25307e-08,-0.16l1.25788e-07,-6.77205e-08c0.25467,-0.137107 0.447705,-0.365889 0.54,-0.64l1.06689e-08,8.18078e-09c0.380507,0.291767 0.909493,0.291767 1.29,-1.63616e-08l2.00628e-08,6.51829e-08c0.183588,0.596468 0.815948,0.931173 1.41242,0.747585c0.357592,-0.110064 0.637521,-0.389993 0.747585,-0.747585l2.6389e-08,1.95665e-08c0.185544,0.137574 0.409085,0.214416 0.64,0.22l-5.24083e-08,-3.26281e-09c0.622876,0.0387787 1.15925,-0.434726 1.19803,-1.0576c0.0157483,-0.252955 -0.0539978,-0.50386 -0.198031,-0.712399l5.77728e-08,1.79927e-08c0.282841,0.0880874 0.591021,0.0279545 0.82,-0.16l4.4495e-08,2.68167e-07c0.207017,1.24767 1.38628,2.09129 2.63395,1.88428c1.24767,-0.207017 2.09129,-1.38628 1.88428,-2.63395c-0.0895089,-0.539462 -0.369107,-1.02909 -0.788228,-1.38032l3.83493e-08,-1.01426e-08c0.764392,-0.202167 1.29249,-0.899423 1.28,-1.69Z"></path>
        <path id="path-12" d="M10.35,1.25933e-07l-4.52413e-07,1.42109e-14c-5.71615,2.49861e-07 -10.35,4.63385 -10.35,10.35c0,0 0,7.10543e-15 0,7.10543e-15v12.08h4v-4.6h12.67v4.6h4v-12.08l9.13261e-11,-4.34784e-05c0,-5.70445 -4.61562,-10.3334 -10.32,-10.35Z"></path>
        <path id="path-4" d="M24.0708,9.2c0,-5.09 -1.72,-9.2 -9.2,-9.2c-7.48,0 -9.2,4.11 -9.2,9.2c0,0 -3.76,-0.54 -5.57,2l-8.63335e-09,1.35473e-08c-0.100828,0.158218 -0.071096,0.366343 0.07,0.49c5.1,4.06 12.49,-3.95 29,0.75l1.14504e-08,3.04674e-09c0.1868,0.0497042 0.378525,-0.061434 0.428229,-0.248234c0.0205085,-0.0770757 0.0140772,-0.158844 -0.0182288,-0.231766c-1.44,-3.27 -5.51,-2.76 -5.51,-2.76Z"></path>
        <path id="path-13" d="M0,9.78v-9.78"></path>
        <path id="path-14" d="M3.46191,25.49l2.24931e-07,2.66712e-07c0.867451,1.02858 2.2442,1.47457 3.55,1.15c0,0 0.47,-4.12 0.78,-9.77c0.15,-2.8 0.27,-6 0.27,-9.2l-2.48318e-07,-4.15896e-06c-0.159412,-2.66991 -0.860291,-5.27949 -2.06,-7.67l-4.50315e-07,2.08242e-07c-3.65977,1.69241 -6.00191,5.35786 -6,9.39v12.08h4Z"></path>
        <path id="path-16" d="M4.6,25.49l1.09442e-07,-1.29049e-07c-0.872018,1.02824 -2.25124,1.47378 -3.56,1.15c0,0 -0.47,-4.12 -0.78,-9.77c-0.15,-2.8 -0.26,-6 -0.26,-9.2l-4.89746e-07,9.29892e-06c0.140395,-2.66572 0.820817,-5.27515 2,-7.67l4.53061e-07,2.09852e-07c3.65806,1.69436 5.99942,5.35859 6,9.39v12.08h-4Z"></path>
        <path id="path-5" d="M1.38,0.368254l-2.28387e-09,-2.17719e-09c-0.386298,-0.368254 -0.993702,-0.368254 -1.38,4.35438e-09"></path>
        <path id="path-17" d="M14.2322,0.0101862h-10.07l5.90541e-08,4.9473e-10c-1.21589,-0.0101862 -2.38299,0.477611 -3.23,1.35l-4.98193e-08,4.83969e-08c-0.577163,0.560684 -0.911122,1.32556 -0.93,2.13l-4.36083e-08,1.25598e-05c-0.00216224,0.623146 0.197847,1.23018 0.570008,1.73c0.58,0.57 2.3,5.75 8.63,5.75c6.33,0 8,-5.18 8.62,-5.75l1.90516e-07,-2.5034e-07c0.378361,-0.497172 0.58222,-1.10523 0.58,-1.73l6.18958e-08,2.20832e-06c-0.0225807,-0.805645 -0.360053,-1.57034 -0.940006,-2.13001l9.08264e-08,9.35478e-08c-0.847011,-0.87239 -2.01411,-1.36019 -3.23,-1.35Z"></path>
        <path id="path-10" d="M0,0l0.68,6.32h8.05l0.68,-6.32h-9.41Z"></path>
        <path id="path-9" d="M11.03,18.4l1.62,-14.96v-3.44h-12.65v3.44l1.62,14.96h9.41Z"></path>
    </defs>
    <g fill="#E8F4FA">
        <path d="M80,39.9963l1.75431e-07,0.00374627c-1.42109e-14,-22.0914 -17.9086,-40 -40,-40c-22.0914,7.10543e-15 -40,17.9086 -40,40c0,5.68809 1.21314,11.3108 3.55846,16.4928h72.8815l6.1272e-07,-1.35057e-06c2.35079,-5.18164 3.56467,-10.8066 3.56,-16.4966Z" transform="translate(10, 16.0037)"></path>
        <path fill="#FFFFFF" d="M2.10036e-06,4.63966e-06l-2.10036e-06,-4.63966e-06c9.11063,20.1253 32.811,29.0544 52.9363,19.9438c8.84893,-4.00588 15.9379,-11.0948 19.9437,-19.9437Z" transform="translate(13.56, 72.5)"></path>
        <path fill="none" stroke="#191816" stroke-linecap="round" stroke-linejoin="round" stroke-width="1" d="M0,0h78" transform="translate(11, 72.5)"></path>
        <use fill="none" stroke="#191816" stroke-linecap="round" stroke-linejoin="round" stroke-width="1" transform="translate(6.5, 72.5)" xlink:href="#path-1"></use>
        <use fill="none" stroke="#191816" stroke-linecap="round" stroke-linejoin="round" stroke-width="1" transform="translate(91, 72.5)" xlink:href="#path-1"></use>
    </g>
    <g fill="#614B44">
        <use transform="translate(23.7232, 22.35)" xlink:href="#path-2"></use>
        <use fill="none" stroke="#191816" stroke-linecap="round" stroke-linejoin="round" stroke-width="1" transform="translate(23.7232, 22.35)" xlink:href="#path-2"></use>
        <path fill="#FFDA8F" stroke="#191816" stroke-linecap="round" stroke-linejoin="round" stroke-width="1" d="M14.9512,5.52c0,0 -6.9,-2.65 -6.9,-5.52c0,2.87 -6.9,5.52 -6.9,5.52l-1.12304e-07,2.03816e-08c-0.666821,0.121019 -1.15121,0.702287 -1.15,1.38l-5.80218e-08,-1.67758e-05c0.00252161,0.730329 0.5623,1.33786 1.28998,1.40002l-1.47155e-07,-7.06431e-07c0.777128,3.73068 4.43143,6.12501 8.16212,5.34789c2.68784,-0.559897 4.78799,-2.66004 5.34789,-5.34789l-2.28905e-08,1.94007e-09c0.729416,-0.0618213 1.2923,-0.66801 1.3,-1.4l4.40879e-09,1.06771e-06c-0.00279213,-0.676254 -0.48532,-1.2553 -1.14998,-1.38Z" transform="translate(28.4688, 26.98)"></path>
        <use fill="#FFBE3D" transform="translate(31.836, 33.796)" xlink:href="#path-3"></use>
        <use fill="#FFBE3D" transform="translate(39.306, 33.796)" xlink:href="#path-3"></use>
        <path fill="none" stroke="#191816" stroke-linecap="round" stroke-linejoin="round" stroke-width="1" d="M3.45,6.94448e-09l9.18371e-09,-6.94448e-09c-1.02054,0.771704 -2.42946,0.771704 -3.45,1.3889e-08" transform="translate(34.79, 36.75)"></path>
        <use fill="#8CA4B8" transform="translate(21.6392, 20.08)" xlink:href="#path-4"></use>
        <path fill="#ADC4D9" d="M9,2.98c4.63,0 7.4,1.34 9,3.47c-0.64,-3.74 -2.92,-6.45 -9,-6.45c-6.08,0 -8.35,2.72 -9,6.48c1.58,-2.15 4.35,-3.5 9,-3.5Z" transform="translate(27.52, 20.08)"></path>
        <use fill="none" stroke="#191816" stroke-linecap="round" stroke-linejoin="round" stroke-width="1" transform="translate(21.6392, 20.08)" xlink:href="#path-4"></use>
        <path fill="#BF8256" stroke="#191816" stroke-linecap="round" stroke-linejoin="round" stroke-width="1" d="M18.0674,4.01652e-05h-17.69l-6.46804e-08,2.85271e-07c-0.256576,1.13162 -0.377428,2.28978 -0.36,3.45h18.4l6.04736e-07,-4.49912e-05c0.0155847,-1.1596 -0.101852,-2.31716 -0.350009,-3.45Z" transform="translate(27.2926, 25.83)"></path>
        <use fill="none" stroke="#191816" stroke-linecap="round" stroke-linejoin="round" stroke-width="1" transform="translate(38.24, 32.3617)" xlink:href="#path-5"></use>
        <use fill="none" stroke="#191816" stroke-linecap="round" stroke-linejoin="round" stroke-width="1" transform="translate(33.41, 32.3617)" xlink:href="#path-5"></use>
        <path fill="none" stroke="#191816" stroke-linecap="round" stroke-linejoin="round" stroke-width="1" d="M0,34v-34" transform="translate(69.35, 38.5)"></path>
        <use fill="#00B8F0" transform="translate(52.4257, 39.5)" xlink:href="#path-6"></use>
        <path fill="#4ACFFF" d="M1.06025,6.99c2.42,-2.6 8.45,-4.49 15.86,-4.49c7.41,0 13.45,1.85 15.86,4.45l7.32805e-09,-1.13713e-09c0.545753,-0.0846876 0.919521,-0.595761 0.834833,-1.14151c-0.00942645,-0.060747 -0.0244343,-0.120495 -0.044833,-0.178486c-1.5,-3.21 -8.2,-5.63 -16.69,-5.63c-8.49,0 -15.18,2.42 -16.68,5.63l-3.57282e-08,9.18302e-08c-0.200254,0.514701 0.0546559,1.09429 0.569357,1.29454c0.0930691,0.0362102 0.191037,0.0582751 0.290644,0.0654602Z" transform="translate(52.4297, 39.5)"></path>
        <use fill="none" stroke="#191816" stroke-linecap="round" stroke-linejoin="round" stroke-width="1" transform="translate(52.4257, 39.5)" xlink:href="#path-6"></use>
        <path fill="#F0D5A8" stroke="#191816" stroke-linecap="round" stroke-linejoin="round" stroke-width="1" d="M0,4.37114e-08h6h-4.37114e-08c0.552285,-2.41411e-08 1,0.447715 1,1v1h-7v-2Z" transform="translate(52.35, 65.5)"></path>
        <path fill="none" stroke="#191816" stroke-linecap="round" stroke-linejoin="round" stroke-width="1" d="M0,0l1.5,8v2l-1,5" transform="translate(50.85, 57.5)"></path>
        <path fill="none" stroke="#191816" stroke-linecap="round" stroke-linejoin="round" stroke-width="1" d="M0,0l1,5" transform="translate(59.35, 67.5)"></path>
        <g transform="translate(153.7, 133)">
            <g fill="#F0D5A8" stroke="#191816" stroke-linecap="round" stroke-linejoin="round" stroke-width="1" transform="rotate(180)">
                <path d="M0,0h7v1v0c0,0.552285 -0.447715,1 -1,1h-6v-2Z" transform="translate(73.35, 65.5)"></path>
            </g>
        </g>
        <path fill="none" stroke="#191816" stroke-linecap="round" stroke-linejoin="round" stroke-width="1" d="M1.5,0l-1.5,8v2l1,5" transform="translate(80.35, 57.5)"></path>
        <path fill="none" stroke="#191816" stroke-linecap="round" stroke-linejoin="round" stroke-width="1" d="M1,0l-1,5" transform="translate(72.35, 67.5)"></path>
        <use fill="#DEBB7E" transform="translate(60.35, 60.5)" xlink:href="#path-7"></use>
        <path fill="#F0D5A8" d="M17.0105,7.10543e-15h-16h-4.37114e-08c-0.552285,2.41411e-08 -1,0.447715 -1,1c0,0 0,0 0,0v1l-1.16306e-08,9.23148e-08c-0.0104577,0.0830052 -0.0104577,0.166995 2.32611e-08,0.25l2.85769e-08,-1.10914e-07c0.116766,-0.4532 0.532234,-0.764801 1,-0.75h16l-1.64024e-08,5.18988e-10c0.467766,-0.0148006 0.883234,0.2968 1,0.75l2.56537e-09,-2.0362e-08c0.0104577,-0.0830052 0.0104577,-0.166995 -5.13074e-09,-0.25v-1v-1.03395e-07c0,-0.552285 -0.447715,-1 -1,-1c-7.43985e-08,0 -1.48446e-07,7.10543e-15 -2.22845e-07,2.13163e-14Z" transform="translate(60.3395, 60.5)"></path>
        <use fill="none" stroke="#191816" stroke-linecap="round" stroke-linejoin="round" stroke-width="1" transform="translate(60.35, 60.5)" xlink:href="#path-7"></use>
        <use fill="none" stroke="#191816" stroke-linecap="round" stroke-linejoin="round" stroke-width="1" transform="translate(76.35, 63.5)" xlink:href="#path-8"></use>
        <use fill="none" stroke="#191816" stroke-linecap="round" stroke-linejoin="round" stroke-width="1" transform="translate(62.35, 63.5)" xlink:href="#path-8"></use>
        <path fill="#FFFFFF" stroke="#191816" stroke-linecap="round" stroke-linejoin="round" stroke-width="1" d="M2.87376,0.00199629h-2.37l-2.28996e-08,-1.65549e-10c-0.276135,-0.00199629 -0.501605,0.220237 -0.503602,0.496372c-0.000153728,0.0212642 0.00104924,0.0425166 0.00360157,0.0636277l0.43,3.44h2.5l0.43,-3.44l7.87803e-09,-5.456e-08c0.0386742,-0.267842 -0.147103,-0.516322 -0.414945,-0.554996c-0.0248533,-0.00358861 -0.0499456,-0.00526143 -0.0750553,-0.00500368Z" transform="translate(62.9162, 56.498)"></path>
        <path fill="none" stroke="#191816" stroke-linecap="round" stroke-linejoin="round" stroke-width="1" d="M1,2.5c0.5,-1 -1,-1.5 0,-2.5" transform="translate(63.35, 52)"></path>
        <path opacity="0.15" fill="#191816" d="M20.7545,0.671702c4.49103,0.671702 4.49103,1.76075 0,2.43245c-4.49103,0.671702 -11.7724,0.671702 -16.2635,0c-4.49103,-0.671702 -4.49103,-1.76075 0,-2.43245c4.49103,-0.671702 11.7724,-0.671702 16.2635,0" transform="translate(23.8972, 84.8921)"></path>
        <use fill="#656769" transform="translate(30.19, 61.48)" xlink:href="#path-9"></use>
        <path fill="#525252" d="M0,0v3.45l0.87,8l5.85035e-08,1.61981e-08c0.400653,0.11093 0.814277,0.168098 1.23,0.17l-3.07464e-07,1.60594e-09c0.445306,-0.00232591 0.888635,-0.0594213 1.32,-0.17l5.13419e-08,-1.34746e-08c0.691477,-0.181477 1.20011,-0.769584 1.28,-1.48c0,0 0.18,-1.64 0.39,-4.2l-1.15912e-08,1.47922e-07c0.0261565,-0.333801 0.305177,-0.591023 0.64,-0.59h1.19l-1.6348e-08,4.99512e-11c0.334822,-0.00102325 0.613843,0.256199 0.64,0.59c0.21,2.56 0.39,4.17 0.39,4.2l2.09729e-08,1.86499e-07c0.0798908,0.710416 0.588523,1.29852 1.28,1.48l-5.0389e-08,-1.28327e-08c0.431496,0.10989 0.87474,0.166974 1.32,0.17l-1.75848e-07,1.66665e-09c0.426111,-0.00403857 0.849805,-0.0645662 1.26,-0.18l0.86,-8v-3.44Z" transform="translate(30.19, 61.48)"></path>
        <use fill="none" stroke="#191816" stroke-linecap="round" stroke-linejoin="round" stroke-width="1" transform="translate(30.19, 61.48)" xlink:href="#path-9"></use>
        <use fill="#FFDA8F" transform="translate(31.81, 79.88)" xlink:href="#path-10"></use>
        <path fill="none" stroke="#191816" stroke-linecap="round" stroke-linejoin="round" stroke-width="1" d="M0,0h9.41" transform="translate(31.81, 79.88)"></path>
        <use fill="none" stroke="#191816" stroke-linecap="round" stroke-linejoin="round" stroke-width="1" transform="translate(31.81, 79.88)" xlink:href="#path-10"></use>
        <path fill="#947746" stroke="#191816" stroke-linecap="round" stroke-linejoin="round" stroke-width="1" d="M5.98002,3.45553l-3.41331e-08,7.59286e-10c0.63497,-0.0141247 1.13827,-0.54032 1.12414,-1.17529c-0.00382867,-0.172116 -0.0462522,-0.341177 -0.124141,-0.494709l-6.15467e-08,-1.11263e-07c-0.604289,-1.09242 -1.7516,-1.77316 -3,-1.78h-0.53l-1.79227e-07,-5.2178e-10c-1.89985,-0.0055308 -3.44447,1.53012 -3.45,3.42997c-1.94361e-05,0.00667637 -1.94357e-05,0.0133528 1.04355e-09,0.0200292Z" transform="translate(36.55, 82.7445)"></path>
        <path fill="#947746" stroke="#191816" stroke-linecap="round" stroke-linejoin="round" stroke-width="1" d="M7.31735,3.45v-1.42109e-14c0,-1.90538 -1.54462,-3.45 -3.45,-3.45c0,0 -7.10543e-15,0 -7.10543e-15,0h-0.58l7.71452e-08,-4.22673e-10c-1.2484,0.00684008 -2.39571,0.687578 -3,1.78l-9.1914e-08,1.81179e-07c-0.287345,0.566409 -0.0611186,1.25851 0.505291,1.54586c0.153532,0.0778884 0.322593,0.120312 0.494709,0.12414Z" transform="translate(29.2027, 82.75)"></path>
        <path fill="none" stroke="#191816" stroke-linecap="round" stroke-linejoin="round" stroke-width="1" d="M0,0v17.82" transform="translate(36.52, 68.38)"></path>
        <path fill="#FF6242" stroke="#191816" stroke-linecap="round" stroke-linejoin="round" stroke-width="1" d="M15.0008,10.205l-0.92,-9.2l3.72758e-08,2.8334e-07c-0.0752711,-0.572149 -0.56292,-0.999912 -1.14,-1h-10.81l2.69197e-08,2.29861e-10c-0.580881,-0.00495994 -1.07425,0.424058 -1.15,1l-0.92,9.2l-3.37084e-08,3.50752e-07c-0.0607578,0.632215 0.4025,1.19398 1.03471,1.25474c0.0383165,0.00368233 0.0767936,0.00543854 0.115286,0.00526199h12.65l2.57396e-08,-1.05786e-10c0.635122,-0.00261017 1.14787,-0.519594 1.14526,-1.15472c-0.000144484,-0.0351565 -0.00190106,-0.070288 -0.00526418,-0.105284Z" transform="translate(19.2092, 72.435)"></path>
        <path fill="none" stroke="#191816" stroke-linecap="round" stroke-linejoin="round" stroke-width="1" d="M6.9,6.88v-2.88c0,-2.86 -1.54,-4 -3.45,-4c-1.91,0 -3.45,1.16 -3.45,4v2.88" transform="translate(23.29, 68.4)"></path>
        <path fill="#E04122" stroke="#191816" stroke-linecap="round" stroke-linejoin="round" stroke-width="1" d="M0,2.87h14.04l-0.29,-2.87h-13.46l-0.29,2.87Z" transform="translate(19.72, 75.28)"></path>
        <use fill="#EBCB00" stroke="#191816" stroke-linecap="round" stroke-linejoin="round" stroke-width="1" transform="translate(22.14, 78.15)" xlink:href="#path-11"></use>
        <use fill="#EBCB00" stroke="#191816" stroke-linecap="round" stroke-linejoin="round" stroke-width="1" transform="translate(29.04, 78.15)" xlink:href="#path-11"></use>
        <use fill="#F0F0F0" transform="translate(26.17, 43.65)" xlink:href="#path-12"></use>
        <use fill="none" stroke="#191816" stroke-linecap="round" stroke-linejoin="round" stroke-width="1" transform="translate(26.17, 43.65)" xlink:href="#path-12"></use>
        <use fill="none" stroke="#191816" stroke-linecap="round" stroke-linejoin="round" stroke-width="1" transform="translate(30.19, 51.7)" xlink:href="#path-13"></use>
        <path fill="#FFDA8F" stroke="#191816" stroke-linecap="round" stroke-linejoin="round" stroke-width="1" d="M4,2v0c0,1.10457 -0.895431,2 -2,2c-1.10457,0 -2,-0.895431 -2,-2v-2h4Z" transform="translate(26.19, 66.09)"></path>
        <path fill="#FFDA8F" stroke="#191816" stroke-linecap="round" stroke-linejoin="round" stroke-width="1" d="M4.36,1.45433e-09l-4.1588e-07,2.37105e-09c-1.50919,0.00860435 -2.9979,0.350052 -4.36,1l3.5275e-07,6.00873e-07c1.412,2.4052 4.50645,3.21035 6.91165,1.79835c0.74305,-0.436216 1.36213,-1.0553 1.79835,-1.79835l-2.02819e-07,-9.68361e-08c-1.35894,-0.648827 -2.84415,-0.990255 -4.35,-0.999999Z" transform="translate(32.16, 43.65)"></path>
        <use fill="#F0F0F0" transform="translate(26.1581, 44.61)" xlink:href="#path-14"></use>
        <path fill="#FFFFFF" d="M7.18191,3l9.17699e-07,2.75229e-06c-0.340138,-1.02011 -0.734022,-2.02152 -1.18,-3l-4.50315e-07,2.08242e-07c-3.65977,1.69241 -6.00191,5.35786 -6,9.39v3.45l-2.57324e-07,0.000213305c0.00537057,-4.49022 2.90539,-8.4648 7.1798,-9.84015Z" transform="translate(26.1581, 44.6)"></path>
        <use fill="none" stroke="#191816" stroke-linecap="round" stroke-linejoin="round" stroke-width="1" transform="translate(30.19, 51.7)" xlink:href="#path-15"></use>
        <use fill="none" stroke="#191816" stroke-linecap="round" stroke-linejoin="round" stroke-width="1" transform="translate(26.1581, 44.61)" xlink:href="#path-14"></use>
        <use fill="none" stroke="#191816" stroke-linecap="round" stroke-linejoin="round" stroke-width="1" transform="translate(42.84, 51.7)" xlink:href="#path-13"></use>
        <path fill="#FFDA8F" stroke="#191816" stroke-linecap="round" stroke-linejoin="round" stroke-width="1" d="M2.13163e-14,2l2.13163e-14,3.01992e-07c1.66785e-07,1.10457 0.895431,2 2,2c1.10457,-1.66785e-07 2,-0.895431 2,-2v-2h-4Z" transform="translate(42.84, 66.09)"></path>
        <use fill="#F0F0F0" transform="translate(38.82, 44.61)" xlink:href="#path-16"></use>
        <path fill="#FFFFFF" d="M3.00545e-05,3l-3.65815e-08,1.09712e-07c0.340138,-1.02011 0.734022,-2.02152 1.18,-3l4.53061e-07,2.09852e-07c3.65806,1.69436 5.99942,5.35859 6,9.39v3.45l-6.06581e-08,-3.15789e-05c-0.00862988,-4.48919 -2.90754,-8.46204 -7.18003,-9.83998Z" transform="translate(39.69, 44.6)"></path>
        <use fill="none" stroke="#191816" stroke-linecap="round" stroke-linejoin="round" stroke-width="1" transform="translate(42.84, 51.7)" xlink:href="#path-15"></use>
        <use fill="none" stroke="#191816" stroke-linecap="round" stroke-linejoin="round" stroke-width="1" transform="translate(38.82, 44.61)" xlink:href="#path-16"></use>
        <use fill="#00DBA8" transform="translate(27.3178, 43.6398)" xlink:href="#path-17"></use>
        <path fill="#00F5BC" d="M0.582162,5.17806l3.25608e-08,-4.38626e-08c0.10871,-0.146443 0.225561,-0.286664 0.35,-0.42l1.8727e-07,-1.89313e-07c0.852072,-0.861369 2.01853,-1.33806 3.23,-1.32h10.07l-3.66587e-08,5.46621e-10c1.21147,-0.0180645 2.37793,0.45863 3.23,1.32l1.78514e-07,1.91276e-07c0.124439,0.133336 0.24129,0.273557 0.35,0.42v0l1.90516e-07,-2.5034e-07c0.378361,-0.497172 0.58222,-1.10523 0.58,-1.73l-1.20442e-08,-3.82595e-07c-0.0250967,-0.797221 -0.358485,-1.55362 -0.93,-2.11l-8.77936e-08,-8.87515e-08c-0.852072,-0.86137 -2.01853,-1.33806 -3.23,-1.32h-10.07l-9.38516e-08,-1.39944e-09c-1.21147,-0.0180644 -2.37793,0.458631 -3.23,1.32l-4.98193e-08,4.83969e-08c-0.577163,0.560684 -0.911122,1.32556 -0.93,2.13l-4.36083e-08,1.25598e-05c-0.00216224,0.623146 0.197847,1.23018 0.570008,1.73Z" transform="translate(27.3178, 43.6619)"></path>
        <use fill="none" stroke="#191816" stroke-linecap="round" stroke-linejoin="round" stroke-width="1" transform="translate(27.3178, 43.6398)" xlink:href="#path-17"></use>
        <path fill="#00DBA8" stroke="#191816" stroke-linecap="round" stroke-linejoin="round" stroke-width="1" d="M10.35,1.15c0,1.11 -2.32,2.88 -5.17,2.88c-2.85,0 -5.18,-1.77 -5.18,-2.88c0,-1.11 2.32,-1.15 5.18,-1.15c2.86,0 5.17,0.04 5.17,1.15Z" transform="translate(31.34, 43.65)"></path>
        <path fill="#FF6242" stroke="#191816" stroke-linecap="round" stroke-linejoin="round" stroke-width="1" d="M0,2.3l7.68129e-07,-1.03117e-07c2.78045,-0.37326 5.49203,-1.148 8.04999,-2.3" transform="translate(31.34, 47.1)"></path>
        <path fill="none" stroke="#191816" stroke-linecap="round" stroke-linejoin="round" stroke-width="1" d="M0,1.15l3.25382e-07,1.1713e-07c1.81317,0.652701 3.84006,0.205308 5.21,-1.15" transform="translate(34.79, 50.55)"></path>
        <path fill="#FFDA8F" stroke="#191816" stroke-linecap="round" stroke-linejoin="round" stroke-width="1" d="M5.1796,0.449103c1.1208,0.449103 1.1208,1.17724 0,1.62635c-1.1208,0.449103 -2.93799,0.449103 -4.05879,0c-1.1208,-0.449103 -1.1208,-1.17724 0,-1.62635c1.1208,-0.449103 2.93799,-0.449103 4.05879,0" transform="translate(33.3698, 42.9677)"></path>
    </g>
</svg>