<?xml version="1.0" encoding="UTF-8"?>
<svg version="1.1" viewBox="0 0 100 112" xmlns="http://www.w3.org/2000/svg" xmlns:xlink="http://www.w3.org/1999/xlink">
    <!--Generated by IJSVG (https://github.com/curthard89/IJSVG)-->
    <defs>
        <path id="path-6" d="M0,0h12.09v5.37h-12.09Z"></path>
        <path id="path-1" d="M0,0h2.5"></path>
        <path id="path-7" d="M0,0v6.04"></path>
        <path id="path-3" d="M34.24,41.3619l-5,-16l-3.14093e-06,-9.95779e-06c-2.42399,-7.68486 -2.71091,-15.8845 -0.829995,-23.72l0.06,-0.26l3.38046e-09,-1.34757e-08c0.149161,-0.594613 -0.211948,-1.19756 -0.806561,-1.34672c-0.0926541,-0.0232427 -0.187921,-0.0344279 -0.283439,-0.0332783h-20.55l8.29083e-09,2.49472e-11c-0.613033,-0.0018445 -1.11149,0.493622 -1.11333,1.10666c-0.000277248,0.0921454 0.0109205,0.183967 0.0333347,0.273345l0.06,0.26l1.64234e-06,6.83233e-06c1.87999,7.82098 1.60002,16.0058 -0.810002,23.68l-5,16Z"></path>
        <path id="path-4" d="M0,0h10.08v10.75h-10.08Z"></path>
        <path id="path-2" d="M42.33,51.1281l-6.11,-19.47l1.83413e-06,5.85483e-06c-3.03313,-9.68222 -3.37878,-20.0066 -1,-29.87l0.0600027,-0.380011l3.58694e-08,-1.50293e-07c0.143594,-0.601661 -0.227743,-1.20581 -0.829403,-1.3494c-0.0853668,-0.0203739 -0.172832,-0.0306431 -0.260597,-0.0305963h-26l6.57602e-08,2.99006e-09c-0.61792,-0.0280963 -1.14162,0.450051 -1.16972,1.06797c-0.00476919,0.104888 0.00523443,0.209926 0.029717,0.312029l0.08,0.34l2.49304e-06,1.03372e-05c2.37877,9.8634 2.03313,20.1878 -1,29.87l-6.13,19.51Z"></path>
        <path id="path-5" d="M0,0h12.09v15.45h-12.09Z"></path>
    </defs>
    <g fill="#E8F4FA">
        <path d="M80,39.9963l1.75431e-07,0.00374627c-1.42109e-14,-22.0914 -17.9086,-40 -40,-40c-22.0914,7.10543e-15 -40,17.9086 -40,40c0,5.68809 1.21314,11.3108 3.55846,16.4928h72.8815l6.1272e-07,-1.35057e-06c2.35079,-5.18164 3.56467,-10.8066 3.56,-16.4966Z" transform="translate(10, 16.2237)"></path>
        <path fill="#FFFFFF" d="M2.10036e-06,4.63966e-06l-2.10036e-06,-4.63966e-06c9.11063,20.1253 32.811,29.0544 52.9363,19.9438c8.84893,-4.00588 15.9379,-11.0948 19.9437,-19.9437Z" transform="translate(13.56, 72.72)"></path>
        <path fill="none" stroke="#191816" stroke-linecap="round" stroke-linejoin="round" stroke-width="1" d="M0,0h78" transform="translate(11, 72.72)"></path>
        <use fill="none" stroke="#191816" stroke-linecap="round" stroke-linejoin="round" stroke-width="1" transform="translate(6.5, 72.72)" xlink:href="#path-1"></use>
        <use fill="none" stroke="#191816" stroke-linecap="round" stroke-linejoin="round" stroke-width="1" transform="translate(91, 72.72)" xlink:href="#path-1"></use>
    </g>
    <g fill="#FFFFFF">
        <use transform="translate(16.42, 21.5919)" xlink:href="#path-2"></use>
        <path fill="#E8F4FA" d="M33.71,0h-25.13l-6.86872e-07,1.41888e-05c-0.232091,4.79433 -1.07558,9.53938 -2.51,14.12l-6.07,19.47h42.33l-6.11,-19.47l-1.86931e-06,-5.96937e-06c-1.43442,-4.5806 -2.27791,-9.32566 -2.51,-14.12Z" transform="translate(16.42, 39.13)"></path>
        <use fill="none" stroke="#191816" stroke-linecap="round" stroke-linejoin="round" stroke-width="1" transform="translate(16.42, 21.5919)" xlink:href="#path-2"></use>
        <path fill="#8CA4B8" stroke="#191816" stroke-linecap="round" stroke-linejoin="round" stroke-width="1" d="M0,7.39h42.33l-2.32,-7.39h-37.69l-2.32,7.39Z" transform="translate(16.42, 65.33)"></path>
        <path fill="none" stroke="#191816" stroke-linecap="round" stroke-linejoin="round" stroke-width="1" d="M0,0l4.57,7.39l2.94,-7.39l3.6,7.39l3.03,-7.39l3.03,7.39" transform="translate(18.74, 65.33)"></path>
        <use transform="translate(35.93, 31.3581)" xlink:href="#path-3"></use>
        <path fill="#E8F4FA" d="M27.28,2.78895e-05h-20.28l1.60228e-06,-2.78895e-05c-0.211944,3.68914 -0.883806,7.33737 -1.99999,10.86l-5,16h34.27l-5,-16l-1.87351e-06,-5.93144e-06c-1.11279,-3.52304 -1.78129,-7.17125 -1.99,-10.86Z" transform="translate(35.9, 45.85)"></path>
        <use fill="none" stroke="#191816" stroke-linecap="round" stroke-linejoin="round" stroke-width="1" transform="translate(35.93, 31.3581)" xlink:href="#path-3"></use>
        <path fill="#8CA4B8" stroke="#191816" stroke-linecap="round" stroke-linejoin="round" stroke-width="1" d="M1.47,0l-1.47,4.7h34.26l-1.48,-4.7h-31.31Z" transform="translate(35.91, 68.02)"></path>
        <path fill="none" stroke="#191816" stroke-linecap="round" stroke-linejoin="round" stroke-width="1" d="M0,0l2.99,4.7l2.89,-4.7" transform="translate(37.45, 68.02)"></path>
        <use fill="#BDBEC0" transform="translate(43.97, 61.97)" xlink:href="#path-4"></use>
        <path d="M0,0h10.08v8.71h-10.08Z" transform="translate(43.97, 64.01)"></path>
        <use fill="none" stroke="#191816" stroke-linecap="round" stroke-linejoin="round" stroke-width="1" transform="translate(43.97, 61.97)" xlink:href="#path-4"></use>
        <use fill="#C0DCEB" transform="translate(54.05, 57.27)" xlink:href="#path-5"></use>
        <use fill="#DAEDF7" transform="translate(54.05, 57.27)" xlink:href="#path-6"></use>
        <use fill="#C0DCEB" transform="translate(71.51, 57.27)" xlink:href="#path-5"></use>
        <use fill="#DAEDF7" transform="translate(71.51, 57.27)" xlink:href="#path-6"></use>
        <use fill="none" stroke="#191816" stroke-linecap="round" stroke-linejoin="round" stroke-width="1" transform="translate(54.05, 57.27)" xlink:href="#path-5"></use>
        <path stroke="#191816" stroke-linecap="round" stroke-linejoin="round" stroke-width="1" d="M12.1176,6.05h-12.09l-1.9435e-07,-2.33267e-05c-0.0276014,-3.31359 2.63622,-6.02217 5.94982,-6.04977c0.0167358,-0.000139404 0.033472,-0.000208784 0.0502083,-0.000208138v0l-3.53272e-07,-2.91969e-09c3.32178,0.0274535 6.00011,2.72811 6,6.05Z" transform="translate(54.0224, 51.22)"></path>
        <use fill="none" stroke="#191816" stroke-linecap="round" stroke-linejoin="round" stroke-width="1" transform="translate(71.51, 57.27)" xlink:href="#path-5"></use>
        <path stroke="#191816" stroke-linecap="round" stroke-linejoin="round" stroke-width="1" d="M12.1,6.05h-12.1l-3.528e-09,-0.000205702c-5.01592e-07,-3.32189 2.67842,-6.02246 6.00021,-6.0498v0l-3.53272e-07,-2.91969e-09c3.32178,0.0274535 6.00011,2.72811 6,6.05Z" transform="translate(71.51, 51.22)"></path>
        <path stroke="#191816" stroke-linecap="round" stroke-linejoin="round" stroke-width="1" d="M0,0h5.37v10.08h-5.37Z" transform="translate(66.14, 62.64)"></path>
        <path fill="#FF6242" stroke="#191816" stroke-linecap="round" stroke-linejoin="round" stroke-width="1" d="M1.03314,3.71586e-05h10.27v4h-10.27h-4.37114e-08c-0.552285,-2.41411e-08 -1,-0.447715 -1,-1c0,0 0,0 0,0v-1.94l-5.24553e-08,-8.72663e-07c-0.0331375,-0.55129 0.386908,-1.02506 0.938198,-1.0582c0.0205776,-0.0012369 0.0411886,-0.0018372 0.0618033,-0.00180004Z" transform="translate(42.6969, 57.94)"></path>
        <path fill="none" stroke="#191816" stroke-linecap="round" stroke-linejoin="round" stroke-width="1" d="M5.38,0l-5.38,3.35h5.38l-5.38,3.36h5.38l-5.38,3.36" transform="translate(66.14, 62.65)"></path>
        <use fill="none" stroke="#191816" stroke-linecap="round" stroke-linejoin="round" stroke-width="1" transform="translate(60.09, 66.68)" xlink:href="#path-7"></use>
        <use fill="none" stroke="#191816" stroke-linecap="round" stroke-linejoin="round" stroke-width="1" transform="translate(56.73, 66.68)" xlink:href="#path-7"></use>
        <use fill="none" stroke="#191816" stroke-linecap="round" stroke-linejoin="round" stroke-width="1" transform="translate(63.45, 66.68)" xlink:href="#path-7"></use>
        <use fill="none" stroke="#191816" stroke-linecap="round" stroke-linejoin="round" stroke-width="1" transform="translate(77.56, 66.68)" xlink:href="#path-7"></use>
        <use fill="none" stroke="#191816" stroke-linecap="round" stroke-linejoin="round" stroke-width="1" transform="translate(74.2, 66.68)" xlink:href="#path-7"></use>
        <use fill="none" stroke="#191816" stroke-linecap="round" stroke-linejoin="round" stroke-width="1" transform="translate(80.92, 66.68)" xlink:href="#path-7"></use>
        <path fill="#FF6242" stroke="#191816" stroke-linecap="round" stroke-linejoin="round" stroke-width="1" d="M1,2.41411e-08h0.69h-4.37114e-08c0.552285,-2.41411e-08 1,0.447715 1,1v2.36h-2.69v-2.36l1.42109e-14,1.50996e-07c-8.33927e-08,-0.552285 0.447715,-1 1,-1Z" transform="translate(46.66, 69.36)"></path>
        <path fill="none" stroke="#191816" stroke-linecap="round" stroke-linejoin="round" stroke-width="1" d="M6.72,0h-6.72" transform="translate(47.33, 65.33)"></path>
        <path stroke="#191816" stroke-width="1" d="M4,2v0c0,1.10457 -0.895431,2 -2,2c-1.10457,0 -2,-0.895431 -2,-2c0,-1.10457 0.895431,-2 2,-2l-8.74228e-08,3.55271e-15c1.10457,-4.82823e-08 2,0.89543 2,2Z" transform="translate(59.26, 19.66)"></path>
        <path stroke="#191816" stroke-width="1" d="M4,2v0c0,1.10457 -0.895431,2 -2,2c-1.10457,0 -2,-0.895431 -2,-2c0,-1.10457 0.895431,-2 2,-2l-8.74228e-08,1.77636e-15c1.10457,-4.82823e-08 2,0.89543 2,2Z" transform="translate(36.41, 10.93)"></path>
        <path stroke="#191816" stroke-linejoin="round" stroke-width="1" d="M7.71333,1.31039l1.1178e-07,1.11919e-07c-1.30744,-1.30907 -3.42854,-1.31039 -4.73761,-0.00295448c-0.786826,0.785845 -1.1324,1.91092 -0.922386,3.00295h-0.07l-7.28231e-08,1.32911e-09c-1.10439,0.0201564 -1.98333,0.931778 -1.96317,2.03616c0.0201564,1.10439 0.931778,1.98333 2.03616,1.96317c0.944053,-0.0172301 1.74745,-0.692354 1.92701,-1.61933l1.9315e-07,8.72954e-08c1.68596,0.761981 3.6704,0.012949 4.43239,-1.67301c0.573711,-1.26939 0.302002,-2.76135 -0.682386,-3.74699Z" transform="translate(47.1667, 7.89961)"></path>
    </g>
</svg>