<?xml version="1.0" encoding="UTF-8"?>
<svg version="1.1" viewBox="0 0 100 112" xmlns="http://www.w3.org/2000/svg" xmlns:xlink="http://www.w3.org/1999/xlink">
    <!--Generated by IJSVG (https://github.com/curthard89/IJSVG)-->
    <defs>
        <path id="path-2" d="M17.45,24.8686v-20.6l-4.99737e-07,-4.23791e-07c-5.03354,-4.26859 -12.4165,-4.26859 -17.45,8.47583e-07v20.6Z"></path>
        <path id="path-4" d="M13.52,0l2.02998e-07,8.50018e-09c2.2072,0.0924227 3.92157,1.95664 3.82915,4.16384c-0.0764648,1.8261 -1.38097,3.36812 -3.16915,3.74616l-12.53,0.42l-1.65,-6.63Z"></path>
        <path id="path-7" d="M1.78669,0.386619c0.386619,0.386619 0.386619,1.01345 0,1.40007c-0.386619,0.386619 -1.01345,0.386619 -1.40007,0c-0.386619,-0.386619 -0.386619,-1.01345 0,-1.40007c0.386619,-0.386619 1.01345,-0.386619 1.40007,0"></path>
        <path id="path-1" d="M0,0h2.5"></path>
        <path id="path-6" d="M1,4.37114e-08h-4.37114e-08c-0.552285,2.41411e-08 -1,0.447715 -1,1c2.41411e-08,0.552285 0.447715,1 1,1c0.552285,-2.41411e-08 1,-0.447715 1,-1v0c0,-0.552285 -0.447715,-1 -1,-1Z"></path>
        <path id="path-5" d="M20.8041,10.4839c0,6.14 -4.62,11.9 -10.31,11.9c-5.69,0 -10.32,-5.76 -10.32,-11.9l-3.02182e-07,-9.57988e-06c-0.17412,-5.5201 4.15965,-10.1362 9.67976,-10.3103c0.213366,-0.00673019 0.426893,-0.00662648 0.640253,0.000310965l-1.16474e-07,3.67021e-09c5.52011,-0.173943 10.136,4.15998 10.31,9.68009c0.00661471,0.209919 0.00661461,0.419994 -2.78101e-07,0.629912Z"></path>
        <path id="path-3" d="M3.92567,0l-3.06546e-08,1.21921e-09c-2.20739,0.0877928 -3.92567,1.94841 -3.83788,4.1558c0.0727341,1.82877 1.3774,3.3749 3.16788,3.7542l12.53,0.42l1.71,-6.63Z"></path>
    </defs>
    <g fill="#E8F4FA">
        <path d="M80,39.9963l1.75431e-07,0.00374627c-1.42109e-14,-22.0914 -17.9086,-40 -40,-40c-22.0914,7.10543e-15 -40,17.9086 -40,40c0,5.68809 1.21314,11.3108 3.55846,16.4928h72.8815l4.26825e-07,-9.41766e-07c2.34872,-5.18233 3.56251,-10.8069 3.56,-16.4966Z" transform="translate(10, 16.1737)"></path>
        <path fill="#FFFFFF" d="M2.10036e-06,4.63966e-06l-2.10036e-06,-4.63966e-06c9.11063,20.1253 32.811,29.0544 52.9363,19.9438c8.84893,-4.00588 15.9379,-11.0948 19.9437,-19.9437Z" transform="translate(13.56, 72.67)"></path>
        <path fill="none" stroke="#191816" stroke-linecap="round" stroke-linejoin="round" stroke-width="1" d="M0,0h78" transform="translate(10.5, 72.67)"></path>
        <use fill="none" stroke="#191816" stroke-linecap="round" stroke-linejoin="round" stroke-width="1" transform="translate(6, 72.67)" xlink:href="#path-1"></use>
        <use fill="none" stroke="#191816" stroke-linecap="round" stroke-linejoin="round" stroke-width="1" transform="translate(90.5, 72.67)" xlink:href="#path-1"></use>
    </g>
    <g stroke="#191816" stroke-linecap="round" stroke-linejoin="round" stroke-width="1">
        <path fill="none" d="M0,1.15v-1.15" transform="translate(22.97, 63.27)"></path>
        <path fill="#DEBB7E" d="M10.32,2.3l1.96429e-07,-4.36053e-07c-0.918122,2.03815 -2.91582,3.37641 -5.15,3.45l-2.59927e-07,-7.3825e-09c-2.24225,-0.0636849 -4.25064,-1.40391 -5.17,-3.45c0,0 2.63,-2.3 5.17,-2.3c2.54,0 5.15,2.3 5.15,2.3Z" transform="translate(17.83, 64.42)"></path>
        <path fill="none" d="M10.35,0h-10.35" transform="translate(17.8, 66.72)"></path>
        <path fill="none" d="M0,2.79l1.2,-2.79" transform="translate(19.52, 69.68)"></path>
        <path fill="none" d="M1.19,2.79l-1.19,-2.79" transform="translate(25.23, 69.68)"></path>
        <path fill="none" d="M3.59916,5.17667l5.10771e-08,-0.000133034c0.000321354,-0.930741 -0.739783,-1.69289 -1.67013,-1.71987l-2.65816e-08,2.02536e-09c-0.952691,0.0725892 -1.78385,-0.640874 -1.85643,-1.59357c-0.0725892,-0.952691 0.640874,-1.78385 1.59357,-1.85643c0.0874961,-0.00666667 0.175373,-0.00666666 0.262869,4.05072e-09" transform="translate(17.0708, 56.3633)"></path>
        <path fill="none" d="M1.15,5.75667h4.70605e-09c-0.635127,-2.77623e-08 -1.15,-0.514873 -1.15,-1.15c2.77623e-08,-0.635127 0.514873,-1.15 1.15,-1.15l8.14134e-08,6.20319e-09c0.952691,0.0725892 1.78385,-0.640874 1.85643,-1.59357c0.0725892,-0.952691 -0.640874,-1.78385 -1.59357,-1.85643c-0.0874961,-0.00666666 -0.175373,-0.00666666 -0.262869,1.24064e-08" transform="translate(25.27, 56.3633)"></path>
        <path fill="#FFE500" d="M0.275967,2.53l-4.06671e-08,1.34796e-07c-0.275967,0.91473 0.241853,1.87998 1.15658,2.15595c0.91473,0.275967 1.87998,-0.241853 2.15595,-1.15658c0.0197485,-0.0654589 0.0355989,-0.132031 0.0474681,-0.199366c0.3,-1.26 -1.62,-1.47 -1.57,-3.33l-3.93924e-08,2.23093e-08c-0.943815,0.534515 -1.60009,1.46209 -1.79,2.53Z" transform="translate(69.324, 58.61)"></path>
        <path fill="#FFFEF2" d="M1,5.92515e-08h2.6h-4.37114e-08c0.552285,-2.41411e-08 1,0.447715 1,1v5.9h-4.6v-5.9l1.42109e-14,-1.07284e-07c8.33927e-08,-0.552285 0.447715,-1 1,-1Z" transform="translate(69, 65.57)"></path>
        <path fill="#FFFEF2" d="M1,5.92515e-08h2.6h-4.37114e-08c0.552285,-2.41411e-08 1,0.447715 1,1v3.6h-4.6v-3.6l1.42109e-14,-1.07284e-07c8.33927e-08,-0.552285 0.447715,-1 1,-1Z" transform="translate(71.27, 67.87)"></path>
        <path fill="#FFFEF2" d="M1,2.41411e-08h2.6h-4.37114e-08c0.552285,-2.41411e-08 1,0.447715 1,1v7.05h-4.6v-7.05l1.42109e-14,1.50996e-07c-8.33927e-08,-0.552285 0.447715,-1 1,-1Z" transform="translate(78.17, 64.42)"></path>
        <path fill="#FFE500" d="M3.66,2.53l3.61445e-08,2.05052e-07c0.16586,0.940946 -0.462471,1.83819 -1.40342,2.00405c-0.863015,0.152124 -1.70347,-0.365081 -1.95658,-1.20405c-0.3,-1.26 1.62,-1.47 1.57,-3.33l1.58635e-07,8.92965e-08c0.945753,0.532369 1.60275,1.46098 1.79,2.53Z" transform="translate(71.58, 60.94)"></path>
        <path fill="#FFE500" d="M3.66,2.53l3.61445e-08,2.05052e-07c0.16586,0.940946 -0.462471,1.83819 -1.40342,2.00405c-0.863015,0.152124 -1.70347,-0.365081 -1.95658,-1.20405c-0.3,-1.26 1.62,-1.47 1.57,-3.33l1.67767e-07,9.50121e-08c0.943815,0.534515 1.60009,1.46209 1.79,2.53Z" transform="translate(78.48, 57.47)"></path>
        <use fill="#FF87AF" transform="translate(40.48, 53.6214)" xlink:href="#path-2"></use>
        <path fill="#FFB0CA" d="M9.46514e-06,4.26859v5l-2.46182e-07,-8.95202e-06c0.0865615,3.14777 2.66104,5.65578 5.80999,5.66001h5.82h-2.544e-07c3.2143,1.40501e-07 5.82,-2.6057 5.82,-5.82v-4.84l-4.99737e-07,-4.23791e-07c-5.03354,-4.26859 -12.4165,-4.26859 -17.45,8.47583e-07Z" transform="translate(40.48, 53.6214)"></path>
        <path fill="#FFFFFF" d="M66.8543,12.3023l-1.18219e-08,-1.21257e-08c0.377686,0.387393 0.480733,0.966039 0.26,1.46l3.1909e-08,-7.3447e-08c-0.209622,0.482501 -0.683946,0.796103 -1.21,0.8h-64.58l-6.19461e-09,1.60867e-11c-0.729013,0.0018952 -1.32153,-0.587551 -1.32343,-1.31656c-0.000896285,-0.344768 0.133133,-0.676203 0.373427,-0.923436l11.36,-11.9l1.27563e-07,-1.34042e-07c0.247675,-0.260255 0.590733,-0.408311 0.95,-0.41h41.85l-5.39398e-08,1.76375e-09c0.376571,-0.0123134 0.740457,0.13688 1,0.41Z" transform="translate(16.3857, 78.2377)"></path>
        <path opacity="0.15" fill="#231F20" d="M31.0234,0.773238c6.71311,0.773238 6.71311,2.0269 0,2.80014c-6.71311,0.773238 -17.5972,0.773238 -24.3103,0c-6.71311,-0.773238 -6.71311,-2.0269 0,-2.80014c6.71311,-0.773238 17.5972,-0.773238 24.3103,0" transform="translate(31.1317, 86.5867)"></path>
        <path fill="#D18660" d="M3.73256e-06,4.26859v2.39l-9.44153e-08,-3.23108e-06c0.0918652,3.14384 2.66482,5.64594 5.81,5.65h5.82l2.1539e-07,3.71045e-10c3.20877,0.00552749 5.81447,-2.59121 5.82,-5.79998c1.1494e-05,-0.00667241 1.14938e-05,-0.0133448 -7.42084e-10,-0.0200172v-2.22l-4.99737e-07,-4.23791e-07c-5.03354,-4.26859 -12.4165,-4.26859 -17.45,8.47583e-07Z" transform="translate(40.48, 53.6214)"></path>
        <use fill="none" transform="translate(40.48, 53.6214)" xlink:href="#path-2"></use>
        <path fill="#D18660" d="M12.6915,18.21h-5.55l-1.22292e-07,5.17105e-10c-1.3089,0.00553448 -2.37447,-1.05105 -2.38,-2.35996c-2.82485e-05,-0.00668076 -2.82482e-05,-0.0133616 1.03419e-09,-0.0200424v-15.83l-2.09926e-07,1.77951e-07c-3.02053,2.56046 -4.76145,6.32026 -4.76,10.28v5.55l8.52651e-14,-1.07811e-06c-5.95424e-07,3.94331 3.19669,7.14 7.14,7.14h5.55l-1.04033e-07,-1.42109e-14c1.31444,5.74559e-08 2.38,-1.06556 2.38,-2.38c5.74559e-08,-1.31444 -1.06556,-2.38 -2.38,-2.38Z" transform="translate(35.7185, 57.9)"></path>
        <path fill="#D18660" d="M10.31,0.000188306v15.83l-2.82359e-09,-6.67747e-07c0.00553492,1.3089 -1.05105,2.37447 -2.35996,2.38c-0.00668076,2.82507e-05 -0.0133616,2.82526e-05 -0.0200424,5.64698e-09h-5.55h-1.04033e-07c-1.31444,5.74559e-08 -2.38,1.06556 -2.38,2.38c5.74559e-08,1.31444 1.06556,2.38 2.38,2.38h5.55h-3.12099e-07c3.94331,1.72368e-07 7.14,-3.19669 7.14,-7.14c0,0 0,-1.42109e-14 0,-1.42109e-14v-5.55l1.03697e-07,-0.000291219c0.00136717,-3.95974 -1.73963,-7.71951 -4.76022,-10.2799Z" transform="translate(47.62, 57.8998)"></path>
        <path fill="#FFCEBF" d="M3.98,0.3l-2.32,-0.3l-1.66,6.63l3.35,0.12l-1.12544e-07,-9.34455e-09c1.78327,0.148065 3.34892,-1.17753 3.49698,-2.96079c0.00108457,-0.0130624 0.00208987,-0.0261313 0.00301584,-0.0392059v0l5.65694e-08,-7.93963e-07c0.12352,-1.73363 -1.14284,-3.25592 -2.87,-3.45Z" transform="translate(50.34, 81.88)"></path>
        <use fill="#656769" transform="translate(34.5043, 80.18)" xlink:href="#path-3"></use>
        <path fill="#87898C" d="M3.91889,2.5477l13.29,1.68l0.64,-2.36l-13.52,-1.7l2.67371e-07,2.05803e-08c-2.17874,-0.167704 -4.08885,1.44409 -4.29,3.62l1.0145e-08,-8.66551e-08c-0.0388916,0.332199 -0.0388916,0.667801 -2.029e-08,1l2.40146e-07,-4.93597e-07c0.714636,-1.46886 2.25061,-2.35561 3.88,-2.24Z" transform="translate(34.1511, 80.0123)"></path>
        <use fill="none" transform="translate(34.5043, 80.18)" xlink:href="#path-3"></use>
        <path fill="#D18660" d="M2.94548,0.3l2.37,-0.3l1.65,6.63l-3.35,0.12l-6.38748e-08,5.10556e-09c-1.78371,0.142574 -3.34528,-1.18783 -3.48785,-2.97155c-0.000757841,-0.00948122 -0.00147393,-0.0189657 -0.00214824,-0.0284532v0l3.77094e-08,5.15842e-07c-0.125477,-1.71645 1.1129,-3.23148 2.82,-3.45Z" transform="translate(42.7345, 81.88)"></path>
        <use fill="#656769" transform="translate(48.05, 80.18)" xlink:href="#path-4"></use>
        <path fill="#87898C" d="M13.56,2.92197l-2.25712e-08,1.45545e-09c1.75562,-0.113207 3.37911,0.933944 4,2.58l1.88488e-07,-4.86247e-07c0.212049,-0.547029 0.294206,-1.13582 0.24,-1.72l1.24339e-07,1.34227e-06c-0.201173,-2.17172 -2.10501,-3.78197 -4.28,-3.62l-13.52,1.7l0.67,2.68Z" transform="translate(48.01, 80.018)"></path>
        <use fill="none" transform="translate(48.05, 80.18)" xlink:href="#path-4"></use>
        <path fill="#724F3D" d="M4,3.97l2.96056e-07,-2.51831e-09c1.36748,-0.0116321 2.72478,0.236074 4,0.73c0,-2.18 -1.79,-4.7 -4,-4.7c-2.21,0 -3.93,2.52 -4,4.7l1.18619e-06,-4.59926e-07c1.27509,-0.494394 2.63247,-0.742117 4,-0.73Z" transform="translate(45.19, 25.86)"></path>
        <use fill="#724F3D" transform="translate(38.7059, 29.6561)" xlink:href="#path-5"></use>
        <path fill="#A86C4D" d="M10.3166,0.173948l3.28986e-07,1.03669e-08c-5.52011,-0.173948 -10.1361,4.15997 -10.31,9.68008c-0.00661502,0.209922 -0.00661503,0.42 -1.83652e-08,0.629923l-5.02788e-07,-5.69707e-05c0.00475308,0.538711 0.0448364,1.07653 0.119992,1.61v0l-5.84774e-08,4.65485e-07c0.641091,-5.10314 5.0486,-8.88778 10.19,-8.74994l2.01944e-07,-5.61512e-09c5.14521,-0.143064 9.55859,3.64292 10.2,8.75v0l4.07273e-07,-3.03192e-06c0.0721348,-0.537003 0.108881,-1.07817 0.11,-1.61999l-1.87331e-08,6.14005e-07c0.168422,-5.52028 -4.17012,-10.1319 -9.69039,-10.3003c-0.206488,-0.00629989 -0.413122,-0.00619968 -0.619605,0.000300502Z" transform="translate(38.8734, 29.6561)"></path>
        <use fill="none" transform="translate(38.7059, 29.6561)" xlink:href="#path-5"></use>
        <path fill="#D18660" d="M17.2655,6.35v-1.06c0,-0.2 0,-0.4 0,-0.6l1.23977e-07,3.94571e-09c-1.18374,-0.0376737 -2.12522,-1.00567 -2.13,-2.19c-5,0.37 -7.34,-2.5 -7.34,-2.5l-3.06314e-08,4.47283e-08c-0.525106,0.766763 -1.40084,1.21778 -2.33,1.2l1.85223e-07,3.46815e-08c-0.852276,-0.159582 -1.67255,0.401958 -1.83213,1.25423c-0.00284904,0.0152158 -0.00547287,0.0304729 -0.00787065,0.0457664l-5.88513e-09,1.34343e-06c-0.00523826,1.19568 -0.964504,2.16827 -2.16,2.19c0,0.2 0,0.4 0,0.6v1.06l-1.1425e-07,2.06081e-08c-0.880492,0.158821 -1.46552,1.00135 -1.3067,1.88184c0.131301,0.727925 0.73898,1.27448 1.4767,1.32816l-2.52215e-07,-1.217e-06c0.888762,4.28849 5.08575,7.04452 9.37425,6.15575c3.09547,-0.641517 5.51424,-3.06028 6.15575,-6.15575l1.12938e-07,-8.21808e-09c0.892342,-0.0649326 1.56309,-0.840957 1.49816,-1.7333c-0.0536814,-0.737722 -0.600232,-1.3454 -1.32816,-1.4767Z" transform="translate(39.8645, 36.17)"></path>
        <use fill="#191816" transform="translate(45.22, 41.46)" xlink:href="#path-6"></use>
        <use fill="#191816" transform="translate(51.17, 41.46)" xlink:href="#path-6"></use>
        <use fill="#BD704A" transform="translate(43.8133, 44.0133)" xlink:href="#path-7"></use>
        <use fill="#BD704A" transform="translate(52.4033, 44.0133)" xlink:href="#path-7"></use>
        <path fill="none" d="M3.27264e-08,2.20436e-08l-3.27264e-08,-2.20436e-08c1.20899,0.814344 2.79101,0.814344 4,4.40872e-08" transform="translate(47.21, 47.48)"></path>
    </g>
</svg>