<?xml version="1.0" encoding="UTF-8"?>
<svg version="1.1" viewBox="0 0 100 112" xmlns="http://www.w3.org/2000/svg" xmlns:xlink="http://www.w3.org/1999/xlink">
    <!--Generated by IJSVG (https://github.com/curthard89/IJSVG)-->
    <defs>
        <path id="path-1" d="M0,0h78"></path>
        <path id="path-5" d="M0,0v9"></path>
        <path id="path-8" d="M26.4901,11.4l1.94316e-07,-9.67647e-07c0.290597,-1.4471 0.0900029,-2.94979 -0.57,-4.27v0c-1.67,-3.35 -4.69,-3.55 -7,-4c-1.88,-1 -4.92,-3.13 -9.54,-2.11v0l-1.05096e-07,2.33477e-08c-5.75263,1.27798 -9.38006,6.97741 -8.10208,12.73c0.0103797,0.0467226 0.0210736,0.0933748 0.032081,0.139954l1.24,4.91l2.13163e-14,3.01992e-07c-1.66785e-07,-1.10457 0.89543,-2 2,-2h-4.37114e-08c0.552285,2.41411e-08 1,-0.447715 1,-1v-0.5l6.66128e-09,8.06695e-08c-0.0457974,-0.554616 0.333555,-1.05467 0.88,-1.16c3.49,-0.15 9.43,-2.77 11.38,-3.67l-3.49057e-09,1.59435e-09c0.383291,-0.175072 0.835199,-0.0910887 1.13,0.21l-4.42394e-07,-3.94069e-07c1.44039,1.28305 2.94571,2.49131 4.51,3.62l-1.38516e-08,-1.01218e-08c0.258414,0.188831 0.41083,0.489946 0.41,0.81v1l1.42109e-14,1.50996e-07c8.33927e-08,0.552285 0.447715,1 1,1c0.64,0 0.67,-0.88 0.74,-1.24Z"></path>
        <path id="path-4" d="M7,1.15395e-07v15.5h-7v-15.5l1.17726e-07,1.15394e-07c1.94422,1.90571 5.05578,1.90571 7,-2.30789e-07Z"></path>
        <path id="path-2" d="M0,0h2.5"></path>
        <path id="path-6" d="M1.80474,0.390524c0.390524,0.390524 0.390524,1.02369 0,1.41421c-0.390524,0.390524 -1.02369,0.390524 -1.41421,0c-0.390524,-0.390524 -0.390524,-1.02369 0,-1.41421c0.390524,-0.390524 1.02369,-0.390524 1.41421,0"></path>
        <path id="path-7" d="M7,10.5v0l-4.2254e-09,4.14172e-09c-1.94422,1.90571 -5.05578,1.90571 -7,-8.28344e-09v0v-10.5h7Z"></path>
        <path id="path-3" d="M31,15.5v0c0,-8.56041 -6.93959,-15.5 -15.5,-15.5c-8.56041,0 -15.5,6.93959 -15.5,15.5v7.5h31Z"></path>
        <path id="path-9" d="M10,9.72604e-09h-10v4c0,1.5 3.5,2.5 5.5,2.5l-1.64699e-07,-4.07533e-09c1.43045,0.0353952 2.7282,-0.833775 3.24,-2.17l-1.24597e-07,2.9188e-07c0.297055,-0.695879 1.10199,-1.01919 1.79787,-0.722134c0.324786,0.138644 0.58349,0.397348 0.722134,0.722134l1.40635e-07,3.67172e-07c0.511803,1.33622 1.80955,2.20539 3.24,2.17c2,0 5.5,-1 5.5,-2.5v-4Z"></path>
        <path id="path-10" d="M3,1.21441l1.5721e-08,3.69681e-08c-0.352295,-0.828427 -1.30946,-1.21441 -2.13789,-0.862113c-0.388072,0.165031 -0.697082,0.474041 -0.862113,0.862113"></path>
        <path id="path-11" d="M3.32618,6.83618l-2.23,-1l5.5507e-08,2.47668e-08c-0.756535,-0.33756 -1.09618,-1.2245 -0.758621,-1.98103c0.00282976,-0.00634202 0.00570353,-0.0126643 0.0086211,-0.0189664l1.24,-2.74l4.08061e-08,-9.14541e-08c0.33756,-0.756535 1.2245,-1.09618 1.98103,-0.758621c0.00634202,0.00282976 0.0126643,0.00570353 0.0189664,0.0086211l2.23,1l-2.10913e-08,-9.50993e-09c0.893267,0.402769 1.36318,1.3934 1.11,2.34l-8.93395e-08,2.88316e-07c-0.261971,0.845432 -0.628117,1.65498 -1.09,2.41l4.81987e-08,-7.50363e-08c-0.536824,0.835734 -1.60566,1.15085 -2.51,0.74Z"></path>
    </defs>
    <g fill="#E8F4FA">
        <path d="M80,39.9963l1.75431e-07,0.00374627c-1.42109e-14,-22.0914 -17.9086,-40 -40,-40c-22.0914,7.10543e-15 -40,17.9086 -40,40c0,5.68809 1.21314,11.3108 3.55846,16.4928h72.8815l6.1272e-07,-1.35057e-06c2.35079,-5.18164 3.56467,-10.8066 3.56,-16.4966Z" transform="translate(10, 16.5037)"></path>
        <path fill="#FFFFFF" d="M2.10036e-06,4.63966e-06l-2.10036e-06,-4.63966e-06c9.11063,20.1253 32.811,29.0544 52.9363,19.9438c8.84893,-4.00588 15.9379,-11.0948 19.9437,-19.9437Z" transform="translate(13.56, 73)"></path>
        <use fill="none" stroke="#191816" stroke-linecap="round" stroke-linejoin="round" stroke-width="1" transform="translate(11, 73)" xlink:href="#path-1"></use>
        <use fill="none" stroke="#191816" stroke-linecap="round" stroke-linejoin="round" stroke-width="1" transform="translate(6.5, 73)" xlink:href="#path-2"></use>
        <use fill="none" stroke="#191816" stroke-linecap="round" stroke-linejoin="round" stroke-width="1" transform="translate(91, 73)" xlink:href="#path-2"></use>
    </g>
    <g stroke-linecap="round" stroke-linejoin="round" stroke-width="1">
        <use fill="none" stroke="#4F4A45" transform="translate(11, 73)" xlink:href="#path-1"></use>
        <use fill="none" stroke="#4F4A45" transform="translate(91, 73)" xlink:href="#path-2"></use>
        <use fill="#F0F0F0" transform="translate(46.5, 50)" xlink:href="#path-3"></use>
        <use fill="#F0F0F0" transform="translate(58.5, 57.5)" xlink:href="#path-4"></use>
        <use fill="#FF87AF" stroke="#191816" transform="translate(58.5, 57.5)" xlink:href="#path-4"></use>
        <path fill="#FFFFFF" d="M15.5,0l-6.77527e-07,1.42109e-14c-8.56041,3.74188e-07 -15.5,6.93959 -15.5,15.5c0,0 0,1.42109e-14 0,1.42109e-14v4.5l1.77636e-13,2.34043e-06c-1.29259e-06,-8.56041 6.93958,-15.5 15.5,-15.5c8.56041,-1.29259e-06 15.5,6.93958 15.5,15.5c0,0 0,1.42109e-14 0,1.42109e-14v-4.5v0c0,-8.56041 -6.93959,-15.5 -15.5,-15.5Z" transform="translate(46.5, 50)"></path>
        <use fill="none" stroke="#191816" transform="translate(46.5, 50)" xlink:href="#path-3"></use>
        <use fill="none" stroke="#191816" transform="translate(52.5, 64)" xlink:href="#path-5"></use>
        <use fill="none" stroke="#191816" transform="translate(71.5, 64)" xlink:href="#path-5"></use>
        <path fill="#F0F0F0" stroke="#191816" d="M6,0v1.08l2.84217e-14,-4.40908e-07c-2.43507e-07,1.61267 1.30733,2.92 2.92,2.92c0,0 1.42109e-14,0 1.42109e-14,0h3.08h-1.31134e-07c1.65685,-7.24234e-08 3,1.34315 3,3c7.24234e-08,1.65685 -1.34315,3 -3,3h-3.08l1.27183e-07,1.42336e-10c-4.9241,-0.00551095 -8.91449,-3.9959 -8.92,-8.92v-1.08" transform="translate(71.5, 68.5)"></path>
        <path fill="#FFAA54" stroke="#191816" d="M2.70711,0.585786c0.585786,0.585786 0.585786,1.53553 0,2.12132c-0.585786,0.585786 -1.53553,0.585786 -2.12132,0c-0.585786,-0.585786 -0.585786,-1.53553 0,-2.12132c0.585786,-0.585786 1.53553,-0.585786 2.12132,0" transform="translate(82.8536, 62.3536)"></path>
        <use fill="#FFAA54" stroke="#191816" transform="translate(87.9024, 61.9024)" xlink:href="#path-6"></use>
        <use fill="#FFAA54" stroke="#191816" transform="translate(85.4024, 55.4024)" xlink:href="#path-6"></use>
        <path fill="#87898C" stroke="#191816" d="M1,5.92515e-08h13v3h-13h-4.37114e-08c-0.552285,-2.41411e-08 -1,-0.447715 -1,-1c0,0 0,0 0,0v-1l1.06581e-14,-1.07284e-07c8.33927e-08,-0.552285 0.447715,-1 1,-1Z" transform="translate(19, 67.5)"></path>
        <path fill="#FFFFFF" stroke="#191816" d="M1,12c-0.55228,0 -1,-0.44772 -1,-1v-10c0,-0.55228 0.44772,-1 1,-1h4c0.55228,0 1,0.44772 1,1v10c0,0.55228 -0.44772,1 -1,1Z" transform="translate(26, 50.5)"></path>
        <path fill="#656769" stroke="#191816" d="M1,5.92515e-08h2h-4.37114e-08c0.552285,-2.41411e-08 1,0.447715 1,1v4h-4v-4l1.06581e-14,-1.07284e-07c8.33927e-08,-0.552285 0.447715,-1 1,-1Z" transform="translate(27, 45.5)"></path>
        <path fill="#FFFFFF" stroke="#191816" d="M4.37114e-07,20l-4.37114e-07,-1.42109e-14c5.52285,2.41411e-07 10,-4.47715 10,-10c2.41411e-07,-5.52285 -4.47715,-10 -10,-10v5l-2.18557e-07,7.10543e-15c2.76142,-1.20706e-07 5,2.23858 5,5c1.20706e-07,2.76142 -2.23858,5 -5,5Z" transform="translate(32, 53.5)"></path>
        <path fill="#FFFFFF" stroke="#191816" d="M5,2.5v0c0,-1.38071 -1.11929,-2.5 -2.5,-2.5c-1.38071,0 -2.5,1.11929 -2.5,2.5v4.5h5Z" transform="translate(31, 67.5)"></path>
        <path fill="#FFFFFF" stroke="#191816" d="M14.5982,2.67l2.66995e-08,7.63732e-08c0.182258,0.521345 -0.0926256,1.09173 -0.61397,1.27399c-0.104813,0.0366419 -0.214997,0.0555722 -0.32603,0.0560139h-12.66l-6.75737e-10,-2.70006e-12c-0.55228,-0.00219708 -0.998211,-0.45169 -0.996014,-1.00397c0.00044171,-0.111033 0.019372,-0.221217 0.0560139,-0.32603l-5.35557e-08,1.51905e-07c0.563768,-1.59907 2.07446,-2.66898 3.77,-2.67h7l-1.85213e-08,-1.11697e-11c1.69554,0.00102288 3.20623,1.07093 3.77,2.67Z" transform="translate(24.1718, 74.5)"></path>
        <path fill="none" stroke="#191816" d="M0,0v2" transform="translate(29, 62.5)"></path>
        <path opacity="0.15" fill="#191816" d="M16.2426,0.585786c3.51472,0.585786 3.51472,1.53553 0,2.12132c-3.51472,0.585786 -9.2132,0.585786 -12.7279,0c-3.51472,-0.585786 -3.51472,-1.53553 0,-2.12132c3.51472,-0.585786 9.2132,-0.585786 12.7279,0" transform="translate(21.6213, 77.8536)"></path>
        <path fill="#A6FBFF" stroke="#191816" d="M3.95027,15.7274l4.43016e-09,-6.69534e-09c-0.610275,0.922316 -1.85268,1.17527 -2.775,0.565c-0.922316,-0.610275 -1.17527,-1.85268 -0.565,-2.775l8.56,-12.93l4.02878e-08,-6.09597e-08c0.304508,-0.460753 0.924875,-0.587414 1.38563,-0.282906c0.00145997,0.000964886 0.00291741,0.0019336 0.0043723,0.00290614l1.67,1.11l-1.32978e-08,-8.8943e-09c0.456275,0.305183 0.581247,0.921117 0.28,1.38Z" transform="translate(75.9397, 66.7426)"></path>
        <path fill="#FF8A14" stroke="#191816" d="M3.95027,12.63l4.43016e-09,-6.69534e-09c-0.610275,0.922316 -1.85268,1.17527 -2.775,0.565c-0.922316,-0.610275 -1.17527,-1.85268 -0.565,-2.775l6.91,-10.42l3.33,2.16Z" transform="translate(75.9397, 69.84)"></path>
        <use fill="#D18660" transform="translate(58.5, 47)" xlink:href="#path-7"></use>
        <path fill="#BD704A" d="M1.88924e-06,3.49l2.53248e-07,7.54368e-08c2.28375,0.680278 4.71625,0.680278 7,4.87326e-07v-3.49h-7Z" transform="translate(58.5, 47)"></path>
        <use fill="none" stroke="#191816" transform="translate(58.5, 47)" xlink:href="#path-7"></use>
        <path fill="#FFFFFF" stroke="#191816" d="M3.38,7.5l-1.5,2.5l2.38,14h2.12v-24c-2.83,0 -6.38,5.5 -6,6.5Z" transform="translate(52.12, 49)"></path>
        <path fill="#FFFFFF" stroke="#191816" d="M2.12,24l2.38,-14l-1.5,-2.5l3,-1c0.38,-1 -3.17,-6.5 -6,-6.5v24Z" transform="translate(65.5, 49)"></path>
        <path fill="#724F3D" stroke="#191816" d="M4.97288,0.08l-1.67,-0.08l-2.1,1.08l-0.91,1.51l3.78699e-09,-6.80053e-09c-0.292879,0.525942 -0.103944,1.18973 0.421998,1.48261c0.473894,0.263895 1.06972,0.139188 1.398,-0.292606l0.34,-0.49l0.34,0.63l-3.08451e-08,-7.83395e-08c0.218522,0.554997 0.845583,0.827763 1.40058,0.609241c0.554997,-0.218522 0.827763,-0.845583 0.609241,-1.40058c-0.0288818,-0.0733532 -0.0657083,-0.143324 -0.109821,-0.20866l-0.34,-0.63h0.6l3.2363e-08,-3.11053e-09c0.599229,-0.0575941 1.03831,-0.590054 0.980717,-1.18928c-0.0499357,-0.519549 -0.461169,-0.930781 -0.980717,-0.980717Z" transform="translate(55.0271, 53.31)"></path>
        <g transform="translate(-17.84, 31.61)">
            <g fill="#6DD627" stroke="#191816" stroke-linecap="round" stroke-linejoin="round" stroke-width="1" transform="rotate(-27.06)">
                <path d="M0.68,2.25c-0.37555,0 -0.68,-0.30445 -0.68,-0.68v-0.89c0,-0.37555 0.30445,-0.68 0.68,-0.68h3.07c0.37555,0 0.68,0.30445 0.68,0.68v0.89c0,0.37555 -0.30445,0.68 -0.68,0.68Z" transform="translate(54.54, 51.74)"></path>
            </g>
        </g>
        <path fill="#724F3D" stroke="#191816" d="M7.05229,8.26l0.25,-0.39l-1.2622e-06,-5.99341e-07c-3.0069,-1.42779 -5.10624,-4.25816 -5.6,-7.55h-0.11l-1.06386e-07,-2.75705e-10c-0.383223,-0.000993184 -0.758093,-0.112066 -1.08,-0.32l1.15887e-07,-2.51562e-07c-0.176388,0.382896 -0.291138,0.79127 -0.34,1.21l-1.71208e-07,1.4459e-06c-0.172287,1.45501 0.479133,2.88505 1.69,3.71l1.11736e-07,-1.65757e-07c-0.268379,0.398134 -0.439632,0.853667 -0.5,1.33l-4.50745e-08,4.55023e-07c-0.120424,1.21567 0.482015,2.38925 1.54,3l-1.52309e-07,3.51788e-07c-0.558535,1.29005 0.0139768,2.79012 1.29,3.38l-3.84808e-08,7.4083e-08c0.0645175,-0.124209 0.165791,-0.225483 0.29,-0.29l2.73,-1.39l-6.3116e-08,3.87008e-08c0.211687,-0.1298 0.478313,-0.1298 0.69,-9.83292e-08l9.88593e-08,-3.52e-07c0.0405306,-0.144314 0.0706085,-0.291361 0.0899998,-0.439999l5.05728e-08,-6.1269e-07c0.070836,-0.858179 -0.279718,-1.69727 -0.940002,-2.25Z" transform="translate(50.4077, 40.17)"></path>
        <path fill="#D18660" stroke="#191816" d="M22,12.5v-2.5v0c0,-5.52285 -4.47715,-10 -10,-10c-5.52285,0 -10,4.47715 -10,10v2.52h-8.74228e-08c-1.10457,4.82823e-08 -2,0.895431 -2,2c4.82823e-08,1.10457 0.895431,2 2,2h0.12l-2.53277e-07,-1.62014e-06c0.853024,5.45657 5.96796,9.18849 11.4245,8.33546c4.29488,-0.671417 7.66405,-4.04058 8.33546,-8.33546h0.12h-8.74228e-08c1.10457,4.82823e-08 2,-0.89543 2,-2c4.82823e-08,-1.10457 -0.89543,-2 -2,-2Z" transform="translate(50, 24)"></path>
        <path fill="#BD704A" d="M2.25592,0.488155c0.488155,0.488155 0.488155,1.27961 0,1.76777c-0.488155,0.488155 -1.27961,0.488155 -1.76777,0c-0.488155,-0.488155 -0.488155,-1.27961 0,-1.76777c0.488155,-0.488155 1.27961,-0.488155 1.76777,0" transform="translate(54.868, 39.378)"></path>
        <path fill="#BD704A" d="M2.25592,0.488155c0.488155,0.488155 0.488155,1.27961 0,1.76777c-0.488155,0.488155 -1.27961,0.488155 -1.76777,0c-0.488155,-0.488155 -0.488155,-1.27961 -1.42109e-14,-1.76777c0.488155,-0.488155 1.27961,-0.488155 1.76777,0" transform="translate(66.368, 39.378)"></path>
        <use fill="#724F3D" transform="translate(47.4499, 19.7)" xlink:href="#path-8"></use>
        <path fill="#A86C4D" d="M8.95054,4.52c4.62,-1 7.66,1.1 9.54,2.11c2.29,0.41 5.31,0.61 7,4l1.2033e-08,2.4243e-08c0.226209,0.455745 0.400631,0.935405 0.52,1.43l0.13,-0.66l1.94316e-07,-9.67647e-07c0.290597,-1.4471 0.0900029,-2.94979 -0.57,-4.27c-1.67,-3.35 -4.69,-3.55 -7,-4c-1.88,-1 -4.92,-3.13 -9.54,-2.11l-1.00148e-06,2.23345e-07c-5.43843,1.21285 -9.03054,6.40291 -8.25,11.92l-1.82011e-07,9.52303e-07c0.799889,-4.18513 4.01087,-7.49437 8.17,-8.42Z" transform="translate(47.8195, 19.74)"></path>
        <use fill="none" stroke="#191816" transform="translate(47.4499, 19.7)" xlink:href="#path-8"></use>
        <path fill="none" stroke="#191816" d="M6,1.80939e-07l-1.87479e-07,1.80939e-07c-1.67381,1.61541 -4.3262,1.61541 -6,-3.61877e-07" transform="translate(59, 43.29)"></path>
        <use fill="#FFFFFF" transform="translate(52, 34.5)" xlink:href="#path-9"></use>
        <use fill="none" stroke="#191816" transform="translate(52, 34.5)" xlink:href="#path-9"></use>
        <path fill="#FFFFFF" stroke="#191816" d="M2.31,1.8018e-07h-2.31v2h1.85l5.83857e-08,-1.7195e-07c0.220509,-0.649414 0.37463,-1.3195 0.46,-2Z" transform="translate(72, 34.5)"></path>
        <path fill="#FFFFFF" stroke="#191816" d="M0,0h2.31v2h-1.85l3.37122e-07,9.92848e-07c-0.220509,-0.649414 -0.37463,-1.3195 -0.46,-2Z" transform="translate(49.69, 34.5)"></path>
        <use fill="none" stroke="#191816" transform="translate(56.5, 36.2856)" xlink:href="#path-10"></use>
        <use fill="none" stroke="#191816" transform="translate(64.5, 36.2856)" xlink:href="#path-10"></use>
        <use fill="#00DBA8" transform="translate(80.2838, 72.7738)" xlink:href="#path-11"></use>
        <path fill="#00F5BC" d="M0.64,1.94803l3.66,1.65l1.99949e-07,8.95019e-08c0.402713,0.180264 0.782137,0.408589 1.13,0.68c0.07,-0.2 0.14,-0.4 0.2,-0.59l8.42121e-08,-3.14852e-07c0.253183,-0.946598 -0.216733,-1.93723 -1.11,-2.34l-2.23,-1l-4.28083e-08,-1.98182e-08c-0.751773,-0.348035 -1.64334,-0.0207398 -1.99138,0.731034c-0.00291757,0.00630211 -0.00579134,0.0126244 -0.0086211,0.0189664l-0.29,0.63l2.11047e-07,5.07311e-08c0.219835,0.0528436 0.434137,0.12651 0.64,0.22Z" transform="translate(81.56, 72.792)"></path>
        <use fill="none" stroke="#191816" transform="translate(80.2838, 72.7738)" xlink:href="#path-11"></use>
    </g>
</svg>