<?xml version="1.0" encoding="UTF-8"?>
<svg version="1.1" viewBox="0 0 100 112" xmlns="http://www.w3.org/2000/svg" xmlns:xlink="http://www.w3.org/1999/xlink">
    <!--Generated by IJSVG (https://github.com/curthard89/IJSVG)-->
    <defs>
        <path id="path-2" d="M0,10.4273l20.43,-10.11l-2.20147e-08,1.11072e-08c0.62891,-0.317308 1.37109,-0.317308 2,-1.10279e-07l20.41,10.11Z"></path>
        <path id="path-1" d="M0,0h2.5"></path>
        <path id="path-3" d="M0,13.1763l11.78,-12.27l1.23828e-07,-1.26842e-07c0.868054,-0.889178 2.29257,-0.906303 3.18175,-0.0382491c0.0129026,0.0125961 0.0256533,0.0253468 0.0382494,0.0382494l11.78,12.27Z"></path>
        <path id="path-5" d="M5.61273,1.21453c1.21453,1.21453 1.21453,3.18367 0,4.3982c-1.21453,1.21453 -3.18367,1.21453 -4.3982,0c-1.21453,-1.21453 -1.21453,-3.18367 0,-4.3982c1.21453,-1.21453 3.18367,-1.21453 4.3982,0"></path>
        <path id="path-4" d="M8.56,0l1.04824e-07,1.84934e-06c0.0975128,1.72037 -1.21807,3.19405 -2.93844,3.29156c-1.72037,0.0975128 -3.19405,-1.21807 -3.29156,-2.93844c-0.00666654,-0.117614 -0.00666653,-0.235511 2.45755e-08,-0.353126l-2.33,33.48h10.9Z"></path>
        <path id="path-6" d="M4.74,6.00223e-08v-6.00223e-08c0,0.94993 -0.77007,1.72 -1.72,1.72c-0.94993,0 -1.72,-0.77007 -1.72,-1.72l-1.3,18.5h6Z"></path>
    </defs>
    <g fill="#E8F4FA">
        <path d="M80,39.9963l1.75431e-07,0.00374627c-1.42109e-14,-22.0914 -17.9086,-40 -40,-40c-22.0914,7.10543e-15 -40,17.9086 -40,40c0,5.68809 1.21314,11.3108 3.55846,16.4928h72.8815l6.1272e-07,-1.35057e-06c2.35079,-5.18164 3.56467,-10.8066 3.56,-16.4966Z" transform="translate(10, 16.2237)"></path>
        <path fill="#FFFFFF" d="M2.10036e-06,4.63966e-06l-2.10036e-06,-4.63966e-06c9.11063,20.1253 32.811,29.0544 52.9363,19.9438c8.84893,-4.00588 15.9379,-11.0948 19.9437,-19.9437Z" transform="translate(13.56, 72.72)"></path>
        <path fill="none" stroke="#191816" stroke-linecap="round" stroke-linejoin="round" stroke-width="1" d="M0,0h78" transform="translate(11, 72.72)"></path>
        <use fill="none" stroke="#191816" stroke-linecap="round" stroke-linejoin="round" stroke-width="1" transform="translate(6.5, 72.72)" xlink:href="#path-1"></use>
        <use fill="none" stroke="#191816" stroke-linecap="round" stroke-linejoin="round" stroke-width="1" transform="translate(91, 72.72)" xlink:href="#path-1"></use>
    </g>
    <g fill="#6DD627">
        <use transform="translate(36.41, 62.2927)" xlink:href="#path-2"></use>
        <use transform="translate(18.33, 59.5437)" xlink:href="#path-3"></use>
        <path fill="#9CEB60" d="M20.88,3.47731l3.73008e-08,-2.12734e-08c0.334697,-0.190884 0.745303,-0.190884 1.08,4.25468e-08l12.64,7h8.24l-20.43,-10.16l8.50161e-08,4.28937e-08c-0.62891,-0.317308 -1.37109,-0.317308 -2,-1.73852e-07l-20.41,10.11h8.24Z" transform="translate(36.41, 62.2927)"></path>
        <use fill="none" stroke="#191816" stroke-linecap="round" stroke-linejoin="round" stroke-width="1" transform="translate(36.41, 62.2927)" xlink:href="#path-2"></use>
        <path fill="#9CEB60" d="M12.58,4.1063l9.65163e-09,-1.03009e-08c0.419155,-0.447351 1.1216,-0.470208 1.56895,-0.0510533c0.0175669,0.0164597 0.0345937,0.0334865 0.0510534,0.0510534l8.56,9.07h4l-11.76,-12.27l1.98158e-08,2.0298e-08c-0.868054,-0.889178 -2.29257,-0.906303 -3.18175,-0.0382494c-0.0129026,0.0125961 -0.0256533,0.0253468 -0.0382494,0.0382494l-11.78,12.27h4Z" transform="translate(18.33, 59.5437)"></path>
        <use fill="none" stroke="#191816" stroke-linecap="round" stroke-linejoin="round" stroke-width="1" transform="translate(18.33, 59.5437)" xlink:href="#path-3"></use>
        <use fill="#DAEDF7" transform="translate(36.93, 39.24)" xlink:href="#path-4"></use>
        <path fill="#ADC4D9" d="M6.71,0l1.04824e-07,1.84934e-06c0.0975128,1.72037 -1.21807,3.19405 -2.93844,3.29156c-1.72037,0.0975128 -3.19405,-1.21807 -3.29156,-2.93844c-0.00666654,-0.117614 -0.00666653,-0.235511 2.45755e-08,-0.353126l-0.48,6.87l2.9629e-07,1.62386e-07c2.23952,1.2274 4.95048,1.2274 7.19,-3.24772e-07Z" transform="translate(38.78, 39.24)"></path>
        <use fill="none" stroke="#191816" stroke-linecap="round" stroke-linejoin="round" stroke-width="1" transform="translate(36.93, 39.24)" xlink:href="#path-4"></use>
        <path fill="#FFFFFF" stroke="#191816" stroke-linecap="round" stroke-linejoin="round" stroke-width="1" d="M2.92186,18.02l-1.60379e-07,3.84574e-10c1.06287,-0.0025487 2.05245,0.541342 2.62,1.44l1.14461e-07,-2.42221e-07c0.210576,-0.445616 0.300242,-0.93878 0.26,-1.43l-1.21,-16.36v0c0,-0.922316 -0.747684,-1.67 -1.67,-1.67c-0.922316,0 -1.67,0.747684 -1.67,1.67l-1.22,16.36l4.34677e-08,-6.69638e-07c-0.0318572,0.490772 0.0574297,0.981851 0.26,1.43l1.695e-07,-2.65254e-07c0.573448,-0.897401 1.56503,-1.44032 2.63,-1.44Z" transform="translate(39.4581, 18.11)"></path>
        <path fill="#FFFFFF" stroke="#191816" stroke-linecap="round" stroke-linejoin="round" stroke-width="1" d="M18,7.85992l-14.57,-7.53l1.87886e-07,9.77578e-08c-0.422601,-0.21988 -0.893723,-0.329923 -1.37,-0.32l1.48214e-08,2.18086e-08c0.968552,1.42516 0.5984,3.36565 -0.826759,4.3342c-0.370696,0.251929 -0.791321,0.421033 -1.23324,0.495802l-1.84763e-07,-2.0136e-07c0.331822,0.361629 0.747299,0.636325 1.21,0.8l15.53,5.29l2.23684e-09,8.60211e-10c0.860852,0.331057 1.82709,-0.0984266 2.15814,-0.959279c0.314241,-0.817124 -0.0558813,-1.73822 -0.848145,-2.11072Z" transform="translate(42.94, 37.4801)"></path>
        <path fill="#FFFFFF" stroke="#191816" stroke-linecap="round" stroke-linejoin="round" stroke-width="1" d="M16.6432,1.76944l-1.58648e-08,-2.5604e-06c-0.00388135,-0.626451 0.188446,-1.2384 0.550001,-1.75l-1.31629e-07,-5.18779e-09c-0.493181,-0.0194374 -0.982826,0.0909053 -1.42,0.32l-14.58,7.53l3.71759e-08,-1.74791e-08c-0.834662,0.392436 -1.19316,1.38719 -0.800721,2.22186c0.372501,0.792263 1.2936,1.16238 2.11072,0.848143l15.53,-5.29l-5.1046e-08,1.80569e-08c0.462701,-0.163675 0.878178,-0.438371 1.21,-0.8l-1.75125e-07,-3.00879e-08c-1.50036,-0.257774 -2.59767,-1.55766 -2.6,-3.08Z" transform="translate(22.6168, 37.4706)"></path>
        <use fill="#DAEDF7" transform="translate(38.9664, 35.8264)" xlink:href="#path-5"></use>
        <path fill="#E8F4FA" d="M3.12,2.15595l1.46538e-07,4.17096e-10c1.28935,0.0036699 2.44452,0.797604 2.91,2l1.4848e-07,-3.98621e-07c0.133452,-0.358275 0.201202,-0.737679 0.2,-1.12l1.04824e-07,1.84934e-06c-0.0975128,-1.72037 -1.5712,-3.03595 -3.29156,-2.93844c-1.58417,0.089793 -2.84864,1.35427 -2.93844,2.93844l-6.36882e-08,-1.22385e-05c0.00199202,0.382932 0.0731325,0.762356 0.209996,1.12l6.23755e-08,-1.62177e-07c0.463162,-1.20423 1.61978,-1.99915 2.91,-1.99999Z" transform="translate(39.26, 36.2041)"></path>
        <use fill="none" stroke="#191816" stroke-linecap="round" stroke-linejoin="round" stroke-width="1" transform="translate(38.9664, 35.8264)" xlink:href="#path-5"></use>
        <use fill="#DAEDF7" transform="translate(65.64, 54.22)" xlink:href="#path-6"></use>
        <path fill="#ADC4D9" d="M3.71,6.00223e-08v-6.00223e-08c0,0.94993 -0.77007,1.72 -1.72,1.72c-0.94993,0 -1.72,-0.77007 -1.72,-1.72l-0.27,3.78l-3.54048e-07,-1.92469e-07c0.613867,0.333713 1.30129,0.509006 2,0.51l1.48865e-07,4.2818e-10c0.699086,0.0020108 1.38724,-0.173469 2,-0.51Z" transform="translate(66.67, 54.22)"></path>
        <use fill="none" stroke="#191816" stroke-linecap="round" stroke-linejoin="round" stroke-width="1" transform="translate(65.64, 54.22)" xlink:href="#path-6"></use>
        <path fill="#FFFFFF" stroke="#191816" stroke-linecap="round" stroke-linejoin="round" stroke-width="1" d="M1.62133,9.86138l-7.83083e-08,3.92163e-10c0.586876,-0.00293904 1.13426,0.29529 1.45,0.79l3.00562e-08,-6.68533e-08c0.111353,-0.247681 0.15946,-0.519137 0.14,-0.79l-0.67,-9l-7.00443e-09,-1.07176e-07c-0.0316662,-0.484531 -0.434436,-0.861034 -0.92,-0.86l9.6621e-10,2.74269e-12c-0.487485,-0.00138272 -0.893309,0.373895 -0.93,0.86l-0.67,9l-6.22106e-08,7.93249e-07c-0.0213313,0.271997 0.0304575,0.544751 0.15,0.79l1.34587e-07,-2.1239e-07c0.314398,-0.496148 0.862645,-0.794848 1.45,-0.79Z" transform="translate(67.0387, 42.6386)"></path>
        <path fill="#FFFFFF" stroke="#191816" stroke-linecap="round" stroke-linejoin="round" stroke-width="1" d="M9.98,4.33929l-8.06,-4.16l8.65967e-08,4.32876e-08c-0.241749,-0.120844 -0.50989,-0.179285 -0.78,-0.17l3.74195e-08,5.40583e-08c0.203036,0.293316 0.308048,0.643358 0.3,1l3.41598e-09,4.03346e-06c0.000711027,0.840728 -0.609821,1.55725 -1.44,1.69l-7.3555e-08,-8.25894e-08c0.181793,0.204122 0.412279,0.358926 0.67,0.45l8.58,2.93l1.01962e-07,4.02599e-08c0.477732,0.188634 1.01793,-0.0457261 1.20656,-0.523458c0.181361,-0.459312 -0.0278809,-0.98028 -0.476562,-1.18654Z" transform="translate(68.94, 53.2407)"></path>
        <path fill="#FFFFFF" stroke="#191816" stroke-linecap="round" stroke-linejoin="round" stroke-width="1" d="M9.22107,1.00845l-5.89241e-08,-2.61113e-06c-0.00804789,-0.356642 0.0969652,-0.706683 0.300001,-0.999999l1.0124e-07,3.13182e-09c-0.273243,-0.00845262 -0.54442,0.049902 -0.79,0.17l-8.06,4.16l-3.86835e-08,1.77831e-08c-0.466675,0.214534 -0.671076,0.766763 -0.456542,1.23344c0.206262,0.448681 0.727231,0.657923 1.18654,0.476562l8.58,-2.93l-1.26958e-07,4.48646e-08c0.257721,-0.091074 0.488207,-0.245878 0.67,-0.45l-1.37896e-07,-2.28705e-08c-0.815112,-0.135188 -1.41698,-0.833855 -1.43,-1.66Z" transform="translate(57.7189, 53.2115)"></path>
        <path fill="#DAEDF7" stroke="#191816" stroke-linecap="round" stroke-linejoin="round" stroke-width="1" d="M3.44,1.72v0c0,0.94993 -0.77007,1.72 -1.72,1.72c-0.94993,0 -1.72,-0.77007 -1.72,-1.72c0,-0.94993 0.77007,-1.72 1.72,-1.72c0,0 0,0 0,0h-7.51836e-08c0.94993,-4.15228e-08 1.72,0.77007 1.72,1.72Z" transform="translate(66.94, 52.5)"></path>
        <path fill="none" stroke="#00AED9" stroke-linecap="round" stroke-linejoin="round" stroke-width="1" d="M0,1.38995l0.87,-0.87l2.2892e-08,-2.27706e-08c0.52272,-0.519947 1.36728,-0.519947 1.89,4.4942e-08l0.79,0.79l2.2892e-08,2.27706e-08c0.52272,0.519947 1.36728,0.519947 1.89,-4.4942e-08l0.79,-0.79l2.2892e-08,-2.27706e-08c0.52272,-0.519947 1.36728,-0.519947 1.89,4.4942e-08l0.78,0.79l9.22796e-08,9.13978e-08c0.52614,0.521112 1.37386,0.521111 1.9,-1.82796e-07l0.78,-0.79l2.2892e-08,-2.27706e-08c0.52272,-0.519947 1.36728,-0.519947 1.89,4.4942e-08l0.79,0.79l2.2892e-08,2.27706e-08c0.52272,0.519947 1.36728,0.519947 1.89,-4.4942e-08l0.79,-0.79" transform="translate(57.74, 32.5301)"></path>
        <path fill="none" stroke="#00AED9" stroke-linecap="round" stroke-linejoin="round" stroke-width="1" d="M0,1.39111l0.87,-0.87l2.2892e-08,-2.27706e-08c0.52272,-0.519947 1.36728,-0.519947 1.89,4.4942e-08l0.79,0.79l2.2892e-08,2.27706e-08c0.52272,0.519947 1.36728,0.519947 1.89,-4.4942e-08l0.78,-0.79l9.22796e-08,-9.13978e-08c0.52614,-0.521112 1.37386,-0.521111 1.9,1.82796e-07l0.78,0.79l9.22796e-08,9.13978e-08c0.52614,0.521112 1.37386,0.521111 1.9,-1.82796e-07l0.78,-0.79l2.2892e-08,-2.27706e-08c0.52272,-0.519947 1.36728,-0.519947 1.89,4.4942e-08l0.79,0.79l2.2892e-08,2.27706e-08c0.52272,0.519947 1.36728,0.519947 1.89,-4.4942e-08l0.79,-0.79" transform="translate(55.51, 26.9489)"></path>
        <path fill="none" stroke="#00AED9" stroke-linecap="round" stroke-linejoin="round" stroke-width="1" d="M0,1.39326l0.87,-0.86l-8.88225e-08,9.10762e-08c0.508994,-0.521909 1.34471,-0.532379 1.86662,-0.0233848c0.0078922,0.0076969 0.0156877,0.0154924 0.0233846,0.0233846l0.78,0.78l9.22796e-08,9.13978e-08c0.52614,0.521112 1.37386,0.521111 1.9,-1.82796e-07l0.78,-0.78l-7.35156e-09,7.50316e-09c0.51407,-0.524671 1.35614,-0.533264 1.88081,-0.0191939c0.00646309,0.00633251 0.0128614,0.0127308 0.0191939,0.0191939l0.78,0.78l2.2892e-08,2.27705e-08c0.52272,0.519947 1.36728,0.519947 1.89,-4.49419e-08l0.79,-0.78l-8.88225e-08,9.10762e-08c0.508994,-0.521909 1.34471,-0.532379 1.86662,-0.0233848c0.0078922,0.0076969 0.0156877,0.0154924 0.0233846,0.0233846l0.79,0.78l2.2892e-08,2.27706e-08c0.52272,0.519947 1.36728,0.519947 1.89,-4.4942e-08l0.78,-0.78" transform="translate(53.28, 21.3667)"></path>
    </g>
</svg>