<?xml version="1.0" encoding="UTF-8"?>
<svg version="1.1" viewBox="0 0 100 112" xmlns="http://www.w3.org/2000/svg" xmlns:xlink="http://www.w3.org/1999/xlink">
    <!--Generated by IJSVG (https://github.com/curthard89/IJSVG)-->
    <defs>
        <path id="path-3" d="M3.60135,0.8544c1,0.71 2.51,3.11 1.9,3.95c-0.61,0.84 -3.18,-0.2 -4.14,-0.9l1.52286e-07,7.19852e-08c-0.953684,-0.450804 -1.36135,-1.58937 -0.910546,-2.54305c0.450804,-0.953684 1.58937,-1.36135 2.54305,-0.910546c0.230774,0.109086 0.437341,0.263323 0.607495,0.453596Z"></path>
        <path id="path-13" d="M0,0v13.8"></path>
        <path id="path-8" d="M0,0h2"></path>
        <path id="path-1" d="M0,0h2.5"></path>
        <path id="path-4" d="M2.51,0.8544c-1,0.71 -2.51,3.11 -1.89,3.95c0.62,0.84 3.17,-0.2 4.13,-0.9l1.08453e-07,-5.12654e-08c0.953684,-0.450804 1.36135,-1.58937 0.910546,-2.54305c-0.450804,-0.953684 -1.58937,-1.36135 -2.54305,-0.910546c-0.230774,0.109086 -0.437341,0.263323 -0.607495,0.453596Z"></path>
        <path id="path-9" d="M0,0v2"></path>
        <path id="path-5" d="M3.59,0.17594c-1.17,0.23 -3.59,1.77 -3.38,2.79c0.21,1.02 3,1.15 4.13,0.91l-4.3203e-08,3.71568e-09c1.04548,-0.0899169 1.82012,-1.01034 1.7302,-2.05582c-0.0899169,-1.04548 -1.01034,-1.82012 -2.05582,-1.7302c-0.144276,0.0124085 -0.286661,0.0412703 -0.424381,0.0860232Z"></path>
        <path id="path-10" d="M11.5,0l-5.02681e-07,1.42109e-14c-6.35127,2.77623e-07 -11.5,5.14873 -11.5,11.5c0,0 0,7.10543e-15 0,7.10543e-15v1.15h4v8.6h15v-6.3h4v-3.45v0c0,-6.35127 -5.14873,-11.5 -11.5,-11.5c0,0 -1.06581e-14,0 -1.06581e-14,0Z"></path>
        <path id="path-7" d="M10.8284,2.34315c2.34315,2.34315 2.34315,6.14214 0,8.48528c-2.34315,2.34315 -6.14214,2.34315 -8.48528,0c-2.34315,-2.34315 -2.34315,-6.14214 0,-8.48528c2.34315,-2.34315 6.14214,-2.34315 8.48528,0"></path>
        <path id="path-6" d="M8,2h-4.37114e-08c0.552285,2.41411e-08 1,-0.447715 1,-1c2.41411e-08,-0.552285 -0.447715,-1 -1,-1h-7h-4.37114e-08c-0.552285,2.41411e-08 -1,0.447715 -1,1c2.41411e-08,0.552285 0.447715,1 1,1Z"></path>
        <path id="path-11" d="M4.82823e-08,8.74228e-08h19.55v4.9v0c0,1.10457 -0.895431,2 -2,2h-15.55h-8.74228e-08c-1.10457,-4.82823e-08 -2,-0.895431 -2,-2c0,0 0,0 0,0v-4.9Z"></path>
        <path id="path-14" d="M1.15,4.03c-0.635122,0 -1.15,-0.514878 -1.15,-1.15v-1.73c0,-0.635122 0.514878,-1.15 1.15,-1.15h2.88c0.635122,0 1.15,0.514878 1.15,1.15v1.73c0,0.635122 -0.514878,1.15 -1.15,1.15Z"></path>
        <path id="path-12" d="M9.41004,7.82158e-10h-8.85l2.08581e-08,-7.82158e-10c-0.314581,0.0117965 -0.560037,0.276378 -0.54824,0.590959c0.00270389,0.0721056 0.0190738,0.143042 0.0482402,0.209041l1.31,2.62v6.38l3.90855e-09,3.40531e-07c0.0106807,0.930545 0.759535,1.68383 1.69,1.7h4.6l-6.32162e-08,-1.10693e-09c0.949784,0.0166309 1.73322,-0.739839 1.74985,-1.68962c6.05623e-05,-0.00345868 0.00011069,-0.00691754 0.000150384,-0.0103765Z"></path>
        <path id="path-15" d="M13.78,2.06392l9.63137e-08,4.5379e-07c-0.262581,-1.23717 -1.47837,-2.02724 -2.71555,-1.76466c-0.0215539,0.00457466 -0.0430406,0.00946016 -0.0644535,0.014655l-2.44411e-07,6.32637e-08c-1.13829,0.294637 -2.30504,0.465626 -3.48,0.51l-1.97316e-07,-7.54402e-09c-1.17819,-0.045046 -2.34818,-0.216019 -3.49,-0.51l1.03933e-07,2.66306e-08c-1.22515,-0.31392 -2.47282,0.424781 -2.78674,1.64993c-0.00850091,0.033177 -0.0162565,0.0665405 -0.0232608,0.100065l-1.22,7.38h15Z"></path>
        <path id="path-2" d="M2.41411e-08,4.37114e-08h7v3v0c0,0.552285 -0.447715,1 -1,1h-5h-4.37114e-08c-0.552285,-2.41411e-08 -1,-0.447715 -1,-1c0,0 0,0 0,0v-3Z"></path>
    </defs>
    <g fill="#E8F4FA">
        <path d="M80,39.9963l1.75431e-07,0.00374627c-1.42109e-14,-22.0914 -17.9086,-40 -40,-40c-22.0914,7.10543e-15 -40,17.9086 -40,40c0,5.68809 1.21314,11.3108 3.55846,16.4928h72.8815l6.1272e-07,-1.35057e-06c2.35079,-5.18164 3.56467,-10.8066 3.56,-16.4966Z" transform="translate(10.5, 16.0037)"></path>
        <path fill="#FFFFFF" d="M2.10036e-06,4.63966e-06l-2.10036e-06,-4.63966e-06c9.11063,20.1253 32.811,29.0544 52.9363,19.9438c8.84893,-4.00588 15.9379,-11.0948 19.9437,-19.9437Z" transform="translate(14.06, 72.5)"></path>
        <path fill="none" stroke="#191816" stroke-linecap="round" stroke-linejoin="round" stroke-width="1" d="M0,0h78" transform="translate(11, 72.5)"></path>
        <use fill="none" stroke="#191816" stroke-linecap="round" stroke-linejoin="round" stroke-width="1" transform="translate(6.5, 72.5)" xlink:href="#path-1"></use>
        <use fill="none" stroke="#191816" stroke-linecap="round" stroke-linejoin="round" stroke-width="1" transform="translate(91, 72.5)" xlink:href="#path-1"></use>
    </g>
    <g fill="#BF8256">
        <use transform="translate(73.9, 68.5)" xlink:href="#path-2"></use>
        <path fill="#915E3A" d="M0,0h7v1h-7Z" transform="translate(73.9, 68.5)"></path>
        <use fill="#9CEB60" transform="translate(70.8387, 45.1456)" xlink:href="#path-3"></use>
        <use fill="none" stroke="#191816" stroke-linecap="round" stroke-linejoin="round" stroke-width="1" transform="translate(70.8387, 45.1456)" xlink:href="#path-3"></use>
        <use fill="#9CEB60" transform="translate(76, 45.1456)" xlink:href="#path-4"></use>
        <use fill="none" stroke="#191816" stroke-linecap="round" stroke-linejoin="round" stroke-width="1" transform="translate(76, 45.1456)" xlink:href="#path-4"></use>
        <use fill="#6DD627" transform="translate(78.8, 52.3641)" xlink:href="#path-5"></use>
        <use fill="none" stroke="#191816" stroke-linecap="round" stroke-linejoin="round" stroke-width="1" transform="translate(78.8, 52.3641)" xlink:href="#path-5"></use>
        <path fill="none" stroke="#191816" stroke-linecap="round" stroke-linejoin="round" stroke-width="1" d="M0,3.78c0,0 1.12,-3.29 2.6,-3.78" transform="translate(76.44, 55.43)"></path>
        <path fill="#46B000" stroke="#191816" stroke-linecap="round" stroke-linejoin="round" stroke-width="1" d="M0.47,8.46c0,0 -0.47,-6.91 0.15,-8.46" transform="translate(75.91, 49.82)"></path>
        <path fill="none" stroke="#191816" stroke-linecap="round" stroke-linejoin="round" stroke-width="1" d="M2.41,13.19c0,0 -0.23,-8.74 -0.54,-11.25c-0.17,-1.39 -1.87,-1.94 -1.87,-1.94" transform="translate(74.35, 54.45)"></path>
        <path fill="#6DD627" stroke="#191816" stroke-linecap="round" stroke-linejoin="round" stroke-width="1" d="M2.60716,0.201017c1.16,0.25 3.56,1.82 3.34,2.83c-0.22,1.01 -3,1.11 -4.15,0.86l-1.08673e-07,-1.1791e-08c-1.04322,-0.113189 -1.79716,-1.05064 -1.68397,-2.09386c0.113189,-1.04322 1.05064,-1.79716 2.09386,-1.68397c0.136145,0.0147716 0.270293,0.0442189 0.400108,0.0878285Z" transform="translate(68.3928, 51.419)"></path>
        <use fill="none" stroke="#191816" stroke-linecap="round" stroke-linejoin="round" stroke-width="1" transform="translate(73.9, 68.5)" xlink:href="#path-2"></use>
        <use transform="translate(72.9, 66.5)" xlink:href="#path-6"></use>
        <path fill="#DEA47A" d="M9,1v0c0,-0.552285 -0.447715,-1 -1,-1h-7h-4.37114e-08c-0.552285,2.41411e-08 -1,0.447715 -1,1c0,0 0,0 0,0Z" transform="translate(72.9, 66.5)"></path>
        <use fill="none" stroke="#191816" stroke-linecap="round" stroke-linejoin="round" stroke-width="1" transform="translate(72.9, 66.5)" xlink:href="#path-6"></use>
        <use fill="#FFFFFF" transform="translate(51.8142, 22.9142)" xlink:href="#path-7"></use>
        <path fill="#E8F4FA" d="M6,2.5l1.51365e-07,-4.16911e-11c2.8326,-0.000780146 5.27988,1.97955 5.87,4.75l1.06614e-07,-5.19859e-07c0.0843655,-0.411373 0.12791,-0.83007 0.13,-1.25v0c0,-3.31371 -2.68629,-6 -6,-6c-3.31371,0 -6,2.68629 -6,6l8.68334e-08,1.74427e-05c0.00209107,0.41993 0.0456367,0.838627 0.130003,1.25l-1.14376e-07,5.36965e-07c0.590117,-2.77045 3.03739,-4.75079 5.87,-4.75002Z" transform="translate(52.4, 23.5)"></path>
        <use fill="none" stroke="#191816" stroke-linecap="round" stroke-linejoin="round" stroke-width="1" transform="translate(51.8142, 22.9142)" xlink:href="#path-7"></use>
        <use fill="none" stroke="#191816" stroke-linecap="round" stroke-linejoin="round" stroke-width="1" transform="translate(52.4, 29.5)" xlink:href="#path-8"></use>
        <use fill="none" stroke="#191816" stroke-linecap="round" stroke-linejoin="round" stroke-width="1" transform="translate(62.4, 29.5)" xlink:href="#path-8"></use>
        <use fill="none" stroke="#191816" stroke-linecap="round" stroke-linejoin="round" stroke-width="1" transform="translate(58.4, 23.5)" xlink:href="#path-9"></use>
        <use fill="none" stroke="#191816" stroke-linecap="round" stroke-linejoin="round" stroke-width="1" transform="translate(58.4, 33.5)" xlink:href="#path-9"></use>
        <path fill="none" stroke="#191816" stroke-linecap="round" stroke-linejoin="round" stroke-width="1" d="M0,1l1.5,1.5l2.5,-2.5" transform="translate(56.9, 27.5)"></path>
        <use fill="#FF6242" transform="translate(18.8, 48.75)" xlink:href="#path-10"></use>
        <path fill="#FF866E" d="M11.5,0l-5.02681e-07,1.42109e-14c-6.35127,2.77623e-07 -11.5,5.14873 -11.5,11.5c0,0 0,7.10543e-15 0,7.10543e-15v1.15h0.53l2.49892e-08,-7.92991e-08c1.90891,-6.05762 8.36706,-9.42081 14.4247,-7.5119c4.3832,1.38126 7.5232,5.2395 7.98532,9.8119h0.06v-3.45v0c0,-6.35127 -5.14873,-11.5 -11.5,-11.5c0,0 -1.68697e-07,0 -1.68697e-07,0Z" transform="translate(18.8, 48.75)"></path>
        <use fill="none" stroke="#191816" stroke-linecap="round" stroke-linejoin="round" stroke-width="1" transform="translate(18.8, 48.75)" xlink:href="#path-10"></use>
        <path fill="none" stroke="#191816" stroke-linecap="round" stroke-linejoin="round" stroke-width="1" d="M0,0v2.3" transform="translate(37.77, 59.1)"></path>
        <path fill="#FF6242" stroke="#191816" stroke-linecap="round" stroke-linejoin="round" stroke-width="1" d="M0,1.20706e-08h4.1h-2.18557e-08c0.276142,-1.20706e-08 0.5,0.223858 0.5,0.5v1.3v0c0,0.276142 -0.223858,0.5 -0.5,0.5h-4.1v-2.3Z" transform="translate(37.77, 61.4)"></path>
        <path fill="#FFFFFF" stroke="#191816" stroke-linecap="round" stroke-linejoin="round" stroke-width="1" d="M5.95,0.00583649l-5.9893e-07,-1.66578e-09c-2.09845,-0.00583628 -4.15765,0.568664 -5.95,1.66l5.33,7.79l4.07654e-08,5.84028e-08c0.237081,0.339655 0.704618,0.422808 1.04427,0.185727c0.0723522,-0.0505021 0.135225,-0.113375 0.185727,-0.185727l5.34,-7.79l4.37062e-07,2.66121e-07c-1.79235,-1.09134 -3.85155,-1.66584 -5.95,-1.66Z" transform="translate(24.35, 48.7442)"></path>
        <path fill="#FFCEBF" stroke="#191816" stroke-linecap="round" stroke-linejoin="round" stroke-width="1" d="M2.54,0.00843188l-9.01517e-08,1.50472e-10c-0.854289,0.00142589 -1.70591,0.0953059 -2.54,0.28l2.54,4.89l2.54,-4.92l1.12217e-06,2.34611e-07c-0.835185,-0.174612 -1.6868,-0.258432 -2.54,-0.25Z" transform="translate(27.76, 48.7416)"></path>
        <path fill="#525252" stroke="#191816" stroke-linejoin="round" stroke-width="1" d="M5.17165,2.26032l-0.87,-0.74l1.61279e-07,1.54996e-07c-0.703294,-0.675895 -1.57828,-1.14625 -2.53,-1.36l5.06953e-08,1.02851e-08c-0.790237,-0.160323 -1.56082,0.350322 -1.72114,1.14056c-0.0213222,0.105097 -0.0310003,0.212224 -0.0288592,0.319441v1.27l-5.70959e-08,2.12593e-06c-0.0216472,0.806045 0.614233,1.47702 1.42028,1.49867c0.110639,0.00297135 0.221258,-0.00664782 0.329724,-0.0286721l1.43394e-07,-3.18129e-08c0.950647,-0.210907 1.82553,-0.677741 2.53,-1.35Z" transform="translate(25.1284, 51.8397)"></path>
        <path fill="#525252" stroke="#191816" stroke-linejoin="round" stroke-width="1" d="M0,2.26023l0.87,-0.74l-8.2383e-08,7.955e-08c0.699608,-0.67555 1.57131,-1.14599 2.52,-1.36l-1.1254e-07,2.26567e-08c0.79589,-0.16023 1.57098,0.355074 1.73121,1.15096c0.0204759,0.101707 0.030127,0.205296 0.0287922,0.309036v1.27l6.7702e-08,5.26216e-06c0.0104429,0.811791 -0.639178,1.47834 -1.45097,1.48879c-0.103739,0.0013345 -0.207328,-0.00831702 -0.309035,-0.0287932l-2.55647e-08,-5.69676e-09c-0.947619,-0.211164 -1.81921,-0.678088 -2.52,-1.35Z" transform="translate(30.3, 51.8398)"></path>
        <path fill="#525252" stroke="#191816" stroke-linejoin="round" stroke-width="1" d="M2.68906,0.581881c0.581881,0.581881 0.581881,1.5253 0,2.10718c-0.581881,0.581881 -1.5253,0.581881 -2.10718,0c-0.581881,-0.581881 -0.581881,-1.5253 0,-2.10718c0.581881,-0.581881 1.5253,-0.581881 2.10718,0" transform="translate(28.6645, 52.4645)"></path>
        <path fill="#656769" stroke="#191816" stroke-linecap="round" stroke-linejoin="round" stroke-width="1" d="M2.87705e-07,0v2.3l4.26326e-14,-5.20935e-07c-2.87705e-07,1.90538 1.54462,3.45 3.45,3.45h8.05l-1.21506e-07,-3.53722e-10c1.89985,0.00553097 3.44447,-1.53012 3.45,-3.42997c1.94367e-05,-0.00667637 1.94369e-05,-0.0133528 7.07466e-10,-0.0200292v-2.3Z" transform="translate(22.82, 70)"></path>
        <path fill="#FFCEBF" stroke="#191816" stroke-linecap="round" stroke-linejoin="round" stroke-width="1" d="M8.08008,2.29l6.88068e-08,-9.49063e-07c-0.0800808,1.10457 -1.04043,1.93508 -2.145,1.855c-1.10457,-0.0800808 -1.93508,-1.04043 -1.855,-2.145v0c0,-1.10457 -0.895431,-2 -2,-2c-1.10457,0 -2,0.895431 -2,2l-1.54782e-07,6.44228e-06c-0.0800777,3.33304 2.55697,6.09992 5.89001,6.17999c3.33304,0.0800777 6.09992,-2.55697 6.17999,-5.89001Z" transform="translate(10.6999, 59.11)"></path>
        <path fill="#FFFFFF" stroke="#191816" stroke-linecap="round" stroke-linejoin="round" stroke-width="1" d="M8.05,0.000812344h-6.9h-5.02681e-08c-0.635127,2.77623e-08 -1.15,0.514873 -1.15,1.15v1.15c0,2.54 2.06,4 4.6,3.92c2.54,-0.08 4.63,-1.38 4.63,-3.92v-1.15l3.65582e-08,-3.89416e-06c0.00590936,-0.629577 -0.499673,-1.14474 -1.12925,-1.15065c-0.0169208,-0.000158822 -0.0338429,5.91179e-05 -0.050754,0.000653658Z" transform="translate(14.77, 59.0992)"></path>
        <path fill="#FFCEBF" stroke="#191816" stroke-linecap="round" stroke-linejoin="round" stroke-width="1" d="M2.36779,5.63189l9.98056e-08,2.70922e-08c1.41244,0.383406 2.86826,-0.450792 3.25167,-1.86323c0.0300383,-0.110659 0.0528628,-0.223151 0.0683294,-0.336767l1.24438e-07,-1.14487e-06c0.150528,-1.38491 -0.747218,-2.66741 -2.1,-3l-0.66,-0.18l-2.47617e-08,-6.73356e-09c-0.926278,-0.251887 -1.88451,0.280465 -2.16,1.2l-0.49,1.69l1.08272e-08,-3.63062e-08c-0.277787,0.931483 0.252138,1.91179 1.18362,2.18958c0.0120886,0.00360507 0.0242157,0.00708007 0.036379,0.0104244Z" transform="translate(9.57221, 58.4281)"></path>
        <path fill="#FFFFFF" stroke="#191816" stroke-linecap="round" stroke-linejoin="round" stroke-width="1" d="M0.83,2.06806c-0.83,3.3 3.44,2.72 2,6.7l-1.42768e-06,2.56276e-06c0.994397,-1.78499 1.87288,-3.63214 2.62999,-5.52998l1.3803e-08,-5.49762e-08c0.323087,-1.28682 -0.458177,-2.59191 -1.745,-2.915c-1.28682,-0.323087 -2.59191,0.458177 -2.915,1.745Z" transform="translate(16.11, 44.4719)"></path>
        <path stroke="#191816" stroke-linecap="round" stroke-linejoin="round" stroke-width="1" d="M1.15,3.45c-0.635122,0 -1.15,-0.514878 -1.15,-1.15v-1.15c0,-0.635122 0.514878,-1.15 1.15,-1.15h17.25c0.635122,0 1.15,0.514878 1.15,1.15v1.15c0,0.635122 -0.514878,1.15 -1.15,1.15Z" transform="translate(21.1, 72.32)"></path>
        <path stroke="#191816" stroke-linecap="round" stroke-linejoin="round" stroke-width="1" d="M1.21,10.32h-0.06l2.2136e-08,-1.97588e-10c-0.625763,0.00558526 -1.13905,-0.494308 -1.15,-1.12v-9.2h2.87l-0.51,9.2l2.65892e-08,-1.51886e-06c-0.010953,0.625692 -0.524235,1.12559 -1.15,1.12Z" transform="translate(22.25, 75.8)"></path>
        <path stroke="#191816" stroke-linecap="round" stroke-linejoin="round" stroke-width="1" d="M1.72,10.39h-0.06l-2.55819e-08,8.71125e-12c-0.623594,0.000212208 -1.13373,-0.496618 -1.15,-1.12l-0.51,-9.27h2.87v9.27l2.65893e-08,-1.51886e-06c-0.010953,0.625692 -0.524235,1.12559 -1.15,1.12Z" transform="translate(36.05, 75.73)"></path>
        <path opacity="0.15" fill="#191816" d="M43.5844,0.675607c9.43116,0.675607 9.43116,1.77098 0,2.44659c-9.43116,0.675607 -24.7221,0.675607 -34.1533,0c-9.43116,-0.675607 -9.43116,-1.77098 -3.55271e-15,-2.44659c9.43116,-0.675607 24.7221,-0.675607 34.1533,0" transform="translate(17.0522, 85.3711)"></path>
        <path fill="#656769" stroke="#191816" stroke-linecap="round" stroke-linejoin="round" stroke-width="1" d="M5.79483,2.92083l1.33219e-07,-7.78895e-06c0.027104,-1.58483 -1.23568,-2.89155 -2.8205,-2.91866c-0.126775,-0.00216812 -0.253554,0.00406725 -0.379504,0.0186651l2.79583e-08,-3.95171e-09c-1.49105,0.210749 -2.59482,1.4942 -2.58,3v13.12h5.78001Z" transform="translate(31.4052, 69.9792)"></path>
        <path fill="#947746" stroke="#191816" stroke-linecap="round" stroke-linejoin="round" stroke-width="1" d="M5.89735,3.45l-3.41331e-08,7.59286e-10c0.63497,-0.0141247 1.13827,-0.54032 1.12414,-1.17529c-0.00382867,-0.172116 -0.0462522,-0.341177 -0.124141,-0.494709l-6.15467e-08,-1.11263e-07c-0.604289,-1.09242 -1.7516,-1.77316 -3,-1.78h-0.61l1.33953e-07,-8.0874e-11c-1.24212,0.00074989 -2.38794,0.669149 -3,1.75l-9.1914e-08,1.81179e-07c-0.287345,0.566409 -0.0611186,1.25851 0.505291,1.54586c0.153532,0.0778884 0.322593,0.120312 0.494709,0.12414Z" transform="translate(30.7127, 83.25)"></path>
        <path stroke="#191816" stroke-linecap="round" stroke-linejoin="round" stroke-width="1" d="M1,3.45c-0.55228,0 -1,-0.44772 -1,-1v-1.45c0,-0.55228 0.44772,-1 1,-1h19.85c0.55228,0 1,0.44772 1,1v1.45c0,0.55228 -0.44772,1 -1,1Z" transform="translate(45.25, 66)"></path>
        <use transform="translate(46.4, 69.45)" xlink:href="#path-11"></use>
        <path fill="#915E3A" d="M0,0h19.55v2.3h-19.55Z" transform="translate(46.4, 69.45)"></path>
        <use fill="none" stroke="#191816" stroke-linecap="round" stroke-linejoin="round" stroke-width="1" transform="translate(46.4, 69.45)" xlink:href="#path-11"></use>
        <path stroke="#191816" stroke-linecap="round" stroke-linejoin="round" stroke-width="1" d="M1.81,9.54l3.01193e-08,-2.72457e-07c-0.050782,0.45937 -0.437837,0.80772 -0.9,0.81v0h-3.97774e-08c-0.502579,-2.19684e-08 -0.91,-0.407421 -0.91,-0.91v-9.44h2.87Z" transform="translate(48.7, 76.35)"></path>
        <path stroke="#191816" stroke-linecap="round" stroke-linejoin="round" stroke-width="1" d="M1.97,10.35v0h-3.97774e-08c0.502579,2.19684e-08 0.91,-0.407421 0.91,-0.91v-9.44h-2.88l1.06,9.54l1.02602e-11,8.51799e-11c0.0555065,0.460932 0.445741,0.808284 0.91,0.81Z" transform="translate(60.77, 76.35)"></path>
        <use fill="#00B8F0" transform="translate(51.94, 52.2)" xlink:href="#path-12"></use>
        <path fill="#4ACFFF" d="M9.41004,7.82158e-10h-8.85l2.08581e-08,-7.82158e-10c-0.314581,0.0117965 -0.560037,0.276378 -0.54824,0.590959c0.00270389,0.0721056 0.0190738,0.143042 0.0482402,0.209041l1.31,2.62v4.6Z" transform="translate(51.94, 52.2)"></path>
        <path fill="#614B44" d="M8.05,0h-8.05v4.63l-2.42355e-08,-2.09627e-06c0.0108019,0.934373 0.765625,1.6892 1.7,1.7h4.6l-8.96492e-08,-1.5699e-09c0.949784,0.0166323 1.73322,-0.739837 1.74985,-1.68962c6.05815e-05,-0.0034595 0.000110724,-0.00691917 0.000150427,-0.010379Z" transform="translate(53.3, 57.37)"></path>
        <path fill="#947063" d="M0,0v2.87l2.87,-2.87h-2.87Z" transform="translate(53.3, 57.38)"></path>
        <use fill="none" stroke="#191816" stroke-linecap="round" stroke-linejoin="round" stroke-width="1" transform="translate(51.94, 52.2)" xlink:href="#path-12"></use>
        <path fill="none" stroke="#191816" stroke-linecap="round" stroke-linejoin="round" stroke-width="1" d="M2.01072e-07,1.11049e-07l-2.01072e-07,7.10543e-15c2.54051,-1.11049e-07 4.6,2.05949 4.6,4.6c1.11049e-07,2.54051 -2.05949,4.6 -4.6,4.6" transform="translate(61.35, 52.2)"></path>
        <use fill="none" stroke="#191816" stroke-linecap="round" stroke-linejoin="round" stroke-width="1" transform="translate(55.6, 52.2)" xlink:href="#path-13"></use>
        <use fill="none" stroke="#191816" stroke-linecap="round" stroke-linejoin="round" stroke-width="1" transform="translate(59.05, 52.2)" xlink:href="#path-13"></use>
        <path fill="#DAEDF7" stroke="#191816" stroke-linecap="round" stroke-linejoin="round" stroke-width="1" d="M3.35655e-07,4.025l4.26326e-14,6.07758e-07c-3.35656e-07,-2.22295 1.80205,-4.025 4.025,-4.025c2.22295,-3.35656e-07 4.025,1.80205 4.025,4.025c0,0 0,0 0,0Z" transform="translate(53.3, 48.175)"></path>
        <path fill="none" stroke="#191816" stroke-linecap="round" stroke-linejoin="round" stroke-width="1" d="M0,2.3v-2.3" transform="translate(57.32, 45.87)"></path>
        <path fill="#191816" d="M1.15,1l-6.55672e-09,7.10543e-15c0.0828427,-3.62117e-09 0.15,0.0671573 0.15,0.15l3.57482e-09,4.80559e-08c0.00573587,0.0771068 -0.0521217,0.144264 -0.129229,0.15c-0.00691429,0.000514344 -0.0138572,0.000514342 -0.0207715,-7.14965e-09l-6.55671e-09,-7.10543e-15c-0.0828427,-3.62117e-09 -0.15,-0.0671573 -0.15,-0.15v-2.26494e-08c1.25089e-08,-0.0828427 0.0671573,-0.15 0.15,-0.15m0,-1h3.18484e-08c-0.635127,-4.79508e-08 -1.15,0.514872 -1.15,1.15c-4.79508e-08,0.635127 0.514872,1.15 1.15,1.15c3.56833e-08,0 7.40428e-08,0 1.09726e-07,0h4.70605e-09c0.635127,2.77623e-08 1.15,-0.514872 1.15,-1.15c2.77623e-08,-0.635127 -0.514872,-1.15 -1.15,-1.15c-3.56833e-08,0 -7.40428e-08,0 -1.09726e-07,0Z" transform="translate(56.17, 44.72)"></path>
        <path fill="#FFCEBF" stroke="#191816" stroke-linecap="round" stroke-linejoin="round" stroke-width="1" d="M6.88,2.03l1.45264e-08,1.64879e-06c0.00554638,0.62958 -0.500333,1.14445 -1.12991,1.15c-0.00669604,5.89897e-05 -0.0133925,5.898e-05 -0.0200885,-2.90553e-08h-3.73h-8.74228e-08c-1.10457,4.82823e-08 -2,0.895431 -2,2c4.82823e-08,1.10457 0.895431,2 2,2h3.73h-2.26425e-07c2.86084,1.25051e-07 5.18,-2.31916 5.18,-5.18v-2h-4Z" transform="translate(30.89, 63.72)"></path>
        <path fill="#656769" stroke="#191816" stroke-linecap="round" stroke-linejoin="round" stroke-width="1" d="M3.56543,0.30854l1.45077e-07,2.86869e-08c-1.56037,-0.30854 -3.07542,0.706267 -3.38396,2.26664c-0.0100603,0.0508778 -0.0187445,0.102018 -0.0260431,0.153365l6.18095e-08,-6.1892e-07c-0.155429,1.55637 0.910977,2.97099 2.45,3.25l12.82,2.53l0.89,-4.51l-3.16149e-09,1.69179e-08c0.116429,-0.623041 -0.288786,-1.22418 -0.91,-1.35Z" transform="translate(23.4346, 68.1015)"></path>
        <path fill="#947746" stroke="#191816" stroke-linecap="round" stroke-linejoin="round" stroke-width="1" d="M4.1516,1.38634l4.25414e-08,-2.15131e-07c0.123209,-0.623062 -0.282003,-1.22803 -0.905065,-1.35124c-0.1775,-0.0351 -0.360777,-0.0278218 -0.534935,0.021243l1.34568e-07,-4.21261e-08c-1.21687,0.380936 -2.12199,1.40545 -2.35,2.66l-0.11,0.56l-7.56478e-08,3.7064e-07c-0.251596,1.23271 0.193939,2.50402 1.16,3.31l-3.72395e-08,-2.95267e-08c0.493346,0.391167 1.21039,0.308335 1.60155,-0.185011c0.116533,-0.146973 0.195001,-0.320429 0.228447,-0.504989Z" transform="translate(35.6384, 70.6137)"></path>
        <path fill="#FFCEBF" stroke="#191816" stroke-linecap="round" stroke-linejoin="round" stroke-width="1" d="M16.3337,9.2l6.53575e-09,6.57807e-07c-0.0067047,-0.674828 -0.487443,-1.25171 -1.15,-1.38v-0.92v0c0,-3.81076 -3.08924,-6.9 -6.9,-6.9c-3.81076,0 -6.9,3.08924 -6.9,6.9v0.92l1.09257e-09,-5.40439e-11c-0.781483,0.0386598 -1.38366,0.703517 -1.345,1.485c0.0386598,0.781483 0.703517,1.38366 1.485,1.345l-1.47155e-07,-7.06431e-07c0.777128,3.73068 4.43143,6.12501 8.16212,5.34789c2.68784,-0.559897 4.78799,-2.66004 5.34789,-5.34789l-3.90562e-08,3.55885e-09c0.746343,-0.0680076 1.31357,-0.700687 1.3,-1.45Z" transform="translate(22.0163, 30.35)"></path>
        <path fill="none" stroke="#191816" stroke-linecap="round" stroke-linejoin="round" stroke-width="1" d="M0,1.01617e-07l1.53855e-07,1.01617e-07c1.0462,0.690991 2.4038,0.69099 3.45,-2.03235e-07" transform="translate(28.57, 42.48)"></path>
        <use fill="#00B8F0" transform="translate(23.97, 37.25)" xlink:href="#path-14"></use>
        <path fill="#4ACFFF" d="M4.47021,0.1l-7.06081e-08,-3.07909e-08c-0.148322,-0.0646805 -0.308194,-0.0986957 -0.47,-0.1h-2.88l3.11861e-08,-8.1382e-10c-0.623382,0.0162676 -1.12021,0.526406 -1.12,1.15v1.72l-1.12867e-08,3.14349e-05c-0.000156615,0.453455 0.266169,0.864668 0.680029,1.04998v0l3.82,-3.81Z" transform="translate(23.9998, 37.25)"></path>
        <use fill="#00B8F0" transform="translate(31.45, 37.25)" xlink:href="#path-14"></use>
        <path fill="#4ACFFF" d="M1.15016,0.00554727l-2.86174e-08,-2.5215e-10c-0.62958,-0.00554727 -1.14445,0.500331 -1.15,1.12991c-5.89992e-05,0.00669604 -5.8999e-05,0.0133925 5.04301e-10,0.0200885v1.72l-1.12867e-08,3.14349e-05c-0.000156615,0.453455 0.266169,0.864668 0.680029,1.04998v0l3.81,-3.81v0l-4.62263e-09,-1.91721e-09c-0.145772,-0.0604582 -0.302191,-0.0910619 -0.46,-0.09Z" transform="translate(31.4498, 37.2445)"></path>
        <path fill="none" stroke="#191816" stroke-linecap="round" stroke-linejoin="round" stroke-width="1" d="M0,0h2.3" transform="translate(29.15, 38.4)"></path>
        <use fill="none" stroke="#191816" stroke-linecap="round" stroke-linejoin="round" stroke-width="1" transform="translate(23.97, 37.25)" xlink:href="#path-14"></use>
        <use fill="none" stroke="#191816" stroke-linecap="round" stroke-linejoin="round" stroke-width="1" transform="translate(31.45, 37.25)" xlink:href="#path-14"></use>
        <path fill="none" stroke="#191816" stroke-linecap="round" stroke-linejoin="round" stroke-width="1" d="M0,0h20.7" transform="translate(19.95, 36.67)"></path>
        <use fill="#BDBEC0" transform="translate(22.78, 27.2261)" xlink:href="#path-15"></use>
        <path fill="#E0E0E0" d="M12.74,2.06392l9.63137e-08,4.5379e-07c-0.262581,-1.23717 -1.47837,-2.02724 -2.71555,-1.76466c-0.0215539,0.00457466 -0.0430406,0.00946016 -0.0644535,0.014655l-2.44411e-07,6.32637e-08c-1.13829,0.294637 -2.30504,0.465626 -3.48,0.51l-1.97316e-07,-7.54402e-09c-1.17819,-0.045046 -2.34818,-0.216019 -3.49,-0.51l1.03933e-07,2.66306e-08c-1.22515,-0.31392 -2.47282,0.424781 -2.78674,1.64993c-0.00850091,0.033177 -0.0162565,0.0665405 -0.0232608,0.100065l-0.18,1.09l2.52647e-08,-1.65099e-08c0.643666,-0.42062 1.43198,-0.558033 2.18,-0.38l-1.54735e-06,-4.06082e-07c1.4023,0.368017 2.8411,0.579309 4.29,0.63l-1.1558e-06,4.03457e-08c1.45219,-0.0506918 2.8943,-0.261978 4.3,-0.63l-1.62873e-07,3.928e-08c0.734575,-0.177156 1.50954,-0.0509988 2.15,0.35Z" transform="translate(23.82, 27.2261)"></path>
        <use fill="none" stroke="#191816" stroke-linecap="round" stroke-linejoin="round" stroke-width="1" transform="translate(22.78, 27.2261)" xlink:href="#path-15"></use>
    </g>
</svg>